<svg xmlns="http://www.w3.org/2000/svg" width="100" height="121" viewBox="0 0 100 121" fill="none"><path d="M49.9784 104.689C41.1033 104.689 32.5809 101.206 26.2509 94.9122C13.1625 81.8981 13.1625 60.7258 26.2509 47.7168C32.591 41.4127 41.0176 37.9399 49.9834 37.9399C58.9493 37.9399 67.3759 41.4127 73.716 47.7168C80.0914 54.0559 83.5789 62.4797 83.5487 71.4448C83.5487 72.1964 83.5185 72.9581 83.463 73.7098L78.2166 73.339C78.2619 72.7076 78.2871 72.0611 78.2871 71.4247C78.3174 63.8628 75.3741 56.757 69.9966 51.415C64.6493 46.0982 57.5432 43.1716 49.9834 43.1716C42.4237 43.1716 35.3125 46.0982 29.9703 51.415C18.9331 62.3895 18.9331 80.2444 29.9703 91.2189C35.8669 97.082 44.0213 100.054 52.3421 99.3671L52.7755 104.579C51.8381 104.654 50.9057 104.694 49.9784 104.694V104.689Z" fill="#7BAF42"></path><path d="M83.473 69.9259H56.0664V75.1526H83.473V69.9259Z" fill="#7BAF42"></path><path d="M84.481 35.3438C64.5334 16.4316 32.8278 17.1832 13.8075 37.0175C5.16926 46.0276 0.341104 57.7087 0.0185547 69.926H5.28013C5.60772 59.0467 9.92181 48.6535 17.6176 40.6256C25.8628 32.0264 36.9807 27.1355 48.925 26.8548C60.8694 26.5742 72.2091 30.9289 80.8574 39.1272C98.7085 56.05 99.3838 84.258 82.3643 102.008C65.3448 119.757 36.9756 120.429 19.1245 103.506C14.2057 98.8456 10.5115 93.2982 8.13268 87.0292L3.21381 88.8733C5.86979 95.889 10.0025 102.083 15.4959 107.294C25.1572 116.455 37.5754 121 49.9784 121C63.1777 121 76.3619 115.844 86.1694 105.616C105.19 85.7814 104.434 54.256 84.4861 35.3438H84.481Z" fill="#7BAF42"></path><path d="M5.42595 75.1526H44.7669V69.9259H5.27476C5.22436 71.6598 5.27476 73.4037 5.42595 75.1526Z" fill="#7BAF42"></path><path d="M0.148863 75.1526H5.4306C5.27941 73.4037 5.22901 71.6598 5.27941 69.9259H0.0178273C-0.0275312 71.6598 0.0127874 73.4037 0.148863 75.1526Z" fill="#7BAF42"></path><path d="M52.6142 51.9669L47.3594 52.0991L48.6976 104.665L53.9524 104.532L52.6142 51.9669Z" fill="#7BAF42"></path><path d="M53.9548 104.604H48.6982V91.0735C48.6982 84.2082 54.3177 78.6207 61.2222 78.6207C68.1268 78.6207 73.7462 84.2082 73.7462 91.0735V103.907H68.4896V91.0735C68.4896 87.0896 65.2289 83.8524 61.2273 83.8524C57.2256 83.8524 53.9649 87.0947 53.9649 91.0735V104.604H53.9548Z" fill="#7BAF42"></path><path d="M53.9496 23.3572H49.6154C39.0519 23.3572 30.459 14.8131 30.459 4.30962V0H34.7932C45.3567 0 53.9496 8.54408 53.9496 19.0475V23.3572ZM35.7508 5.26175C36.2195 12.1271 41.7583 17.6294 48.6628 18.1004C48.1941 11.2351 42.6554 5.7328 35.7508 5.26175Z" fill="#7BAF42"></path><path d="M55.9309 23.3572H49.5605V17.0281C49.5605 9.58148 55.6537 3.52295 63.1429 3.52295H69.5082V9.85208C69.5082 17.2987 63.415 23.3572 55.9259 23.3572H55.9309ZM54.8221 18.1306H55.9309C60.5222 18.1306 64.2567 14.4173 64.2567 9.85208V8.74962H63.1479C58.5566 8.74962 54.8221 12.4629 54.8221 17.0281V18.1306Z" fill="#7BAF42"></path></svg>