<svg xmlns="http://www.w3.org/2000/svg" width="108" height="108" viewBox="0 0 108 108" fill="none"><circle cx="54" cy="54" r="54" fill="#F8F8F8"></circle><path d="M71.4568 39.7564H71.3793L65.0133 39.0662C64.6411 39.0003 64.3929 38.6474 64.4588 38.2751C64.517 37.9378 64.8194 37.6974 65.1606 37.709L70.8287 38.3217L71.4607 32.6332C71.4762 32.2571 71.798 31.9624 72.174 31.9817C72.5501 32.0011 72.8448 32.3191 72.8254 32.6952C72.8254 32.7262 72.8215 32.7534 72.8176 32.7844L72.1353 39.1515C72.1159 39.3299 72.0228 39.4966 71.8833 39.6091C71.7631 39.706 71.6119 39.7603 71.4607 39.7564H71.4568Z" fill="#1A3F35"></path><path d="M54.0221 66.4269C53.9174 66.4269 53.8166 66.4036 53.7236 66.3609L41.1195 60.2963C40.883 60.18 40.7357 59.9396 40.7318 59.6798V46.108C40.7318 45.7319 41.0342 45.4217 41.4142 45.4217C41.5188 45.4217 41.6196 45.445 41.7127 45.4915L54.3167 51.5561C54.5532 51.6724 54.7006 51.9129 54.7044 52.1727V65.7444C54.7044 65.9809 54.5843 66.1981 54.3865 66.3222C54.278 66.392 54.15 66.4269 54.0221 66.4269ZM42.1004 59.261L53.3398 64.6742V52.607L42.1004 47.1938V59.261Z" fill="#173E33"></path><path d="M54.0221 52.8474C53.9252 52.8551 53.8321 52.8396 53.7391 52.8086L41.135 46.744C40.7938 46.585 40.6504 46.1817 40.8055 45.8443C40.8714 45.7009 40.9877 45.5845 41.135 45.5147L53.7391 39.423C53.9252 39.3338 54.1423 39.3338 54.3284 39.423L66.9324 45.4876C67.1689 45.6039 67.3201 45.8405 67.3201 46.1041C67.3201 46.3639 67.1689 46.6044 66.9324 46.7168L54.2896 52.8086C54.2043 52.8396 54.1113 52.8512 54.0182 52.8474H54.0221ZM42.9999 46.1003L54.0221 51.4087L65.0444 46.1119L54.0221 40.7957L42.9999 46.1003Z" fill="#173E33"></path><path d="M54.0221 66.4269C53.8941 66.4269 53.7662 66.392 53.6576 66.3222C53.4599 66.1981 53.3397 65.9771 53.3397 65.7444V52.1765C53.3397 51.9129 53.487 51.6725 53.7274 51.56L66.3315 45.4954C66.6727 45.3325 67.0797 45.4721 67.2426 45.8133C67.2891 45.9064 67.3124 46.0111 67.3124 46.1119V59.672C67.3124 59.9357 67.165 60.1761 66.9247 60.2886L54.2896 66.3571C54.2043 66.3958 54.1112 66.4191 54.0182 66.423L54.0221 66.4269ZM54.7044 52.607V64.6587L65.9438 59.2455V47.1938L54.7044 52.607Z" fill="#173E33"></path><path d="M47.7142 49.8189C47.3381 49.8189 47.0357 49.5049 47.0396 49.1287C47.0396 48.8728 47.1869 48.6363 47.4195 48.5238L60.0314 42.4592C60.3725 42.2963 60.7757 42.4398 60.9424 42.7772C61.1053 43.1145 60.9657 43.5178 60.6284 43.6845C60.6284 43.6845 60.6245 43.6845 60.6206 43.6845L48.0166 49.7492C47.9235 49.7918 47.8227 49.8151 47.7181 49.8151L47.7142 49.8189Z" fill="#173E33"></path><path d="M49.4085 55.7711C49.3038 55.7711 49.203 55.7479 49.1099 55.7052L45.388 53.9137C45.0507 53.7548 44.9034 53.3476 45.0662 53.0103C45.0662 53.0103 45.0662 53.0064 45.0662 53.0025C45.2291 52.6651 45.6361 52.5217 45.9773 52.6845L49.6992 54.4644C50.0365 54.6311 50.1761 55.0421 50.0055 55.3795C49.8931 55.6083 49.6605 55.7556 49.4046 55.7595V55.7711H49.4085Z" fill="#173E33"></path><path d="M33.3151 62.0335C33.0437 62.0373 32.7917 61.8784 32.6832 61.6302C27.9223 49.8499 33.6059 36.4411 45.3842 31.6793C54.7897 27.8753 65.5755 30.6828 71.9337 38.5931C72.1935 38.8685 72.178 39.3027 71.9027 39.5587C71.6274 39.8185 71.1932 39.803 70.9373 39.5277C70.9141 39.5044 70.8947 39.4811 70.8753 39.454C63.3733 30.1515 49.7535 28.6935 40.4526 36.1929C33.0554 42.1606 30.4151 52.2579 33.9509 61.0796C34.0905 61.4286 33.9199 61.8279 33.571 61.9675C33.4896 61.9986 33.4043 62.018 33.319 62.018V62.0335H33.3151Z" fill="#1A3F35"></path><path d="M54.0492 76.0124C47.0784 76.0279 40.4759 72.8793 36.1027 67.4506C35.8662 67.1442 35.9205 66.7061 36.2229 66.4695C36.5253 66.233 36.9673 66.2873 37.2038 66.5897C44.7367 75.8651 58.3643 77.2765 67.6381 69.7423C75.0431 63.7242 77.6329 53.5686 74.0157 44.7392C73.8606 44.3941 74.0157 43.9909 74.3646 43.8358C74.7097 43.6807 75.1129 43.8358 75.268 44.1847C75.2718 44.1964 75.2757 44.2041 75.2796 44.2158C79.1333 53.6539 76.3651 64.5036 68.4561 70.9366C64.3775 74.2287 59.2948 76.0202 54.0531 76.0124H54.0492Z" fill="#1A3F35"></path><path d="M35.9088 74.0193H35.8313C35.4591 73.9805 35.1877 73.6432 35.2265 73.2709L35.9166 66.9038C35.9321 66.7254 36.0251 66.5587 36.1647 66.4463C36.3043 66.3338 36.4865 66.2795 36.6648 66.2989L43.0308 66.9814C43.403 67.0473 43.6511 67.404 43.5852 67.7763C43.5271 68.1098 43.2285 68.3502 42.8874 68.3385L37.2037 67.7259L36.5795 73.4144C36.5446 73.7595 36.2539 74.0193 35.9088 74.0193Z" fill="black"></path></svg>