<svg xmlns="http://www.w3.org/2000/svg" width="108" height="108" viewBox="0 0 108 108" fill="none"><circle cx="54" cy="54" r="54" fill="#F8F8F8"></circle><path d="M54.0238 64.8853C60.0763 64.8773 64.9703 59.9625 64.9623 53.9129C64.9623 52.2307 64.5708 50.5684 63.8237 49.062C63.632 48.6744 63.1605 48.5146 62.773 48.7104C62.3855 48.9022 62.2257 49.3737 62.4214 49.7613C64.7266 54.4084 62.825 60.0424 58.1787 62.348C53.5324 64.6535 47.8993 62.7515 45.5941 58.1044C43.289 53.4574 45.1906 47.8233 49.8369 45.5178C52.3179 44.2871 55.2183 44.2152 57.7552 45.322C58.1507 45.4938 58.6141 45.314 58.7859 44.9144C58.9577 44.5148 58.7779 44.0553 58.3784 43.8835C52.8292 41.4661 46.3732 44.0074 43.9601 49.5575C41.5471 55.1076 44.084 61.5648 49.6332 63.9782C51.0195 64.5816 52.5136 64.8933 54.0238 64.8893V64.8853Z" fill="#173E33"></path><path d="M54.0038 60.2061C54.4353 60.2061 54.7868 59.8545 54.7868 59.423V58.6838H54.8947C56.4248 58.6838 57.6633 57.4451 57.6633 55.9147C57.6633 54.3843 56.4248 53.1456 54.8947 53.1456H53.1129C52.4497 53.1416 51.9144 52.5942 51.9184 51.9309C51.9224 51.2756 52.4537 50.7442 53.1129 50.7362H55.9854C56.4168 50.7402 56.7724 50.3925 56.7764 49.961C56.7804 49.5294 56.4328 49.1738 56.0013 49.1698C55.9974 49.1698 55.9894 49.1698 55.9854 49.1698H54.7868V48.4306C54.7828 47.9991 54.4273 47.6514 53.9958 47.6554C53.5683 47.6594 53.2247 48.0031 53.2208 48.4306V49.1698H53.1129C51.5828 49.1778 50.3523 50.4285 50.3603 51.9549C50.3683 53.4733 51.5988 54.7 53.1129 54.708H54.8947C55.5579 54.708 56.0972 55.2474 56.0972 55.9147C56.0972 56.578 55.5579 57.1174 54.8947 57.1174H52.0102C51.5788 57.1214 51.2312 57.477 51.2352 57.9086C51.2392 58.3361 51.5828 58.6798 52.0102 58.6838H53.2208V59.423C53.2208 59.8545 53.5723 60.2061 54.0038 60.2061Z" fill="#173E33"></path><path d="M78.5215 48.994C78.4376 48.5705 78.0221 48.2948 77.5986 48.3827C77.1751 48.4706 76.8995 48.8821 76.9874 49.3057C79.0449 59.5429 73.9751 70.0118 64.6585 74.7587C55.9452 79.198 45.2783 77.7116 38.1111 71.0627C37.7756 70.779 37.2802 70.787 36.9526 71.0826L34.987 73.0486C34.987 73.0486 34.939 73.0685 34.9191 73.0486C34.9111 73.0406 34.9071 73.0286 34.9071 73.0206L34.0881 64.2659C34.0881 64.2379 34.1041 64.2139 34.132 64.2139C34.132 64.2139 34.136 64.2139 34.14 64.2139L42.8933 65.033C42.9212 65.033 42.9372 65.061 42.9372 65.085C42.9372 65.097 42.9292 65.105 42.9252 65.113L41.0515 66.987C41.0116 67.0149 40.9756 67.0469 40.9437 67.0829C40.644 67.3985 40.656 67.898 40.9716 68.1977C41.0236 68.2456 41.0795 68.2896 41.1434 68.3216C46.0774 72.7289 52.9169 74.3112 59.2851 72.5171C59.7006 72.4012 59.9443 71.9657 59.8245 71.5501C59.7046 71.1346 59.2731 70.8908 58.8577 71.0107C53.2645 72.597 47.1401 71.2744 42.6735 67.5744L44.0279 66.2198C44.6591 65.5885 44.6591 64.5695 44.0279 63.9382C43.7602 63.6705 43.4126 63.5067 43.0371 63.4707L34.2838 62.6516C33.3969 62.5677 32.6099 63.219 32.526 64.11C32.518 64.2099 32.518 64.3098 32.526 64.4097L33.345 73.1644C33.4009 73.7878 33.8124 74.3232 34.4037 74.531C34.5795 74.5949 34.7673 74.6269 34.955 74.6269C35.3825 74.6269 35.79 74.4551 36.0896 74.1514L37.5638 72.677C47.9391 81.7673 63.7157 80.7284 72.8085 70.3514C77.9302 64.5056 80.0396 56.61 78.5135 48.99L78.5215 48.994Z" fill="#173E33"></path><path d="M63.8476 70.4313C63.9954 70.4313 64.1352 70.3914 64.2591 70.3115C65.3617 69.6282 66.3925 68.833 67.3313 67.942C67.6469 67.6463 67.6589 67.1508 67.3633 66.8351C67.0676 66.5195 66.5722 66.5075 66.2566 66.8032C65.3897 67.6223 64.4429 68.3535 63.4321 68.9809C63.0646 69.2086 62.9527 69.6921 63.1804 70.0597C63.3242 70.2915 63.5759 70.4313 63.8476 70.4313Z" fill="#173E33"></path><path d="M69.8122 62.0802C69.6724 62.3559 69.5206 62.6316 69.3608 62.8993C69.141 63.2709 69.2689 63.7504 69.6404 63.9702C70.012 64.19 70.4914 64.0621 70.7111 63.6905C70.8829 63.3988 71.0467 63.0991 71.2025 62.7994C71.4023 62.4158 71.2544 61.9443 70.8709 61.7446C70.4874 61.5448 70.016 61.6926 69.8162 62.0762C69.8162 62.0762 69.8162 62.0762 69.8162 62.0802H69.8122Z" fill="#173E33"></path><path d="M43.3568 33.1069C52.0701 28.6676 62.737 30.154 69.9042 36.803C70.2398 37.0907 70.7352 37.0907 71.0707 36.803L73.0363 34.837C73.0363 34.837 73.0843 34.8171 73.1043 34.837C73.1123 34.845 73.1162 34.857 73.1162 34.865L73.9352 43.6197C73.9352 43.6477 73.9193 43.6717 73.8913 43.6717C73.8913 43.6717 73.8873 43.6717 73.8833 43.6717L65.1301 42.8526C65.1021 42.8526 65.0861 42.8246 65.0861 42.8006C65.0861 42.7886 65.0941 42.7806 65.0981 42.7726L67.0637 40.8067C67.3713 40.503 67.3713 40.0076 67.0637 39.7039C67.0197 39.6599 66.9678 39.62 66.9119 39.584C61.9779 35.1487 55.1144 33.5504 48.7262 35.3485C48.3107 35.4644 48.067 35.8999 48.1869 36.3155C48.3027 36.731 48.7382 36.9748 49.1537 36.8549C54.7548 35.2686 60.8833 36.5912 65.3498 40.3033L63.9875 41.6658C63.3562 42.2971 63.3562 43.3161 63.9875 43.9474C64.2551 44.2151 64.6027 44.3789 64.9782 44.4149L73.7315 45.234C73.7834 45.238 73.8314 45.242 73.8833 45.242C74.7742 45.242 75.4973 44.5188 75.4933 43.6277C75.4933 43.5798 75.4933 43.5278 75.4853 43.4799L74.6663 34.7252C74.5824 33.8381 73.7954 33.1868 72.9085 33.2667C72.533 33.3027 72.1854 33.4665 71.9177 33.7342L70.4475 35.2047C60.0803 26.1063 44.2996 27.1332 35.2028 37.5022C30.0731 43.348 27.9597 51.2517 29.4859 58.8756C29.5737 59.2991 29.9892 59.5709 30.4127 59.483C30.8322 59.395 31.0999 58.9875 31.02 58.5679C28.9625 48.3308 34.0323 37.8618 43.3488 33.1149L43.3568 33.1069Z" fill="#173E33"></path><path d="M44.8311 37.7979C44.6034 37.4303 44.12 37.3184 43.7524 37.5461C42.6498 38.2294 41.619 39.0246 40.6802 39.9156C40.3606 40.2073 40.3406 40.7028 40.6362 41.0225C40.9319 41.3421 41.4233 41.3621 41.7429 41.0664C41.7469 41.0624 41.7509 41.0584 41.7589 41.0544C42.6258 40.2353 43.5726 39.5041 44.5834 38.8767C44.9509 38.649 45.0628 38.1655 44.8351 37.7979H44.8311Z" fill="#173E33"></path><path d="M37.3002 44.1711C37.1284 44.4628 36.9646 44.7625 36.8088 45.0622C36.609 45.4458 36.7609 45.9173 37.1444 46.1171C37.5279 46.3169 37.9993 46.165 38.1991 45.7814C38.3429 45.5057 38.4947 45.23 38.6505 44.9623C38.8703 44.5907 38.7424 44.1112 38.3709 43.8914C37.9993 43.6717 37.5199 43.7995 37.3002 44.1711Z" fill="#173E33"></path></svg>