<svg xmlns="http://www.w3.org/2000/svg" width="108" height="108" viewBox="0 0 108 108" fill="none"><circle cx="54" cy="54" r="54" fill="#F8F8F8"></circle><path d="M53.9707 29C53.1808 29 52.3944 29.0421 51.6115 29.1264C50.8919 29.2001 50.1827 29.3195 49.4841 29.467C49.3472 29.495 49.2138 29.5266 49.0769 29.5582C44.9519 30.4992 41.1814 32.6093 38.2255 35.6357C37.9516 35.9166 37.418 36.5064 37.418 36.5064C29.4278 45.6806 30.3862 59.591 39.5595 67.582C48.3396 75.2324 61.5572 74.7233 69.7265 66.4198C70.0003 66.139 70.2706 65.8476 70.5339 65.5491C74.0586 61.5326 76.0035 56.3715 76 51.0278C75.993 38.8623 66.1316 29 53.9707 29ZM39.2014 36.7347C39.3173 36.6153 39.4366 36.4994 39.556 36.3836C39.6929 36.2501 39.8298 36.1132 39.9667 35.9833C40.0896 35.8674 40.216 35.7586 40.3424 35.6463C40.4828 35.5199 40.6267 35.3935 40.7707 35.2741C40.8971 35.1653 41.0305 35.0634 41.1603 34.9581C41.3078 34.8422 41.4553 34.7229 41.6062 34.6105C41.7396 34.5087 41.8765 34.4139 42.0135 34.3156C42.1644 34.2068 42.3189 34.0944 42.4733 33.9926C42.6138 33.8978 42.7507 33.8065 42.8946 33.7187C43.0526 33.6169 43.2106 33.5186 43.3686 33.4238C43.5125 33.3396 43.6564 33.2553 43.8004 33.171C43.9619 33.0797 44.1269 32.9885 44.2883 32.9007C44.4358 32.8234 44.5832 32.7462 44.7272 32.6725C44.8957 32.5882 45.0642 32.5075 45.2327 32.4267C45.3801 32.3565 45.5311 32.2863 45.6821 32.2196C45.8541 32.1458 46.0296 32.0721 46.2051 31.9984C46.3561 31.9352 46.5071 31.8755 46.6615 31.8158C46.8406 31.7491 47.0196 31.6859 47.1986 31.6227C47.3531 31.57 47.5041 31.5138 47.6621 31.4647C47.8446 31.405 48.0307 31.3523 48.2132 31.2997C48.3677 31.254 48.5222 31.2084 48.6767 31.1663C48.7363 31.1522 48.796 31.1382 48.8557 31.1241C46.6826 33.2342 45.0712 35.8534 44.1655 38.7429C42.4242 38.283 40.7356 37.6335 39.1347 36.8084C39.1593 36.7838 39.1804 36.7557 39.2014 36.7347ZM38.1447 37.9178C39.9071 38.8728 41.7782 39.6172 43.7161 40.1368C42.7647 43.4406 42.2662 46.8568 42.2346 50.294H33.4334C33.5949 45.7613 35.2519 41.4077 38.1482 37.9178H38.1447ZM38.1447 64.1377C35.2484 60.6478 33.5914 56.2942 33.4299 51.7616H42.2311C42.2662 55.1988 42.7647 58.615 43.7126 61.9188C41.7747 62.4349 39.9035 63.1792 38.1412 64.1377H38.1447ZM48.6731 70.8893C48.5257 70.8507 48.3712 70.805 48.2203 70.7594C48.0342 70.7067 47.8481 70.6506 47.6656 70.5909C47.5111 70.5417 47.3566 70.4891 47.2057 70.4329C47.0266 70.3697 46.8441 70.3065 46.6651 70.2398C46.5141 70.1801 46.3631 70.1204 46.2122 70.0607C46.0366 69.987 45.8611 69.9133 45.6856 69.8395C45.5346 69.7728 45.3872 69.7061 45.2397 69.6359C45.0677 69.5551 44.8992 69.4744 44.7272 69.3866C44.5797 69.3129 44.4323 69.2392 44.2883 69.1584C44.1233 69.0706 43.9583 68.9793 43.7933 68.8845C43.6459 68.8038 43.5055 68.7195 43.365 68.6353C43.2036 68.537 43.0456 68.4387 42.8876 68.3368C42.7472 68.2491 42.6102 68.1578 42.4698 68.0665C42.3118 67.9612 42.1574 67.8523 42.0064 67.74C41.873 67.6452 41.7361 67.5469 41.6062 67.445C41.4553 67.3292 41.3043 67.2133 41.1568 67.094C41.0269 66.9921 40.8971 66.8868 40.7707 66.7815C40.6232 66.6586 40.4828 66.5322 40.3389 66.4058C40.2125 66.2935 40.0896 66.1846 39.9667 66.0723C39.8263 65.9424 39.6894 65.8054 39.5525 65.672C39.4331 65.5561 39.3138 65.4403 39.1979 65.3209C39.1768 65.2999 39.1558 65.2753 39.1347 65.2542C40.7356 64.4256 42.4242 63.7761 44.1655 63.3162C45.0712 66.2057 46.6861 68.8249 48.8557 70.9349C48.796 70.9209 48.7363 70.9069 48.6767 70.8893H48.6731ZM53.237 71.5283C50.095 71.0824 47.3426 67.8032 45.6084 62.9615C48.115 62.3998 50.6707 62.1014 53.237 62.0627V71.5283ZM53.237 60.5952C50.5127 60.6303 47.8025 60.9533 45.1484 61.5607C44.2251 58.3762 43.7407 55.0794 43.7021 51.7651H53.237V60.5952ZM53.237 50.294H43.7021C43.7407 46.9796 44.2251 43.6828 45.1484 40.4984C47.8025 41.1023 50.5162 41.4288 53.237 41.4639V50.294ZM53.237 39.9928C50.6707 39.9577 48.115 39.6558 45.6084 39.094C47.3426 34.2524 50.095 30.9732 53.237 30.5273V39.9928ZM69.7967 37.9178C72.693 41.4077 74.35 45.7613 74.5115 50.294H65.7103C65.6752 46.8568 65.1767 43.4406 64.2288 40.1368C66.1667 39.6207 68.0378 38.8763 69.8002 37.9178H69.7967ZM59.2613 31.1663C59.4157 31.2049 59.5702 31.254 59.7211 31.2962C59.9072 31.3488 60.0932 31.405 60.2758 31.4647C60.4303 31.5138 60.5848 31.5665 60.7357 31.6227C60.9148 31.6859 61.0973 31.7491 61.2764 31.8158C61.4273 31.8755 61.5783 31.9352 61.7292 31.9949C61.9047 32.0686 62.0803 32.1423 62.2558 32.216C62.4068 32.2828 62.5542 32.3495 62.7017 32.4197C62.8737 32.5004 63.0422 32.5812 63.2143 32.669C63.3617 32.7427 63.5091 32.8164 63.6531 32.8972C63.8181 32.9849 63.9831 33.0762 64.1481 33.171C64.2955 33.2518 64.4359 33.336 64.5763 33.4203C64.7378 33.5186 64.8958 33.6169 65.0538 33.7187C65.1943 33.8065 65.3311 33.8978 65.4716 33.9891C65.6296 34.0944 65.7805 34.2032 65.935 34.3156C66.0684 34.4104 66.2053 34.5087 66.3387 34.6105C66.4897 34.7229 66.6371 34.8422 66.7881 34.9616C66.918 35.0634 67.0478 35.1688 67.1742 35.2741C67.3217 35.397 67.4621 35.5234 67.606 35.6498C67.7324 35.7621 67.8553 35.871 67.9782 35.9833C68.1186 36.1132 68.2555 36.2501 68.3925 36.3836C68.5118 36.4994 68.6311 36.6153 68.747 36.7347C68.7681 36.7557 68.7891 36.7803 68.8102 36.8014C67.2093 37.6299 65.5207 38.2795 63.7795 38.7394C62.8702 35.8499 61.2553 33.2307 59.0822 31.1206C59.1419 31.1347 59.2016 31.1487 59.2613 31.1663ZM54.7044 30.5273C57.8464 30.9732 60.5988 34.2524 62.3331 39.094C59.8265 39.6558 57.2707 39.9542 54.7044 39.9928V30.5273ZM54.7044 41.4604C57.4287 41.4253 60.1389 41.1023 62.7929 40.4949C63.7162 43.6793 64.2007 46.9761 64.2393 50.2905H54.7044V41.4604ZM54.7044 51.7616H64.2393C64.2007 55.0759 63.7162 58.3727 62.7929 61.5572C60.1389 60.9533 57.4287 60.6268 54.7044 60.5917V51.7616ZM54.7044 71.5283V62.0627C57.2707 62.0979 59.8265 62.3998 62.3331 62.9615C60.5988 67.8032 57.8464 71.0824 54.7044 71.5283ZM68.74 65.3209C68.6242 65.4403 68.5048 65.5561 68.3854 65.672C68.2485 65.8054 68.1116 65.9424 67.9712 66.0723C67.8483 66.1846 67.7254 66.2935 67.599 66.4058C67.4551 66.5322 67.3147 66.6586 67.1707 66.7815C67.0408 66.8903 66.9109 66.9921 66.781 67.0975C66.6336 67.2133 66.4861 67.3327 66.3352 67.445C66.2018 67.5469 66.0649 67.6417 65.928 67.74C65.777 67.8488 65.6225 67.9612 65.4681 68.063C65.3276 68.1578 65.1907 68.2491 65.0468 68.3368C64.8888 68.4387 64.7309 68.537 64.5729 68.6318C64.4254 68.716 64.285 68.8003 64.141 68.8845C63.9795 68.9758 63.8146 69.0671 63.6496 69.1549C63.5021 69.2321 63.3547 69.3094 63.2107 69.3831C63.0422 69.4674 62.8737 69.5481 62.7052 69.6289C62.5577 69.6991 62.4068 69.7693 62.2558 69.836C62.0838 69.9097 61.9083 69.9835 61.7327 70.0572C61.5818 70.1204 61.4308 70.1801 61.2764 70.2398C61.0973 70.3065 60.9183 70.3732 60.7357 70.4329C60.5848 70.4855 60.4303 70.5417 60.2758 70.5909C60.0932 70.6506 59.9072 70.7032 59.7211 70.7594C59.5667 70.805 59.4122 70.8507 59.2577 70.8928C59.1981 70.9069 59.1384 70.9209 59.0787 70.9349C61.2518 68.8249 62.8632 66.2057 63.7689 63.3162C65.5102 63.7761 67.1988 64.4256 68.7997 65.2507C68.7751 65.2788 68.754 65.3034 68.733 65.3244L68.74 65.3209ZM69.7967 64.1377C68.0344 63.1827 66.1632 62.4384 64.2253 61.9188C65.1767 58.615 65.6752 55.1988 65.7068 51.7616H74.508C74.3465 56.2942 72.6895 60.6478 69.7932 64.1377H69.7967Z" fill="#173E33"></path></svg>