<svg xmlns="http://www.w3.org/2000/svg" width="48" height="48" viewBox="0 0 48 48" fill="none"><path d="M21.1558 21.3933C21.0903 21.7449 21.0574 22.1017 21.0576 22.4594C21.0576 25.6494 23.6436 28.2354 26.8336 28.2354C27.8187 28.2366 28.7875 27.9846 29.6472 27.5036M28.586 16.954C28.0193 16.7741 27.4282 16.6828 26.8336 16.6834C25.8367 16.6834 24.8987 16.9359 24.0804 17.3805M31.8381 25.3418C32.3446 24.4657 32.6107 23.4714 32.6096 22.4594C32.6096 20.8669 31.9651 19.4248 30.9226 18.3799" stroke="#173E33" stroke-miterlimit="10" stroke-linecap="round" stroke-linejoin="round"></path><path d="M17.2454 10.4312L16.1666 7.46743C15.9398 6.844 15.2504 6.52253 14.627 6.7495L9.49979 8.61559M6.61932 9.664L4.53667 10.4221C1.51426 11.5221 -0.0441431 14.864 1.05592 17.8865C2.15598 20.9089 5.49798 22.4673 8.52039 21.3673L13.5684 19.53M26.8735 25.0344H25.3347V19.8843H26.8735C27.8909 19.8843 28.7157 20.7091 28.7157 21.7265V23.1922C28.7157 24.2096 27.8909 25.0344 26.8735 25.0344ZM29.3893 17.7707L39.4796 21.4433C42.502 22.5434 45.844 20.985 46.9441 17.9626C48.0442 14.9402 46.4858 11.5982 43.4634 10.4981L33.373 6.82553C32.7496 6.59865 32.0603 6.92003 31.8334 7.54346L28.6714 16.2311C28.4444 16.8544 28.7659 17.5438 29.3893 17.7707Z" stroke="#173E33" stroke-miterlimit="10" stroke-linecap="round" stroke-linejoin="round"></path><path d="M18.4113 21.9833C21.6013 21.9833 24.1873 19.3973 24.1873 16.2073C24.1873 13.0173 21.6013 10.4313 18.4113 10.4313C15.2213 10.4313 12.6353 13.0173 12.6353 16.2073C12.6353 19.3973 15.2213 21.9833 18.4113 21.9833Z" stroke="#173E33" stroke-miterlimit="10" stroke-linecap="round" stroke-linejoin="round"></path><path d="M20.1209 17.9167C19.1768 18.8607 17.6462 18.8607 16.7022 17.9167C15.7581 16.9726 15.7581 15.442 16.7022 14.498C17.6462 13.5539 19.1768 13.5539 20.1209 14.498" stroke="#173E33" stroke-miterlimit="10" stroke-linecap="round" stroke-linejoin="round"></path><path d="M15.9938 37.6362C19.1838 37.6362 21.7698 35.0502 21.7698 31.8602C21.7698 28.6702 19.1838 26.0842 15.9938 26.0842C12.8038 26.0842 10.2178 28.6702 10.2178 31.8602C10.2178 35.0502 12.8038 37.6362 15.9938 37.6362Z" stroke="#173E33" stroke-miterlimit="10" stroke-linecap="round" stroke-linejoin="round"></path><path d="M14.4951 31.6958H16.2877C16.9534 31.6958 17.4931 31.1562 17.4931 30.4905C17.4931 29.8248 16.9534 29.2852 16.2877 29.2852H14.4951V31.6958ZM14.4951 31.6958V34.4351H16.5065C17.2629 34.4351 17.8761 33.8219 17.8762 33.0655C17.8762 32.3091 17.263 31.6958 16.5065 31.6958H14.4951ZM25.23 39.7426C25.8656 42.242 28.1306 44.0908 30.8278 44.0908C34.0178 44.0908 36.6038 41.5048 36.6038 38.3148C36.6038 35.1248 34.0178 32.5387 30.8278 32.5387C28.2113 32.5387 26.0025 34.2789 25.2923 36.6647" stroke="#173E33" stroke-miterlimit="10" stroke-linecap="round" stroke-linejoin="round"></path><path d="M28.7658 40.2726L30.3216 36.0915C30.36 35.9883 30.429 35.8992 30.5195 35.8364C30.61 35.7735 30.7175 35.7398 30.8276 35.7398C30.9378 35.7398 31.0453 35.7735 31.1357 35.8364C31.2262 35.8992 31.2953 35.9883 31.3337 36.0915L32.8895 40.2726M29.4894 39.2492H32.1658M41.11 27.1025H39.9385V25.931C39.9385 25.6962 39.8453 25.471 39.6792 25.305C39.5132 25.1389 39.288 25.0457 39.0532 25.0457H37.9594C37.7246 25.0457 37.4994 25.1389 37.3334 25.305C37.1674 25.471 37.0741 25.6962 37.0741 25.931V27.1025H35.9026C35.6678 27.1025 35.4426 27.1957 35.2766 27.3618C35.1106 27.5278 35.0173 27.7529 35.0173 27.9877V29.0817C35.0173 29.3165 35.1106 29.5417 35.2766 29.7077C35.4426 29.8737 35.6678 29.967 35.9026 29.967H37.0741V31.1385C37.0741 31.3733 37.1674 31.5985 37.3334 31.7645C37.4994 31.9305 37.7246 32.0238 37.9594 32.0238H39.0533C39.2881 32.0238 39.5133 31.9305 39.6793 31.7645C39.8454 31.5985 39.9386 31.3733 39.9386 31.1385V29.967H41.1101C41.3449 29.967 41.5701 29.8737 41.7361 29.7077C41.9021 29.5417 41.9954 29.3165 41.9954 29.0817V27.9877C41.9952 27.4988 41.5989 27.1025 41.11 27.1025ZM28.083 4.65749H26.9115V3.48599C26.9115 3.2512 26.8182 3.02602 26.6522 2.86C26.4862 2.69398 26.261 2.60071 26.0262 2.60071H24.9322C24.6975 2.60071 24.4723 2.69398 24.3063 2.86C24.1402 3.02602 24.047 3.2512 24.047 3.48599V4.65749H22.8755C22.6407 4.65749 22.4155 4.75076 22.2495 4.91678C22.0835 5.0828 21.9902 5.30798 21.9902 5.54277V6.63674C21.9902 6.87153 22.0835 7.09671 22.2495 7.26273C22.4155 7.42875 22.6407 7.52202 22.8755 7.52202H24.047V8.69343C24.047 8.92822 24.1402 9.15339 24.3063 9.31942C24.4723 9.48544 24.6975 9.57871 24.9322 9.57871H26.0262C26.261 9.57871 26.4862 9.48544 26.6522 9.31942C26.8182 9.15339 26.9115 8.92822 26.9115 8.69343V7.52193H28.083C28.3178 7.52193 28.543 7.42866 28.709 7.26263C28.875 7.09661 28.9683 6.87144 28.9683 6.63665V5.54277C28.9683 5.30798 28.875 5.0828 28.709 4.91678C28.543 4.75076 28.3178 4.65749 28.083 4.65749ZM10.9159 40.4781H9.74437V39.3066C9.74437 39.0718 9.6511 38.8466 9.48507 38.6806C9.31905 38.5145 9.09388 38.4213 8.85909 38.4213H7.76521C7.53042 38.4213 7.30525 38.5145 7.13922 38.6806C6.9732 38.8466 6.87993 39.0718 6.87993 39.3066V40.4781H5.70852C5.47373 40.4781 5.24856 40.5713 5.08253 40.7373C4.91651 40.9034 4.82324 41.1285 4.82324 41.3633V42.4573C4.82324 42.6921 4.91651 42.9173 5.08253 43.0833C5.24856 43.2493 5.47373 43.3426 5.70852 43.3426H6.88002V44.5141C6.88002 44.7489 6.97329 44.974 7.13932 45.1401C7.30534 45.3061 7.53051 45.3994 7.7653 45.3994H8.85927C9.09406 45.3994 9.31924 45.3061 9.48526 45.1401C9.65128 44.974 9.74456 44.7489 9.74456 44.5141V43.3425H10.9161C11.1508 43.3425 11.376 43.2492 11.542 43.0832C11.7081 42.9172 11.8013 42.692 11.8013 42.4572V41.3632C11.8011 40.8743 11.4048 40.4781 10.9159 40.4781Z" stroke="#173E33" stroke-width="0.5" stroke-miterlimit="10" stroke-linecap="round" stroke-linejoin="round"></path></svg>