<svg xmlns="http://www.w3.org/2000/svg" xmlns:xlink="http://www.w3.org/1999/xlink" id="Layer_1" data-name="Layer 1" viewBox="10 0 1202.9 428.9"><defs><style>      .cls-1 {        fill: #fff;      }      .cls-2 {        stroke: #48b96b;        stroke-width: 1.6px;      }      .cls-2, .cls-3, .cls-4, .cls-5, .cls-6, .cls-7 {        fill: none;      }      .cls-2, .cls-3, .cls-4, .cls-5, .cls-8, .cls-7 {        stroke-miterlimit: 10;      }      .cls-2, .cls-4, .cls-5, .cls-7 {        stroke-linecap: round;      }      .cls-9 {        fill: #3bad63;      }      .cls-10 {        fill: #287f59;      }      .cls-11 {        fill: #f26522;      }      .cls-12, .cls-8 {        fill: #fee678;      }      .cls-3 {        stroke: #287f59;      }      .cls-4 {        stroke-width: .3px;      }      .cls-4, .cls-7 {        stroke: #a56941;      }      .cls-13 {        fill: #c8e6eb;      }      .cls-5 {        stroke: #fff;      }      .cls-14 {        clip-path: url(#clippath-1);      }      .cls-15 {        clip-path: url(#clippath);      }      .cls-16 {        fill: #e6f5f8;      }      .cls-8 {        stroke: #fff6ab;      }      .cls-17 {        fill: #145730;      }      .cls-18 {        fill: #e3f4fb;      }      .cls-19 {        fill: #2a9363;      }      .cls-20 {        fill: #ffdc8c;      }      .cls-7 {        stroke-width: .4px;      }      .cls-21 {        fill: #7fa852;      }      .cls-22 {        fill: #faa41a;      }      .cls-23 {        fill: #6ec16f;      }      .cls-24 {        fill: #fff6ab;      }    </style><clipPath id="clippath"><path class="cls-6" d="m10,.5v366.1h1217.6s0-366.1,0-366.1H10Z"></path></clipPath><clipPath id="clippath-1"><path class="cls-6" d="m10,.5v366.1h1217.6s0-366.1,0-366.1H10Z"></path></clipPath></defs><path class="cls-17" d="m10,.5v366.1h1217.6s0-366.1,0-366.1H10Z"></path><g class="cls-15"><path class="cls-21" d="m121.1,428.9c-68.8-66.8-49.1-177.3,23.5-219.6,87.6-51,176.8,12.5,209.6-63.8,28.8-66.9,93.9-65.2,159.6-56.8,65.7,8.3,72-55.4,158-70.7,79.7-14.1,122,41.6,186.1,34.7,64.1-6.9,184.6,26.6,111.1,124-52.9,70.1-47.6,104.2-4.7,117.4,67.3,20.8,84.5,81.5,45.4,103.7-39.1,22.2-888.5,31-888.5,31Z"></path></g><g><g><path class="cls-1" d="m555.7,133.6l-.2-1.3c.2-2.3,1.7-4.5,4.5-6.8,2.7-2.2,6.2-4.4,10.4-6.4,4.2-2,10.8-3.7,19.9-5.1,5.2-.7,9.5-1.1,12.9-1.1s6.5.3,9.2.8c2.6.5,4.8,1.5,6.5,3.1,1.7,1.5,2.6,3.3,2.6,5.4s-1,4.1-3,5.9c-2,1.9-4.5,3.3-7.5,4.2-5.8,1.9-11.4,3-16.8,3.2,2.6,1.4,4.8,2.7,6.5,3.7,1.7,1.1,3.6,2.5,5.5,4.2,2,1.7,3.2,3.2,3.8,4.5.6,1.3.8,2.4.8,3.3,0,3.2-1.4,6.3-4.1,9.2-1.8,2-4.4,3.6-7.7,4.8-3.3,1.2-6.8,1.8-10.5,1.8-7.9,0-12.2-2.4-12.9-7.3-.1-.1-.2-.3-.2-.5-2.3,3.3-4.3,5-5.8,5s-1.1,0-2.1-.3c-1-.2-1.4-.4-1.5-.6,0-.2,0-.7,0-1.4s.6-2.4,1.7-5.1c1.2-2.7,2.5-5.3,4-8,2.9-4.9,5.7-9.6,8.6-14.2.5-1,.7-1.7.7-2.2s0-.9,0-1.1c.2-1.5,1.7-3.5,4.5-6,2.7-2.5,5.2-3.7,7.4-3.7s1.7.2,2.9.7c1.2.5,2,1.2,2.2,2,0,.4,0,.6,0,.7,0,0-.2,0-.5,0-.3-.1-.5-.2-.6-.2-2,0-4.3,1.3-7,3.9-2.7,2.6-5.4,5.8-7.9,9.5-5.2,7.6-9,13.9-11.2,18.8-.5,1.1-.7,1.9-.7,2.5s.4,1.2,1.2,1.2,1.9-.7,3.2-2.2c1.3-1.5,2.3-2.2,2.9-2.2.6,0,1,.2,1.3.4.3.3.6.6.7.9.1.3.2.7.3,1.3,0,.5.1.9.2,1.1,1,3.9,4.1,5.8,9.3,5.8h.4c4.2,0,7.9-.9,10.9-2.6,3.3-2,5-4.4,5-7.3s-1.5-6-4.6-9.2c-1-1-2.4-2.2-4.3-3.7-4.1-3.1-6.1-5.1-6.3-6-.1-.9.3-1.6,1.2-2.2,1-.6,1.8-.9,2.6-.9,3,0,7.1-1,12.3-2.9,7.7-2.8,11.8-5.8,12.3-9.2v-.5c0-1-.5-1.9-1.5-2.8-1.7-1.6-5.2-2.4-10.5-2.4s-15.8,1.2-25.5,3.5c-5.9,1.4-11.1,3.4-15.6,6-4.9,2.9-7.4,6-7.4,9.2s.2,1.4.7,2.1c.5.7,1.1,1.2,1.7,1.5.6.3,1.5.6,2.5,1,1,.4,1.8.6,2.3.8.5.2.6.4.5.7-.2.3-.6.4-1.3.2-2-.1-4.1-.9-6.1-2.2-2-1.4-3-3-3-4.9s0-.5,0-.8Z"></path><path class="cls-1" d="m639.3,137.5c3.3,0,5,1.4,5,4.2s-.5,2.7-1.4,3.6c-1.5,2-4,3.8-7.5,5.3-3.4,1.5-6.4,2.3-8.7,2.5-.9,0-1.3-.2-1.4-.7,0-.2,0-.4.2-.4.2,0,.4,0,.5,0,1.4-.1,3.2-.7,5.4-1.8,4.1-2,7.1-4,9-6,.8-1,1.2-1.9,1.2-2.8s-.5-1.3-1.5-1.3-1.9.3-3.2.9c-2.9,1.2-5.9,3.3-9.1,6.2-3.2,3-5.3,5.9-6.3,8.7-.3.9-.5,1.7-.5,2.6s.4,1.6,1.2,2.4c.8.8,2,1.1,3.7,1.1s4-.4,6.4-1.3c6.9-2.5,12.3-6.3,16-11.3.4-.4.7-.5,1-.2.2.1.4.2.4.4s0,.4-.3.6c-1.8,2.7-4.2,5.1-7,7.3-5.5,4.1-10.8,6.2-15.9,6.2s-7.5-1.2-9.3-3.5c-.7-.9-1-2-1-3.3s.4-2.9,1.2-4.7c1.5-3.1,4.8-6.3,9.9-9.5,5-3.3,9-4.9,12-4.9Z"></path><path class="cls-1" d="m648.3,162.1c-.8.8-1,1.5-.5,2,.5.5,1,.7,1.6.7s1.2,0,1.8-.2c2.6-.7,5.2-2.1,7.7-4.2,2.5-2.1,3.7-4.2,3.7-6.4s-1.5-2.5-4.5-3.9c-1.4-.7-2.2-1-2.4-1.1-1.7-1-2.7-2-3.1-2.9-.9,1.3-2.2,3.2-4.1,5.6-.4.4-.8.5-1.2.3-.4-.2-.4-.6,0-1,2.5-3,4.2-5.6,5-7.7.4-3,2.9-5.7,7.4-8.1,4.5-2.4,8.6-3.6,12.2-3.6s4,.4,4.9,1.1c1,.7,1.4,1.5,1.4,2.2s-.2,1.5-.7,2.4c-.5.9-1.4,1.8-2.8,2.6-.4.2-.7.2-.9-.2-.1-.3.1-.8.8-1.3.6-.6,1.1-1.3,1.2-2.3.2-1-.3-1.6-1.5-1.8h-.6c-2.4,0-5.4.8-9,2.4-3.6,1.6-6.4,3.6-8.4,6.1-.8.9-1.2,1.9-1.2,2.8s.7,1.8,2.2,2.6c.6.3,1.7.8,3.1,1.6,1.5.7,2.5,1.2,3.1,1.6.6.3,1.3.8,2.2,1.6.9.7,1.3,1.4,1.4,2,.3,1.6-.6,3.4-2.6,5.4-2.9,2.8-7.2,4.8-12.9,6-1.3.3-2.6.4-3.9.4s-2.2-.4-2.7-1.3c-.2-.2-.3-.6-.3-1s.5-1.2,1.5-2.2c.9-.8,2.4-1.6,4.4-2.4.2,0,.3,0,.5,0,.1.1.2.2,0,.4,0,.2-.4.4-1,.6-.6.2-1.2.7-1.9,1.6Z"></path><path class="cls-1" d="m689.4,138.4c4.7-.4,7.6-.6,8.6-.6s1.5.1,1.5.4-.7.7-2.2,1c-1.4.4-5,.8-10.5,1.3-.3.5-.7,1.1-1.1,1.7-.9,1.3-1.4,2.1-1.5,2.4-3.5,6.2-5.3,10.1-5.5,11.8,0,.5,0,1.1,0,1.9s.2,1.4.7,1.9c.9.9,2.1.9,3.7.2,1.6-.8,3.8-2.3,6.7-4.6,2.9-2.3,5.2-4.5,7-6.7.2-.3.6-.3.9-.2.9.4-.7,2.5-4.8,6.4-3.9,3.8-7.2,6.1-9.9,6.9-1.5.5-2.8.7-3.9.7-2.5,0-4.1-1-4.9-3.1-.1-.4-.2-.8-.2-1.4,0-1.9,1-4.8,2.9-8.6-.3.6-1.5,2-3.6,4.1-.6.5-1,.5-1.3,0,0-.1,0-.3,0-.4s.1-.4.4-.7c3-3.3,5.4-6.1,7.1-8.4,0,0,.7-1.2,2-3.4-.6.1-1.2.2-1.9.2s-1.1-.2-1.4-.5c-.3-.4-.3-.8,0-1.3.4-.9,2.1-1.4,4.9-1.5,0-.1.2-.2.4-.2l4.6-7.6c.2-.4.5-.9.8-1.3.3-.5.5-.8.7-1.1.2-.2.3-.5.5-.8.2-.3.3-.5.5-.6.1-.1.2-.2.4-.3.2-.3,1-.5,2.2-.5s2,.3,2.4.9c.2.2.3.6.3,1.1s-.2,1.1-.6,1.7c-.4.6-.9,1.1-1.4,1.3-.5.3-.8.6-1,.9l-4.4,6.9h1.2Z"></path></g><g><path class="cls-1" d="m484.3,259.3v-75.7h27.1c11.3,0,20.2,3.4,26.7,10.2,6.5,6.8,9.7,16,9.7,27.6s-3.3,20.6-10,27.5c-6.6,6.9-15.7,10.3-27.3,10.3h-26.2Zm18.8-14.2h7.4c11.9,0,17.8-7.9,17.8-23.7s-5.9-23.7-17.8-23.7h-7.4v47.4Z"></path><path class="cls-1" d="m607.8,230.1c0,2.7-.2,5.2-.5,7.5h-36c.2,3.6,1.1,6.4,2.9,8.4,1.8,2,4.4,3,7.8,3,4.9,0,7.8-1.8,8.8-5.3h16.1c-.8,5.5-3.4,9.7-7.6,12.7-4.3,3-10,4.5-17.2,4.5s-16.1-2.4-21-7.1c-4.9-4.7-7.3-11.4-7.3-20.2s2.4-15.5,7.3-20.4c4.9-4.9,11.7-7.3,20.5-7.3s14.7,2.2,19.3,6.6c4.6,4.4,6.8,10.3,6.8,17.6Zm-36.5-2.5h19.5c0-7.4-3.1-11.1-9.3-11.1s-10.1,3.7-10.3,11.1Z"></path><path class="cls-1" d="m636.5,260.7c-7.1,0-12.7-2.5-17-7.5-4.2-5-6.3-11.6-6.3-19.9s2.1-14.8,6.3-19.8c4.2-5,9.9-7.5,17-7.5s13.3,3,16.2,9.1v-7.7h17.9v51.8h-17.9v-7.7c-3,6.1-8.4,9.1-16.2,9.1Zm5.7-13.3c3.5,0,6.2-1.2,8.2-3.6,2-2.4,2.9-5.9,2.9-10.4s-1-7.9-2.9-10.3c-2-2.4-4.7-3.6-8.2-3.6s-6.3,1.2-8.2,3.6c-1.9,2.4-2.8,5.8-2.8,10.4s.9,8,2.8,10.4c1.9,2.4,4.6,3.6,8.2,3.6Z"></path><path class="cls-1" d="m682.8,259.3v-75.7h17.8v75.7h-17.8Z"></path><path class="cls-1" d="m734,260.8c-7.5,0-13.5-1.6-18-4.9-4.5-3.3-6.8-7.4-6.8-12.3h17.6c0,1.9.7,3.5,2,4.7s3.2,1.8,5.4,1.8,3.4-.5,4.5-1.4c1.1-.9,1.6-2.1,1.6-3.7,0-2.5-1.6-4.1-4.8-5.1l-11.4-2.8c-4.4-1.2-7.8-3-10.2-5.7-2.4-2.6-3.6-5.7-3.6-9.3s2.1-8.7,6.2-11.7c4.1-3.1,9.6-4.6,16.5-4.6s13.2,1.5,17.3,4.5c4.1,3,6.2,7,6.2,11.8h-17c0-4-2.2-6.1-6.6-6.1s-3.2.4-4.3,1.2c-1.1.8-1.6,1.9-1.6,3.2,0,2.3,1.7,4,5.1,5.1l11.8,3.4c8.9,2.5,13.3,7.3,13.3,14.3s-2.1,9.5-6.2,12.7c-4.1,3.2-9.8,4.8-17.2,4.8Z"></path></g></g><g class="cls-14"><g><g><g><path class="cls-19" d="m199.8,333.4c-67.6,24.8-139.6,8.2-139.6,8.2,0,0,37.7-56.8,105.4-81.5,67.6-24.8,139.6-8.2,139.6-8.2,0,0-37.7,56.8-105.4,81.5Z"></path><path class="cls-19" d="m204.3,257.9c-37,50.8-99.1,73.6-99.1,73.6,0,0-2.1-59.6,34.9-110.3,37-50.8,99.1-73.6,99.1-73.6,0,0,2.1,59.6-34.9,110.3Z"></path><path class="cls-19" d="m207.2,359.9c-64.7-.2-117-17.6-117-17.6,0,0,52.5-17.1,117.2-16.9,64.7.2,117,17.6,117,17.6,0,0-52.5,17.1-117.2,16.9Z"></path><path class="cls-19" d="m123.8,244.6c-19,54.8-53,94.1-53,94.1,0,0-3.1-49.5,15.9-104.2,19-54.8,53-94.1,53-94.1,0,0,3.1,49.5-15.9,104.2Z"></path><path class="cls-19" d="m94.4,196.9c.5,69.8-22.8,126.6-22.8,126.6,0,0-24.1-56.5-24.6-126.3-.5-69.8,22.8-126.6,22.8-126.6,0,0,24.1,56.5,24.6,126.3Z"></path></g><g><path class="cls-10" d="m197.9,300.7c-4.6-31.8-54.1-11.1-54.1-11.1,0,0,76.4-65.8,40.4-95-31-25.2-60.2,33.8-60.2,33.8,0,0-3-37.7-28.6-33.8-25.5,3.8-24.8,27.8-24.8,27.8,0,0-23.3-24.1-42.5-12.6C-14,235,3.7,399,3.7,399c0,0,201.2-50.4,194.2-98.3Z"></path><path class="cls-2" d="m8.3,390.8c65.9-70.3,134.4-142.5,152.4-178.2"></path><line class="cls-2" x1="99.1" y1="220.1" x2="94.3" y2="298.1"></line><line class="cls-2" x1="38.5" y1="235.2" x2="38.5" y2="358.6"></line><line class="cls-2" x1="154.5" y1="316.1" x2="50" y2="346.2"></line></g></g><g><g><path class="cls-19" d="m1043.1,333.4c67.6,24.8,139.6,8.2,139.6,8.2,0,0-37.7-56.8-105.4-81.5-67.6-24.8-139.6-8.2-139.6-8.2,0,0,37.7,56.8,105.4,81.5Z"></path><path class="cls-19" d="m1038.5,257.9c37,50.8,99.1,73.6,99.1,73.6,0,0,2.1-59.6-34.9-110.3-37-50.8-99.1-73.6-99.1-73.6,0,0-2.1,59.6,34.9,110.3Z"></path><path class="cls-19" d="m1035.7,359.9c64.7-.2,117-17.6,117-17.6,0,0-52.5-17.1-117.2-16.9-64.7.2-117,17.6-117,17.6,0,0,52.5,17.1,117.2,16.9Z"></path><path class="cls-19" d="m1119.1,244.6c19,54.8,53,94.1,53,94.1,0,0,3.1-49.5-15.9-104.2-19-54.8-53-94.1-53-94.1,0,0-3.1,49.5,15.9,104.2Z"></path><path class="cls-19" d="m1148.4,196.9c-.5,69.8,22.8,126.6,22.8,126.6,0,0,24.1-56.5,24.6-126.3.5-69.8-22.8-126.6-22.8-126.6,0,0-24.1,56.5-24.6,126.3Z"></path></g><g><path class="cls-10" d="m1045,300.7c4.6-31.8,54.1-11.1,54.1-11.1,0,0-76.4-65.8-40.4-95,31-25.2,60.2,33.8,60.2,33.8,0,0,3-37.7,28.6-33.8,25.5,3.8,24.8,27.8,24.8,27.8,0,0,23.3-24.1,42.5-12.6,42.2,25.2,24.5,189.2,24.5,189.2,0,0-201.2-50.4-194.2-98.3Z"></path><path class="cls-2" d="m1234.6,390.8c-65.9-70.3-134.4-142.5-152.4-178.2"></path><line class="cls-2" x1="1143.8" y1="220.1" x2="1148.6" y2="298.1"></line><line class="cls-2" x1="1204.4" y1="235.2" x2="1204.4" y2="358.6"></line><line class="cls-2" x1="1088.4" y1="316.1" x2="1192.8" y2="346.2"></line></g></g></g><g><g><path class="cls-11" d="m1143.9,136.1s-44.5-1.3-43.3-14.3c.9-9.7,13.3-6.3,13.3-6.3,0,0-14.2-7.2-7.9-13.1,5.6-5.3,15.9,2.1,15.9,2.1,0,0-5-13.8,3-16.5,8-2.6,12.8,14,12.8,14,0,0,3.1-8.7,9.6-7.9,6.5.7,1.4,11.8,1.4,11.8,0,0,7.8-10,14-4,6.3,6-18.9,34.4-18.9,34.4Z"></path><path class="cls-4" d="m1108.8,120.8c6.4,4.6,18.5,7,31.8,8.9,7.3-8.4,13.3-16.5,16.8-24.2"></path><polyline class="cls-4" points="1115.9 107.3 1139.2 127 1128.2 96.7"></polyline><line class="cls-4" x1="1144.3" y1="100.5" x2="1139.4" y2="125.4"></line><path class="cls-22" d="m1143.9,136.1s-23.7.9-26.8-3.2c-3-4.1,9.2-6.2,9.2-6.2,0,0-6.2-5.4-.3-8.4,5.8-3,11.7,3.5,11.7,3.5,0,0,4.9-8.7,9-7.2,4.1,1.5,1.8,7.5,1.8,7.5,0,0,5.5-3.6,7.8-1.6,2.2,2-12.4,15.6-12.4,15.6Z"></path><path class="cls-10" d="m1143.1,137.1s-10.3.4-11.7-1.4c-1.3-1.8,4-2.7,4-2.7,0,0-2.7-2.3-.1-3.7,2.5-1.3,5.1,1.5,5.1,1.5,0,0,2.1-3.8,3.9-3.1,1.8.7.8,3.3.8,3.3,0,0,2.4-1.6,3.4-.7,1,.9-5.4,6.8-5.4,6.8Z"></path></g><path class="cls-3" d="m171.2,254.8s-26.4,49.1-15.4,101.6"></path><line class="cls-3" x1="266" y1="355.7" x2="268.7" y2="296.1"></line><line class="cls-3" x1="857.6" y1="296.1" x2="860.4" y2="356.4"></line><path class="cls-3" d="m407.5,263.1s-43.1,50.5-26.7,123.1"></path><path class="cls-3" d="m985.3,241.1s29.3,41.1,28.9,114.5"></path><path class="cls-3" d="m1143.1,137.1s26.5,37.9,70.2,36.9"></path><g><path class="cls-20" d="m415,263.1c0,3.7-3.4,6.7-7.5,6.7-4.2,0-7.5-3-7.5-6.7s3.4-6.7,7.5-6.7,7.5,3,7.5,6.7Z"></path><g><g><path class="cls-1" d="m412.9,237.8c0,8.3-5.4,17.3-5.4,17.3,0,0-5.4-9-5.4-17.3s2.4-12.8,5.4-12.8,5.4,4.5,5.4,12.8Z"></path><path class="cls-1" d="m402,289.6c0-8.3,5.4-17.3,5.4-17.3,0,0,5.4,9,5.4,17.3s-2.4,12.8-5.4,12.8-5.4-4.5-5.4-12.8Z"></path></g><g><path class="cls-1" d="m397.6,238.9c4.7,7.2,5,17.4,5,17.4,0,0-9.8-5.4-14.5-12.6-4.7-7.2-5.1-12.1-2.5-13.5,2.6-1.3,7.2,1.5,11.9,8.6Z"></path><path class="cls-1" d="m417.4,288.6c-4.7-7.2-5-17.4-5-17.4,0,0,9.8,5.4,14.5,12.6,4.7,7.2,5.1,12.1,2.5,13.5-2.6,1.3-7.2-1.5-11.9-8.6Z"></path></g><g><path class="cls-1" d="m384.9,246.6c8.1,4.1,14.2,12.8,14.2,12.8,0,0-11.5-.3-19.6-4.5-8.1-4.1-11.3-8.3-9.8-10.6s7.1-1.9,15.2,2.2Z"></path><path class="cls-1" d="m430.1,280.9c-8.1-4.1-14.2-12.8-14.2-12.8,0,0,11.5.3,19.6,4.5,8.1,4.1,11.3,8.3,9.8,10.6-1.5,2.3-7.1,1.9-15.2-2.2Z"></path></g><g><path class="cls-1" d="m378.3,258.9c9.4,0,19.5,4.8,19.5,4.8,0,0-10.1,4.8-19.5,4.8s-14.4-2.2-14.4-4.8,5-4.8,14.4-4.8Z"></path><path class="cls-1" d="m436.7,268.6c-9.4,0-19.5-4.8-19.5-4.8,0,0,10.1-4.8,19.5-4.8,9.4,0,14.4,2.2,14.4,4.8s-5,4.8-14.4,4.8Z"></path></g><g><path class="cls-1" d="m379.4,272.5c8.1-4.1,19.6-4.5,19.6-4.5,0,0-6.1,8.7-14.2,12.8-8.1,4.1-13.7,4.5-15.2,2.2-1.5-2.3,1.6-6.4,9.8-10.6Z"></path><path class="cls-1" d="m435.5,255c-8.1,4.1-19.6,4.5-19.6,4.5,0,0,6.1-8.7,14.2-12.8,8.1-4.1,13.7-4.5,15.2-2.2,1.5,2.3-1.6,6.4-9.8,10.6Z"></path></g><g><path class="cls-1" d="m388.2,283.7c4.7-7.2,14.5-12.6,14.5-12.6,0,0-.4,10.2-5,17.4s-9.3,10-11.9,8.6c-2.6-1.3-2.2-6.3,2.5-13.5Z"></path><path class="cls-1" d="m426.8,243.7c-4.7,7.2-14.5,12.6-14.5,12.6,0,0,.4-10.2,5-17.4,4.7-7.2,9.3-10,11.9-8.6,2.6,1.3,2.2,6.3-2.5,13.5Z"></path></g></g></g><g><ellipse class="cls-20" cx="985.3" cy="241.1" rx="5" ry="4.4"></ellipse><g><g><path class="cls-1" d="m988.9,224.4c0,5.5-3.6,11.4-3.6,11.4,0,0-3.6-5.9-3.6-11.4s1.6-8.5,3.6-8.5,3.6,3,3.6,8.5Z"></path><path class="cls-1" d="m981.7,258.7c0-5.5,3.6-11.4,3.6-11.4,0,0,3.6,5.9,3.6,11.4s-1.6,8.5-3.6,8.5-3.6-3-3.6-8.5Z"></path></g><g><path class="cls-1" d="m978.8,225.1c3.1,4.8,3.3,11.5,3.3,11.5,0,0-6.5-3.6-9.6-8.3-3.1-4.8-3.4-8-1.6-8.9,1.7-.9,4.8,1,7.9,5.7Z"></path><path class="cls-1" d="m991.9,258c-3.1-4.8-3.3-11.5-3.3-11.5,0,0,6.5,3.6,9.6,8.3,3.1,4.8,3.4,8,1.6,8.9-1.7.9-4.8-1-7.9-5.7Z"></path></g><g><path class="cls-1" d="m970.4,230.2c5.4,2.7,9.4,8.5,9.4,8.5,0,0-7.6-.2-13-3-5.4-2.7-7.5-5.5-6.5-7,1-1.5,4.7-1.3,10.1,1.5Z"></path><path class="cls-1" d="m1000.3,252.9c-5.4-2.7-9.4-8.5-9.4-8.5,0,0,7.6.2,13,3,5.4,2.7,7.5,5.5,6.5,7-1,1.5-4.7,1.3-10.1-1.5Z"></path></g><g><path class="cls-1" d="m966,238.4c6.2,0,12.9,3.2,12.9,3.2,0,0-6.7,3.2-12.9,3.2s-9.5-1.4-9.5-3.2,3.3-3.2,9.5-3.2Z"></path><path class="cls-1" d="m1004.6,244.8c-6.2,0-12.9-3.2-12.9-3.2,0,0,6.7-3.2,12.9-3.2s9.5,1.4,9.5,3.2-3.3,3.2-9.5,3.2Z"></path></g><g><path class="cls-1" d="m966.8,247.4c5.4-2.7,13-3,13-3,0,0-4,5.7-9.4,8.5-5.4,2.7-9.1,3-10.1,1.5-1-1.5,1.1-4.2,6.5-7Z"></path><path class="cls-1" d="m1003.9,235.8c-5.4,2.7-13,3-13,3,0,0,4-5.7,9.4-8.5,5.4-2.7,9.1-3,10.1-1.5,1,1.5-1.1,4.2-6.5,7Z"></path></g><g><path class="cls-1" d="m972.5,254.8c3.1-4.8,9.6-8.3,9.6-8.3,0,0-.2,6.8-3.3,11.5-3.1,4.8-6.2,6.6-7.9,5.7-1.7-.9-1.5-4.2,1.6-8.9Z"></path><path class="cls-1" d="m998.1,228.3c-3.1,4.8-9.6,8.3-9.6,8.3,0,0,.2-6.8,3.3-11.5,3.1-4.8,6.2-6.6,7.9-5.7,1.7.9,1.5,4.2-1.6,8.9Z"></path></g></g></g><g><ellipse class="cls-20" cx="171.2" cy="254.8" rx="5" ry="4.4"></ellipse><g><g><path class="cls-1" d="m174.8,238.1c0,5.5-3.6,11.4-3.6,11.4,0,0-3.6-6-3.6-11.4s1.6-8.5,3.6-8.5,3.6,3,3.6,8.5Z"></path><path class="cls-1" d="m167.6,272.4c0-5.5,3.6-11.4,3.6-11.4,0,0,3.6,6,3.6,11.4s-1.6,8.5-3.6,8.5-3.6-3-3.6-8.5Z"></path></g><g><path class="cls-1" d="m164.7,238.8c3.1,4.8,3.3,11.5,3.3,11.5,0,0-6.5-3.6-9.6-8.3-3.1-4.8-3.4-8-1.6-8.9,1.7-.9,4.8,1,7.9,5.7Z"></path><path class="cls-1" d="m177.8,271.7c-3.1-4.8-3.3-11.5-3.3-11.5,0,0,6.5,3.6,9.6,8.3,3.1,4.8,3.4,8,1.6,8.9-1.7.9-4.8-1-7.9-5.7Z"></path></g><g><path class="cls-1" d="m156.3,243.9c5.4,2.7,9.4,8.5,9.4,8.5,0,0-7.6-.2-13-3-5.4-2.7-7.5-5.5-6.5-7,1-1.5,4.7-1.3,10.1,1.5Z"></path><path class="cls-1" d="m186.2,266.6c-5.4-2.7-9.4-8.5-9.4-8.5,0,0,7.6.2,13,3,5.4,2.7,7.5,5.5,6.5,7-1,1.5-4.7,1.3-10.1-1.5Z"></path></g><g><path class="cls-1" d="m151.9,252c6.2,0,12.9,3.2,12.9,3.2,0,0-6.7,3.2-12.9,3.2-6.2,0-9.5-1.4-9.5-3.2s3.3-3.2,9.5-3.2Z"></path><path class="cls-1" d="m190.6,258.4c-6.2,0-12.9-3.2-12.9-3.2,0,0,6.7-3.2,12.9-3.2s9.5,1.4,9.5,3.2-3.3,3.2-9.5,3.2Z"></path></g><g><path class="cls-1" d="m152.7,261c5.4-2.7,13-3,13-3,0,0-4,5.7-9.4,8.5-5.4,2.7-9.1,3-10.1,1.5-1-1.5,1.1-4.2,6.5-7Z"></path><path class="cls-1" d="m189.8,249.4c-5.4,2.7-13,3-13,3,0,0,4-5.7,9.4-8.5,5.4-2.7,9.1-3,10.1-1.5,1,1.5-1.1,4.2-6.5,7Z"></path></g><g><path class="cls-1" d="m158.4,268.5c3.1-4.8,9.6-8.3,9.6-8.3,0,0-.2,6.8-3.3,11.5-3.1,4.8-6.2,6.6-7.9,5.7-1.7-.9-1.5-4.2,1.6-8.9Z"></path><path class="cls-1" d="m184,242c-3.1,4.8-9.6,8.3-9.6,8.3,0,0,.2-6.8,3.3-11.5,3.1-4.8,6.2-6.6,7.9-5.7,1.7.9,1.5,4.2-1.6,8.9Z"></path></g></g></g><g><path class="cls-11" d="m859.2,295.2s-54.4-24-44.6-39.6c7.3-11.6,20.6-1.2,20.6-1.2,0,0-13-16.1-1.5-20.3,10.3-3.7,18.4,10.5,18.4,10.5,0,0,2.7-19.7,14.3-18.9,11.6.8,6.9,23.8,6.9,23.8,0,0,9.4-9.3,17-5,7.6,4.2-5.8,15.3-5.8,15.3,0,0,16.1-8.6,20,2.1,3.9,10.6-45.5,33.2-45.5,33.2Z"></path><path class="cls-7" d="m825.4,258.6c5,9,18.4,18,33.7,27,14.4-6.7,27.1-13.8,36.3-21.6"></path><polyline class="cls-7" points="842.9 245.4 859.2 281.6 864.8 238.4"></polyline><line class="cls-7" x1="882.5" y1="251.2" x2="860.4" y2="279.6"></line><path class="cls-22" d="m859.2,295.2s-30-10.9-31.2-17.5c-1.1-6.6,15.4-3,15.4-3,0,0-4.2-9.8,5.1-10.6,9.1-.8,12.3,10.2,12.3,10.2,0,0,11.6-8.4,15.7-4.4,4.1,4-2.6,10.2-2.6,10.2,0,0,9.1-1.7,10.6,1.9,1.5,3.6-25.4,13.1-25.4,13.1Z"></path><path class="cls-10" d="m857.6,296.1s-13.1-4.7-13.6-7.6,6.7-1.3,6.7-1.3c0,0-1.8-4.3,2.2-4.6,3.9-.3,5.3,4.4,5.3,4.4,0,0,5.1-3.6,6.9-1.9,1.8,1.7-1.1,4.4-1.1,4.4,0,0,4-.7,4.6.8.6,1.6-11,5.7-11,5.7Z"></path></g><g><path class="cls-11" d="m269.9,295.4s-39.9-17.5-32.6-29c5.4-8.5,15.1-.8,15.1-.8,0,0-9.5-11.8-1.1-14.9,7.5-2.7,13.5,7.7,13.5,7.7,0,0,2-14.4,10.5-13.9,8.5.6,5.1,17.5,5.1,17.5,0,0,6.9-6.8,12.5-3.7,5.6,3.1-4.2,11.2-4.2,11.2,0,0,11.8-6.3,14.7,1.5s-33.3,24.3-33.3,24.3Z"></path><path class="cls-4" d="m245.2,268.6c3.7,6.6,13.5,13.2,24.7,19.8,10.6-4.9,19.9-10.1,26.6-15.8"></path><polyline class="cls-4" points="257.9 258.9 269.9 285.5 274 253.8"></polyline><line class="cls-4" x1="286.9" y1="263.2" x2="270.8" y2="284"></line><path class="cls-22" d="m269.9,295.4s-22-8-22.8-12.8c-.8-4.8,11.3-2.2,11.3-2.2,0,0-3.1-7.2,3.7-7.8,6.6-.6,9,7.5,9,7.5,0,0,8.5-6.1,11.5-3.2,3,2.9-1.9,7.5-1.9,7.5,0,0,6.7-1.2,7.8,1.4,1.1,2.6-18.6,9.6-18.6,9.6Z"></path><path class="cls-10" d="m268.7,296.1s-9.6-3.5-9.9-5.6c-.4-2.1,4.9-1,4.9-1,0,0-1.4-3.1,1.6-3.4,2.9-.2,3.9,3.3,3.9,3.3,0,0,3.7-2.7,5-1.4s-.8,3.3-.8,3.3c0,0,2.9-.5,3.4.6.5,1.2-8.1,4.2-8.1,4.2Z"></path></g></g></g><g><path class="cls-12" d="m208,54.7l-32.4-19.7c-2.8-1.7-6.5-1.7-9.3,0l-31.9,19.7c-2.2,1.4-3.5,3.6-3.5,6v81.4c0,4,3.7,7.3,8.2,7.3h64.4c4.5,0,8.2-3.2,8.2-7.3V60.7c0-2.4-1.3-4.6-3.6-6Zm-33.4-2.1c-1.9,1.1-4.5,1.1-6.5,0-4.1-2.2-4.1-7.4,0-9.7,1.9-1.1,4.5-1.1,6.5,0,4.1,2.2,4.1,7.4,0,9.7Z"></path><line class="cls-5" x1="171.4" y1="47.8" x2="171.4" y2=".5"></line></g><g><path class="cls-23" d="m374.9,129.1l-32.4-19.7c-2.8-1.7-6.5-1.7-9.3,0l-31.9,19.7c-2.2,1.4-3.5,3.6-3.5,6v81.4c0,4,3.7,7.3,8.2,7.3h64.4c4.5,0,8.2-3.2,8.2-7.3v-81.4c0-2.4-1.3-4.6-3.6-6Zm-33.4-2.1c-1.9,1.1-4.5,1.1-6.5,0-4.1-2.2-4.1-7.4,0-9.7,1.9-1.1,4.5-1.1,6.5,0,4.1,2.2,4.1,7.4,0,9.7Z"></path><line class="cls-5" x1="338.2" y1="122.2" x2="338.2" y2=".5"></line></g><g><path class="cls-23" d="m981.7,59.2l-32.4-19.7c-2.8-1.7-6.5-1.7-9.3,0l-31.9,19.7c-2.2,1.4-3.5,3.6-3.5,6v81.4c0,4,3.7,7.3,8.2,7.3h64.4c4.5,0,8.2-3.2,8.2-7.3v-81.4c0-2.4-1.3-4.6-3.6-6Zm-33.4-2.1c-1.9,1.1-4.5,1.1-6.4,0-4.1-2.2-4.1-7.4,0-9.7,1.9-1.1,4.5-1.1,6.5,0,4.1,2.2,4.1,7.4,0,9.7Z"></path><line class="cls-5" x1="945.1" y1="52.3" x2="945.1" y2=".5"></line></g><g><path class="cls-12" d="m1111,186.5l-32.4-19.7c-2.8-1.7-6.5-1.7-9.3,0l-31.9,19.7c-2.2,1.4-3.5,3.6-3.5,6v81.4c0,4,3.7,7.3,8.2,7.3h64.4c4.5,0,8.2-3.2,8.2-7.3v-81.4c0-2.4-1.3-4.6-3.6-6Zm-33.4-2.1c-1.9,1.1-4.5,1.1-6.5,0-4.1-2.2-4.1-7.4,0-9.7,1.9-1.1,4.5-1.1,6.5,0,4.1,2.2,4.1,7.4,0,9.7Z"></path><line class="cls-5" x1="1074.4" y1="179.7" x2="1074.4" y2=".5"></line></g><g><path class="cls-1" d="m347.6,143.5h3.7s-.1,6.5-.1,6.5l-25.7-.3v-3.6c0,0,22.1.3,22.1.3v-2.9Z"></path><path class="cls-1" d="m347.4,169.6l.2-10.5h-7c.6.4,1.2,1,1.6,1.9.4.9.6,1.8.6,2.8,0,1.7-.5,3.2-1.3,4.2-.9,1.1-1.9,1.8-3.2,2.3-1.3.5-2.7.7-4.1.6-1.7,0-3.3-.3-4.6-.9-1.3-.6-2.4-1.5-3.1-2.7-.8-1.2-1.1-2.6-1.1-4.3,0-2.3.7-4.1,2-5.4,1.3-1.4,3-2.2,5.1-2.4v3.5c-1.2.2-2,.7-2.7,1.5s-1,1.8-1,3c0,1.5.5,2.6,1.5,3.3,1,.8,2.3,1.1,4,1.2,1.7,0,3-.3,3.9-1.1.9-.7,1.4-1.8,1.4-3.3,0-1-.3-1.9-.8-2.6-.6-.7-1.3-1.2-2.3-1.5v-3.4c0,0,14.9.2,14.9.2l-.2,13.7h-3.5Z"></path><path class="cls-1" d="m334,188.2c1,.9,1.4,2,1.4,3.4,0,1.4-.5,2.5-1.5,3.4-1,.9-2.3,1.3-4.1,1.3-1.7,0-3.1-.5-4-1.4-1-.9-1.4-2-1.4-3.4,0-1.4.5-2.5,1.5-3.4,1-.9,2.4-1.3,4.1-1.3,1.7,0,3.1.5,4,1.4Zm15.3,5.2l-24.3-12.8v-3.5c0,0,24.4,12.8,24.4,12.8v3.5Zm-19.4-3.8c-2,0-3.1.6-3.1,1.9,0,1.3,1,2,3,2s3.1-.6,3.1-1.9c0-1.3-1-2-3-2Zm18.7-13.9c1,.9,1.4,2,1.4,3.4,0,1.4-.5,2.5-1.5,3.4s-2.3,1.3-4.1,1.3c-1.7,0-3.1-.5-4-1.4-1-.9-1.4-2-1.4-3.4,0-1.4.5-2.5,1.5-3.4,1-.9,2.4-1.3,4.1-1.3,1.7,0,3.1.5,4,1.4Zm-4.1,1.4c-2.1,0-3.1.6-3.1,1.9,0,.6.2,1.1.7,1.5.5.3,1.3.5,2.3.5,2,0,3.1-.6,3.1-1.9,0-1.3-1-2-3-2Z"></path></g><g><path class="cls-1" d="m953.5,71.9h3.7s-.1,6.5-.1,6.5l-25.7-.3v-3.6c0,0,22.1.3,22.1.3v-2.9Z"></path><path class="cls-1" d="m953.3,98l.2-10.5h-7c.7.4,1.2,1,1.6,1.9.4.9.6,1.8.6,2.8,0,1.7-.5,3.2-1.3,4.2-.9,1.1-1.9,1.8-3.2,2.3-1.3.5-2.7.7-4.1.6-1.7,0-3.3-.3-4.6-.9-1.3-.6-2.4-1.5-3.1-2.7-.8-1.2-1.1-2.6-1.1-4.3,0-2.3.7-4.1,2-5.4,1.3-1.4,3-2.2,5.1-2.4v3.5c-1.2.2-2,.7-2.7,1.5-.7.8-1,1.8-1,3,0,1.5.5,2.6,1.5,3.3,1,.8,2.3,1.1,4,1.2,1.7,0,3-.3,3.9-1.1.9-.7,1.4-1.8,1.4-3.3,0-1-.3-1.9-.8-2.6-.6-.7-1.3-1.2-2.3-1.5v-3.4c0,0,14.9.2,14.9.2l-.2,13.7h-3.5Z"></path><path class="cls-1" d="m939.9,116.6c1,.9,1.4,2,1.4,3.4,0,1.4-.5,2.5-1.5,3.4-1,.9-2.3,1.3-4.1,1.3s-3.1-.5-4-1.4c-1-.9-1.4-2-1.4-3.4,0-1.4.5-2.5,1.5-3.4,1-.9,2.4-1.3,4.1-1.3s3.1.5,4,1.4Zm15.3,5.2l-24.3-12.8v-3.5c0,0,24.4,12.8,24.4,12.8v3.5Zm-19.4-3.8c-2,0-3.1.6-3.1,1.9,0,1.3,1,2,3,2,2,0,3.1-.6,3.1-1.9,0-1.3-1-2-3-2Zm18.7-13.9c1,.9,1.4,2,1.4,3.4,0,1.4-.5,2.5-1.5,3.4-1,.9-2.3,1.3-4.1,1.3-1.7,0-3.1-.5-4-1.4s-1.4-2-1.4-3.4c0-1.4.5-2.5,1.5-3.4,1-.9,2.4-1.3,4.1-1.3,1.7,0,3.1.5,4,1.4Zm-4.1,1.4c-2.1,0-3.1.6-3.1,1.9,0,.6.2,1.1.7,1.5.5.4,1.3.5,2.3.5,2,0,3.1-.6,3.1-1.9,0-1.3-1-2-3-2Z"></path></g><g><path class="cls-1" d="m1084,199.4h3.7s-.1,6.5-.1,6.5l-25.7-.3v-3.6c0,0,22.1.3,22.1.3v-2.9Z"></path><path class="cls-1" d="m1083.8,225.5l.2-10.5h-7c.7.4,1.2,1,1.6,1.9.4.9.6,1.8.6,2.8,0,1.7-.5,3.2-1.3,4.2-.9,1.1-1.9,1.8-3.2,2.3-1.3.5-2.7.7-4.1.6-1.7,0-3.3-.3-4.6-.9-1.3-.6-2.4-1.5-3.1-2.7-.8-1.2-1.1-2.6-1.1-4.3,0-2.3.7-4.1,2-5.4,1.3-1.4,3-2.2,5.1-2.4v3.5c-1.2.2-2,.7-2.7,1.5-.7.8-1,1.8-1,3,0,1.5.5,2.6,1.5,3.3,1,.8,2.3,1.1,4,1.2,1.7,0,3-.3,3.9-1.1.9-.7,1.4-1.8,1.4-3.3,0-1-.3-1.9-.8-2.6-.6-.7-1.3-1.2-2.3-1.5v-3.4c0,0,14.9.2,14.9.2l-.2,13.7h-3.5Z"></path><path class="cls-1" d="m1070.4,244c1,.9,1.4,2,1.4,3.4,0,1.4-.5,2.5-1.5,3.4-1,.9-2.3,1.3-4.1,1.3-1.7,0-3.1-.5-4-1.4-1-.9-1.4-2-1.4-3.4,0-1.4.5-2.5,1.5-3.4,1-.9,2.4-1.3,4.1-1.3,1.7,0,3.1.5,4,1.4Zm15.3,5.2l-24.3-12.8v-3.5c0,0,24.4,12.8,24.4,12.8v3.5Zm-19.4-3.8c-2,0-3.1.6-3.1,1.9,0,1.3,1,2,3,2,2,0,3.1-.6,3.1-1.9,0-1.3-1-2-3-2Zm18.7-13.9c1,.9,1.4,2,1.4,3.4,0,1.4-.5,2.5-1.5,3.4-1,.9-2.3,1.3-4.1,1.3-1.7,0-3.1-.5-4-1.4s-1.4-2-1.4-3.4c0-1.4.5-2.5,1.5-3.4s2.4-1.3,4.1-1.3c1.7,0,3.1.5,4,1.4Zm-4.1,1.4c-2.1,0-3.1.6-3.1,1.9,0,.6.2,1.1.7,1.5s1.3.5,2.3.5c2,0,3.1-.6,3.1-1.9s-1-2-3-2Z"></path></g><g><path class="cls-1" d="m181.3,69.3h3.7s-.1,6.5-.1,6.5l-25.7-.3v-3.6c0,0,22.1.3,22.1.3v-2.9Z"></path><path class="cls-1" d="m181,95.4l.2-10.5h-7c.6.4,1.2,1,1.6,1.9.4.9.6,1.8.6,2.8,0,1.7-.5,3.2-1.3,4.2-.9,1.1-1.9,1.8-3.2,2.3-1.3.5-2.7.7-4.1.6-1.7,0-3.3-.3-4.6-.9-1.3-.6-2.4-1.5-3.1-2.7-.8-1.2-1.1-2.6-1.1-4.3,0-2.3.7-4.1,2-5.4,1.3-1.4,3-2.2,5.1-2.4v3.5c-1.2.2-2,.7-2.7,1.5s-1,1.8-1,3c0,1.5.5,2.6,1.5,3.3,1,.8,2.3,1.1,4,1.2,1.7,0,3-.3,3.9-1.1.9-.7,1.4-1.8,1.4-3.3,0-1-.3-1.9-.8-2.6-.6-.7-1.3-1.2-2.3-1.5v-3.4c0,0,14.9.2,14.9.2l-.2,13.7h-3.5Z"></path><path class="cls-1" d="m167.6,113.9c1,.9,1.4,2,1.4,3.4,0,1.4-.5,2.5-1.5,3.4-1,.9-2.3,1.3-4.1,1.3s-3.1-.5-4-1.4c-1-.9-1.4-2-1.4-3.4,0-1.4.5-2.5,1.5-3.4,1-.9,2.4-1.3,4.1-1.3s3.1.5,4,1.4Zm15.3,5.2l-24.3-12.8v-3.5c0,0,24.4,12.8,24.4,12.8v3.5Zm-19.4-3.8c-2,0-3.1.6-3.1,1.9,0,1.3,1,2,3,2,2,0,3.1-.6,3.1-1.9,0-1.3-1-2-3-2Zm18.7-13.9c1,.9,1.4,2,1.4,3.4,0,1.4-.5,2.5-1.5,3.4-1,.9-2.3,1.3-4.1,1.3-1.7,0-3.1-.5-4-1.4-1-.9-1.4-2-1.4-3.4,0-1.4.5-2.5,1.5-3.4,1-.9,2.4-1.3,4.1-1.3,1.7,0,3.1.5,4,1.4Zm-4.1,1.4c-2.1,0-3.1.6-3.1,1.9,0,.6.2,1.1.7,1.5.5.4,1.3.5,2.3.5,2,0,3.1-.6,3.1-1.9,0-1.3-1-2-3-2Z"></path></g><path class="cls-19" d="m846.2,143.6c3.8,10-4.3,21.5-4.3,21.5,0,0-14.4-4.7-18.3-14.7-3.8-10,4.3-21.5,4.3-21.5,0,0,14.4,4.7,18.3,14.7Z"></path><path class="cls-19" d="m289.5,88.1c3.8,10-4.3,21.5-4.3,21.5,0,0-14.4-4.7-18.3-14.7-3.8-10,4.3-21.5,4.3-21.5,0,0,14.4,4.7,18.3,14.7Z"></path><path class="cls-19" d="m815.7,194.1c8.6-3.2,19.2,1.8,19.2,1.8,0,0-3.3,10.2-11.9,13.5-8.6,3.2-19.2-1.8-19.2-1.8,0,0,3.3-10.2,11.9-13.5Z"></path><path class="cls-19" d="m441.6,166.4c8.6-3.2,19.2,1.8,19.2,1.8,0,0-3.3,10.2-11.9,13.5-8.6,3.2-19.2-1.8-19.2-1.8,0,0,3.3-10.2,11.9-13.5Z"></path><path class="cls-19" d="m1031.3,56.5c-2.9,4.1-9.9,4.8-9.9,4.8,0,0-2.2-5.9.7-9.9,2.9-4.1,9.9-4.8,9.9-4.8,0,0,2.2,5.9-.7,9.9Z"></path><path class="cls-19" d="m940.2,188.4c5.3,1.2,8.1,6.9,8.1,6.9,0,0-5.7,3.6-10.9,2.4-5.3-1.2-8.1-6.9-8.1-6.9,0,0,5.7-3.6,10.9-2.4Z"></path><path class="cls-19" d="m814.7,310.7c5.3,1.2,8.1,6.9,8.1,6.9,0,0-5.7,3.6-10.9,2.4-5.3-1.2-8.1-6.9-8.1-6.9,0,0,5.7-3.6,10.9-2.4Z"></path><path class="cls-19" d="m434,117.6c5.3,1.2,8.1,6.9,8.1,6.9,0,0-5.7,3.6-10.9,2.4-5.3-1.2-8.1-6.9-8.1-6.9,0,0,5.7-3.6,10.9-2.4Z"></path><path class="cls-19" d="m257.8,210.7c5.3,1.2,8.1,6.9,8.1,6.9,0,0-5.7,3.6-10.9,2.4-5.3-1.2-8.1-6.9-8.1-6.9,0,0,5.7-3.6,10.9-2.4Z"></path><path class="cls-19" d="m74.4,43.2c5.3,1.2,8.1,6.9,8.1,6.9,0,0-5.7,3.6-10.9,2.4-5.3-1.2-8.1-6.9-8.1-6.9,0,0,5.7-3.6,10.9-2.4Z"></path><path class="cls-19" d="m1158.8,66.6c1,4.7-3.6,9.5-3.6,9.5,0,0-6.1-3-7.1-7.7-1-4.7,3.6-9.5,3.6-9.5,0,0,6.1,3,7.1,7.7Z"></path><path class="cls-19" d="m1048.1,124.6c.5,2.4-1.8,4.7-1.8,4.7,0,0-3.1-1.5-3.6-3.8-.5-2.4,1.8-4.7,1.8-4.7,0,0,3.1,1.5,3.6,3.8Z"></path><path class="cls-19" d="m847.2,75.6c.5,2.4-1.8,4.7-1.8,4.7,0,0-3.1-1.5-3.6-3.8-.5-2.4,1.8-4.7,1.8-4.7,0,0,3.1,1.5,3.6,3.8Z"></path><path class="cls-19" d="m345.9,286.9c.5,2.4-1.8,4.7-1.8,4.7,0,0-3.1-1.5-3.6-3.8-.5-2.4,1.8-4.7,1.8-4.7,0,0,3.1,1.5,3.6,3.8Z"></path><path class="cls-19" d="m400.5,60.9c.5,2.4-1.8,4.7-1.8,4.7,0,0-3.1-1.5-3.6-3.8-.5-2.4,1.8-4.7,1.8-4.7,0,0,3.1,1.5,3.6,3.8Z"></path><path class="cls-19" d="m430.1,324c-2.7.3-5.2-1.8-5.2-1.8,0,0,1.8-2.6,4.5-3,2.7-.3,5.2,1.8,5.2,1.8,0,0-1.8,2.6-4.5,3Z"></path><g><path class="cls-1" d="m779.2,127.3s34.8-23.7,45-14.7c10.2,9,8.7,31.2,2,36.3-6.8,5.1-47-21.6-47-21.6Z"></path><path class="cls-16" d="m787.9,132.5c-.5-.3-3.7-2-4.2-2.3-.4-1.1-1-2.7-1.7-4.7,5.1-3.2,16.2-9.9,26.2-13.1-15,10-17,17.7-20.3,20.1Z"></path><path class="cls-1" d="m781.8,129.5s-26.3-68.4-7.5-64.1c18.8,4.3,42.9,27.6,39.7,35.2-3.2,7.6-32.2,28.9-32.2,28.9Z"></path><path class="cls-10" d="m778.2,133.6c10.6,9.4,21,15.3,23.4,13.2s-4.3-11.4-14.9-20.7c-10.6-9.4-21-15.3-23.4-13.2-2.3,2.1,4.3,11.4,14.9,20.7Z"></path><path class="cls-10" d="m768.4,115.1c-14.7-17.7-16.9-44.3-16.9-44.5h1.8c0,.2,2.2,26.3,16.6,43.6l-1.4.9Z"></path><path class="cls-13" d="m778.8,98.8c3.3,7.2,10.7,11.3,16.6,9.2,5.9-2.1,8-9.6,4.8-16.8s-10.7-11.3-16.6-9.2c-5.9,2.1-8,9.6-4.8,16.8Z"></path><path class="cls-18" d="m783.2,97.2c1.9,4.2,6.3,6.7,9.8,5.4,3.5-1.2,4.7-5.7,2.8-9.9-1.9-4.2-6.3-6.7-9.8-5.4-3.5,1.2-4.7,5.7-2.8,9.9Z"></path><path class="cls-8" d="m778.8,98.8c3.3,7.2,10.7,11.3,16.6,9.2,5.9-2.1,8-9.6,4.8-16.8s-10.7-11.3-16.6-9.2c-5.9,2.1-8,9.6-4.8,16.8Z"></path><path class="cls-1" d="m783.2,97.2c1.9,4.2,6.3,6.7,9.8,5.4,3.5-1.2,4.7-5.7,2.8-9.9-1.9-4.2-6.3-6.7-9.8-5.4-3.5,1.2-4.7,5.7-2.8,9.9Z"></path><path class="cls-12" d="m807.5,136.9c6.5,2,13.1.1,14.7-4.1,1.6-4.2-2.4-9.2-8.9-11.2-6.5-2-13.1-.1-14.7,4.1-1.6,4.2,2.4,9.2,8.9,11.2Z"></path><path class="cls-24" d="m808.7,133.8c3.9,1.2,7.8,0,8.7-2.4.9-2.5-1.4-5.5-5.3-6.6s-7.8,0-8.7,2.4c-.9,2.5,1.4,5.5,5.3,6.6Z"></path></g><g><path class="cls-11" d="m422.8,116.3s-25-17-32.3-10.5c-7.3,6.5-6.3,22.4-1.4,26,4.9,3.6,33.7-15.5,33.7-15.5Z"></path><path class="cls-22" d="m421,117.9s18.9-49,5.4-46c-13.5,3.1-30.8,19.8-28.5,25.2,2.3,5.5,23.1,20.7,23.1,20.7Z"></path><path class="cls-10" d="m423.5,120.8c-7.6,6.7-15.1,11-16.8,9.5-1.7-1.5,3.1-8.1,10.7-14.9,7.6-6.7,15.1-11,16.8-9.5,1.7,1.5-3.1,8.1-10.7,14.9Z"></path><path class="cls-10" d="m430.5,107.5l-1-.7c10.3-12.4,11.9-31.1,11.9-31.3h1.3c0,.3-1.6,19.3-12.1,32Z"></path><path class="cls-12" d="m423.1,95.8c-2.3,5.1-7.7,8.1-11.9,6.6-4.2-1.5-5.8-6.9-3.4-12,2.3-5.1,7.7-8.1,11.9-6.6,4.2,1.5,5.8,6.9,3.4,12Z"></path><path class="cls-12" d="m402.5,123.2c-4.7,1.4-9.4,0-10.6-3-1.2-3,1.7-6.6,6.4-8,4.7-1.4,9.4,0,10.6,3,1.2,3-1.7,6.6-6.4,8Z"></path><path class="cls-24" d="m401.6,120.9c-2.8.8-5.6,0-6.2-1.7-.7-1.8,1-3.9,3.8-4.7,2.8-.8,5.6,0,6.2,1.7.7,1.8-1,3.9-3.8,4.7Z"></path></g><g><path class="cls-23" d="m102.9,199.9s-17.3-18.9-25-14.8c-7.7,4.2-10.5,17.9-7.2,21.8,3.3,4,32.1-7.1,32.1-7.1Z"></path><path class="cls-23" d="m100.9,201s27.3-38.2,15.2-38c-12.1.2-30.6,11.2-29.9,16.2.7,5,14.8,21.8,14.8,21.8Z"></path><path class="cls-9" d="m102.4,203.9c-8,4.3-15.3,6.6-16.4,5-1.1-1.6,4.5-6.3,12.5-10.7,8-4.3,15.3-6.6,16.4-5,1.1,1.6-4.5,6.3-12.5,10.7Z"></path><path class="cls-9" d="m111.4,193.9l-.7-.8c11.6-8.6,17.2-24.3,17.3-24.4l1.1.3c0,.2-5.8,16-17.6,24.9Z"></path><path class="cls-9" d="m107.8,182.6c-3.2,3.9-8.4,5.5-11.6,3.4-3.2-2-3.3-6.9-.1-10.8,3.2-3.9,8.4-5.5,11.6-3.4,3.2,2,3.3,6.9.1,10.8Z"></path><path class="cls-12" d="m84.1,202.1c-4.3.3-8-1.6-8.3-4.4-.3-2.8,3-5.3,7.3-5.6,4.3-.3,8,1.6,8.3,4.4.3,2.8-3,5.3-7.3,5.6Z"></path><path class="cls-24" d="m83.9,200c-2.5.2-4.7-1-4.9-2.6-.2-1.6,1.8-3.1,4.3-3.3,2.5-.2,4.7,1,4.9,2.6.2,1.6-1.8,3.1-4.3,3.3Z"></path></g></svg>