<svg xmlns="http://www.w3.org/2000/svg" xmlns:xlink="http://www.w3.org/1999/xlink" width="512" height="512" x="0" y="0" viewBox="0 0 128 128" style="enable-background:new 0 0 512 512" xml:space="preserve" class=""><g><path d="M104.05 128H48.3a15.38 15.38 0 0 1-15.37-15.37v-6.26a2 2 0 0 1 4 0v6.26A11.38 11.38 0 0 0 48.3 124h55.75a11.38 11.38 0 0 0 11.37-11.37v-28a11.38 11.38 0 0 0-11.37-11.37H48.3a11.38 11.38 0 0 0-11.36 11.37V91a2 2 0 0 1-4 0v-6.37A15.38 15.38 0 0 1 48.3 69.26h55.75a15.38 15.38 0 0 1 15.37 15.37v28A15.38 15.38 0 0 1 104.05 128z" fill="#173e33" opacity="1" data-original="#000000" class=""></path><path d="M106.39 117H72.84a2 2 0 0 1-2-2V82.23a2 2 0 0 1 2-2h33.55a2 2 0 0 1 2 2V115a2 2 0 0 1-2 2zm-31.55-4h29.55V84.23H74.84zM44.64 107.85H2a2 2 0 0 1-2-2V91.42a2 2 0 0 1 2-2h42.64a2 2 0 0 1 2 2v14.43a2 2 0 0 1-2 2zm-40.64-4h38.64V93.42H4z" fill="#173e33" opacity="1" data-original="#000000" class=""></path><path d="M44.64 111.28a2 2 0 0 1-2-2V88a2 2 0 0 1 4 0v21.29a2 2 0 0 1-2 1.99zM19.58 81.67A9.55 9.55 0 0 1 10 72.13c0-8.38 7.57-19.42 7.89-19.89a2 2 0 0 1 1.61-.86 2 2 0 0 1 1.64.8c.32.43 7.94 10.67 7.94 20a9.55 9.55 0 0 1-9.5 9.49zM19.63 57C17.51 60.57 14 67.15 14 72.13a5.54 5.54 0 1 0 11.08 0c.04-5.5-3.34-11.74-5.45-15.13zM126.18 32.89 112 31.62a2 2 0 0 0-1.61.6c-.07.08-7.48 7.65-13.11 11.12-3.6 2.22-10.29 4.55-15.67 6.43l-1.44.5a13.16 13.16 0 0 0 2.58-3.55 6 6 0 0 0-.6-5.49 6.4 6.4 0 0 0-5-2.84 4.78 4.78 0 0 0-.5-3.06A7 7 0 0 0 72 31.52a5.86 5.86 0 0 0-.8-.11 5.61 5.61 0 0 0-.9-4.19c-.74-1-2.57-2.69-6.42-2.18s-9.3 4.36-10.44 5.17c-1.35.65-11 5.33-12.73 6.14h-.05c-9.37 4.4-17.39 7.85-19 7.91-.78 0-1-.24-1.08-.35a3.54 3.54 0 0 1-.32-2.22c3.52-2.56 27.71-16.16 30.09-17.24s10.85-5.8 13.55-7.31a9.83 9.83 0 0 1 1.26.35 15.07 15.07 0 0 1 4.13 2.92 2 2 0 0 0 2.81-2.84 18.86 18.86 0 0 0-5.54-3.82 13.65 13.65 0 0 0-1.78-.5 2 2 0 0 0-1.44-.25 32.84 32.84 0 0 0-7-.34c-2 .15-5.93-.17-10.39-4-1.81-1.55-2.21-3-2-3.81a1.11 1.11 0 0 1 .98-.85 18.26 18.26 0 0 1 5.09.6 39.06 39.06 0 0 0 7.27 1 44.77 44.77 0 0 0 7.26-.69 36.86 36.86 0 0 1 7-.61l3.57.19a99.25 99.25 0 0 0 11.62.23c2.64-.17 7.39 2.4 9.8 4.08a2 2 0 0 0 1.12.36L126 9.5a2 2 0 0 0 0-4l-27.67-.34C96.5 3.95 90.76.44 86.49.73A98.83 98.83 0 0 1 75.37.49L71.75.3A40.47 40.47 0 0 0 64 1a41.76 41.76 0 0 1-6.63.65A35.36 35.36 0 0 1 50.8.72a19.75 19.75 0 0 0-6.49-.63 5.11 5.11 0 0 0-4.16 3.7c-.74 2.62.46 5.59 3.23 7.95 4.08 3.48 8.74 5.22 13.16 4.92-3.16 1.74-6.6 3.6-7.87 4.18-1.55.71-10 5.38-16.54 9.14-15 8.59-15.23 9.11-15.55 10a7.55 7.55 0 0 0 .73 6.32 4.93 4.93 0 0 0 4.23 2h.23c2.25-.07 9.93-3.36 17.47-6.83A16 16 0 0 0 43 48c1.47 1.26 3.55 1.26 5.19 1 .48 2.61 1.79 6.41 5.35 7.48 2.11.63 5.65-.88 8.19-2.22a10.81 10.81 0 0 0 3.2 4.2 4.81 4.81 0 0 0 2.91 1 9.86 9.86 0 0 0 4.53-1.64c.89-.49 1.89-1 3.13-1.6 1.6-.73 4.28-1.66 7.38-2.74 5.56-1.94 12.48-4.35 16.45-6.8 5.08-3.13 11.18-9 13.2-11.06l13.28 1.19a2 2 0 1 0 .36-4zM49 44.67c-1.36.49-3 .67-3.42.34a12.07 12.07 0 0 1-2.71-5.28c5.54-2.61 10.47-5 12.4-6h.06l.23-.14c2.21-1.6 6.55-4.26 8.76-4.55 1.31-.17 2.27 0 2.65.55a2.12 2.12 0 0 1-.05 2 23.43 23.43 0 0 1-3.9 4C61.62 36.88 54 41.68 49 44.67zm5.67 8c-1.63-.49-2.43-3.19-2.69-5.13 3.17-1.94 11.8-7.26 13.7-8.93.8-.71 1.7-1.54 2.52-2.36a2 2 0 0 0 .5-.24 3.42 3.42 0 0 1 2.38-.57 3.28 3.28 0 0 1 1.93 1.82c.35.64-.15 1.84-1.26 3.33a4.58 4.58 0 0 0-.41.53 48.27 48.27 0 0 1-9.67 8.6c-2.77 1.67-6.09 3.08-6.96 2.94zm10.47-.52c2.66-1.93 7-5.36 9.63-9a2.57 2.57 0 0 1 2.07-.8 2.38 2.38 0 0 1 1.89 1.05 2 2 0 0 1 .27 1.91c-.51 1.37-5.66 6.2-10.23 9.95-.86.38-1.05.27-1.43 0a7.54 7.54 0 0 1-2.15-3.12zM21.83 100.63h-4.5a2 2 0 0 1 0-4h4.5a2 2 0 0 1 0 4zM58.83 94.77a7.27 7.27 0 1 1 7.27-7.27 7.28 7.28 0 0 1-7.27 7.27zm0-10.55a3.27 3.27 0 1 0 3.27 3.28 3.28 3.28 0 0 0-3.27-3.27zM58.83 117a7.27 7.27 0 1 1 7.27-7.27 7.28 7.28 0 0 1-7.27 7.27zm0-10.55a3.27 3.27 0 1 0 3.27 3.27 3.28 3.28 0 0 0-3.27-3.23zM97.42 107.57a2 2 0 0 1-2-2V91.7a2 2 0 0 1 4 0v13.88a2 2 0 0 1-2 1.99zM89.54 100.42a2 2 0 0 1-2-2V91.7a2 2 0 0 1 4 0v6.72a2 2 0 0 1-2 2zM81.67 107.57a2 2 0 0 1-2-2V91.7a2 2 0 0 1 4 0v13.88a2 2 0 0 1-2 1.99z" fill="#173e33" opacity="1" data-original="#000000" class=""></path></g></svg>