<svg xmlns="http://www.w3.org/2000/svg" xmlns:xlink="http://www.w3.org/1999/xlink" width="512" height="512" x="0" y="0" viewBox="0 0 606 606" style="enable-background:new 0 0 512 512" xml:space="preserve" class=""><g><path d="M428.139 516.708c0-54.638-42.653-100.978-97.089-105.511l-38.581-3.225 3.215 38.581c4.534 54.445 50.883 97.098 105.511 97.098h13.332l16.432 16.432 13.611-13.611-16.432-16.432v-13.332zm-19.551-6.218-18.954-18.954v-28.888c10.772 13.39 17.645 29.928 18.954 47.842zm-38.205-65.544v27.338l-41.999-41.999 1.059.087c15.103 1.261 29.042 6.527 40.94 14.574zm-55.524.01-.087-1.059 22.746 22.746h-17.876c-2.463-6.882-4.147-14.131-4.783-21.687zm14.574 40.939h27.338l38.206 38.206c-27.03-1.983-50.96-16.643-65.544-38.206z" fill="#173e33" opacity="1" data-original="#000000" class=""></path><path d="m606 485.895-46.205-115.513h-16.143V71.974c0-15.922-12.957-28.878-28.878-28.878H322.252c-15.922 0-28.878 12.957-28.878 28.878v45.214L274.122 88.31V62.348c10.618 0 19.252-8.635 19.252-19.252V23.844c0-10.618-8.635-19.252-19.252-19.252h-173.27c-10.618 0-19.252 8.635-19.252 19.252v19.252c0 10.618 8.635 19.252 19.252 19.252V88.31l-30.418 45.628a47.999 47.999 0 0 0-8.086 26.693v209.752H46.205L0 485.895h43.096v86.635c0 15.922 12.957 28.878 28.878 28.878h462.052c15.922 0 28.878-12.957 28.878-28.878v-86.635zm-43.096-19.252v-36.646l14.661 36.646zm-86.635-96.26h-48.13v-77.009H524.4v77.009zm-202.147-33.095 27.579 33.094h-27.579zm52.645 33.095-32.084-38.504h23.064l32.084 38.504zm43.616-5.41-27.579-33.094h27.579zM254.87 312.626v57.756h-19.252v-77.009h173.269v77.009h-19.252v-57.756zm154.017-134.765v57.756h-21.023c1.078-3.023 1.771-6.238 1.771-9.626 0-15.922-12.957-28.878-28.878-28.878-15.922 0-28.878 12.957-28.878 28.878 0 3.388.693 6.604 1.771 9.626h-21.023v-57.756zM524.4 274.122h-96.261v-96.261H524.4zm-173.27-48.131c0-5.314 4.322-9.626 9.626-9.626s9.626 4.312 9.626 9.626-4.322 9.626-9.626 9.626-9.626-4.312-9.626-9.626zm57.757 28.879v19.252h-173.27V254.87zm-192.522 0v19.252c0 1.713.298 3.34.722 4.919l-22.689 22.689c-20.513-23.526-33.229-53.348-35.443-85.018a144.098 144.098 0 0 1 66.757 21.736c-5.573 3.369-9.347 9.443-9.347 16.422zm0 52.115v15.248a144.536 144.536 0 0 1-8.394-6.854zM524.4 71.974v86.635h-96.261V62.348h86.635c5.304 0 9.626 4.313 9.626 9.626zm-202.148-9.626h86.635v96.261h-96.261V71.974c0-5.313 4.322-9.626 9.626-9.626zm-221.4-38.504h173.269l.01 19.252H100.852zM254.87 62.348V81.6H120.105V62.348zm-139.242 38.504h143.717l29.177 43.77c2.792 4.197 4.351 9 4.698 13.987H81.754c.347-4.986 1.906-9.79 4.698-13.987zM81.6 177.861h211.774v57.756h-39.14c-29.456-24.787-66.632-38.504-105.252-38.504h-9.626v9.626c0 56.341 29.398 108.948 77.009 138.741v22.255c-59.537-31.997-96.261-92.94-96.261-160.996v-9.626h-19.252v9.626c0 66.064 31.333 126.044 83.516 163.643H81.6zM59.239 389.635h133.283l-30.803 77.009H28.435zm3.109 182.895v-86.635h112.404l22.361-55.899v152.159H71.974c-5.304.001-9.626-4.311-9.626-9.625zm471.678 9.626h-317.66V389.635h327.287V572.53c-.001 5.314-4.323 9.626-9.627 9.626z" fill="#173e33" opacity="1" data-original="#000000" class=""></path><path d="M360.756 139.357c15.922 0 28.878-12.957 28.878-28.878S376.678 81.6 360.756 81.6s-28.878 12.957-28.878 28.878 12.957 28.879 28.878 28.879zm0-38.505c5.304 0 9.626 4.312 9.626 9.626s-4.322 9.626-9.626 9.626-9.626-4.312-9.626-9.626c0-5.313 4.322-9.626 9.626-9.626zM476.269 254.87c15.922 0 28.878-12.957 28.878-28.878s-12.957-28.878-28.878-28.878c-15.922 0-28.878 12.957-28.878 28.878s12.957 28.878 28.878 28.878zm0-38.505c5.304 0 9.626 4.312 9.626 9.626s-4.322 9.626-9.626 9.626-9.626-4.312-9.626-9.626 4.322-9.626 9.626-9.626zM505.148 341.504c0-15.922-12.957-28.878-28.878-28.878-15.922 0-28.878 12.957-28.878 28.878 0 15.922 12.957 28.878 28.878 28.878 15.921.001 28.878-12.956 28.878-28.878zm-28.879 9.626c-5.304 0-9.626-4.312-9.626-9.626s4.322-9.626 9.626-9.626 9.626 4.312 9.626 9.626-4.322 9.626-9.626 9.626zM476.269 139.357c15.922 0 28.878-12.957 28.878-28.878S492.191 81.6 476.269 81.6s-28.878 12.957-28.878 28.878 12.957 28.879 28.878 28.879zm0-38.505c5.304 0 9.626 4.312 9.626 9.626s-4.322 9.626-9.626 9.626-9.626-4.312-9.626-9.626c0-5.313 4.322-9.626 9.626-9.626z" fill="#173e33" opacity="1" data-original="#000000" class=""></path><circle cx="187.487" cy="245.244" r="9.626" fill="#173e33" opacity="1" data-original="#000000" class=""></circle></g></svg>