<svg xmlns="http://www.w3.org/2000/svg" xmlns:xlink="http://www.w3.org/1999/xlink" width="512" height="512" x="0" y="0" viewBox="0 0 512 512" style="enable-background:new 0 0 512 512" xml:space="preserve" class=""><g><path d="M185.185 7.5c4.37 17.32 12.12 33.47 22.85 47.4 10.73 13.93 24.44 25.63 40.74 34.05 10.69 5.52 23.74 1.88 30.25-8.25 3.11-4.83 6.68-9.39 10.69-13.62 8.72-9.18 19.13-16.37 30.53-21.26s23.78-7.49 36.44-7.49c37.9 0 71.41 18.79 91.74 47.56M463.895 117.28c3.26 10.52 5.02 21.69 5.02 33.28v38.85c0 38.91-12.47 74.91-33.63 104.21M193.102 504.366v-40.709c0-29.422-23.851-53.273-53.273-53.273h-12.771a61.621 61.621 0 0 1-50.925-26.925v0c-10.522-15.444-9.178-36.068 3.262-50.015v0c11.963-13.412 31.305-17.392 47.591-9.792l31.307 14.61a313.093 313.093 0 0 0 128.639 29.35" style="stroke-width:15;stroke-linecap:round;stroke-linejoin:round;stroke-miterlimit:10;" fill="none" stroke="#173e33" stroke-width="15" stroke-linecap="round" stroke-linejoin="round" stroke-miterlimit="10" data-original="#000000" class="" opacity="1"></path><path d="M10.615 369.51c3.78 19.35 13.3 36.65 26.7 50.05 17.62 17.62 41.96 28.52 68.85 28.52h31.27c10.78 0 19.52 8.74 19.52 19.52v36.77M137.885 7.5c9.65 52.57 42.93 98.18 91.61 123.32l15.19 7.85a36.305 36.305 0 0 1 19.65 32.26c0 21.16-7.98 40.46-21.09 55.05M10.145 334.51c7.7-46.07 47.76-81.17 96.02-81.17h75.76c11.71 0 22.85-2.44 32.94-6.85M410.172 180.84c6.177-1.741 13.616-3.02 24.54-3.02M297.777 177.82c33.336 0 34.21 11.905 65.844 12.529" style="stroke-width:15;stroke-linecap:round;stroke-linejoin:round;stroke-miterlimit:10;" fill="none" stroke="#173e33" stroke-width="15" stroke-linecap="round" stroke-linejoin="round" stroke-miterlimit="10" data-original="#000000" class="" opacity="1"></path><circle cx="335.173" cy="231.738" r="14.064" style="stroke-width:15;stroke-linecap:round;stroke-linejoin:round;stroke-miterlimit:10;" fill="none" stroke="#173e33" stroke-width="15" stroke-linecap="round" stroke-linejoin="round" stroke-miterlimit="10" data-original="#000000" class="" opacity="1"></circle><circle cx="387.478" cy="187.914" r="21.82" style="stroke-width:15;stroke-linecap:round;stroke-linejoin:round;stroke-miterlimit:10;" fill="none" stroke="#173e33" stroke-width="15" stroke-linecap="round" stroke-linejoin="round" stroke-miterlimit="10" data-original="#000000" class="" opacity="1"></circle><path d="M320.183 315.159c-8.097-2.781-14.133-10.216-14.696-19.293-.746-12.027 8.399-22.383 20.426-23.129 12.028-.746 22.383 8.399 23.129 20.426.063 1.02.055 2.029-.019 3.02M351.909 106.123h0M363.621 135.934h0M330.615 129.546h0M268.863 295.637h0" style="stroke-width:15;stroke-linecap:round;stroke-linejoin:round;stroke-miterlimit:10;" fill="none" stroke="#173e33" stroke-width="15" stroke-linecap="round" stroke-linejoin="round" stroke-miterlimit="10" data-original="#000000" class="" opacity="1"></path><path d="M399.269 285.939c22.801-25.687 36.643-59.526 36.643-96.526v-38.856c0-43.687-35.543-79.23-79.23-79.23-16.196 0-31.882 6.736-43.036 18.481a59.086 59.086 0 0 0-6.856 8.738 58.302 58.302 0 0 1-1.1 1.649c-11.019 15.917-14.817 35.577-10.288 54.399a69.81 69.81 0 0 1 1.93 16.335c0 63.637-51.773 115.41-115.41 115.41l-4.623.043c-12.191.113-15.969 16.552-5.05 21.975h0M172.249 308.358c37.131 17.328 78.449 26.421 119.419 26.274 3.58-.013 7.129-.156 10.642-.425" style="stroke-width:15;stroke-linecap:round;stroke-linejoin:round;stroke-miterlimit:10;" fill="none" stroke="#173e33" stroke-width="15" stroke-linecap="round" stroke-linejoin="round" stroke-miterlimit="10" data-original="#000000" class="" opacity="1"></path><path d="M486.605 451.5c9.69-16.23 15.25-35.2 15.25-55.47 0-59.91-48.56-108.48-108.47-108.48s-108.48 48.57-108.48 108.48c0 59.9 48.57 108.47 108.48 108.47 27.01 0 51.71-9.87 70.7-26.21" style="stroke-width:15;stroke-linecap:round;stroke-linejoin:round;stroke-miterlimit:10;" fill="none" stroke="#173e33" stroke-width="15" stroke-linecap="round" stroke-linejoin="round" stroke-miterlimit="10" data-original="#000000" class="" opacity="1"></path><path d="M334.992 376.19h38.556v-38.555h39.671v38.555h38.556v39.671h-38.556v38.556h-39.671v-38.556h-38.556z" style="stroke-width:15;stroke-linecap:round;stroke-linejoin:round;stroke-miterlimit:10;" fill="none" stroke="#173e33" stroke-width="15" stroke-linecap="round" stroke-linejoin="round" stroke-miterlimit="10" data-original="#000000" class="" opacity="1"></path></g></svg>