<svg xmlns="http://www.w3.org/2000/svg" width="214" height="216" viewBox="0 0 214 216" fill="none"><g clip-path="url(#clip0_204_1864)"><path opacity="0.9" fill-rule="evenodd" clip-rule="evenodd" d="M173.348 85.323L174.703 74.4344L164.555 70.27L163.166 59.3937L152.289 57.8791L148.232 47.6923L137.324 48.9323L130.854 40.0836L120.585 43.9872L112.118 37.0219L103.143 43.3593L93.2046 38.7227L86.0921 47.0824L75.3032 45.0636L70.4857 54.9277L59.533 55.6572L57.3254 66.4001L46.8919 69.8257L47.4269 80.7789L38.1682 86.6885L41.4085 97.1617L33.9129 105.179L39.665 114.516L34.3882 124.146L42.283 131.756L39.5768 142.389L49.1222 147.789L49.1412 158.763L59.7324 161.626L62.4779 172.237L73.4607 172.378L78.7683 181.972L89.4416 179.379L96.9698 187.349L106.661 182.188L115.935 188.031L124.045 180.63L134.493 183.983L140.507 174.797L151.463 175.452L155.003 165.059L165.781 162.969L166.627 152.033L176.553 147.328L174.644 136.53L183.093 129.507L178.553 119.525L184.994 110.629L178.122 102.095L182.136 91.8812L173.348 85.323Z" fill="#183E33"></path></g><path d="M131.765 150.772C132.032 150.844 132.306 150.685 132.378 150.419L133.543 146.072C133.614 145.805 133.456 145.531 133.189 145.46C132.922 145.388 132.648 145.546 132.577 145.813L131.541 149.677L127.678 148.642C127.411 148.57 127.137 148.728 127.065 148.995C126.994 149.262 127.152 149.536 127.419 149.607L131.765 150.772ZM116.75 125.057L131.462 150.539L132.328 150.039L117.616 124.557L116.75 125.057Z" fill="white"></path><path d="M71.6836 137.22L71.4436 136.804L73.3402 135.709L64.0702 119.653L62.1736 120.748L61.9336 120.333L74.4304 113.118L77.5504 118.522L77.1347 118.762C75.9247 116.666 74.8156 115.505 73.8074 115.279C72.8065 115.025 71.2409 115.513 69.1105 116.743L66.7722 118.093L71.0772 125.55L72.4542 124.755C73.7013 124.035 74.4236 123.306 74.6213 122.568C74.8089 121.813 74.5378 120.804 73.8078 119.539L74.2494 119.284L78.3744 126.429L77.9328 126.684C77.1928 125.402 76.4489 124.654 75.7013 124.439C74.9436 124.207 73.9413 124.451 72.6942 125.171L71.3172 125.966L76.0422 134.149L78.1466 132.934C79.463 132.174 80.4363 131.52 81.0664 130.972C81.6965 130.423 82.1018 129.785 82.2821 129.057C82.4624 128.33 82.4219 127.579 82.1605 126.807C81.9063 126.006 81.4239 124.911 80.7132 123.52L81.1289 123.28L84.5441 129.795L71.6836 137.22ZM88.1904 116.362C87.972 114.664 87.9216 113.377 88.0393 112.501C88.1569 111.624 88.5188 111.011 89.1251 110.661C89.7486 110.301 90.3286 110.186 90.865 110.315C91.4187 110.434 91.8256 110.719 92.0856 111.169C92.3456 111.619 92.422 112.072 92.3149 112.526C92.2151 112.953 91.966 113.282 91.5676 113.512C91.1866 113.732 90.7925 113.809 90.3854 113.744C89.9855 113.652 89.6906 113.441 89.5006 113.112C89.3106 112.783 89.2399 112.5 89.2885 112.264C89.3444 112.001 89.4303 111.79 89.5461 111.631C89.652 111.454 89.685 111.331 89.645 111.262C89.555 111.106 89.4234 111.078 89.2502 111.178C88.7825 111.448 88.5372 112.063 88.5142 113.023C88.4812 113.966 88.5748 115.228 88.7952 116.81L94.6973 121.093C95.6257 121.781 96.341 121.98 96.8433 121.69C97.2763 121.44 97.3791 120.838 97.1516 119.884L97.6423 119.773C97.881 120.467 97.9125 121.142 97.7369 121.797C97.5785 122.443 97.2222 122.926 96.6679 123.246C95.5074 123.916 94.1171 123.668 92.497 122.502L89.335 120.205C89.717 122.986 89.8812 124.751 89.8274 125.498C89.7585 126.738 89.3257 127.589 88.529 128.049C88.0094 128.349 87.4727 128.439 86.919 128.32C86.3825 128.191 85.9843 127.901 85.7243 127.451C85.4643 127.001 85.3842 126.562 85.4841 126.135C85.5912 125.68 85.8353 125.343 86.2163 125.123C86.6147 124.893 87.0138 124.824 87.4136 124.917C87.8207 124.982 88.1193 125.179 88.3093 125.508C88.4993 125.837 88.5663 126.133 88.5105 126.397C88.4446 126.643 88.3587 126.854 88.2528 127.03C88.1542 127.18 88.125 127.289 88.165 127.358C88.255 127.514 88.3866 127.542 88.5598 127.442C89.3219 127.002 89.3984 124.695 88.7894 120.52C88.7507 120.173 88.7173 119.915 88.6892 119.746L84.5416 116.702C83.6132 116.014 82.8978 115.815 82.3956 116.105C81.9625 116.355 81.8598 116.957 82.0873 117.911L81.5966 118.022C81.3579 117.328 81.3177 116.658 81.476 116.013C81.6517 115.357 82.0167 114.869 82.571 114.549C83.7314 113.879 85.1217 114.127 86.7419 115.293L88.1904 116.362ZM106.838 123.852L108.552 122.862L108.777 123.252L103.036 126.567L102.811 126.177L104.525 125.187L94.8504 108.43L93.0057 109.495L92.7807 109.105L93.3263 108.79C94.6773 108.01 95.8161 107.202 96.7426 106.367L98.3026 109.069L98.4585 108.979C98.2603 107.916 98.3143 106.949 98.6205 106.08C98.9441 105.2 99.5302 104.515 100.379 104.025C101.938 103.125 103.445 103.075 104.899 103.875C106.361 104.647 107.632 105.969 108.712 107.839C109.792 109.71 110.303 111.494 110.243 113.191C110.174 114.871 109.334 116.176 107.723 117.106C106.112 118.036 104.559 117.985 103.064 116.955L102.908 117.045L106.838 123.852ZM100.321 112.684L100.861 113.62C101.641 114.971 102.565 115.973 103.635 116.625C104.695 117.261 105.779 117.258 106.887 116.618C108.082 115.928 108.446 114.818 107.978 113.287C107.607 112.045 107.107 110.879 106.477 109.788C105.847 108.697 105.333 107.886 104.933 107.354C104.551 106.812 104.099 106.288 103.576 105.782C103.06 105.249 102.503 104.924 101.904 104.807C101.323 104.681 100.756 104.778 100.201 105.098C99.6644 105.408 99.2944 105.887 99.0914 106.535C98.8957 107.156 98.8516 107.84 98.9591 108.586C99.1668 110.106 99.6207 111.472 100.321 112.684ZM124.194 105.171C123.889 106.964 122.836 108.38 121.035 109.42C119.234 110.46 117.481 110.664 115.776 110.031C114.072 109.399 112.669 108.13 111.569 106.225C110.469 104.319 110.072 102.471 110.376 100.678C110.681 98.8857 111.734 97.4695 113.535 96.4295C115.336 95.3895 117.089 95.1857 118.794 95.8182C120.499 96.4506 121.901 97.7194 123.001 99.6247C124.101 101.53 124.499 103.379 124.194 105.171ZM121.434 102.85C121.178 102.328 120.861 101.738 120.481 101.08C120.101 100.422 119.748 99.8513 119.424 99.369C119.099 98.8867 118.703 98.3997 118.234 97.9082C117.783 97.4066 117.34 97.0389 116.904 96.8052C116.476 96.5442 115.985 96.4124 115.429 96.4099C114.891 96.3974 114.344 96.5512 113.79 96.8712C113.236 97.1912 112.821 97.5924 112.545 98.0749C112.287 98.5474 112.155 99.0392 112.15 99.5502C112.152 100.034 112.249 100.602 112.44 101.253C112.649 101.895 112.881 102.477 113.136 102.999C113.392 103.521 113.709 104.112 114.089 104.77C114.469 105.428 114.822 105.998 115.146 106.48C115.471 106.963 115.859 107.455 116.31 107.956C116.779 108.448 117.227 108.824 117.655 109.085C118.09 109.319 118.577 109.442 119.115 109.454C119.671 109.457 120.226 109.298 120.78 108.978C121.334 108.658 121.741 108.262 121.999 107.789C122.275 107.307 122.411 106.824 122.409 106.34C122.415 105.829 122.313 105.253 122.104 104.611C121.913 103.96 121.689 103.373 121.434 102.85ZM132.054 88.3706C131.794 87.9202 131.414 87.6428 130.915 87.5384C130.416 87.4339 129.889 87.5417 129.335 87.8617C128.781 88.1817 128.391 88.7069 128.166 89.4372C127.948 90.1402 127.915 90.9218 128.065 91.7819C128.387 93.4203 129.008 95.0362 129.928 96.6297L132.718 101.462L134.615 100.367L134.84 100.757L128.916 104.177L128.691 103.787L130.406 102.797L123.956 91.6253L122.111 92.6903L121.886 92.3006L122.432 91.9856C123.818 91.1856 124.974 90.3681 125.9 89.5329L127.46 92.2349L127.616 92.1449C127.234 89.8023 127.77 88.211 129.225 87.371C129.866 87.001 130.505 86.9089 131.144 87.0946C131.789 87.2529 132.287 87.6352 132.637 88.2414C132.977 88.8303 133.079 89.4067 132.943 89.9704C132.814 90.5068 132.515 90.91 132.047 91.18C131.597 91.44 131.15 91.5251 130.705 91.4353C130.268 91.3182 129.94 91.0691 129.72 90.688C129.49 90.2897 129.412 89.8956 129.487 89.5058C129.553 89.0986 129.776 88.7851 130.157 88.5651C130.746 88.2251 131.222 88.2502 131.586 88.6406C131.711 88.7764 131.842 88.8044 131.981 88.7244C132.119 88.6444 132.144 88.5264 132.054 88.3706ZM138.401 82.073C139.7 81.323 140.943 80.9751 142.129 81.0294C143.332 81.0736 144.254 81.65 144.894 82.7585C145.884 84.4732 145.515 86.0948 143.788 87.6232C142.911 88.3837 141.736 89.189 140.264 90.039L139.043 90.744L139.478 91.4974C140.288 92.9004 141.234 93.8785 142.315 94.4319C143.404 94.9579 144.503 94.9009 145.611 94.2609C146.737 93.6109 147.422 92.7768 147.665 91.7586C147.926 90.7304 147.886 89.6217 147.546 88.4325L148.044 88.2145C148.497 89.6389 148.524 90.9858 148.125 92.2552C147.734 93.4973 146.897 94.4884 145.616 95.2284C143.814 96.2684 142.106 96.4695 140.491 95.8317C138.865 95.1766 137.488 93.8704 136.358 91.9132C135.228 89.9559 134.825 88.0984 135.149 86.3406C135.464 84.5655 136.548 83.143 138.401 82.073ZM138.773 90.2763L139.682 89.7513C141.085 88.9413 141.984 88.2377 142.378 87.6406C142.789 87.0335 142.984 86.4707 142.962 85.9524C142.93 85.4167 142.699 84.7764 142.269 84.0316C141.839 83.2869 141.283 82.7647 140.602 82.4651C139.928 82.1381 139.211 82.1946 138.448 82.6346C137.686 83.0746 137.223 83.7118 137.058 84.546C136.9 85.353 136.945 86.1702 137.192 86.9976C137.456 87.8151 137.843 88.6655 138.353 89.5488L138.773 90.2763Z" fill="#DEDEDE"></path><path opacity="0.9" d="M162.934 66.8156L162.958 67.1053L163.223 67.227L172.835 71.6558L171.094 82.1041L171.047 82.3906L171.272 82.574L179.471 89.2518L175.175 98.9439L175.057 99.2097L175.23 99.4436L181.518 107.957L174.95 116.283L174.77 116.511L174.879 116.78L178.847 126.592L170.419 133.026L170.188 133.202L170.226 133.489L171.622 143.985L161.864 148.121L161.597 148.234L161.563 148.522L160.306 159.045L149.83 160.624L149.543 160.667L149.438 160.937L145.602 170.819L135.064 169.749L134.776 169.719L134.607 169.955L128.434 178.57L118.506 174.914L118.234 174.813L118.011 175L109.896 181.817L101.19 175.802L100.951 175.637L100.689 175.763L91.1321 180.353L84.1965 172.359L84.0061 172.14L83.7212 172.197L73.3236 174.267L68.6031 164.8L68.4734 164.54L68.183 164.524L57.6095 163.945L55.3903 153.589L55.3293 153.304L55.0517 153.217L44.9569 150.034L45.3789 139.452L45.3905 139.162L45.1439 139.008L36.164 133.407L39.2141 123.256L39.2978 122.978L39.0972 122.768L31.7934 115.106L37.262 106.033L37.4119 105.784L37.2703 105.531L32.11 96.2928L39.6666 88.8554L39.8734 88.6519L39.7993 88.3714L37.0968 78.1369L46.2611 72.8092L46.5117 72.6635L46.5098 72.3736L46.439 61.7872L56.6346 58.901L56.9133 58.8221L56.9835 58.5411L59.5533 48.2605L70.1457 48.0022L70.4355 47.9951L70.5733 47.7401L75.6118 38.4199L85.9256 40.8038L86.2082 40.8691L86.4052 40.6562L93.6078 32.8719L102.999 37.7496L103.257 37.8833L103.501 37.7261L112.413 31.98L120.298 39.0366L120.514 39.2303L120.79 39.1382L130.839 35.7793L136.713 44.5827L136.874 44.8246L137.164 44.8039L147.737 44.0518L151.23 54.0411L151.327 54.3158L151.613 54.3679L162.028 56.264L162.934 66.8156Z" stroke="#5DC548"></path><defs><clipPath id="clip0_204_1864"><rect width="151" height="151" fill="white" transform="translate(6.36511 84.8651) rotate(-30)"></rect></clipPath></defs></svg>