<svg xmlns="http://www.w3.org/2000/svg" width="194" height="156" viewBox="0 0 194 156" fill="none"><path d="M67.5751 76.147C67.9657 75.7565 67.9657 75.1234 67.5751 74.7328L61.2112 68.3689C60.8207 67.9783 60.1875 67.9783 59.797 68.3689C59.4064 68.7594 59.4064 69.3926 59.797 69.7831L65.4538 75.4399L59.797 81.0968C59.4064 81.4873 59.4064 82.1205 59.797 82.511C60.1875 82.9015 60.8207 82.9015 61.2112 82.511L67.5751 76.147ZM0 76.4399H66.868V74.4399H0V76.4399Z" fill="#5F9A53"></path><circle cx="115.266" cy="77.9166" r="77.4166" stroke="#777777"></circle><path d="M155.244 65.4915C154.954 64.8815 154.534 64.4115 153.984 64.0815C153.434 63.7415 152.794 63.5715 152.064 63.5715C151.334 63.5715 150.674 63.7415 150.084 64.0815C149.504 64.4115 149.044 64.8915 148.704 65.5215C148.374 66.1415 148.209 66.8615 148.209 67.6815C148.209 68.5015 148.374 69.2215 148.704 69.8415C149.044 70.4615 149.504 70.9415 150.084 71.2815C150.674 71.6115 151.334 71.7765 152.064 71.7765C153.084 71.7765 153.924 71.4715 154.584 70.8615C155.244 70.2515 155.629 69.4265 155.739 68.3865H151.569V67.2765H157.194V68.3265C157.114 69.1865 156.844 69.9765 156.384 70.6965C155.924 71.4065 155.319 71.9715 154.569 72.3915C153.819 72.8015 152.984 73.0065 152.064 73.0065C151.094 73.0065 150.209 72.7815 149.409 72.3315C148.609 71.8715 147.974 71.2365 147.504 70.4265C147.044 69.6165 146.814 68.7015 146.814 67.6815C146.814 66.6615 147.044 65.7465 147.504 64.9365C147.974 64.1165 148.609 63.4815 149.409 63.0315C150.209 62.5715 151.094 62.3415 152.064 62.3415C153.174 62.3415 154.154 62.6165 155.004 63.1665C155.864 63.7165 156.489 64.4915 156.879 65.4915H155.244ZM160.364 63.5715V67.0665H164.174V68.1915H160.364V71.7915H164.624V72.9165H158.999V62.4465H164.624V63.5715H160.364ZM173.124 62.4615V63.5715H170.274V72.9165H168.909V63.5715H166.044V62.4615H173.124ZM133.521 82.4615L130.116 88.9715V92.9165H128.751V88.9715L125.331 82.4615H126.846L129.426 87.7565L132.006 82.4615H133.521ZM139.701 93.0215C138.731 93.0215 137.846 92.7965 137.046 92.3465C136.246 91.8865 135.611 91.2515 135.141 90.4415C134.681 89.6215 134.451 88.7015 134.451 87.6815C134.451 86.6615 134.681 85.7465 135.141 84.9365C135.611 84.1165 136.246 83.4815 137.046 83.0315C137.846 82.5715 138.731 82.3415 139.701 82.3415C140.681 82.3415 141.571 82.5715 142.371 83.0315C143.171 83.4815 143.801 84.1115 144.261 84.9215C144.721 85.7315 144.951 86.6515 144.951 87.6815C144.951 88.7115 144.721 89.6315 144.261 90.4415C143.801 91.2515 143.171 91.8865 142.371 92.3465C141.571 92.7965 140.681 93.0215 139.701 93.0215ZM139.701 91.8365C140.431 91.8365 141.086 91.6665 141.666 91.3265C142.256 90.9865 142.716 90.5015 143.046 89.8715C143.386 89.2415 143.556 88.5115 143.556 87.6815C143.556 86.8415 143.386 86.1115 143.046 85.4915C142.716 84.8615 142.261 84.3765 141.681 84.0365C141.101 83.6965 140.441 83.5265 139.701 83.5265C138.961 83.5265 138.301 83.6965 137.721 84.0365C137.141 84.3765 136.681 84.8615 136.341 85.4915C136.011 86.1115 135.846 86.8415 135.846 87.6815C135.846 88.5115 136.011 89.2415 136.341 89.8715C136.681 90.5015 137.141 90.9865 137.721 91.3265C138.311 91.6665 138.971 91.8365 139.701 91.8365ZM148.088 82.4615V89.0765C148.088 90.0065 148.313 90.6965 148.763 91.1465C149.223 91.5965 149.858 91.8215 150.668 91.8215C151.468 91.8215 152.093 91.5965 152.543 91.1465C153.003 90.6965 153.233 90.0065 153.233 89.0765V82.4615H154.598V89.0615C154.598 89.9315 154.423 90.6665 154.073 91.2665C153.723 91.8565 153.248 92.2965 152.648 92.5865C152.058 92.8765 151.393 93.0215 150.653 93.0215C149.913 93.0215 149.243 92.8765 148.643 92.5865C148.053 92.2965 147.583 91.8565 147.233 91.2665C146.893 90.6665 146.723 89.9315 146.723 89.0615V82.4615H148.088ZM162.38 92.9165L159.89 88.6415H158.24V92.9165H156.875V82.4615H160.25C161.04 82.4615 161.705 82.5965 162.245 82.8665C162.795 83.1365 163.205 83.5015 163.475 83.9615C163.745 84.4215 163.88 84.9465 163.88 85.5365C163.88 86.2565 163.67 86.8915 163.25 87.4415C162.84 87.9915 162.22 88.3565 161.39 88.5365L164.015 92.9165H162.38ZM158.24 87.5465H160.25C160.99 87.5465 161.545 87.3665 161.915 87.0065C162.285 86.6365 162.47 86.1465 162.47 85.5365C162.47 84.9165 162.285 84.4365 161.915 84.0965C161.555 83.7565 161 83.5865 160.25 83.5865H158.24V87.5465ZM169.316 93.0215C168.626 93.0215 168.006 92.9015 167.456 92.6615C166.916 92.4115 166.491 92.0715 166.181 91.6415C165.871 91.2015 165.711 90.6965 165.701 90.1265H167.156C167.206 90.6165 167.406 91.0315 167.756 91.3715C168.116 91.7015 168.636 91.8665 169.316 91.8665C169.966 91.8665 170.476 91.7065 170.846 91.3865C171.226 91.0565 171.416 90.6365 171.416 90.1265C171.416 89.7265 171.306 89.4015 171.086 89.1515C170.866 88.9015 170.591 88.7115 170.261 88.5815C169.931 88.4515 169.486 88.3115 168.926 88.1615C168.236 87.9815 167.681 87.8015 167.261 87.6215C166.851 87.4415 166.496 87.1615 166.196 86.7815C165.906 86.3915 165.761 85.8715 165.761 85.2215C165.761 84.6515 165.906 84.1465 166.196 83.7065C166.486 83.2665 166.891 82.9265 167.411 82.6865C167.941 82.4465 168.546 82.3265 169.226 82.3265C170.206 82.3265 171.006 82.5715 171.626 83.0615C172.256 83.5515 172.611 84.2015 172.691 85.0115H171.191C171.141 84.6115 170.931 84.2615 170.561 83.9615C170.191 83.6515 169.701 83.4965 169.091 83.4965C168.521 83.4965 168.056 83.6465 167.696 83.9465C167.336 84.2365 167.156 84.6465 167.156 85.1765C167.156 85.5565 167.261 85.8665 167.471 86.1065C167.691 86.3465 167.956 86.5315 168.266 86.6615C168.586 86.7815 169.031 86.9215 169.601 87.0815C170.291 87.2715 170.846 87.4615 171.266 87.6515C171.686 87.8315 172.046 88.1165 172.346 88.5065C172.646 88.8865 172.796 89.4065 172.796 90.0665C172.796 90.5765 172.661 91.0565 172.391 91.5065C172.121 91.9565 171.721 92.3215 171.191 92.6015C170.661 92.8815 170.036 93.0215 169.316 93.0215Z" fill="#E0E0E0"></path></svg>