<svg width="194" height="156" viewBox="0 0 194 156" fill="none" xmlns="http://www.w3.org/2000/svg">
<path d="M67.5751 76.147C67.9657 75.7565 67.9657 75.1234 67.5751 74.7328L61.2112 68.3689C60.8207 67.9783 60.1875 67.9783 59.797 68.3689C59.4064 68.7594 59.4064 69.3926 59.797 69.7831L65.4538 75.4399L59.797 81.0968C59.4064 81.4873 59.4064 82.1205 59.797 82.511C60.1875 82.9015 60.8207 82.9015 61.2112 82.511L67.5751 76.147ZM0 76.4399H66.868V74.4399H0V76.4399Z" fill="#5F9A53"/>
<circle cx="115.266" cy="77.9166" r="77.4166" stroke="#777777"/>
<path d="M148.532 56.6445C148.228 56.0872 147.81 55.6628 147.278 55.3715C146.746 55.0802 146.126 54.9345 145.416 54.9345C144.631 54.9345 143.934 55.1118 143.326 55.4665C142.718 55.8212 142.243 56.3278 141.901 56.9865C141.559 57.6452 141.388 58.4052 141.388 59.2665C141.388 60.1532 141.559 60.9258 141.901 61.5845C142.256 62.2432 142.744 62.7498 143.364 63.1045C143.985 63.4592 144.707 63.6365 145.53 63.6365C146.544 63.6365 147.373 63.3705 148.019 62.8385C148.665 62.2938 149.09 61.5402 149.292 60.5775H144.732V58.5445H151.914V60.8625C151.737 61.7872 151.357 62.6422 150.774 63.4275C150.192 64.2128 149.438 64.8462 148.513 65.3275C147.601 65.7962 146.575 66.0305 145.435 66.0305C144.156 66.0305 142.997 65.7455 141.958 65.1755C140.932 64.5928 140.122 63.7885 139.526 62.7625C138.944 61.7365 138.652 60.5712 138.652 59.2665C138.652 57.9618 138.944 56.7965 139.526 55.7705C140.122 54.7318 140.932 53.9275 141.958 53.3575C142.997 52.7748 144.15 52.4835 145.416 52.4835C146.911 52.4835 148.209 52.8508 149.311 53.5855C150.413 54.3075 151.173 55.3272 151.591 56.6445H148.532ZM156.542 54.8015V58.1265H161.007V60.2355H156.542V63.7505H161.577V65.9165H153.882V52.6355H161.577V54.8015H156.542ZM173.02 52.6545V54.8015H169.486V65.9165H166.826V54.8015H163.292V52.6545H173.02ZM121.51 72.6545L117.026 81.2995V85.9165H114.366V81.2995L109.863 72.6545H112.865L115.715 78.7155L118.546 72.6545H121.51ZM129.2 86.0495C127.959 86.0495 126.819 85.7582 125.78 85.1755C124.742 84.5928 123.918 83.7885 123.31 82.7625C122.702 81.7238 122.398 80.5522 122.398 79.2475C122.398 77.9555 122.702 76.7965 123.31 75.7705C123.918 74.7318 124.742 73.9212 125.78 73.3385C126.819 72.7558 127.959 72.4645 129.2 72.4645C130.454 72.4645 131.594 72.7558 132.62 73.3385C133.659 73.9212 134.476 74.7318 135.071 75.7705C135.679 76.7965 135.983 77.9555 135.983 79.2475C135.983 80.5522 135.679 81.7238 135.071 82.7625C134.476 83.7885 133.659 84.5928 132.62 85.1755C131.582 85.7582 130.442 86.0495 129.2 86.0495ZM129.2 83.6745C129.998 83.6745 130.701 83.4972 131.309 83.1425C131.917 82.7752 132.392 82.2558 132.734 81.5845C133.076 80.9132 133.247 80.1342 133.247 79.2475C133.247 78.3608 133.076 77.5882 132.734 76.9295C132.392 76.2582 131.917 75.7452 131.309 75.3905C130.701 75.0358 129.998 74.8585 129.2 74.8585C128.402 74.8585 127.693 75.0358 127.072 75.3905C126.464 75.7452 125.989 76.2582 125.647 76.9295C125.305 77.5882 125.134 78.3608 125.134 79.2475C125.134 80.1342 125.305 80.9132 125.647 81.5845C125.989 82.2558 126.464 82.7752 127.072 83.1425C127.693 83.4972 128.402 83.6745 129.2 83.6745ZM140.584 72.6545V80.8625C140.584 81.7618 140.819 82.4522 141.287 82.9335C141.756 83.4022 142.415 83.6365 143.263 83.6365C144.125 83.6365 144.79 83.4022 145.258 82.9335C145.727 82.4522 145.961 81.7618 145.961 80.8625V72.6545H148.64V80.8435C148.64 81.9708 148.393 82.9272 147.899 83.7125C147.418 84.4852 146.766 85.0678 145.942 85.4605C145.132 85.8532 144.226 86.0495 143.225 86.0495C142.237 86.0495 141.338 85.8532 140.527 85.4605C139.729 85.0678 139.096 84.4852 138.627 83.7125C138.159 82.9272 137.924 81.9708 137.924 80.8435V72.6545H140.584ZM158.05 85.9165L155.124 80.7485H153.87V85.9165H151.21V72.6545H156.188C157.214 72.6545 158.088 72.8382 158.81 73.2055C159.532 73.5602 160.071 74.0478 160.425 74.6685C160.793 75.2765 160.976 75.9605 160.976 76.7205C160.976 77.5945 160.723 78.3862 160.216 79.0955C159.71 79.7922 158.956 80.2735 157.955 80.5395L161.128 85.9165H158.05ZM153.87 78.7535H156.093C156.815 78.7535 157.354 78.5825 157.708 78.2405C158.063 77.8858 158.24 77.3982 158.24 76.7775C158.24 76.1695 158.063 75.7008 157.708 75.3715C157.354 75.0295 156.815 74.8585 156.093 74.8585H153.87V78.7535ZM167.961 86.0495C167.037 86.0495 166.201 85.8912 165.453 85.5745C164.719 85.2578 164.136 84.8018 163.705 84.2065C163.275 83.6112 163.053 82.9082 163.04 82.0975H165.89C165.928 82.6422 166.118 83.0728 166.46 83.3895C166.815 83.7062 167.296 83.8645 167.904 83.8645C168.525 83.8645 169.013 83.7188 169.367 83.4275C169.722 83.1235 169.899 82.7308 169.899 82.2495C169.899 81.8568 169.779 81.5338 169.538 81.2805C169.298 81.0272 168.994 80.8308 168.626 80.6915C168.272 80.5395 167.778 80.3748 167.144 80.1975C166.283 79.9442 165.58 79.6972 165.035 79.4565C164.503 79.2032 164.041 78.8295 163.648 78.3355C163.268 77.8288 163.078 77.1575 163.078 76.3215C163.078 75.5362 163.275 74.8522 163.667 74.2695C164.06 73.6868 164.611 73.2435 165.32 72.9395C166.03 72.6228 166.84 72.4645 167.752 72.4645C169.12 72.4645 170.229 72.8002 171.077 73.4715C171.939 74.1302 172.414 75.0548 172.502 76.2455H169.576C169.551 75.7895 169.355 75.4158 168.987 75.1245C168.633 74.8205 168.158 74.6685 167.562 74.6685C167.043 74.6685 166.625 74.8015 166.308 75.0675C166.004 75.3335 165.852 75.7198 165.852 76.2265C165.852 76.5812 165.966 76.8788 166.194 77.1195C166.435 77.3475 166.726 77.5375 167.068 77.6895C167.423 77.8288 167.917 77.9935 168.55 78.1835C169.412 78.4368 170.115 78.6902 170.659 78.9435C171.204 79.1968 171.673 79.5768 172.065 80.0835C172.458 80.5902 172.654 81.2552 172.654 82.0785C172.654 82.7878 172.471 83.4465 172.103 84.0545C171.736 84.6625 171.198 85.1502 170.488 85.5175C169.779 85.8722 168.937 86.0495 167.961 86.0495ZM137.95 105.917H135.29L129.267 96.8155V105.917H126.607V92.6355H129.267L135.29 101.756V92.6355H137.95V105.917ZM146.735 106.05C145.493 106.05 144.353 105.758 143.315 105.176C142.276 104.593 141.453 103.789 140.845 102.763C140.237 101.724 139.933 100.552 139.933 99.2475C139.933 97.9555 140.237 96.7965 140.845 95.7705C141.453 94.7318 142.276 93.9212 143.315 93.3385C144.353 92.7558 145.493 92.4645 146.735 92.4645C147.989 92.4645 149.129 92.7558 150.155 93.3385C151.193 93.9212 152.01 94.7318 152.606 95.7705C153.214 96.7965 153.518 97.9555 153.518 99.2475C153.518 100.552 153.214 101.724 152.606 102.763C152.01 103.789 151.193 104.593 150.155 105.176C149.116 105.758 147.976 106.05 146.735 106.05ZM146.735 103.675C147.533 103.675 148.236 103.497 148.844 103.143C149.452 102.775 149.927 102.256 150.269 101.585C150.611 100.913 150.782 100.134 150.782 99.2475C150.782 98.3608 150.611 97.5882 150.269 96.9295C149.927 96.2582 149.452 95.7452 148.844 95.3905C148.236 95.0358 147.533 94.8585 146.735 94.8585C145.937 94.8585 145.227 95.0358 144.607 95.3905C143.999 95.7452 143.524 96.2582 143.182 96.9295C142.84 97.5882 142.669 98.3608 142.669 99.2475C142.669 100.134 142.84 100.913 143.182 101.585C143.524 102.256 143.999 102.775 144.607 103.143C145.227 103.497 145.937 103.675 146.735 103.675ZM173.224 92.6545L169.519 105.917H166.384L163.895 96.4735L161.292 105.917L158.176 105.936L154.604 92.6545H157.454L159.791 102.953L162.489 92.6545H165.453L167.999 102.896L170.355 92.6545H173.224Z" fill="#E0E0E0"/>
</svg>
