<svg xmlns="http://www.w3.org/2000/svg" xmlns:xlink="http://www.w3.org/1999/xlink" width="512" height="512" x="0" y="0" viewBox="0 0 512 512" style="enable-background:new 0 0 512 512" xml:space="preserve" class=""><g><path d="M115.613 222.968c-10.082 0-16.516-4.891-16.516-8.258H82.581c0 13.892 14.509 24.774 33.032 24.774s33.032-10.882 33.032-24.774h-16.516c0 3.367-6.434 8.258-16.516 8.258z" fill="#173e33" opacity="1" data-original="#000000" class=""></path><path d="M198.194 371.618v-91.673c18.823-3.837 33.032-20.521 33.032-40.46s-14.209-36.623-33.032-40.46v-3.806c0-21.128-17.187-38.315-38.314-38.315-2.517 0-5.046.25-7.514.744L80.801 171.96a75.311 75.311 0 0 1-14.737 1.46c-9.107 0-16.516-7.41-16.516-16.516 0-9.107 7.41-16.516 16.516-16.516h8.258v-16.516h-8.258c-18.214 0-33.032 14.818-33.032 33.032a32.822 32.822 0 0 0 4.444 16.516h-4.444c-9.107 0-16.516-7.41-16.516-16.516 0-45.535 37.046-82.581 82.581-82.581h82.581v74.323h90.839c6.49 0 12.726-1.091 18.554-3.072 4.129 11.54 6.22 23.648 6.22 36.104v123.871h16.516V181.677c0-15.093-2.668-29.751-7.927-43.676 12.644-8.971 21.541-22.882 23.844-38.905h157.502c13.66 0 24.774-11.114 24.774-24.774s-11.114-24.774-24.774-24.774H329.723C325.703 21.572 301.587 0 272.516 0h-90.839v57.806h-82.58C44.454 57.806 0 102.261 0 156.903c0 18.214 14.818 33.032 33.032 33.032h16.516v46.127l-11.837 11.832a15.873 15.873 0 0 0-4.679 11.296v.105c0 6.214 3.445 11.795 8.989 14.562l7.549 3.773c.896 36.682 29.77 66.531 66.043 69.02v24.967c-38.759 16.211-66.065 54.521-66.065 99.092V512h214.71v-41.29c0-44.571-27.305-82.881-66.064-99.092zm0-289.037h66.065v16.516h-66.065V82.581zm66.064-16.516h-66.065V49.548h66.065v16.517zm-66.064 49.548h66.065v16.516h-66.065v-16.516zm297.29-41.29c0 4.553-3.705 8.258-8.258 8.258H330.323V66.065h156.903c4.553 0 8.258 3.704 8.258 8.258zM313.806 57.806v33.032c0 19.94-14.209 36.622-33.032 40.459V17.347c18.823 3.837 33.032 20.519 33.032 40.459zm-49.548-41.29v16.516h-66.065V16.516h66.065zM132.129 345.861c15.434-2.577 29.777-10.211 40.511-21.832l-12.131-11.207c-10.274 11.122-24.853 17.501-39.996 17.501-30.023 0-54.449-24.425-54.449-54.449v-8.461l-16.343-8.169L61.3 247.669a16.157 16.157 0 0 0 4.764-11.498v-46.235c6.024 0 12.072-.599 17.976-1.781l71.564-14.312a21.829 21.829 0 0 1 4.275-.423c12.02 0 21.798 9.779 21.798 21.798v19.492h8.258c13.66 0 24.774 11.114 24.774 24.774s-11.114 24.774-24.774 24.774h-8.258v101.987a107.237 107.237 0 0 0-24.774-2.89c-8.524 0-16.819 1.004-24.774 2.89v-20.384zm82.581 149.623H99.097V470.71c0-31.875 25.931-57.806 57.806-57.806s57.806 25.931 57.806 57.806v24.774zm33.032 0h-16.516V470.71c0-40.982-33.341-74.323-74.323-74.323S82.58 429.728 82.58 470.71v24.774H66.065V470.71c0-50.088 40.75-90.839 90.839-90.839s90.839 40.75 90.839 90.839v24.774z" fill="#173e33" opacity="1" data-original="#000000" class=""></path><path d="M478.968 347.67v-9.089c0-13.66-11.114-24.774-24.774-24.774h-9.678a24.653 24.653 0 0 0 1.42-8.258c0-9.28-5.132-17.38-12.704-21.624a28.494 28.494 0 0 0 4.446-15.307c0-10.931-6.074-20.758-15.849-25.645l-29.133-14.566-7.72 15.437a7.014 7.014 0 0 1-6.307 3.899c-12.997 0-23.571 10.573-23.571 23.57v2.409a23.43 23.43 0 0 0 2.83 11.19c-6.678 4.443-11.089 12.034-11.089 20.638 0 2.894.504 5.673 1.42 8.258h-9.678c-13.66 0-24.774 11.114-24.774 24.774v9.089c-18.823 3.837-33.032 20.519-33.032 40.459v82.581c0 22.767 18.523 41.29 41.29 41.29H470.71c22.767 0 41.29-18.523 41.29-41.29V388.13c0-19.941-14.209-36.623-33.032-40.46zm-107.355-76.359a7.06 7.06 0 0 1 7.053-7.053c8.984 0 17.061-4.992 21.08-13.028l.333-.667 14.362 7.181a12.09 12.09 0 0 1 6.72 10.873c0 6.703-5.453 12.157-12.157 12.157h-30.338a7.06 7.06 0 0 1-7.053-7.053v-2.41zm-8.258 34.237c0-4.553 3.705-8.258 8.258-8.258h49.548c4.553 0 8.258 3.705 8.258 8.258 0 4.553-3.705 8.258-8.258 8.258h-49.548c-4.553 0-8.258-3.704-8.258-8.258zm-24.774 24.775h115.612c4.553 0 8.258 3.705 8.258 8.258v8.258H330.323v-8.258c0-4.554 3.704-8.258 8.258-8.258zM495.484 470.71c0 13.66-11.114 24.774-24.774 24.774H322.065c-13.66 0-24.774-11.114-24.774-24.774v-82.581c0-13.66 11.114-24.774 24.774-24.774H470.71c13.66 0 24.774 11.114 24.774 24.774v82.581z" fill="#173e33" opacity="1" data-original="#000000" class=""></path><path d="M462.452 379.871H330.323c-9.107 0-16.516 7.41-16.516 16.516v49.548c0 9.107 7.41 16.516 16.516 16.516h132.129c9.107 0 16.516-7.41 16.516-16.516v-49.548c0-9.106-7.41-16.516-16.516-16.516zm0 66.064H330.323v-49.548h132.129l.01 49.548h-.01z" fill="#173e33" opacity="1" data-original="#000000" class=""></path><path d="M346.839 412.903h99.097v16.516h-99.097zM264.258 165.161h16.516v189.935h-16.516zM231.226 272.516h16.516v99.097h-16.516z" fill="#173e33" opacity="1" data-original="#000000" class=""></path></g></svg>