<svg id="Layer_1" data-name="Layer 1" xmlns="http://www.w3.org/2000/svg" xmlns:xlink="http://www.w3.org/1999/xlink" viewBox="0 0 189.29 33.29"><defs><style>.cls-1{fill:none;}.cls-2{clip-path:url(#clip-path);}.cls-3{fill:url(#linear-gradient);}.cls-4{fill:url(#radial-gradient);}.cls-5{fill:#fff;}.cls-6{clip-path:url(#clip-path-2);}.cls-7{fill:#399;}</style><clipPath id="clip-path" transform="translate(-9.71 -10.71)"><rect class="cls-1" x="9.71" y="10.71" width="32.57" height="32.57"/></clipPath><linearGradient id="linear-gradient" x1="26" y1="43.29" x2="26" y2="10.71" gradientTransform="matrix(1, 0, 0, -1, 0, 54)" gradientUnits="userSpaceOnUse"><stop offset="0" stop-color="#399"/><stop offset="1" stop-color="#2d8396"/></linearGradient><radialGradient id="radial-gradient" cx="-185.17" cy="377.98" r="0.63" gradientTransform="matrix(18.67, 37.99, 27.14, -13.34, -6768.97, 12105.07)" gradientUnits="userSpaceOnUse"><stop offset="0" stop-color="#395f5f"/><stop offset="1" stop-color="#278888" stop-opacity="0"/></radialGradient><clipPath id="clip-path-2" transform="translate(-9.71 -10.71)"><rect class="cls-1" x="51" y="11" width="148" height="33"/></clipPath></defs><g class="cls-2"><path class="cls-3" d="M42.29,10.71H9.71V43.29H42.29Z" transform="translate(-9.71 -10.71)"/><path class="cls-4" d="M29.15,33.49V15.55h2l9,27.91H27.16l-7-6Z" transform="translate(-9.71 -10.71)"/><path class="cls-5" d="M31.37,15.55v15.5a7.36,7.36,0,1,1-14.72,0H20.9a3.11,3.11,0,1,0,6.22,0V19.79H24V15.55Z" transform="translate(-9.71 -10.71)"/></g><g class="cls-6"><path class="cls-7" d="M65.41,28.05a17.15,17.15,0,0,1-.27,3.12,7.11,7.11,0,0,1-1.06,2.68,5.42,5.42,0,0,1-2.23,1.88,8.69,8.69,0,0,1-3.79.7,7.82,7.82,0,0,1-4.62-1.31A6.21,6.21,0,0,1,51,31l2.29-.56a3.33,3.33,0,0,1,1.66,0,3.42,3.42,0,0,1,1.46.82,2.22,2.22,0,0,0,1.51.59,2,2,0,0,0,1.37-.44A2.78,2.78,0,0,0,60,30.34a5.33,5.33,0,0,0,.28-1.43l0-1.42V12.58h2.35a2.74,2.74,0,0,1,1.93.8,2.78,2.78,0,0,1,.79,1.95l0,12.72Zm17.46,7.79h-3a.84.84,0,0,1-.6-.25A.88.88,0,0,1,79,35V33.67H79a5,5,0,0,1-.66.92,4.38,4.38,0,0,1-1,.82A5.39,5.39,0,0,1,76,36a5.31,5.31,0,0,1-1.63.23,6.79,6.79,0,0,1-3-.57,4.46,4.46,0,0,1-1.79-1.6,6.39,6.39,0,0,1-.85-2.4,21.22,21.22,0,0,1-.21-3V20.73a.85.85,0,0,1,.85-.86h3.18a.82.82,0,0,1,.6.25.88.88,0,0,1,.25.61v7l0,1.43a4.78,4.78,0,0,0,.29,1.36,2.12,2.12,0,0,0,.86,1.09,2.05,2.05,0,0,0,1.34.32,2.91,2.91,0,0,0,1.53-.33,2.34,2.34,0,0,0,.9-.92,3.65,3.65,0,0,0,.4-1.3,10.84,10.84,0,0,0,.1-1.51v-7.1a.85.85,0,0,1,.85-.86h3.18a.85.85,0,0,1,.85.86V35a1,1,0,0,1-.06.33.88.88,0,0,1-.19.27.67.67,0,0,1-.28.19.88.88,0,0,1-.32.07Zm22.22-1.58-.68.91a2.52,2.52,0,0,1-.83.69,2.32,2.32,0,0,1-1,.27,2.52,2.52,0,0,1-1-.2,2.59,2.59,0,0,1-.87-.63l-1.36-1.55h-.06a4.9,4.9,0,0,1-.77.87,5.89,5.89,0,0,1-1.1.81,7.16,7.16,0,0,1-1.4.59,5.64,5.64,0,0,1-1.58.23,8.12,8.12,0,0,1-3.19-.61,7.13,7.13,0,0,1-2.46-1.71,7.56,7.56,0,0,1-1.57-2.61A9.61,9.61,0,0,1,86.58,28a10.37,10.37,0,0,1,.51-3.22,8.71,8.71,0,0,1,1.43-2.71,6.87,6.87,0,0,1,2.26-1.89,6.4,6.4,0,0,1,3-.71,8.07,8.07,0,0,1,2.84.48,4.55,4.55,0,0,1,2.17,1.62h.06V12.42a1.4,1.4,0,0,1,.42-1,1.38,1.38,0,0,1,1-.42h2.16a1.42,1.42,0,0,1,1,.38,1.44,1.44,0,0,1,.45.94l1.53,21a1.42,1.42,0,0,1-.3,1Zm-5.82-6.4a4.19,4.19,0,0,0-1-2.93,4.29,4.29,0,0,0-5.76,0,4.67,4.67,0,0,0,0,5.85,4.26,4.26,0,0,0,5.76,0,4.15,4.15,0,0,0,1-2.92Zm25,6.64A9.9,9.9,0,0,1,122,41.38c-3.44,3.85-9.41,2.51-11,1.87-2.52-1-6-3.39-6.33-5.06a2.62,2.62,0,0,1,.66-1.86,3.31,3.31,0,0,1,1.09-.88,3.05,3.05,0,0,1,1.36-.32c3.17.18,2.32,4.26,7.3,4.26a4.36,4.36,0,0,0,3.31-1.1,3.9,3.9,0,0,0,1-2.81V33.94h-.06a4.66,4.66,0,0,1-2.1,1.62,6.81,6.81,0,0,1-2.36.48,8.12,8.12,0,0,1-3.19-.61,7.13,7.13,0,0,1-2.46-1.71,7.56,7.56,0,0,1-1.57-2.61,9.87,9.87,0,0,1-.05-6.41A8.46,8.46,0,0,1,109,22a7.25,7.25,0,0,1,2.26-1.86,6.37,6.37,0,0,1,3-.7,7.17,7.17,0,0,1,1.9.23,7,7,0,0,1,1.54.59,5.62,5.62,0,0,1,1.18.81,4.93,4.93,0,0,1,.78.86h.06V20.36a.52.52,0,0,1,.14-.35.5.5,0,0,1,.35-.14,4.06,4.06,0,0,1,1.53.31,3.84,3.84,0,0,1,1.3.88,4,4,0,0,1,.87,1.31,4.11,4.11,0,0,1,.3,1.55V34.5ZM112,27.76a3.79,3.79,0,0,0,.28,1.49,4,4,0,0,0,.84,1.26,4.48,4.48,0,0,0,1.24.87,3.56,3.56,0,0,0,1.54.33,3.51,3.51,0,0,0,1.53-.33,4.19,4.19,0,0,0,1.25-.87,4,4,0,0,0,.84-1.26,3.92,3.92,0,0,0,0-3,4,4,0,0,0-.84-1.26,4.19,4.19,0,0,0-1.25-.87,3.67,3.67,0,0,0-1.53-.34,3.72,3.72,0,0,0-1.54.34,4.28,4.28,0,0,0-1.24.87,3.74,3.74,0,0,0-.83,1.25,4,4,0,0,0-.31,1.49Zm29.6,4.66a1,1,0,0,1,.34,1.16,1,1,0,0,1-.23.36,7.82,7.82,0,0,1-2.18,1.47,8.8,8.8,0,0,1-3.71.82,9.79,9.79,0,0,1-3.43-.59,8.38,8.38,0,0,1-2.8-1.67,7.94,7.94,0,0,1-1.87-2.65,9,9,0,0,1,0-6.9,7.94,7.94,0,0,1,1.87-2.65,8.27,8.27,0,0,1,2.8-1.69,9.79,9.79,0,0,1,3.43-.59,7.88,7.88,0,0,1,3.07.59,6.49,6.49,0,0,1,2.35,1.69,8,8,0,0,1,1.48,2.65,10.9,10.9,0,0,1,.52,3.45V28a1.41,1.41,0,0,1-.42,1,1.38,1.38,0,0,1-1,.42h-9.91a4,4,0,0,0,1.28,2.24,4,4,0,0,0,4.44.3,5.47,5.47,0,0,0,.54-.41,1.69,1.69,0,0,1,2.11-.1l1.32,1Zm-3.24-6.37a2.9,2.9,0,0,0-3-3,3.7,3.7,0,0,0-1.43.26,3.8,3.8,0,0,0-1.06.67,3,3,0,0,0-.66,1,3.13,3.13,0,0,0-.28,1.13Zm59,6.37a1,1,0,0,1,.28.33,1,1,0,0,1,.12.41,1,1,0,0,1-.06.42,1,1,0,0,1-.23.36,7.82,7.82,0,0,1-2.18,1.47,8.8,8.8,0,0,1-3.71.82,9.79,9.79,0,0,1-3.43-.59,8.38,8.38,0,0,1-2.8-1.67,7.94,7.94,0,0,1-1.87-2.65,9,9,0,0,1,0-6.9,7.94,7.94,0,0,1,1.87-2.65,8.27,8.27,0,0,1,2.8-1.69,9.79,9.79,0,0,1,3.43-.59,7.88,7.88,0,0,1,3.07.59A6.49,6.49,0,0,1,197,21.77a8,8,0,0,1,1.48,2.65,10.9,10.9,0,0,1,.52,3.45V28a1.41,1.41,0,0,1-.42,1,1.38,1.38,0,0,1-1,.42h-9.91A4,4,0,0,0,189,31.65a4,4,0,0,0,4.44.3,5.47,5.47,0,0,0,.54-.41,1.69,1.69,0,0,1,2.11-.1l1.32,1Zm-3.24-6.37a2.92,2.92,0,0,0-.81-2.13,2.74,2.74,0,0,0-1-.68,2.85,2.85,0,0,0-1.19-.21,3.7,3.7,0,0,0-1.43.26,4,4,0,0,0-1.06.67,3,3,0,0,0-.66,1,3.13,3.13,0,0,0-.28,1.13Zm-47.84,7a3.21,3.21,0,0,1,.22-1.18,3,3,0,0,1,.64-1,2.84,2.84,0,0,1,1-.64,3.1,3.1,0,0,1,2.32,0,2.92,2.92,0,0,1,1.6,1.61,3.23,3.23,0,0,1,0,2.37,2.92,2.92,0,0,1-.62,1,2.84,2.84,0,0,1-1,.64,3.13,3.13,0,0,1-2.33,0,3,3,0,0,1-1-.64,3,3,0,0,1-.63-1A3,3,0,0,1,146.28,33ZM156,19.87h1.75a2,2,0,0,1,.81.17,2.18,2.18,0,0,1,.7.46,2.23,2.23,0,0,1,.46.71,2.1,2.1,0,0,1,.16.82h.07a4.2,4.2,0,0,1,.66-.92,4.66,4.66,0,0,1,1-.82,5.67,5.67,0,0,1,1.33-.59,5.52,5.52,0,0,1,1.62-.23,6.16,6.16,0,0,1,3,.69,4.42,4.42,0,0,1,1.94,2.17,5.22,5.22,0,0,1,2-2.2,6.13,6.13,0,0,1,3-.67,5.91,5.91,0,0,1,2.68.54,4.41,4.41,0,0,1,1.73,1.48,6.37,6.37,0,0,1,.91,2.2,13,13,0,0,1,.27,2.71V35a.81.81,0,0,1-.23.57.82.82,0,0,1-.57.24h-3.28a.77.77,0,0,1-.3-.06.82.82,0,0,1-.44-.44.81.81,0,0,1-.06-.31V26.55a3.71,3.71,0,0,0-.47-1.93,1.78,1.78,0,0,0-1.66-.8,3.3,3.3,0,0,0-1.42.27,2.53,2.53,0,0,0-.91.78,3.23,3.23,0,0,0-.48,1.15A6.34,6.34,0,0,0,170,27.4V35a.82.82,0,0,1-.83.83H166a.87.87,0,0,1-.32-.06,1.27,1.27,0,0,1-.27-.18,1,1,0,0,1-.18-.27.91.91,0,0,1-.06-.32V27.4l0-1a4.4,4.4,0,0,0-.23-1.19,2.35,2.35,0,0,0-.64-.95,1.8,1.8,0,0,0-1.28-.39,3,3,0,0,0-1.53.33,2.34,2.34,0,0,0-.9.92,3.78,3.78,0,0,0-.4,1.3,10.94,10.94,0,0,0-.1,1.51V35a.83.83,0,0,1-.23.57.81.81,0,0,1-.57.23H156a.81.81,0,0,1-.57-.23.83.83,0,0,1-.23-.57V20.68a.81.81,0,0,1,.23-.57.8.8,0,0,1,.56-.24Z" transform="translate(-9.71 -10.71)"/></g></svg>