<svg xmlns="http://www.w3.org/2000/svg" width="152" height="58" viewBox="0 0 152 58" fill="none"><g clip-path="url(#clip0_92_3824)"><path d="M23.9582 50.1832C19.7038 50.1832 15.6185 48.5137 12.5842 45.4966C6.31015 39.2582 6.31015 29.1091 12.5842 22.8731C15.6234 19.8512 19.6627 18.1865 23.9606 18.1865C28.2584 18.1865 32.2978 19.8512 35.337 22.8731C38.3931 25.9118 40.0648 29.9499 40.0504 34.2473C40.0504 34.6076 40.0359 34.9728 40.0093 35.3331L37.4943 35.1553C37.5161 34.8527 37.5282 34.5428 37.5282 34.2377C37.5427 30.6129 36.1318 27.2066 33.554 24.6459C30.9908 22.0972 27.5844 20.6944 23.9606 20.6944C20.3368 20.6944 16.9279 22.0972 14.3671 24.6459C9.07634 29.9066 9.07634 38.4655 14.3671 43.7262C17.1937 46.5367 21.1026 47.9612 25.0912 47.6321L25.299 50.1304C24.8496 50.1664 24.4027 50.1856 23.9582 50.1856V50.1832Z" fill="#7BAF42"></path><path d="M40.014 33.5195H26.8765V36.025H40.014V33.5195Z" fill="#7BAF42"></path><path d="M40.4973 16.9423C30.9352 7.87656 15.7369 8.23688 6.61937 17.7446C2.47855 22.0637 0.164138 27.6631 0.00952148 33.5196H2.5317C2.68873 28.3045 4.75673 23.3224 8.44578 19.4742C12.3982 15.3521 17.7276 13.0076 23.4532 12.873C29.1789 12.7385 34.6146 14.826 38.7603 18.7559C47.3173 26.868 47.641 40.3897 39.4826 48.8981C31.3242 57.4066 17.7252 57.7285 9.16813 49.6164C6.81023 47.3824 5.03939 44.7232 3.89909 41.7181L1.54119 42.6021C2.81436 45.9651 4.79538 48.9342 7.42869 51.4324C12.0599 55.8235 18.0127 58.0023 23.9582 58.0023C30.2853 58.0023 36.6053 55.5305 41.3066 50.6277C50.4241 41.12 50.0617 26.008 40.4997 16.9423H40.4973Z" fill="#7BAF42"></path><path d="M2.6018 36.025H21.4602V33.5195H2.52932C2.50516 34.3507 2.52932 35.1866 2.6018 36.025Z" fill="#7BAF42"></path><path d="M0.0723351 36.025H2.60418C2.5317 35.1866 2.50754 34.3507 2.5317 33.5195H0.0095222C-0.0122207 34.3507 0.00710632 35.1866 0.0723351 36.025Z" fill="#7BAF42"></path><path d="M25.2226 24.9107L22.7036 24.9741L23.3451 50.1719L25.864 50.1085L25.2226 24.9107Z" fill="#7BAF42"></path><path d="M25.8642 50.1427H23.3445V43.6569C23.3445 40.3659 26.0382 37.6875 29.3479 37.6875C32.6577 37.6875 35.3514 40.3659 35.3514 43.6569V49.8088H32.8316V43.6569C32.8316 41.7471 31.2686 40.1953 29.3504 40.1953C27.4322 40.1953 25.8691 41.7495 25.8691 43.6569V50.1427H25.8642Z" fill="#7BAF42"></path><path d="M25.862 11.1964H23.7843C18.7206 11.1964 14.6016 7.10077 14.6016 2.06585V0H16.6792C21.7429 0 25.862 4.09567 25.862 9.13059V11.1964ZM17.1382 2.52226C17.3629 5.81321 20.018 8.45078 23.3277 8.67658C23.103 5.38563 20.448 2.74806 17.1382 2.52226Z" fill="#7BAF42"></path><path d="M26.8115 11.1962H23.7578V8.16228C23.7578 4.59268 26.6786 1.68848 30.2686 1.68848H33.3199V4.7224C33.3199 8.292 30.3991 11.1962 26.8091 11.1962H26.8115ZM26.28 8.69075H26.8115C29.0124 8.69075 30.8025 6.91076 30.8025 4.7224V4.19392H30.271C28.0702 4.19392 26.28 5.97392 26.28 8.16228V8.69075Z" fill="#7BAF42"></path><path d="M65.521 24.0938V37.4907C65.521 41.5167 63.1269 43.9693 59.2252 43.9693C55.3236 43.9693 52.9294 41.5167 52.9294 37.4907V24.0938C52.9294 20.0678 55.3236 17.6152 59.2252 17.6152C63.1269 17.6152 65.521 20.0678 65.521 24.0938ZM56.8335 24.1299V37.4546C56.8335 39.3571 57.6791 40.3828 59.2276 40.3828C60.7762 40.3828 61.6218 39.3571 61.6218 37.4546V24.1299C61.6218 22.2274 60.7762 21.2016 59.2276 21.2016C57.6791 21.2016 56.8335 22.2274 56.8335 24.1299Z" fill="white"></path><path d="M74.6506 32.7681H72.846V43.6042H68.9443V17.9805H74.5782C78.7746 17.9805 81.0576 20.2505 81.0576 24.4591V26.2895C81.0576 28.9991 80.1009 30.9017 78.2962 31.9274L81.8669 43.6042H77.743L74.6506 32.7681ZM72.846 29.1817H74.4284C76.3055 29.1817 77.1535 28.192 77.1535 26.0325V24.7137C77.1535 22.5542 76.3079 21.5645 74.4284 21.5645H72.846V29.1793V29.1817Z" fill="white"></path><path d="M96.483 23.7623V25.5183L92.7287 25.7008V24.1635C92.7287 22.1144 91.9556 21.1992 90.4457 21.1992C88.9357 21.1992 88.1627 22.1144 88.1627 23.7983V37.7813C88.1627 39.4652 88.8995 40.3804 90.4094 40.3804C91.9194 40.3804 92.6562 39.4652 92.6562 37.4161V33.0226H90.4481V29.4362H96.4854V37.8197C96.4854 41.6992 94.2386 43.9692 90.337 43.9692C86.4353 43.9692 84.2634 41.6992 84.2634 37.8197V23.7623C84.2634 19.8828 86.4715 17.6128 90.337 17.6128C94.2024 17.6128 96.4854 19.8828 96.4854 23.7623H96.483Z" fill="white"></path><path d="M108.558 43.6042L107.712 37.7838H103.404L102.559 43.6042H98.6572L103.112 17.9805H108.082L112.536 43.6042H108.56H108.558ZM103.919 34.2695H107.195L105.613 23.4694H105.501L103.919 34.2695Z" fill="white"></path><path d="M124.203 43.6042L119.086 26.6186H119.013V43.6042H115.332V17.9805H119.675L124.278 33.2462H124.35V17.9805H128.032V43.6042H124.203Z" fill="white"></path><path d="M132.228 43.6042V17.9805H136.13V43.6042H132.228Z" fill="white"></path><path d="M152 23.7623V26.0683L148.246 26.2509V24.1634C148.246 22.1144 147.473 21.1992 146.037 21.1992C144.602 21.1992 143.829 22.1144 143.829 23.7983V37.7812C143.829 39.4651 144.602 40.3804 146.037 40.3804C147.473 40.3804 148.246 39.4651 148.246 37.4161V34.5599L152 34.7425V37.8173C152 41.6967 149.753 43.9668 145.926 43.9668C142.1 43.9668 139.925 41.6967 139.925 37.8173V23.7599C139.925 19.8804 142.133 17.6104 145.926 17.6104C149.719 17.6104 152 19.8804 152 23.7599V23.7623Z" fill="white"></path><path d="M81.8187 49.6863V51.3438H83.1233V52.1653H81.8187V53.9069H83.4349V54.7284H80.9248V48.8672H83.4349V49.6887H81.8187V49.6863Z" fill="#7BAF42"></path><path d="M89.1001 50.1212V50.2893L88.2424 50.3734V50.1884C88.2424 49.7873 88.0902 49.6023 87.7786 49.6023C87.5177 49.6023 87.3317 49.744 87.3317 50.0803V50.2052C87.3317 50.5319 87.5008 50.7986 88.0806 51.327C88.873 52.0549 89.1412 52.5329 89.1412 53.2103V53.4938C89.1412 54.3562 88.5927 54.8078 87.7762 54.8078C86.9596 54.8078 86.3943 54.3297 86.3943 53.4674V53.083L87.2519 52.9989V53.4001C87.2519 53.7941 87.438 53.9862 87.7568 53.9862C88.0274 53.9862 88.2449 53.8445 88.2449 53.4265V53.2416C88.2449 52.874 88.0757 52.605 87.4959 52.0789C86.7035 51.3511 86.4354 50.873 86.4354 50.2365V50.0947C86.4354 49.2324 86.9403 48.7808 87.7665 48.7808C88.5927 48.7808 89.0977 49.2588 89.0977 50.1212H89.1001Z" fill="#7BAF42"></path><path d="M94.6301 50.1212V50.2893L93.7725 50.3734V50.1884C93.7725 49.7873 93.6203 49.6023 93.3086 49.6023C93.0477 49.6023 92.8617 49.744 92.8617 50.0803V50.2052C92.8617 50.5319 93.0308 50.7986 93.6106 51.327C94.403 52.0549 94.6712 52.5329 94.6712 53.2103V53.4938C94.6712 54.3562 94.1228 54.8078 93.3062 54.8078C92.4896 54.8078 91.9243 54.3297 91.9243 53.4674V53.083L92.782 52.9989V53.4001C92.782 53.7941 92.968 53.9862 93.2869 53.9862C93.5575 53.9862 93.7749 53.8445 93.7749 53.4265V53.2416C93.7749 52.874 93.6058 52.605 93.026 52.0789C92.2335 51.3511 91.9654 50.873 91.9654 50.2365V50.0947C91.9654 49.2324 92.4703 48.7808 93.2965 48.7808C94.1228 48.7808 94.6277 49.2588 94.6277 50.1212H94.6301Z" fill="#7BAF42"></path><path d="M98.6622 49.6863V51.3438H99.9668V52.1653H98.6622V53.9069H100.278V54.7284H97.7683V48.8672H100.278V49.6887H98.6622V49.6863Z" fill="#7BAF42"></path><path d="M105.591 54.726L104.422 50.8417H104.405V54.726H103.564V48.8647H104.557L105.61 52.3551H105.627V48.8647H106.47V54.726H105.596H105.591Z" fill="#7BAF42"></path><path d="M111.399 49.7031V54.726H110.507V49.7031H109.555V48.8672H112.351V49.7031H111.399Z" fill="#7BAF42"></path><path d="M115.44 54.726V48.8647H116.332V54.726H115.44Z" fill="#7BAF42"></path><path d="M121.763 54.726L121.57 53.3952H120.584L120.391 54.726H119.499L120.519 48.8647H121.654L122.674 54.726H121.765H121.763ZM120.702 52.5905H121.451L121.089 50.1211H121.065L120.702 52.5905Z" fill="#7BAF42"></path><path d="M128.218 53.8877V54.726H125.836V48.8647H126.727V53.8877H128.218Z" fill="#7BAF42"></path><path d="M137.268 54.726V52.1725H136.207V54.726H135.316V48.8647H136.207V51.3342H137.268V48.8647H138.159V54.726H137.268Z" fill="#7BAF42"></path><path d="M144.356 53.4121C144.356 54.3321 143.825 54.8101 142.967 54.8101C142.109 54.8101 141.595 54.3321 141.595 53.4121V48.8672H142.452V53.388C142.452 53.8156 142.646 53.9742 142.957 53.9742C143.269 53.9742 143.462 53.8156 143.462 53.388V48.8672H144.354V53.4121H144.356Z" fill="#7BAF42"></path><path d="M149.036 48.8647C149.961 48.8647 150.459 49.3836 150.459 50.3469V50.455C150.459 51.1084 150.265 51.4927 149.794 51.6512V51.6681C150.35 51.8362 150.587 52.271 150.587 53.0421V53.2439C150.587 54.2071 150.065 54.726 149.106 54.726H147.792V48.8647H149.038H149.036ZM148.683 51.2837H148.961C149.391 51.2837 149.567 51.0651 149.567 50.5727V50.3805C149.567 49.9025 149.391 49.6863 149.004 49.6863H148.685V51.2861L148.683 51.2837ZM148.683 53.9045H149.069C149.5 53.9045 149.693 53.6787 149.693 53.1838V52.8571C149.693 52.3383 149.5 52.1028 149.028 52.1028H148.683V53.9021V53.9045Z" fill="#7BAF42"></path></g><defs><clipPath id="clip0_92_3824"><rect width="152" height="58" fill="white"></rect></clipPath></defs></svg>