<svg width="152" height="58" viewBox="0 0 152 58" fill="none" xmlns="http://www.w3.org/2000/svg">
<g clip-path="url(#clip0_107_1597)">
<path d="M23.9584 50.1835C19.704 50.1835 15.6188 48.514 12.5844 45.4969C6.3104 39.2585 6.3104 29.1094 12.5844 22.8734C15.6236 19.8515 19.663 18.1868 23.9608 18.1868C28.2587 18.1868 32.298 19.8515 35.3372 22.8734C38.3933 25.9121 40.0651 29.9501 40.0506 34.2476C40.0506 34.6079 40.0361 34.973 40.0095 35.3333L37.4946 35.1556C37.5163 34.8529 37.5284 34.543 37.5284 34.238C37.5429 30.6131 36.132 27.2069 33.5543 24.6462C30.991 22.0975 27.5846 20.6946 23.9608 20.6946C20.337 20.6946 16.9282 22.0975 14.3674 24.6462C9.07658 29.9069 9.07658 38.4657 14.3674 43.7265C17.1939 46.537 21.1028 47.9615 25.0915 47.6324L25.2992 50.1306C24.8499 50.1666 24.4029 50.1859 23.9584 50.1859V50.1835Z" fill="#7BAF42"/>
<path d="M40.014 33.5195H26.8765V36.025H40.014V33.5195Z" fill="#7BAF42"/>
<path d="M40.4975 16.9423C30.9355 7.87656 15.7372 8.23688 6.61962 17.7446C2.4788 22.0637 0.164382 27.6631 0.00976562 33.5196H2.53195C2.68898 28.3045 4.75697 23.3224 8.44602 19.4742C12.3984 15.3521 17.7278 13.0076 23.4535 12.873C29.1791 12.7385 34.6148 14.826 38.7605 18.7559C47.3176 26.868 47.6413 40.3897 39.4828 48.8981C31.3244 57.4066 17.7254 57.7285 9.16837 49.6164C6.81047 47.3824 5.03963 44.7232 3.89933 41.7181L1.54143 42.6021C2.8146 45.9651 4.79563 48.9342 7.42894 51.4324C12.0602 55.8235 18.0129 58.0023 23.9584 58.0023C30.2856 58.0023 36.6055 55.5305 41.3068 50.6277C50.4244 41.12 50.062 26.008 40.4999 16.9423H40.4975Z" fill="#7BAF42"/>
<path d="M2.60204 36.025H21.4604V33.5195H2.52957C2.50541 34.3507 2.52957 35.1866 2.60204 36.025Z" fill="#7BAF42"/>
<path d="M0.0723351 36.025H2.60418C2.5317 35.1866 2.50754 34.3507 2.5317 33.5195H0.0095222C-0.0122207 34.3507 0.00710632 35.1866 0.0723351 36.025Z" fill="#7BAF42"/>
<path d="M25.2226 24.9107L22.7036 24.9741L23.3451 50.1719L25.864 50.1085L25.2226 24.9107Z" fill="#7BAF42"/>
<path d="M25.8645 50.1427H23.3447V43.6569C23.3447 40.3659 26.0384 37.6875 29.3482 37.6875C32.6579 37.6875 35.3517 40.3659 35.3517 43.6569V49.8088H32.8319V43.6569C32.8319 41.7471 31.2688 40.1953 29.3506 40.1953C27.4324 40.1953 25.8693 41.7495 25.8693 43.6569V50.1427H25.8645Z" fill="#7BAF42"/>
<path d="M25.862 11.1964H23.7843C18.7206 11.1964 14.6016 7.10077 14.6016 2.06585V0H16.6792C21.7429 0 25.862 4.09567 25.862 9.13059V11.1964ZM17.1382 2.52226C17.3629 5.81321 20.018 8.45078 23.3277 8.67658C23.103 5.38563 20.448 2.74806 17.1382 2.52226Z" fill="#7BAF42"/>
<path d="M26.8115 11.1964H23.7578V8.16252C23.7578 4.59292 26.6786 1.68872 30.2686 1.68872H33.3199V4.72264C33.3199 8.29224 30.3991 11.1964 26.8091 11.1964H26.8115ZM26.28 8.691H26.8115C29.0124 8.691 30.8025 6.911 30.8025 4.72264V4.19417H30.271C28.0702 4.19417 26.28 5.97416 26.28 8.16252V8.691Z" fill="#7BAF42"/>
<path d="M65.5213 24.0936V37.4904C65.5213 41.5164 63.1271 43.969 59.2255 43.969C55.3238 43.969 52.9297 41.5164 52.9297 37.4904V24.0936C52.9297 20.0676 55.3238 17.615 59.2255 17.615C63.1271 17.615 65.5213 20.0676 65.5213 24.0936ZM56.8338 24.1296V37.4544C56.8338 39.3569 57.6793 40.3826 59.2279 40.3826C60.7765 40.3826 61.622 39.3569 61.622 37.4544V24.1296C61.622 22.2271 60.7765 21.2014 59.2279 21.2014C57.6793 21.2014 56.8338 22.2271 56.8338 24.1296Z" fill="#173D33"/>
<path d="M74.6506 32.7676H72.846V43.6038H68.9443V17.98H74.5782C78.7746 17.98 81.0576 20.25 81.0576 24.4586V26.289C81.0576 28.9987 80.1009 30.9012 78.2962 31.9269L81.8669 43.6038H77.743L74.6506 32.7676ZM72.846 29.1812H74.4284C76.3055 29.1812 77.1535 28.1915 77.1535 26.032V24.7132C77.1535 22.5537 76.3079 21.564 74.4284 21.564H72.846V29.1788V29.1812Z" fill="#173D33"/>
<path d="M96.4832 23.7621V25.518L92.7289 25.7006V24.1632C92.7289 22.1142 91.9558 21.199 90.4459 21.199C88.936 21.199 88.1629 22.1142 88.1629 23.7981V37.781C88.1629 39.4649 88.8997 40.3802 90.4097 40.3802C91.9196 40.3802 92.6564 39.4649 92.6564 37.4159V33.0224H90.4483V29.4359H96.4856V37.8195C96.4856 41.6989 94.2388 43.969 90.3372 43.969C86.4355 43.969 84.2637 41.6989 84.2637 37.8195V23.7621C84.2637 19.8826 86.4718 17.6125 90.3372 17.6125C94.2026 17.6125 96.4856 19.8826 96.4856 23.7621H96.4832Z" fill="#173D33"/>
<path d="M108.558 43.6038L107.712 37.7833H103.405L102.559 43.6038H98.6577L103.113 17.98H108.082L112.537 43.6038H108.56H108.558ZM103.92 34.269H107.195L105.613 23.4689H105.502L103.92 34.269Z" fill="#173D33"/>
<path d="M124.203 43.6038L119.086 26.6181H119.014V43.6038H115.332V17.98H119.676L124.278 33.2457H124.351V17.98H128.032V43.6038H124.203Z" fill="#173D33"/>
<path d="M132.229 43.6038V17.98H136.13V43.6038H132.229Z" fill="#173D33"/>
<path d="M152 23.762V26.0681L148.246 26.2507V24.1632C148.246 22.1141 147.473 21.1989 146.038 21.1989C144.603 21.1989 143.83 22.1141 143.83 23.7981V37.781C143.83 39.4649 144.603 40.3801 146.038 40.3801C147.473 40.3801 148.246 39.4649 148.246 37.4159V34.5597L152 34.7423V37.817C152 41.6965 149.754 43.9665 145.927 43.9665C142.1 43.9665 139.926 41.6965 139.926 37.817V23.7596C139.926 19.8801 142.134 17.6101 145.927 17.6101C149.72 17.6101 152 19.8801 152 23.7596V23.762Z" fill="#173D33"/>
<path d="M81.8187 49.6861V51.3436H83.1233V52.1651H81.8187V53.9067H83.4349V54.7282H80.9248V48.8669H83.4349V49.6885H81.8187V49.6861Z" fill="#7BAF42"/>
<path d="M89.1003 50.1209V50.2891L88.2427 50.3731V50.1882C88.2427 49.787 88.0905 49.6021 87.7788 49.6021C87.5179 49.6021 87.3319 49.7438 87.3319 50.0801V50.205C87.3319 50.5317 87.501 50.7983 88.0808 51.3268C88.8732 52.0547 89.1414 52.5327 89.1414 53.2101V53.4935C89.1414 54.3559 88.593 54.8075 87.7764 54.8075C86.9598 54.8075 86.3945 54.3295 86.3945 53.4671V53.0828L87.2522 52.9987V53.3999C87.2522 53.7938 87.4382 53.986 87.7571 53.986C88.0277 53.986 88.2451 53.8443 88.2451 53.4263V53.2413C88.2451 52.8738 88.076 52.6047 87.4962 52.0787C86.7038 51.3508 86.4356 50.8728 86.4356 50.2362V50.0945C86.4356 49.2321 86.9405 48.7805 87.7668 48.7805C88.593 48.7805 89.0979 49.2585 89.0979 50.1209H89.1003Z" fill="#7BAF42"/>
<path d="M94.6301 50.1209V50.2891L93.7725 50.3731V50.1882C93.7725 49.787 93.6203 49.6021 93.3086 49.6021C93.0477 49.6021 92.8617 49.7438 92.8617 50.0801V50.205C92.8617 50.5317 93.0308 50.7983 93.6106 51.3268C94.403 52.0547 94.6712 52.5327 94.6712 53.2101V53.4935C94.6712 54.3559 94.1228 54.8075 93.3062 54.8075C92.4896 54.8075 91.9243 54.3295 91.9243 53.4671V53.0828L92.782 52.9987V53.3999C92.782 53.7938 92.968 53.986 93.2869 53.986C93.5575 53.986 93.7749 53.8443 93.7749 53.4263V53.2413C93.7749 52.8738 93.6058 52.6047 93.026 52.0787C92.2335 51.3508 91.9654 50.8728 91.9654 50.2362V50.0945C91.9654 49.2321 92.4703 48.7805 93.2965 48.7805C94.1228 48.7805 94.6277 49.2585 94.6277 50.1209H94.6301Z" fill="#7BAF42"/>
<path d="M98.6624 49.6861V51.3436H99.967V52.1651H98.6624V53.9067H100.279V54.7282H97.7686V48.8669H100.279V49.6885H98.6624V49.6861Z" fill="#7BAF42"/>
<path d="M105.591 54.7258L104.422 50.8415H104.405V54.7258H103.564V48.8645H104.557L105.61 52.3548H105.627V48.8645H106.47V54.7258H105.596H105.591Z" fill="#7BAF42"/>
<path d="M111.398 49.7029V54.7258H110.507V49.7029H109.555V48.8669H112.35V49.7029H111.398Z" fill="#7BAF42"/>
<path d="M115.44 54.7258V48.8645H116.332V54.7258H115.44Z" fill="#7BAF42"/>
<path d="M121.763 54.7258L121.569 53.395H120.584L120.39 54.7258H119.499L120.519 48.8645H121.654L122.673 54.7258H121.765H121.763ZM120.702 52.5902H121.451L121.089 50.1208H121.065L120.702 52.5902Z" fill="#7BAF42"/>
<path d="M128.218 53.8874V54.7258H125.836V48.8645H126.727V53.8874H128.218Z" fill="#7BAF42"/>
<path d="M137.268 54.7258V52.1723H136.207V54.7258H135.316V48.8645H136.207V51.3339H137.268V48.8645H138.159V54.7258H137.268Z" fill="#7BAF42"/>
<path d="M144.356 53.4118C144.356 54.3318 143.825 54.8099 142.967 54.8099C142.109 54.8099 141.595 54.3318 141.595 53.4118V48.8669H142.452V53.3878C142.452 53.8154 142.646 53.9739 142.957 53.9739C143.269 53.9739 143.462 53.8154 143.462 53.3878V48.8669H144.354V53.4118H144.356Z" fill="#7BAF42"/>
<path d="M149.036 48.8645C149.961 48.8645 150.459 49.3834 150.459 50.3466V50.4547C150.459 51.1081 150.265 51.4925 149.794 51.651V51.6678C150.35 51.836 150.587 52.2708 150.587 53.0418V53.2436C150.587 54.2069 150.065 54.7258 149.106 54.7258H147.792V48.8645H149.038H149.036ZM148.683 51.2835H148.961C149.391 51.2835 149.567 51.0649 149.567 50.5724V50.3803C149.567 49.9022 149.391 49.686 149.004 49.686H148.685V51.2859L148.683 51.2835ZM148.683 53.9042H149.069C149.5 53.9042 149.693 53.6784 149.693 53.1836V52.8569C149.693 52.338 149.5 52.1026 149.028 52.1026H148.683V53.9018V53.9042Z" fill="#7BAF42"/>
</g>
<defs>
<clipPath id="clip0_107_1597">
<rect width="152" height="58" fill="white"/>
</clipPath>
</defs>
</svg>
