<svg xmlns="http://www.w3.org/2000/svg" width="165" height="142" viewBox="0 0 165 142" fill="none"><path d="M136.339 0.464725L28.6606 19.8337C12.8315 22.6812 0 37.8223 0 53.6529V120.999V142L12.6053 127.126C17.9801 120.783 25.2702 116.452 32.8705 115.086L136.338 96.4739C152.167 93.6264 164.999 78.4853 164.999 62.656V23.9722C165 8.14296 152.168 -2.38278 136.339 0.464725Z" fill="#5EA550"></path><path d="M10.8081 80.0127L10.076 76.1057L16.8826 74.8307L20.2438 92.7685L15.8699 93.5878L13.2408 79.557L10.8081 80.0127ZM21.3916 83.0155C20.8636 80.1979 20.9883 77.8769 21.7656 76.0526C22.5593 74.2252 24.1684 73.0845 26.5929 72.6303C29.0174 72.1762 30.9222 72.6587 32.3073 74.078C33.7087 75.4942 34.6734 77.6111 35.2014 80.4287C35.7355 83.2791 35.6057 85.618 34.8121 87.4453C34.0348 89.2696 32.4339 90.4089 30.0094 90.863C27.5849 91.3172 25.6719 90.8361 24.2704 89.42C22.8853 88.0007 21.9257 85.8659 21.3916 83.0155ZM31.0732 81.202C30.7632 79.5474 30.3451 78.3116 29.8189 77.4945C29.2897 76.6611 28.4599 76.3502 27.3296 76.5619C26.1992 76.7736 25.5383 77.3638 25.3467 78.3322C25.1521 79.2844 25.2098 80.5877 25.5198 82.2422C25.7285 83.3562 25.9675 84.2694 26.2367 84.9821C26.5028 85.6783 26.8754 86.2189 27.3545 86.604C27.8469 86.9696 28.4863 87.0787 29.2726 86.9314C30.059 86.7841 30.6073 86.4525 30.9176 85.9366C31.2412 85.4012 31.4009 84.7608 31.3969 84.0155C31.3899 83.2538 31.282 82.3159 31.0732 81.202ZM36.29 75.8754C36.0414 74.5485 36.2263 73.4541 36.8448 72.5922C37.4797 71.7272 38.4033 71.1811 39.6155 70.954C40.8278 70.727 41.8782 70.9032 42.7668 71.4829C43.6554 72.0625 44.2241 73.0158 44.4727 74.3427C44.7214 75.6696 44.5364 76.764 43.9179 77.626C43.2994 78.4879 42.3841 79.0324 41.1718 79.2595C39.9596 79.4866 38.9009 79.3118 37.9959 78.7352C37.1073 78.1556 36.5387 77.2023 36.29 75.8754ZM52.2473 68.8677L46.0284 87.9387L41.9739 88.6982L48.1929 69.6271L52.2473 68.8677ZM40.0514 73.4159C39.2651 73.5632 38.9778 74.202 39.1896 75.3323C39.3983 76.4462 39.8959 76.9296 40.6822 76.7823C41.059 76.7117 41.3277 76.5172 41.4885 76.1989C41.6493 75.8805 41.6775 75.4428 41.5731 74.8858C41.3613 73.7555 40.8541 73.2655 40.0514 73.4159ZM49.7731 83.2185C49.5245 81.8916 49.7094 80.7972 50.3279 79.9353C50.9464 79.0733 51.8618 78.5288 53.074 78.3018C54.2863 78.0747 55.3367 78.251 56.2253 78.8306C57.114 79.4102 57.6826 80.3635 57.9312 81.6904C58.1799 83.0173 57.9949 84.1117 57.3764 84.9737C56.7579 85.8356 55.8426 86.3801 54.6303 86.6072C53.4181 86.8343 52.3676 86.658 51.479 86.0784C50.5904 85.4987 50.0218 84.5455 49.7731 83.2185ZM53.5099 80.7636C53.1331 80.8342 52.8643 81.0286 52.7036 81.347C52.5592 81.6623 52.5407 82.1067 52.6481 82.68C52.8568 83.794 53.3544 84.2773 54.1407 84.13C54.5175 84.0594 54.7863 83.8649 54.947 83.5466C55.1078 83.2282 55.136 82.7905 55.0317 82.2335C54.9273 81.6766 54.7425 81.2788 54.4774 81.0402C54.2092 80.7852 53.8867 80.693 53.5099 80.7636ZM73.1286 79.1744L73.7962 82.7373L71.6584 83.1378C70.1349 83.4232 68.8782 83.2771 67.8882 82.6994C66.8951 82.1055 66.2405 80.9648 65.9243 79.2775L64.9022 73.8225L63.2312 74.1355L62.5774 70.6462L64.2483 70.3332L63.6221 66.9914L67.8241 66.2043L68.4503 69.5461L71.2024 69.0306L71.8562 72.5199L69.1041 73.0354L70.1355 78.5396C70.2122 78.9491 70.3658 79.2256 70.5961 79.3689C70.8265 79.5123 71.171 79.541 71.6297 79.4551L73.1286 79.1744ZM82.4151 81.3264C81.0718 81.578 79.8058 81.5184 78.6172 81.1476C77.4449 80.7737 76.4478 80.1126 75.6257 79.1644C74.8201 78.2132 74.2837 77.0249 74.0167 75.5997C73.7527 74.1909 73.8322 72.8958 74.2552 71.7144C74.6751 70.5166 75.3719 69.5298 76.3457 68.7539C77.3194 67.978 78.478 67.4643 79.8213 67.2127C81.1646 66.961 82.4305 67.0206 83.6192 67.3915C84.8078 67.7623 85.8147 68.43 86.6398 69.3946C87.4618 70.3428 88.0048 71.5213 88.2688 72.9301C88.5328 74.3389 88.4466 75.6437 88.0103 76.8446C87.5873 78.026 86.8808 79.0062 85.8906 79.7851C84.9169 80.561 83.7584 81.0748 82.4151 81.3264ZM81.7336 77.6897C82.5363 77.5393 83.1609 77.1171 83.6074 76.423C84.0702 75.7259 84.1988 74.8286 83.9932 73.731C83.7875 72.6334 83.3509 71.8419 82.6834 71.3565C82.0323 70.8681 81.3054 70.699 80.5027 70.8494C79.6836 71.0028 79.059 71.425 78.6289 72.116C78.1958 72.7906 78.0836 73.6849 78.2923 74.7988C78.498 75.8964 78.9182 76.691 79.5529 77.1825C80.204 77.671 80.9309 77.84 81.7336 77.6897ZM106.527 61.8287L98.8607 63.2648L99.4961 66.6557C99.7562 66.234 100.16 65.8532 100.706 65.5134C101.253 65.1736 101.871 64.9392 102.559 64.8103C103.787 64.5802 104.855 64.6684 105.762 65.0751C106.686 65.4786 107.419 66.0874 107.961 66.9014C108.504 67.7154 108.872 68.6385 109.065 69.6705C109.424 71.5871 109.169 73.2119 108.3 74.5447C107.427 75.8612 106.008 76.7036 104.042 77.0718C102.732 77.3173 101.552 77.3094 100.502 77.0481C99.4499 76.7705 98.5863 76.2794 97.9117 75.5749C97.2371 74.8704 96.7769 73.9986 96.5313 72.9593L100.635 72.1907C100.828 72.6801 101.146 73.0615 101.587 73.335C102.025 73.592 102.572 73.6592 103.227 73.5364C103.997 73.3922 104.524 73.0391 104.809 72.4771C105.094 71.915 105.159 71.2245 105.006 70.4054C104.856 69.6027 104.544 69.0252 104.071 68.6729C103.598 68.3207 102.985 68.2151 102.231 68.3563C101.674 68.4606 101.241 68.6858 100.933 69.0318C100.622 69.3614 100.45 69.7581 100.419 70.2218L96.3642 70.9813L94.3613 60.2923L105.837 58.1428L106.527 61.8287ZM110.827 66.2628C110.299 63.4452 110.424 61.1242 111.201 59.2999C111.995 57.4725 113.604 56.3318 116.029 55.8776C118.453 55.4235 120.358 55.906 121.743 57.3253C123.144 58.7415 124.109 60.8584 124.637 63.676C125.171 66.5264 125.041 68.8653 124.248 70.6926C123.47 72.5169 121.87 73.6562 119.445 74.1103C117.021 74.5644 115.108 74.0834 113.706 72.6672C112.321 71.248 111.361 69.1132 110.827 66.2628ZM120.509 64.4493C120.199 62.7947 119.781 61.5589 119.255 60.7418C118.725 59.9083 117.896 59.5975 116.765 59.8092C115.635 60.0209 114.974 60.611 114.782 61.5795C114.588 62.5317 114.645 63.835 114.956 65.4895C115.164 66.6035 115.403 67.5167 115.672 68.2294C115.939 68.9256 116.311 69.4662 116.79 69.8513C117.283 70.2169 117.922 70.326 118.708 70.1787C119.495 70.0314 120.043 69.6998 120.353 69.1839C120.677 68.6485 120.837 68.0081 120.833 67.2628C120.826 66.501 120.718 65.5632 120.509 64.4493ZM125.726 59.1227C125.477 57.7958 125.662 56.7014 126.281 55.8395C126.915 54.9744 127.839 54.4284 129.051 54.2013C130.263 53.9743 131.314 54.1505 132.203 54.7302C133.091 55.3098 133.66 56.2631 133.908 57.59C134.157 58.9169 133.972 60.0113 133.354 60.8733C132.735 61.7352 131.82 62.2797 130.608 62.5068C129.395 62.7339 128.337 62.5591 127.432 61.9825C126.543 61.4029 125.974 60.4496 125.726 59.1227ZM141.683 52.115L135.464 71.186L131.41 71.9455L137.629 52.8744L141.683 52.115ZM129.487 56.6632C128.701 56.8105 128.414 57.4493 128.625 58.5796C128.834 59.6935 129.332 60.1769 130.118 60.0296C130.495 59.959 130.763 59.7645 130.924 59.4461C131.085 59.1278 131.113 58.6901 131.009 58.1331C130.797 57.0028 130.29 56.5128 129.487 56.6632ZM139.209 66.4658C138.96 65.1389 139.145 64.0445 139.764 63.1826C140.382 62.3206 141.297 61.7761 142.51 61.549C143.722 61.322 144.772 61.4983 145.661 62.0779C146.55 62.6575 147.118 63.6108 147.367 64.9377C147.616 66.2646 147.431 67.359 146.812 68.221C146.194 69.0829 145.278 69.6274 144.066 69.8545C142.854 70.0816 141.803 69.9053 140.915 69.3257C140.026 68.746 139.457 67.7927 139.209 66.4658ZM142.946 64.0109C142.569 64.0815 142.3 64.2759 142.139 64.5943C141.995 64.9096 141.976 65.354 142.084 65.9273C142.293 67.0413 142.79 67.5246 143.576 67.3773C143.953 67.3067 144.222 67.1122 144.383 66.7939C144.544 66.4755 144.572 66.0378 144.467 65.4808C144.363 64.9239 144.178 64.5261 143.913 64.2875C143.645 64.0325 143.322 63.9403 142.946 64.0109Z" fill="white"></path><path d="M44.0841 59.4951C42.3182 59.8259 40.682 59.8356 39.1756 59.5243C37.6691 59.213 36.3863 58.5749 35.3272 57.6101C34.291 56.641 33.6017 55.3695 33.2593 53.7956L39.5204 52.6228C39.7797 53.5001 40.2182 54.1301 40.836 54.5129C41.4494 54.8728 42.1804 54.9733 43.029 54.8143C43.9005 54.6511 44.552 54.3272 44.9835 53.8429C45.4107 53.3355 45.5577 52.7264 45.4245 52.0154C45.3128 51.4191 45.014 50.9647 44.5281 50.6522C44.0651 50.3353 43.5119 50.1066 42.8683 49.966C42.2477 49.8211 41.3683 49.6891 40.2302 49.57C38.5804 49.3805 37.2173 49.1373 36.1409 48.8404C35.0645 48.5435 34.0827 47.9915 33.1955 47.1844C32.3084 46.3772 31.723 45.2168 31.4393 43.7032C31.0182 41.4556 31.5036 39.5487 32.8956 37.9823C34.2833 36.3929 36.2844 35.3534 38.8989 34.8637C41.5593 34.3653 43.824 34.6058 45.693 35.5851C47.5577 36.5415 48.7601 38.1442 49.3002 40.3932L42.9359 41.5853C42.744 40.8141 42.3434 40.2601 41.7342 39.9231C41.1208 39.5633 40.4013 39.4606 39.5756 39.6153C38.8647 39.7485 38.3278 40.0508 37.9651 40.5223C37.5981 40.9709 37.4812 41.5507 37.6145 42.2616C37.7606 43.0414 38.2414 43.5804 39.057 43.8787C39.8725 44.177 41.1073 44.4323 42.7614 44.6447C44.4198 44.8801 45.7757 45.1484 46.8292 45.4496C47.9057 45.7464 48.8853 46.287 49.7682 47.0712C50.6511 47.8554 51.2279 48.9699 51.4986 50.4147C51.7564 51.7908 51.6352 53.1073 51.1348 54.3642C50.6573 55.6169 49.8158 56.7004 48.6102 57.6146C47.4047 58.5289 45.896 59.1557 44.0841 59.4951ZM70.7003 49.8447L61.6871 51.533L61.0415 56.0694L54.8836 57.2229L59.0964 31.4364L65.9079 30.1605L79.1712 52.6735L72.9445 53.8398L70.7003 49.8447ZM68.3357 45.5873L63.6861 37.3068L62.3842 46.7021L68.3357 45.5873ZM86.8624 46.5324L94.5684 45.089L95.4193 49.6299L81.8306 52.1753L77.3054 28.0256L83.1881 26.9237L86.8624 46.5324ZM100.466 28.5657L101.381 33.4507L109.259 31.975L110.11 36.516L102.232 37.9917L103.225 43.2895L112.135 41.6205L113.018 46.3334L98.2252 49.1044L93.6999 24.9547L108.493 22.1838L109.376 26.8967L100.466 28.5657Z" fill="white"></path></svg>