<svg xmlns="http://www.w3.org/2000/svg" width="151" height="151" viewBox="0 0 151 151" fill="none"><path fill-rule="evenodd" clip-rule="evenodd" d="M122.24 55.605L123.232 47.6341L115.803 44.5855L114.786 36.6235L106.823 35.5148L103.854 28.0575L95.8685 28.9653L91.1319 22.4875L83.6147 25.3452L77.4163 20.2462L70.8463 24.8855L63.5709 21.4913L58.3642 27.611L50.4662 26.1332L46.9396 33.3542L38.9216 33.8882L37.3055 41.7526L29.6676 44.2603L30.0593 52.2786L23.2815 56.6047L25.6535 64.2716L20.1664 70.1404L24.3772 76.9758L20.5143 84.0254L26.2938 89.5965L24.3126 97.3805L31.3004 101.333L31.3143 109.367L39.0675 111.463L41.0774 119.231L49.1174 119.334L53.0028 126.357L60.8162 124.459L66.3272 130.293L73.4216 126.515L80.2104 130.793L86.1477 125.375L93.796 127.83L98.1988 121.104L106.219 121.584L108.81 113.976L116.701 112.446L117.32 104.44L124.586 100.996L123.189 93.0913L129.374 87.9499L126.05 80.6429L130.766 74.13L125.735 67.883L128.673 60.406L122.24 55.605Z" fill="#7BAF42"></path><path d="M39.5367 95.0325L39.3607 94.7277L40.7515 93.9247L33.9535 82.1502C32.785 82.8248 32.0312 83.514 31.6924 84.2178C31.4038 84.7739 31.4739 85.614 31.9028 86.7382C32.074 87.1813 32.3458 87.7695 32.7184 88.5028L32.4135 88.6788L29.9861 84.0343L39.5504 78.5123L42.359 82.9368L42.0541 83.1128C41.2646 81.892 40.6216 81.0863 40.125 80.6955C39.6412 80.2975 39.2182 80.0929 38.8561 80.0818C38.0773 80.0234 37.1035 80.3315 35.935 81.0062L42.733 92.7807L44.3143 91.8677L44.4903 92.1725L39.5367 95.0325ZM56.4924 83.2108C56.2858 85.0237 55.3315 86.4214 53.6295 87.4041C51.9274 88.3868 50.2334 88.518 48.5475 87.7978C46.8669 87.0576 45.4949 85.7667 44.4316 83.9249C43.3683 82.0832 42.9563 80.2549 43.1956 78.4401C43.4276 76.6126 44.3755 75.2185 46.0395 74.2578C47.7034 73.2972 49.3847 73.1732 51.0834 73.8861C52.7747 74.5862 54.152 75.8572 55.2153 77.6989C56.2787 79.5407 56.7044 81.378 56.4924 83.2108ZM50.7446 87.2914C51.1512 87.497 51.58 87.5797 52.031 87.5395C52.4747 87.4865 52.9315 87.3244 53.4014 87.0531C53.8841 86.7744 54.2492 86.4535 54.4968 86.0904C54.7572 85.72 54.8999 85.3073 54.9252 84.8524C54.9505 84.3974 54.9303 83.9518 54.8647 83.5155C54.7917 83.0665 54.633 82.5569 54.3885 81.9868C54.144 81.4166 53.9108 80.9247 53.6888 80.5109C53.4796 80.0898 53.2063 79.5871 52.8689 79.0028C52.5316 78.4185 52.2366 77.9368 51.9838 77.5578C51.7365 77.1586 51.4307 76.717 51.0665 76.2329C50.695 75.7361 50.3404 75.3566 50.0027 75.0943C49.6576 74.8193 49.2855 74.5854 48.8862 74.3925C48.4796 74.1869 48.0545 74.1106 47.6108 74.1635C47.1726 74.1964 46.7184 74.3485 46.2485 74.6198C45.7785 74.8912 45.4134 75.212 45.1531 75.5825C44.8981 75.9329 44.758 76.3356 44.7327 76.7905C44.7001 77.2327 44.7167 77.672 44.7823 78.1083C44.8406 78.5319 44.9919 79.0288 45.2364 79.5989C45.6188 80.4959 46.0557 81.3699 46.547 82.2209C47.031 83.0592 47.393 83.6716 47.6331 84.058C47.8658 84.4317 48.1689 84.8834 48.5423 85.4129C48.9212 85.9224 49.2794 86.3083 49.6172 86.5706C49.9549 86.8329 50.3307 87.0731 50.7446 87.2914ZM65.7159 79.9179L60.7813 82.7669L60.6053 82.4621L61.9962 81.6591L55.1982 69.8846L53.8073 70.6876L53.6313 70.3827L58.8327 67.3797C60.7633 66.2651 62.5237 65.9261 64.1138 66.3629C65.7039 66.7997 67.093 68.047 68.281 70.1047C69.4616 72.1496 69.8582 73.9953 69.4708 75.6415C69.0887 77.2678 67.8371 78.6932 65.7159 79.9179ZM67.6995 76.1815C67.669 75.454 67.5175 74.737 67.2451 74.0305C66.9654 73.3114 66.5469 72.4691 65.9896 71.5038C65.4322 70.5385 64.9094 69.7649 64.4211 69.1831C63.9455 68.594 63.4166 68.1034 62.8346 67.7112C61.6558 66.9014 60.2852 66.9476 58.7229 67.8496L57.1796 68.7406L63.9776 80.5151L65.1398 79.8441C66.9181 78.8174 67.7713 77.5965 67.6995 76.1815ZM74.1767 71.2734C74.257 71.7351 74.4035 72.1501 74.6161 72.5185C74.8215 72.8741 75.0426 73.1105 75.2797 73.2277C75.5294 73.3376 75.8223 73.3463 76.1584 73.2538C76.669 73.1115 77.2926 72.8276 78.0293 72.4023L78.3532 72.2153L78.5292 72.5201L72.8897 75.7761L72.7137 75.4713C73.3869 75.0826 73.7886 74.6051 73.9189 74.0388C74.0545 73.4524 74.0247 72.6821 73.8295 71.7279L71.754 60.9611C71.6816 60.6304 71.6432 60.3731 71.6387 60.1894C71.6112 59.7311 71.8007 59.3846 72.2071 59.1499L72.2643 59.1169L83.3069 69.3553L84.6596 68.5743L84.8356 68.8791L79.9582 71.6951L79.7822 71.3903L81.1921 70.5763L77.3914 67.0294L73.7524 69.1304L74.1767 71.2734ZM72.4955 62.6415L73.6907 68.7596L77.1202 66.7796L72.6099 62.5755L72.4955 62.6415ZM89.5043 49.6969L89.6803 50.0017C89.098 50.3718 88.6696 50.7885 88.3951 51.2518C88.1134 51.7024 87.9914 52.2978 88.0293 53.038L88.3639 58.9416L91.6089 64.5621L93.1903 63.6491L93.3663 63.954L88.4126 66.814L88.2366 66.5091L89.6274 65.7061L86.4924 60.2762L79.419 55.9007L78.0282 56.7037L77.8522 56.3988L82.9583 53.4508L83.1343 53.7557L81.5529 54.6687L87.9343 58.6816L87.7417 54.652C87.6906 53.8009 87.5478 53.1721 87.3131 52.7656C87.0784 52.3591 86.762 52.1777 86.3638 52.2213C85.9709 52.2449 85.476 52.429 84.8791 52.7737L84.7266 52.8617L84.5506 52.5569L89.5043 49.6969ZM92.0423 46.936L92.4043 46.727L94.7363 50.7661L94.3743 50.9751L92.0423 46.936ZM107.086 56.0582C107.874 55.6035 108.36 55.0092 108.546 54.2752C108.732 53.5413 108.62 52.8186 108.209 52.1074C107.791 51.3834 107.229 50.9374 106.522 50.7696C105.816 50.6017 105.065 50.5778 104.271 50.6977C103.469 50.805 102.66 50.8996 101.843 50.9814C101.027 51.0633 100.232 50.9631 99.4598 50.6809C98.6872 50.3988 98.0699 49.8576 97.6079 49.0574C96.9846 47.9777 96.8181 46.9561 97.1086 45.9924C97.3916 45.0161 98.0794 44.2126 99.1717 43.5819C99.7433 43.2519 100.447 42.9895 101.283 42.7948C102.119 42.6001 102.594 42.4697 102.708 42.4037C103.077 42.191 103.168 41.8504 102.982 41.3819L103.211 41.2499L105.62 45.4224L105.315 45.5984C104.457 44.5526 103.538 43.8554 102.558 43.5068C101.57 43.1455 100.568 43.2582 99.5522 43.8449C98.8663 44.2409 98.4311 44.7631 98.2466 45.4116C98.0675 46.04 98.1723 46.6908 98.5609 47.364C98.9423 48.0245 99.4862 48.4387 100.193 48.6065C100.899 48.7744 101.654 48.8047 102.455 48.6974C103.25 48.5775 104.055 48.4765 104.872 48.3947C105.688 48.3128 106.483 48.413 107.255 48.6952C108.028 48.9773 108.645 49.5185 109.107 50.3187C109.76 51.4492 109.888 52.5947 109.491 53.7553C109.094 54.9159 108.299 55.8408 107.105 56.5302C106.52 56.8675 105.836 57.1189 105.05 57.2843C104.278 57.4424 103.835 57.5544 103.72 57.6204C103.352 57.8331 103.261 58.1737 103.447 58.6422L103.218 58.7742L100.332 54.2163L100.637 54.0403C102.676 56.6909 104.825 57.3635 107.086 56.0582ZM58.3892 110.983C58.1826 112.796 57.2283 114.194 55.5263 115.176C53.8242 116.159 52.1303 116.29 50.4443 115.57C48.7637 114.83 47.3917 113.539 46.3284 111.697C45.2651 109.856 44.8531 108.027 45.0924 106.212C45.3244 104.385 46.2724 102.991 47.9363 102.03C49.6002 101.07 51.2815 100.946 52.9802 101.658C54.6715 102.359 56.0488 103.63 57.1122 105.471C58.1755 107.313 58.6012 109.15 58.3892 110.983ZM52.6414 115.064C53.048 115.269 53.4768 115.352 53.9278 115.312C54.3715 115.259 54.8283 115.097 55.2982 114.825C55.7809 114.547 56.146 114.226 56.3936 113.863C56.654 113.492 56.7967 113.08 56.822 112.625C56.8473 112.17 56.8271 111.724 56.7615 111.288C56.6885 110.839 56.5298 110.329 56.2853 109.759C56.0408 109.189 55.8076 108.697 55.5856 108.283C55.3764 107.862 55.1031 107.359 54.7657 106.775C54.4284 106.191 54.1334 105.709 53.8806 105.33C53.6333 104.931 53.3275 104.489 52.9633 104.005C52.5918 103.509 52.2372 103.129 51.8995 102.867C51.5544 102.592 51.1823 102.358 50.783 102.165C50.3764 101.959 49.9513 101.883 49.5076 101.936C49.0694 101.969 48.6152 102.121 48.1453 102.392C47.6753 102.664 47.3102 102.984 47.0499 103.355C46.7949 103.705 46.6548 104.108 46.6295 104.563C46.597 105.005 46.6135 105.444 46.6791 105.881C46.7374 106.304 46.8887 106.801 47.1332 107.371C47.5156 108.268 47.9525 109.142 48.4438 109.993C48.9278 110.832 49.2898 111.444 49.5299 111.83C49.7626 112.204 50.0657 112.656 50.4391 113.185C50.818 113.695 51.1763 114.081 51.514 114.343C51.8517 114.605 52.2275 114.846 52.6414 115.064ZM62.6781 110.539L62.5021 110.234L63.893 109.431L57.095 97.657L55.7041 98.46L55.5281 98.1551L64.5971 92.9191L66.9951 97.0726L66.6903 97.2486C66.2063 96.4103 65.7879 95.7882 65.4349 95.3822C65.0947 94.969 64.6969 94.6906 64.2415 94.5471C63.7914 94.3835 63.3121 94.3893 62.8035 94.5644C62.2875 94.7268 61.6168 95.0463 60.7912 95.523L59.0764 96.513L62.3434 102.172L63.3532 101.589C64.2677 101.061 64.7975 100.526 64.9424 99.9852C65.08 99.4315 64.8812 98.6911 64.3458 97.7638L64.6697 97.5768L67.6947 102.816L67.3708 103.003C66.8282 102.063 66.2827 101.515 65.7344 101.357C65.1788 101.187 64.4437 101.365 63.5292 101.893L62.5194 102.476L65.8744 108.287L67.4558 107.374L67.6318 107.679L62.6781 110.539ZM73.265 104.427L73.089 104.122L74.4798 103.319L67.6818 91.5447L66.291 92.3477L66.115 92.0428L75.184 86.8068L77.582 90.9603L77.2771 91.1363C76.7931 90.298 76.3747 89.6758 76.0218 89.2699C75.6815 88.8567 75.2837 88.5783 74.8283 88.4348C74.3782 88.2712 73.8989 88.277 73.3903 88.4521C72.8744 88.6145 72.2036 88.934 71.378 89.4107L69.6633 90.4007L72.9303 96.0593L73.94 95.4763C74.8546 94.9483 75.3843 94.4138 75.5292 93.8729C75.6669 93.3192 75.468 92.5788 74.9327 91.6515L75.2566 91.4645L78.2816 96.704L77.9577 96.891C77.415 95.9511 76.8695 95.4023 76.3212 95.2446C75.7656 95.0743 75.0306 95.2531 74.116 95.7811L73.1063 96.3641L76.4613 102.175L78.0426 101.262L78.2186 101.567L73.265 104.427ZM83.8518 98.3147L83.6758 98.0098L85.0666 97.2068L78.2686 85.4324L76.8778 86.2354L76.7018 85.9305L85.8661 80.6395L88.1541 84.6024L87.8492 84.7784C86.9619 83.2415 86.1485 82.3901 85.4092 82.2242C84.6753 82.0383 83.5271 82.3964 81.9648 83.2984L80.2501 84.2884L83.4071 89.7564L84.4169 89.1734C85.3314 88.6454 85.8611 88.111 86.0061 87.57C86.1437 87.0164 85.9448 86.2759 85.4095 85.3487L85.7334 85.1617L88.7584 90.4012L88.4345 90.5882C87.8918 89.6482 87.3463 89.0995 86.7981 88.9418C86.2425 88.7715 85.5074 88.9503 84.5929 89.4783L83.5831 90.0613L87.0481 96.0628L88.5913 95.1718C89.5567 94.6145 90.2704 94.1347 90.7325 93.7324C91.1946 93.3301 91.4918 92.8622 91.624 92.3286C91.7562 91.795 91.7265 91.2448 91.5348 90.6781C91.3484 90.0913 90.9947 89.2879 90.4735 88.2678L90.7783 88.0918L93.2828 92.8697L83.8518 98.3147ZM104.675 86.5467C104.217 86.8107 103.739 86.8328 103.24 86.6131C102.74 86.3934 102.274 85.9088 101.841 85.1594L101.115 83.9019C100.492 82.8223 99.8361 82.1849 99.1476 81.9896C98.4718 81.7871 97.6766 81.9498 96.7621 82.4778L95.3903 83.2698L98.8443 89.2523L100.426 88.3393L100.602 88.6441L95.648 91.5041L95.472 91.1993L96.8628 90.3963L90.0648 78.6218L88.674 79.4248L88.498 79.12L93.0897 76.469C95.0076 75.3616 96.4279 74.8296 97.3504 74.8728C97.7452 74.8819 98.1469 75.0056 98.5554 75.244C98.9567 75.4696 99.3003 75.8301 99.5863 76.3254C100.085 77.1891 100.245 78.0535 100.067 78.9184C99.8818 79.7706 99.3367 80.5425 98.432 81.2342L98.487 81.3295C99.6556 80.6548 100.585 80.4906 101.276 80.8368C101.98 81.1757 102.721 82.0183 103.498 83.3647L104.004 84.2411C104.268 84.6983 104.483 84.9976 104.649 85.1387C104.808 85.2672 104.964 85.2874 105.116 85.1994C105.281 85.1041 105.373 84.8817 105.391 84.5323C105.423 84.1756 105.349 83.7103 105.17 83.1362L105.557 83.0144C106.124 84.7019 105.83 85.8793 104.675 86.5467ZM96.4337 82.2609C97.5006 81.6449 98.1136 81.0201 98.2727 80.3863C98.4372 79.7324 98.204 78.8594 97.5734 77.767C96.9354 76.662 96.2897 76.0863 95.6364 76.0401C94.9958 75.9866 94.1167 76.2825 92.9989 76.9278L92.0463 77.4778L95.2143 82.9649L96.4337 82.2609ZM112.33 81.8983C113.117 81.4436 113.604 80.8493 113.79 80.1153C113.976 79.3814 113.864 78.6587 113.453 77.9474C113.035 77.2234 112.473 76.7775 111.766 76.6097C111.059 76.4418 110.309 76.4179 109.514 76.5378C108.713 76.6451 107.903 76.7396 107.087 76.8215C106.271 76.9034 105.476 76.8032 104.703 76.521C103.931 76.2389 103.314 75.6977 102.852 74.8975C102.228 73.8178 102.062 72.7962 102.352 71.8325C102.635 70.8562 103.323 70.0527 104.415 69.422C104.987 69.092 105.691 68.8296 106.527 68.6349C107.363 68.4402 107.838 68.3098 107.952 68.2438C108.32 68.0311 108.412 67.6905 108.226 67.222L108.454 67.09L110.863 71.2625L110.559 71.4385C109.701 70.3927 108.782 69.6955 107.801 69.3469C106.814 68.9856 105.812 69.0983 104.796 69.685C104.11 70.081 103.675 70.6032 103.49 71.2517C103.311 71.8801 103.416 72.5309 103.805 73.2041C104.186 73.8646 104.73 74.2788 105.436 74.4466C106.143 74.6145 106.897 74.6448 107.699 74.5375C108.493 74.4175 109.299 74.3166 110.115 74.2348C110.932 74.1529 111.726 74.2531 112.499 74.5352C113.272 74.8174 113.889 75.3586 114.351 76.1588C115.004 77.2893 115.131 78.4348 114.735 79.5954C114.338 80.756 113.542 81.6809 112.348 82.3703C111.764 82.7076 111.079 82.959 110.294 83.1244C109.522 83.2824 109.078 83.3945 108.964 83.4605C108.596 83.6731 108.504 84.0137 108.69 84.4823L108.462 84.6143L105.576 80.0564L105.881 79.8804C107.919 82.531 110.069 83.2036 112.33 81.8983ZM119.443 75.4795C119.784 75.5708 120.046 75.7752 120.229 76.0927C120.413 76.4103 120.459 76.7393 120.367 77.0799C120.282 77.4005 120.08 77.6524 119.762 77.8358C119.445 78.0191 119.119 78.0715 118.786 77.9929C118.445 77.9017 118.184 77.6973 118 77.3797C117.817 77.0622 117.771 76.7331 117.862 76.3925C117.953 76.0519 118.158 75.79 118.475 75.6066C118.793 75.4233 119.116 75.3809 119.443 75.4795ZM117.586 73.7577L117.281 73.9337C116.034 71.7744 114.564 69.7862 112.872 67.9691C112.316 67.3585 111.954 66.9072 111.785 66.615C111.617 66.3229 111.565 66.0139 111.631 65.6879C111.697 65.362 111.908 65.0964 112.263 64.891C112.619 64.6857 112.954 64.636 113.269 64.7419C113.585 64.8479 113.827 65.0469 113.995 65.339C114.164 65.6312 114.374 66.1705 114.625 66.9571C115.352 69.3316 116.339 71.5984 117.586 73.7577Z" fill="#032204"></path></svg>