<svg xmlns="http://www.w3.org/2000/svg" xmlns:xlink="http://www.w3.org/1999/xlink" width="512" height="512" x="0" y="0" viewBox="0 0 512.003 512.003" style="enable-background:new 0 0 512 512" xml:space="preserve" class=""><g><path d="M479.243 290.321c.577-1.678.676-3.84-.363-5.882l-51.485-102.231c-.16-14.794-8.021-28.817-21.098-36.51l22.558-59.183a18.434 18.434 0 0 0-.405-14.2 18.56 18.56 0 0 0-3.396-5.087l21.75-57.054a7.5 7.5 0 0 0-4.336-9.68 7.5 7.5 0 0 0-9.68 4.336l-21.077 55.288-30.007-11.439 14.673-38.506a7.502 7.502 0 0 0-14.018-5.342l-15.346 40.273c-2.02.184-4.018.683-5.924 1.536a18.44 18.44 0 0 0-9.754 10.328l-22.556 59.177c-8.668-1.741-17.642-.765-25.872 2.923-10.446 4.681-18.445 13.149-22.522 23.847-3.198 8.389-.958 17.532 4.964 23.546h-83.807a60.847 60.847 0 0 0-45.435 20.386l-85.36 95.979c-2.356 2.612-2.637 7.139 0 9.969l85.359 95.969a60.58 60.58 0 0 0 10.211 9.149l-3.553 28.96a75.91 75.91 0 0 0 7.127 42.506c-26.102-13.246-47.665-34.624-60.972-61.042l-60.7-120.527 75.342-149.588c14.554-28.906 43.698-46.862 76.061-46.862h14.07a24.952 24.952 0 0 1 16.711 6.413l20.58 18.53a7.501 7.501 0 0 0 10.037 0l20.577-18.527a24.953 24.953 0 0 1 16.714-6.416h13.326c4.143 0 7.5-3.357 7.5-7.5s-3.357-7.5-7.5-7.5h-13.326a39.933 39.933 0 0 0-26.748 10.267l-15.562 14.012-15.564-14.015a39.932 39.932 0 0 0-26.745-10.264h-14.07c-38.062 0-72.341 21.119-89.458 55.115l-77.04 152.96c-.909 1.886-1.197 4.406 0 6.747l62.399 123.901c18.702 37.131 52.112 65.27 91.839 77.456 13.851 12.448 31.904 19.46 50.721 19.46h35.836c18.818 0 36.87-7.012 50.721-19.46 39.727-12.186 73.137-40.325 91.839-77.457l62.399-123.9c.105-.242.112-.197.365-.861zM365.352 62.311c.458-1.199 1.369-1.756 1.872-1.981s1.523-.535 2.725-.078L412.8 76.588a3.566 3.566 0 0 1 2.04 4.587l-22.341 58.61-16.928-6.452 11.991-31.263a7.5 7.5 0 1 0-14.005-5.371l-12.002 31.291-18.543-7.068zm-70.951 85.947c2.65-6.953 7.85-12.458 14.641-15.5 5.619-2.416 13.64-3.593 21.312-.608l63.812 24.322c14.064 5.035 21.893 21.675 16.417 36.069a7.194 7.194 0 0 1-3.807 4.03 7.197 7.197 0 0 1-5.54.158l-102.647-39.125a7.192 7.192 0 0 1-4.028-3.806 7.188 7.188 0 0 1-.16-5.54zM86.389 287.812l62.777-70.588c5.181 5.215 12.299 8.298 20.01 8.298h24.778c4.143 0 7.5-3.357 7.5-7.5s-3.357-7.5-7.5-7.5h-24.778a13.174 13.174 0 0 1-10-4.553l8.14-9.153a45.834 45.834 0 0 1 34.226-15.354h3.544v11.919c0 4.143 3.357 7.5 7.5 7.5s7.5-3.357 7.5-7.5v-11.919h28.416v11.919c0 4.143 3.357 7.5 7.5 7.5s7.5-3.357 7.5-7.5v-11.919h28.416v11.919c0 4.143 3.357 7.5 7.5 7.5s7.5-3.357 7.5-7.5v-11.919c13.418-.889 28.486 4.743 37.77 15.354l8.138 9.15a13.168 13.168 0 0 1-10.001 4.555H229.133c-4.143 0-7.5 3.357-7.5 7.5s3.357 7.5 7.5 7.5h113.691c7.711 0 14.83-3.083 20.011-8.299l62.779 70.589-80.927 90.989c-.495.557-1.025 1.078-1.546 1.609a68.552 68.552 0 0 0-5.888-16.033 77.22 77.22 0 0 0 16.219-47.365c0-42.656-34.703-77.359-77.359-77.359a7.498 7.498 0 0 0-7.335 9.067l3.293 15.41c.239 1.114.361 2.252.361 3.382 0 8.834-7.214 16.021-16.08 16.021a16.027 16.027 0 0 1-12.271-5.697 16.026 16.026 0 0 1-3.562-13.053l2.769-16.38a7.499 7.499 0 0 0-7.395-8.75c-20.666 0-40.094 8.046-54.704 22.658-14.609 14.619-22.655 34.046-22.655 54.701a77.22 77.22 0 0 0 16.219 47.365 68.528 68.528 0 0 0-5.888 16.032c-.521-.531-1.051-1.053-1.547-1.611zm149.696 39.151c-20.788 0-39.66 9.297-52.397 24.142a62.26 62.26 0 0 1-10.156-34.093c0-16.65 6.486-32.312 18.264-44.097 9.632-9.633 21.863-15.726 35.113-17.625l-1.182 6.987c-1.533 9.036.979 18.234 6.893 25.236s14.564 11.019 23.731 11.019c17.138 0 31.08-13.916 31.08-31.021.254-1.418-1.098-8.894-1.896-12.148 29.93 4.556 52.936 30.466 52.936 61.648a62.262 62.262 0 0 1-10.156 34.093c-12.737-14.845-31.608-24.142-52.397-24.142h-39.833zm1.999 170.04a60.918 60.918 0 0 1-45.599-20.54 60.918 60.918 0 0 1-14.832-47.761l4.822-39.307c3.318-27.041 26.365-47.433 53.609-47.433h12.425v71.844c0 4.143 3.357 7.5 7.5 7.5s7.5-3.357 7.5-7.5v-71.844h12.409c27.244 0 50.291 20.392 53.609 47.433l4.822 39.308a60.917 60.917 0 0 1-14.832 47.76 60.918 60.918 0 0 1-45.599 20.54zm165-88.664c-13.307 26.419-34.87 47.798-60.972 61.044a75.915 75.915 0 0 0 7.128-42.507l-3.553-28.961a60.61 60.61 0 0 0 10.21-9.147l85.36-95.971c2.355-2.613 2.637-7.137 0-9.969l-73.72-82.89 28.356 10.808c7.533 2.968 18.942 1.369 25.49-7.128l42.402 84.194zM123.61 58.298c.629.162 1.26.24 1.881.24a7.504 7.504 0 0 0 7.257-5.626l4.101-15.873a7.5 7.5 0 1 0-14.524-3.752l-4.101 15.873a7.5 7.5 0 0 0 5.386 9.138zM86.208 65.776a7.476 7.476 0 0 0 5.298 2.191 7.5 7.5 0 0 0 5.298-12.808l-11.57-11.546A7.5 7.5 0 0 0 74.639 54.23zM66.883 106.498c.664 0 1.339-.089 2.01-.275l15.797-4.385c3.991-1.107 6.329-5.241 5.221-9.232s-5.242-6.331-9.232-5.221L64.882 91.77a7.502 7.502 0 0 0 2.001 14.728z" fill="#173e33" opacity="1" data-original="#000000" class=""></path></g></svg>