<svg xmlns="http://www.w3.org/2000/svg" width="194" height="156" viewBox="0 0 194 156" fill="none"><circle cx="115.266" cy="77.9166" r="77.4166" stroke="white"></circle><path d="M67.5751 76.147C67.9657 75.7565 67.9657 75.1234 67.5751 74.7328L61.2112 68.3689C60.8207 67.9783 60.1875 67.9783 59.797 68.3689C59.4064 68.7594 59.4064 69.3926 59.797 69.7831L65.4538 75.4399L59.797 81.0968C59.4064 81.4873 59.4064 82.1205 59.797 82.511C60.1875 82.9015 60.8207 82.9015 61.2112 82.511L67.5751 76.147ZM0 76.4399H66.868V74.4399H0V76.4399Z" fill="white"></path><path d="M138.451 73.0215C137.761 73.0215 137.141 72.9015 136.591 72.6615C136.051 72.4115 135.626 72.0715 135.316 71.6415C135.006 71.2015 134.846 70.6965 134.836 70.1265H136.291C136.341 70.6165 136.541 71.0315 136.891 71.3715C137.251 71.7015 137.771 71.8665 138.451 71.8665C139.101 71.8665 139.611 71.7065 139.981 71.3865C140.361 71.0565 140.551 70.6365 140.551 70.1265C140.551 69.7265 140.441 69.4015 140.221 69.1515C140.001 68.9015 139.726 68.7115 139.396 68.5815C139.066 68.4515 138.621 68.3115 138.061 68.1615C137.371 67.9815 136.816 67.8015 136.396 67.6215C135.986 67.4415 135.631 67.1615 135.331 66.7815C135.041 66.3915 134.896 65.8715 134.896 65.2215C134.896 64.6515 135.041 64.1465 135.331 63.7065C135.621 63.2665 136.026 62.9265 136.546 62.6865C137.076 62.4465 137.681 62.3265 138.361 62.3265C139.341 62.3265 140.141 62.5715 140.761 63.0615C141.391 63.5515 141.746 64.2015 141.826 65.0115H140.326C140.276 64.6115 140.066 64.2615 139.696 63.9615C139.326 63.6515 138.836 63.4965 138.226 63.4965C137.656 63.4965 137.191 63.6465 136.831 63.9465C136.471 64.2365 136.291 64.6465 136.291 65.1765C136.291 65.5565 136.396 65.8665 136.606 66.1065C136.826 66.3465 137.091 66.5315 137.401 66.6615C137.721 66.7815 138.166 66.9215 138.736 67.0815C139.426 67.2715 139.981 67.4615 140.401 67.6515C140.821 67.8315 141.181 68.1165 141.481 68.5065C141.781 68.8865 141.931 69.4065 141.931 70.0665C141.931 70.5765 141.796 71.0565 141.526 71.5065C141.256 71.9565 140.856 72.3215 140.326 72.6015C139.796 72.8815 139.171 73.0215 138.451 73.0215ZM151.995 62.4615V72.9165H150.63V68.1765H145.305V72.9165H143.94V62.4615H145.305V67.0515H150.63V62.4615H151.995ZM159.066 73.0215C158.096 73.0215 157.211 72.7965 156.411 72.3465C155.611 71.8865 154.976 71.2515 154.506 70.4415C154.046 69.6215 153.816 68.7015 153.816 67.6815C153.816 66.6615 154.046 65.7465 154.506 64.9365C154.976 64.1165 155.611 63.4815 156.411 63.0315C157.211 62.5715 158.096 62.3415 159.066 62.3415C160.046 62.3415 160.936 62.5715 161.736 63.0315C162.536 63.4815 163.166 64.1115 163.626 64.9215C164.086 65.7315 164.316 66.6515 164.316 67.6815C164.316 68.7115 164.086 69.6315 163.626 70.4415C163.166 71.2515 162.536 71.8865 161.736 72.3465C160.936 72.7965 160.046 73.0215 159.066 73.0215ZM159.066 71.8365C159.796 71.8365 160.451 71.6665 161.031 71.3265C161.621 70.9865 162.081 70.5015 162.411 69.8715C162.751 69.2415 162.921 68.5115 162.921 67.6815C162.921 66.8415 162.751 66.1115 162.411 65.4915C162.081 64.8615 161.626 64.3765 161.046 64.0365C160.466 63.6965 159.806 63.5265 159.066 63.5265C158.326 63.5265 157.666 63.6965 157.086 64.0365C156.506 64.3765 156.046 64.8615 155.706 65.4915C155.376 66.1115 155.211 66.8415 155.211 67.6815C155.211 68.5115 155.376 69.2415 155.706 69.8715C156.046 70.5015 156.506 70.9865 157.086 71.3265C157.676 71.6665 158.336 71.8365 159.066 71.8365ZM173.108 65.5215C173.108 66.3915 172.808 67.1165 172.208 67.6965C171.618 68.2665 170.713 68.5515 169.493 68.5515H167.483V72.9165H166.118V62.4615H169.493C170.673 62.4615 171.568 62.7465 172.178 63.3165C172.798 63.8865 173.108 64.6215 173.108 65.5215ZM169.493 67.4265C170.253 67.4265 170.813 67.2615 171.173 66.9315C171.533 66.6015 171.713 66.1315 171.713 65.5215C171.713 64.2315 170.973 63.5865 169.493 63.5865H167.483V67.4265H169.493ZM146.051 92.9165H144.686L139.196 84.5915V92.9165H137.831V82.4465H139.196L144.686 90.7565V82.4465H146.051V92.9165ZM153.118 93.0215C152.148 93.0215 151.263 92.7965 150.463 92.3465C149.663 91.8865 149.028 91.2515 148.558 90.4415C148.098 89.6215 147.868 88.7015 147.868 87.6815C147.868 86.6615 148.098 85.7465 148.558 84.9365C149.028 84.1165 149.663 83.4815 150.463 83.0315C151.263 82.5715 152.148 82.3415 153.118 82.3415C154.098 82.3415 154.988 82.5715 155.788 83.0315C156.588 83.4815 157.218 84.1115 157.678 84.9215C158.138 85.7315 158.368 86.6515 158.368 87.6815C158.368 88.7115 158.138 89.6315 157.678 90.4415C157.218 91.2515 156.588 91.8865 155.788 92.3465C154.988 92.7965 154.098 93.0215 153.118 93.0215ZM153.118 91.8365C153.848 91.8365 154.503 91.6665 155.083 91.3265C155.673 90.9865 156.133 90.5015 156.463 89.8715C156.803 89.2415 156.973 88.5115 156.973 87.6815C156.973 86.8415 156.803 86.1115 156.463 85.4915C156.133 84.8615 155.678 84.3765 155.098 84.0365C154.518 83.6965 153.858 83.5265 153.118 83.5265C152.378 83.5265 151.718 83.6965 151.138 84.0365C150.558 84.3765 150.098 84.8615 149.758 85.4915C149.428 86.1115 149.263 86.8415 149.263 87.6815C149.263 88.5115 149.428 89.2415 149.758 89.8715C150.098 90.5015 150.558 90.9865 151.138 91.3265C151.728 91.6665 152.388 91.8365 153.118 91.8365ZM173.31 82.4615L170.28 92.9165H168.75L166.32 84.5015L163.8 92.9165L162.285 92.9315L159.36 82.4615H160.815L163.095 91.3265L165.615 82.4615H167.145L169.545 91.2965L171.84 82.4615H173.31Z" fill="#FFF3F3"></path></svg>