<svg xmlns="http://www.w3.org/2000/svg" width="1440" height="700" viewBox="0 0 1440 700" fill="none"><g clip-path="url(#clip0_0_1)"><path d="M241.934 621.884V635.726H99.6131V700H80.5105V628.807C80.5105 624.981 84.7899 621.884 90.0642 621.884H241.934Z" fill="white" fill-opacity="0.8"></path><path d="M1445 386.561V400.404H851.668L837.454 413.62L778.711 468.234L769.157 477.117L601.542 632.951L601.426 633.059C599.615 634.743 596.837 635.726 593.891 635.726H353.198V621.884H589.23L621.239 592.123L628.686 585.2L769.157 454.598L778.711 445.715L834.821 393.547L839.468 389.228C841.279 387.545 844.056 386.561 847.002 386.561H1445Z" fill="white" fill-opacity="0.8"></path><path d="M1304.99 0V193.113C1304.99 196.938 1300.71 200.036 1295.43 200.036H629.049L624.33 203.655L488.8 307.587L482.236 312.62L432.738 350.578L423.185 357.907L314.964 440.895L306.878 447.097L305.941 447.815L304.028 449.281C302.227 450.664 299.715 451.448 297.088 451.448H-4V437.605H292.973L297.083 434.452L306.878 426.941L418.06 341.677L424.624 336.644L468.722 302.831L475.286 297.798L612.255 192.759L617.993 188.36C619.799 186.977 622.306 186.193 624.934 186.193H1285.89V0H1304.99Z" fill="white" fill-opacity="0.8"></path><path d="M1304.99 393.484V700H1285.89V416.381L1263.38 440.895L1257.02 447.815L1216.67 491.764L1210.31 498.687L1169.96 542.637L1163.6 549.556L1122.3 594.545L1115.94 601.468L1076.86 644.032L1070.5 650.955L1025.47 700H1002.52L1277.61 400.404L1285.89 391.388L1287.48 389.648C1289.29 387.685 1292.3 386.561 1295.44 386.561C1296.36 386.561 1297.28 386.659 1298.2 386.859C1302.23 387.741 1304.99 390.432 1304.99 393.484Z" fill="white" fill-opacity="0.8"></path><path d="M306.878 669.291H287.775V700H306.878V669.291Z" fill="white" fill-opacity="0.8"></path><path d="M306.878 444.353V588.665H287.775V447.248L274.3 437.605L-4 238.469V219.016L47.3381 255.752L57.0126 262.672L215.185 375.851L224.734 382.683L287.775 427.791L297.083 434.452L304.038 439.429C304.651 439.87 305.173 440.363 305.593 440.895C306.429 441.938 306.878 443.128 306.878 444.353Z" fill="white" fill-opacity="0.8"></path><path d="M856.556 393.484V700H837.454V395.92L834.821 393.547L778.711 342.926L769.158 334.306L654.15 230.552L648.079 225.078L624.33 203.654L612.255 192.759L574.272 158.494L568.225 153.037L501.764 93.079L494.089 86.156L453.478 49.5215L445.808 42.602L398.585 0H423.088L470.311 42.602L477.981 49.5215L518.592 86.156L526.262 93.079L629.479 186.193L644.824 200.036L782.15 323.925L789.825 330.848L851.581 386.561L854.45 389.147C855.813 390.379 856.556 391.905 856.556 393.484Z" fill="white" fill-opacity="0.8"></path><path d="M916.729 0H897.626V193.113H916.729V0Z" fill="white" fill-opacity="0.8"></path><path d="M601.542 632.951L601.426 633.059L532.309 700H508.453L574.818 635.726L586.245 624.659L601.542 632.951Z" fill="white" fill-opacity="0.8"></path><path d="M1304.99 193.113H1285.89V393.481H1304.99V193.113Z" fill="white" fill-opacity="0.8"></path><path d="M306.878 0H287.775V444.353H306.878V0Z" fill="white" fill-opacity="0.8"></path><path d="M1295.43 86.156H-4V93.079H1295.43V86.156Z" fill="white" fill-opacity="0.8"></path><path d="M814.53 0V125.979C814.53 126.896 814.023 127.774 813.13 128.425L782.29 150.769V193.112H772.741V149.338C772.741 148.421 773.244 147.539 774.142 146.891L804.977 124.544V0H814.53Z" fill="white" fill-opacity="0.8"></path><path d="M1059.98 193.112H1069.53V136.703H1129.72V193.112H1139.27V133.245C1139.27 131.334 1137.13 129.783 1134.49 129.783H1064.75C1062.11 129.783 1059.97 131.334 1059.97 133.245V193.112H1059.98Z" fill="white" fill-opacity="0.8"></path><path d="M1206.13 0V133.245C1206.13 135.156 1203.99 136.706 1201.36 136.706H1134.5V129.783H1196.58V0H1206.13Z" fill="white" fill-opacity="0.8"></path><path d="M1139.27 0V40.1555C1139.27 42.0665 1137.14 43.617 1134.5 43.617H1069.55V89.6175H1060V40.1555C1060 38.2445 1062.14 36.694 1064.77 36.694H1129.72V0H1139.27Z" fill="white" fill-opacity="0.8"></path><path d="M726.658 0H717.104V193.113H726.658V0Z" fill="white" fill-opacity="0.8"></path><path d="M1248.22 120.095V230.835C1248.22 232.746 1246.08 234.297 1243.44 234.297H986.928C984.291 234.297 982.156 232.746 982.156 230.835V0H991.705V227.374H1238.67V120.095H1248.22Z" fill="white" fill-opacity="0.8"></path><path d="M721.881 42.6021V49.5216H176.57L150.285 68.5686C149.391 69.2196 148.179 69.5835 146.909 69.5835H-4V62.6605H144.933L171.213 43.6171C172.111 42.9661 173.324 42.6021 174.594 42.6021H721.881Z" fill="white" fill-opacity="0.8"></path><path d="M117.759 0H108.21V66.122H117.759V0Z" fill="white" fill-opacity="0.8"></path><path d="M59.0218 0H49.468V66.122H59.0218V0Z" fill="white" fill-opacity="0.8"></path><path d="M232.854 0H223.305V89.6175H232.854V0Z" fill="white" fill-opacity="0.8"></path><path d="M297.324 447.815H517.959C520.596 447.815 522.736 446.264 522.736 444.353V338.041L661.11 224.854L653.962 220.266L514.385 334.436C513.612 335.069 513.182 335.885 513.182 336.732V440.895H297.324V447.815Z" fill="white" fill-opacity="0.8"></path><path d="M423.185 444.353H432.734V343.994C432.734 343.08 432.236 342.205 431.347 341.558L300.715 246.095L293.934 250.967L423.185 345.418V444.353Z" fill="white" fill-opacity="0.8"></path><path d="M514.583 336.063L521.335 331.17L434.791 268.457L581.299 152.957L574.267 148.274L424.658 266.217C422.924 267.582 422.987 269.696 424.798 271.005L514.578 336.063H514.583Z" fill="white" fill-opacity="0.8"></path><path d="M534.337 185.434L527.131 189.977L524.33 187.642L453.222 128.401H-4V121.478H455.401C456.782 121.478 458.096 121.912 459.004 122.668L530.836 182.515L534.337 185.434Z" fill="white" fill-opacity="0.8"></path><path d="M461.366 242.228L468.311 237.475L388.877 176.509V124.936H379.328V177.884C379.328 178.766 379.797 179.617 380.632 180.261L461.37 242.228H461.366Z" fill="white" fill-opacity="0.8"></path><path d="M300.672 364.01L431.526 271.026C432.429 270.382 432.946 269.507 432.956 268.586C432.965 267.666 432.477 266.784 431.589 266.129L300.734 169.592C299.836 168.931 298.609 168.556 297.329 168.556H153.584C150.946 168.556 148.807 170.107 148.807 172.018V219.068H80.0372V124.939H70.4883V222.53C70.4883 224.441 72.628 225.991 75.2652 225.991H153.584C156.221 225.991 158.36 224.441 158.36 222.53V175.479H295.33L421.431 268.509L293.992 359.068L300.681 364.01H300.672Z" fill="white" fill-opacity="0.8"></path><path d="M224.734 222.53H215.185V385.326H224.734V222.53Z" fill="white" fill-opacity="0.8"></path><path d="M216.688 300.493L223.232 295.453L166.402 256.69C165.519 256.085 164.345 255.749 163.128 255.749H38.5813V262.668H161.239L216.692 300.489L216.688 300.493Z" fill="white" fill-opacity="0.8"></path><path d="M117.759 385.178V488.649C117.759 490.56 115.625 492.11 112.987 492.11H-4V485.191H108.211V386.697L100.748 381.717L-4 311.829V302.421L116.219 382.63C117.204 383.288 117.759 384.209 117.759 385.178Z" fill="white" fill-opacity="0.8"></path><path d="M112.987 381.717H-4V388.64H112.987V381.717Z" fill="white" fill-opacity="0.8"></path><path d="M926.755 327.387V700H917.206V330.848H778.711V700H769.157V327.387C769.157 325.476 771.297 323.925 773.934 323.925H921.978C923.22 323.925 924.355 324.272 925.205 324.835L925.214 324.842C926.161 325.472 926.755 326.379 926.755 327.387Z" fill="white" fill-opacity="0.8"></path><path d="M1445 210.651V220.441L1376.14 270.337L1366.59 277.256L1304.99 321.899L1246.76 364.095C1245.86 364.742 1244.65 365.106 1243.38 365.106H973.558C972.36 365.106 971.211 364.781 970.332 364.196L926.755 335.255L918.752 329.938L925.205 324.835L925.214 324.842L975.413 358.187H1241.4L1445 210.651Z" fill="white" fill-opacity="0.8"></path><path d="M847.002 463.733H1029.02C1031.65 463.733 1033.79 462.182 1033.79 460.271V361.645H1024.24V456.813H847.002V463.733Z" fill="white" fill-opacity="0.8"></path><path d="M1445 440.895H1243.38V447.815H1445V440.895Z" fill="white" fill-opacity="0.8"></path><path d="M1445 491.764H1201.36V498.687H1445V491.764Z" fill="white" fill-opacity="0.8"></path><path d="M1445 542.637H1150.73V549.556H1445V542.637Z" fill="white" fill-opacity="0.8"></path><path d="M1445 594.545H1106.32V601.468H1445V594.545Z" fill="white" fill-opacity="0.8"></path><path d="M1445 644.031H1064.77V650.954H1445V644.031Z" fill="white" fill-opacity="0.8"></path><path d="M1376.14 268.901H1366.59V354.378H1376.14V268.901Z" fill="white" fill-opacity="0.8"></path><path d="M1028.95 463.732H1134.49C1136.02 463.732 1137.46 463.2 1138.36 462.304L1205.21 395.514L1197.48 391.45L1132.05 456.813H1028.95V463.732H1028.95Z" fill="white" fill-opacity="0.8"></path><path d="M986.928 601.468H1028.95C1030.71 601.468 1032.33 600.768 1033.16 599.645L1096.67 513.853C1097.47 512.782 1097.43 511.483 1096.56 510.44C1095.7 509.397 1094.14 508.757 1092.47 508.757H921.979V515.676H1084.49L1026.1 594.545H986.932V601.465L986.928 601.468Z" fill="white" fill-opacity="0.8"></path><path d="M991.705 546.098H982.156V700H991.705V546.098Z" fill="white" fill-opacity="0.8"></path><path d="M362.017 621.884C357.743 601.391 335.225 585.172 306.878 582.222C303.835 581.907 300.725 581.742 297.566 581.742C294.238 581.742 290.973 581.924 287.776 582.274C259.651 585.354 237.365 601.507 233.11 621.884C232.627 624.201 232.375 626.567 232.375 628.978C232.375 631.39 232.602 633.521 233.037 635.726C237.109 656.268 259.496 672.585 287.776 675.682C290.973 676.032 294.238 676.214 297.566 676.214C300.894 676.214 303.835 676.05 306.878 675.735C335.385 672.767 357.994 656.383 362.09 635.726C362.525 633.521 362.752 631.267 362.752 628.978C362.752 626.567 362.5 624.201 362.017 621.884ZM297.566 662.372C272.155 662.372 251.478 647.392 251.478 628.978C251.478 610.565 272.155 595.585 297.566 595.585C322.977 595.585 343.649 610.565 343.649 628.978C343.649 647.392 322.977 662.372 297.566 662.372Z" fill="white" fill-opacity="0.8"></path><path d="M847.002 585.204V592.127H705.165V700H695.616V588.665C695.616 587.913 695.949 587.216 696.514 586.649C697.374 585.774 698.789 585.204 700.388 585.204H847.002Z" fill="white" fill-opacity="0.8"></path><path d="M704.271 590.681L695.616 599.424L596.036 700H584.28L696.509 586.646L696.514 586.649L704.271 590.681Z" fill="white" fill-opacity="0.8"></path><path d="M637.067 585.2V592.123H439.235V700H429.681V588.662C429.681 586.751 431.821 585.2 434.458 585.2H637.067Z" fill="white" fill-opacity="0.8"></path><path d="M177.458 598.006H167.905V700H177.458V598.006Z" fill="white" fill-opacity="0.8"></path></g><g filter="url(#filter0_d_0_1)"><path d="M1323 540.516C1323 522.558 1308.45 508 1290.5 508C1272.55 508 1258 522.558 1258 540.516C1258 551.039 1263 560.392 1270.75 566.334L1270.71 566.332L1289.63 583.974L1309.85 566.64H1309.85C1317.83 560.715 1323 551.22 1323 540.515V540.516Z" fill="white"></path></g><circle cx="1290.92" cy="540.078" r="25.3247" fill="#7BAF42"></circle><path d="M1290.5 550.763C1287.88 550.763 1285.36 549.734 1283.49 547.873C1279.62 544.027 1279.62 537.768 1283.49 533.923C1285.36 532.059 1287.85 531.033 1290.5 531.033C1293.15 531.033 1295.64 532.059 1297.52 533.923C1299.4 535.797 1300.43 538.287 1300.42 540.937C1300.42 541.159 1300.41 541.384 1300.4 541.606L1298.85 541.497C1298.86 541.31 1298.87 541.119 1298.87 540.931C1298.88 538.695 1298.01 536.595 1296.42 535.016C1294.84 533.444 1292.74 532.579 1290.5 532.579C1288.27 532.579 1286.16 533.444 1284.59 535.016C1281.32 538.26 1281.32 543.538 1284.59 546.782C1286.33 548.515 1288.74 549.393 1291.2 549.19L1291.33 550.731C1291.05 550.753 1290.77 550.765 1290.5 550.765V550.763Z" fill="#7BAF42"></path><path d="M1300.4 540.488H1292.3V542.033H1300.4V540.488Z" fill="#7BAF42"></path><path d="M1300.7 530.265C1294.8 524.675 1285.43 524.897 1279.81 530.76C1277.25 533.423 1275.83 536.876 1275.73 540.488H1277.29C1277.38 537.272 1278.66 534.2 1280.93 531.827C1283.37 529.285 1286.66 527.839 1290.19 527.756C1293.72 527.673 1297.07 528.96 1299.63 531.384C1304.9 536.386 1305.1 544.724 1300.07 549.971C1295.04 555.217 1286.66 555.416 1281.38 550.413C1279.93 549.036 1278.83 547.396 1278.13 545.543L1276.68 546.088C1277.46 548.162 1278.68 549.993 1280.31 551.533C1283.16 554.241 1286.83 555.584 1290.5 555.584C1294.4 555.584 1298.3 554.06 1301.2 551.037C1306.82 545.174 1306.6 535.856 1300.7 530.265H1300.7Z" fill="#7BAF42"></path><path d="M1277.33 542.033H1288.96V540.488H1277.29C1277.27 541 1277.29 541.516 1277.33 542.033Z" fill="#7BAF42"></path><path d="M1275.77 542.033H1277.33C1277.29 541.516 1277.27 541 1277.29 540.488H1275.73C1275.72 541 1275.73 541.516 1275.77 542.033Z" fill="#7BAF42"></path><path d="M1291.28 535.179L1289.73 535.218L1290.12 550.756L1291.67 550.717L1291.28 535.179Z" fill="#7BAF42"></path><path d="M1291.68 550.738H1290.12V546.739C1290.12 544.709 1291.78 543.058 1293.82 543.058C1295.86 543.058 1297.53 544.709 1297.53 546.739V550.532H1295.97V546.739C1295.97 545.561 1295.01 544.604 1293.83 544.604C1292.64 544.604 1291.68 545.562 1291.68 546.739V550.738H1291.68Z" fill="#7BAF42"></path><path d="M1291.67 526.722H1290.39C1287.27 526.722 1284.73 524.197 1284.73 521.092V519.818H1286.01C1289.13 519.818 1291.67 522.344 1291.67 525.448V526.722ZM1286.29 521.373C1286.43 523.403 1288.07 525.029 1290.11 525.168C1289.97 523.139 1288.34 521.513 1286.29 521.373Z" fill="#7BAF42"></path><path d="M1292.26 526.722H1290.38V524.852C1290.38 522.65 1292.18 520.86 1294.39 520.86H1296.27V522.73C1296.27 524.932 1294.47 526.722 1292.26 526.722H1292.26ZM1291.93 525.177H1292.26C1293.62 525.177 1294.72 524.08 1294.72 522.73V522.405H1294.39C1293.04 522.405 1291.93 523.502 1291.93 524.852V525.177Z" fill="#7BAF42"></path><path d="M1290.92 553.416C1288.07 553.416 1285.34 552.298 1283.31 550.278C1279.11 546.101 1279.11 539.307 1283.31 535.132C1285.34 533.109 1288.05 531.994 1290.92 531.994C1293.8 531.994 1296.51 533.109 1298.54 535.132C1300.59 537.166 1301.71 539.87 1301.7 542.747C1301.7 542.988 1301.69 543.232 1301.67 543.474L1299.99 543.355C1300 543.152 1300.01 542.945 1300.01 542.74C1300.02 540.313 1299.07 538.033 1297.35 536.319C1295.63 534.612 1293.35 533.673 1290.92 533.673C1288.5 533.673 1286.22 534.612 1284.5 536.319C1280.96 539.841 1280.96 545.571 1284.5 549.093C1286.39 550.974 1289.01 551.928 1291.68 551.708L1291.82 553.38C1291.52 553.404 1291.22 553.417 1290.92 553.417V553.416Z" fill="white"></path><path d="M1301.67 542.259H1292.88V543.937H1301.67V542.259Z" fill="white"></path><path d="M1302 531.161C1295.59 525.092 1285.42 525.333 1279.31 531.698C1276.54 534.59 1274.99 538.338 1274.89 542.259H1276.58C1276.68 538.768 1278.07 535.432 1280.54 532.856C1283.18 530.096 1286.75 528.527 1290.58 528.437C1294.42 528.347 1298.06 529.744 1300.83 532.375C1306.56 537.806 1306.78 546.859 1301.32 552.555C1295.85 558.251 1286.75 558.467 1281.02 553.036C1279.44 551.54 1278.26 549.76 1277.49 547.748L1275.91 548.34C1276.77 550.592 1278.09 552.579 1279.86 554.252C1282.96 557.192 1286.94 558.65 1290.92 558.65C1295.16 558.65 1299.39 556.995 1302.54 553.713C1308.64 547.348 1308.4 537.23 1302 531.161H1302Z" fill="white"></path><path d="M1276.62 543.937H1289.25V542.259H1276.58C1276.56 542.816 1276.58 543.375 1276.62 543.937Z" fill="white"></path><path d="M1274.93 543.937H1276.63C1276.58 543.375 1276.56 542.816 1276.58 542.259H1274.89C1274.87 542.816 1274.89 543.375 1274.93 543.937Z" fill="white"></path><path d="M1291.77 536.496L1290.08 536.538L1290.51 553.408L1292.2 553.365L1291.77 536.496Z" fill="white"></path><path d="M1292.2 553.388H1290.51V549.046C1290.51 546.843 1292.32 545.05 1294.53 545.05C1296.75 545.05 1298.55 546.843 1298.55 549.046V553.165H1296.86V549.046C1296.86 547.768 1295.82 546.729 1294.53 546.729C1293.25 546.729 1292.2 547.769 1292.2 549.046V553.388H1292.2Z" fill="white"></path><path d="M1292.2 527.314H1290.81C1287.42 527.314 1284.66 524.572 1284.66 521.201V519.818H1286.05C1289.44 519.818 1292.2 522.56 1292.2 525.931V527.314ZM1286.36 521.507C1286.51 523.71 1288.28 525.476 1290.5 525.627C1290.35 523.424 1288.57 521.658 1286.36 521.507Z" fill="white"></path><path d="M1292.83 527.314H1290.79V525.283C1290.79 522.893 1292.74 520.949 1295.15 520.949H1297.19V522.98C1297.19 525.37 1295.23 527.314 1292.83 527.314H1292.83ZM1292.48 525.637H1292.83C1294.31 525.637 1295.5 524.445 1295.5 522.98V522.626H1295.15C1293.68 522.626 1292.48 523.818 1292.48 525.283V525.637Z" fill="white"></path><g filter="url(#filter1_d_0_1)"><path d="M1323 540.516C1323 522.558 1308.45 508 1290.5 508C1272.55 508 1258 522.558 1258 540.516C1258 551.039 1263 560.392 1270.75 566.334L1270.71 566.332L1289.63 583.974L1309.85 566.64H1309.85C1317.83 560.715 1323 551.22 1323 540.515V540.516Z" fill="white"></path></g><circle cx="1290.92" cy="540.078" r="25.3247" fill="#242424"></circle><path d="M1290.92 553.416C1288.07 553.416 1285.34 552.298 1283.31 550.278C1279.11 546.101 1279.11 539.307 1283.31 535.132C1285.34 533.109 1288.05 531.994 1290.92 531.994C1293.8 531.994 1296.51 533.109 1298.54 535.132C1300.59 537.166 1301.71 539.87 1301.7 542.747C1301.7 542.988 1301.69 543.232 1301.67 543.474L1299.99 543.355C1300 543.152 1300.01 542.945 1300.01 542.74C1300.02 540.313 1299.07 538.033 1297.35 536.319C1295.63 534.612 1293.35 533.673 1290.92 533.673C1288.5 533.673 1286.22 534.612 1284.5 536.319C1280.96 539.841 1280.96 545.571 1284.5 549.093C1286.39 550.974 1289.01 551.928 1291.68 551.708L1291.82 553.38C1291.52 553.404 1291.22 553.417 1290.92 553.417V553.416Z" fill="white"></path><path d="M1301.67 542.259H1292.88V543.937H1301.67V542.259Z" fill="white"></path><path d="M1302 531.161C1295.59 525.092 1285.42 525.333 1279.31 531.698C1276.54 534.59 1274.99 538.338 1274.89 542.259H1276.58C1276.68 538.768 1278.07 535.432 1280.54 532.856C1283.18 530.096 1286.75 528.527 1290.58 528.437C1294.42 528.347 1298.06 529.744 1300.83 532.375C1306.56 537.806 1306.78 546.859 1301.32 552.555C1295.85 558.251 1286.75 558.467 1281.02 553.036C1279.44 551.54 1278.26 549.76 1277.49 547.748L1275.91 548.34C1276.77 550.592 1278.09 552.579 1279.86 554.252C1282.96 557.192 1286.94 558.65 1290.92 558.65C1295.16 558.65 1299.39 556.995 1302.54 553.713C1308.64 547.348 1308.4 537.23 1302 531.161H1302Z" fill="white"></path><path d="M1276.62 543.937H1289.25V542.259H1276.58C1276.56 542.816 1276.58 543.375 1276.62 543.937Z" fill="white"></path><path d="M1274.93 543.937H1276.63C1276.58 543.375 1276.56 542.816 1276.58 542.259H1274.89C1274.87 542.816 1274.89 543.375 1274.93 543.937Z" fill="white"></path><path d="M1291.77 536.496L1290.08 536.538L1290.51 553.408L1292.2 553.365L1291.77 536.496Z" fill="white"></path><path d="M1292.2 553.388H1290.51V549.046C1290.51 546.843 1292.32 545.05 1294.53 545.05C1296.75 545.05 1298.55 546.843 1298.55 549.046V553.165H1296.86V549.046C1296.86 547.768 1295.82 546.729 1294.53 546.729C1293.25 546.729 1292.2 547.769 1292.2 549.046V553.388H1292.2Z" fill="white"></path><path d="M1292.2 527.314H1290.81C1287.42 527.314 1284.66 524.572 1284.66 521.201V519.818H1286.05C1289.44 519.818 1292.2 522.56 1292.2 525.931V527.314ZM1286.36 521.507C1286.51 523.71 1288.28 525.476 1290.5 525.627C1290.35 523.424 1288.57 521.658 1286.36 521.507Z" fill="white"></path><path d="M1292.83 527.314H1290.79V525.283C1290.79 522.893 1292.74 520.949 1295.15 520.949H1297.19V522.98C1297.19 525.37 1295.23 527.314 1292.83 527.314H1292.83ZM1292.48 525.637H1292.83C1294.31 525.637 1295.5 524.445 1295.5 522.98V522.626H1295.15C1293.68 522.626 1292.48 523.818 1292.48 525.283V525.637Z" fill="white"></path><g filter="url(#filter2_d_0_1)"><path d="M1092.34 378.684C1092.34 366.156 1082.19 356 1069.67 356C1057.15 356 1047 366.156 1047 378.684C1047 386.024 1050.49 392.549 1055.89 396.695L1055.87 396.693L1069.07 409L1083.17 396.908H1083.17C1088.74 392.774 1092.34 386.15 1092.34 378.683V378.684Z" fill="white"></path></g><circle cx="1069.97" cy="378.378" r="17.6667" fill="#7BAF42"></circle><path d="M1069.67 385.832C1067.84 385.832 1066.08 385.114 1064.78 383.816C1062.08 381.132 1062.08 376.766 1064.78 374.084C1066.09 372.784 1067.82 372.068 1069.67 372.068C1071.52 372.068 1073.26 372.784 1074.57 374.084C1075.88 375.391 1076.6 377.128 1076.59 378.977C1076.59 379.132 1076.59 379.289 1076.58 379.444L1075.5 379.367C1075.5 379.237 1075.51 379.104 1075.51 378.973C1075.52 377.413 1074.91 375.948 1073.8 374.847C1072.7 373.75 1071.23 373.147 1069.67 373.147C1068.11 373.147 1066.65 373.75 1065.55 374.847C1063.27 377.11 1063.27 380.791 1065.55 383.054C1066.76 384.263 1068.44 384.876 1070.16 384.734L1070.25 385.809C1070.06 385.825 1069.86 385.833 1069.67 385.833V385.832Z" fill="#7BAF42"></path><path d="M1076.58 378.664H1070.93V379.741H1076.58V378.664Z" fill="#7BAF42"></path><path d="M1076.79 371.533C1072.67 367.633 1066.14 367.788 1062.21 371.878C1060.43 373.736 1059.44 376.144 1059.37 378.664H1060.46C1060.52 376.42 1061.41 374.277 1063 372.622C1064.7 370.849 1066.99 369.84 1069.46 369.782C1071.92 369.724 1074.26 370.622 1076.04 372.313C1079.72 375.802 1079.86 381.619 1076.35 385.279C1072.84 388.939 1066.99 389.078 1063.31 385.588C1062.3 384.627 1061.53 383.483 1061.04 382.19L1060.03 382.571C1060.58 384.017 1061.43 385.295 1062.56 386.369C1064.55 388.258 1067.12 389.195 1069.67 389.195C1072.39 389.195 1075.11 388.132 1077.14 386.023C1081.06 381.933 1080.9 375.432 1076.79 371.533H1076.79Z" fill="#7BAF42"></path><path d="M1060.49 379.741H1068.6V378.664H1060.45C1060.44 379.021 1060.45 379.381 1060.49 379.741Z" fill="#7BAF42"></path><path d="M1059.4 379.741H1060.49C1060.46 379.381 1060.44 379.021 1060.46 378.664H1059.37C1059.36 379.021 1059.37 379.381 1059.4 379.741Z" fill="#7BAF42"></path><path d="M1070.22 374.96L1069.13 374.988L1069.41 385.827L1070.49 385.8L1070.22 374.96Z" fill="#7BAF42"></path><path d="M1070.49 385.814H1069.41V383.024C1069.41 381.609 1070.57 380.457 1071.99 380.457C1073.41 380.457 1074.57 381.609 1074.57 383.024V385.671H1073.49V383.024C1073.49 382.203 1072.82 381.535 1071.99 381.535C1071.17 381.535 1070.49 382.204 1070.49 383.024V385.814H1070.49Z" fill="#7BAF42"></path><path d="M1070.49 369.061H1069.6C1067.42 369.061 1065.65 367.299 1065.65 365.133V364.244H1066.54C1068.72 364.244 1070.49 366.006 1070.49 368.172V369.061ZM1066.74 365.329C1066.84 366.745 1067.98 367.88 1069.4 367.977C1069.3 366.561 1068.16 365.427 1066.74 365.329Z" fill="#7BAF42"></path><path d="M1070.9 369.061H1069.59V367.756C1069.59 366.22 1070.84 364.971 1072.39 364.971H1073.7V366.276C1073.7 367.812 1072.44 369.061 1070.9 369.061H1070.9ZM1070.67 367.983H1070.9C1071.85 367.983 1072.62 367.217 1072.62 366.276V366.049H1072.39C1071.44 366.049 1070.67 366.814 1070.67 367.756V367.983Z" fill="#7BAF42"></path><path d="M1069.97 387.682C1067.98 387.682 1066.07 386.903 1064.65 385.493C1061.72 382.58 1061.72 377.84 1064.65 374.927C1066.07 373.516 1067.96 372.739 1069.97 372.739C1071.98 372.739 1073.86 373.516 1075.28 374.927C1076.71 376.347 1077.49 378.233 1077.48 380.24C1077.48 380.408 1077.48 380.578 1077.46 380.747L1076.29 380.664C1076.3 380.522 1076.3 380.378 1076.3 380.235C1076.31 378.542 1075.65 376.951 1074.45 375.755C1073.25 374.565 1071.66 373.91 1069.97 373.91C1068.28 373.91 1066.68 374.565 1065.49 375.755C1063.02 378.212 1063.02 382.21 1065.49 384.667C1066.81 385.979 1068.63 386.645 1070.5 386.491L1070.59 387.658C1070.38 387.674 1070.17 387.683 1069.97 387.683V387.682Z" fill="white"></path><path d="M1077.47 379.899H1071.33V381.07H1077.47V379.899Z" fill="white"></path><path d="M1077.69 372.157C1073.23 367.923 1066.13 368.091 1061.87 372.532C1059.93 374.549 1058.85 377.164 1058.78 379.899H1059.96C1060.03 377.464 1061 375.137 1062.72 373.34C1064.57 371.414 1067.06 370.319 1069.73 370.257C1072.41 370.194 1074.94 371.169 1076.88 373.004C1080.88 376.793 1081.03 383.108 1077.22 387.082C1073.41 391.056 1067.06 391.206 1063.06 387.417C1061.96 386.374 1061.13 385.132 1060.6 383.729L1059.5 384.141C1060.09 385.712 1061.02 387.099 1062.25 388.265C1064.41 390.316 1067.19 391.334 1069.97 391.334C1072.92 391.334 1075.87 390.179 1078.07 387.89C1082.33 383.449 1082.16 376.391 1077.69 372.157H1077.69Z" fill="white"></path><path d="M1059.99 381.07H1068.8V379.899H1059.96C1059.95 380.288 1059.96 380.678 1059.99 381.07Z" fill="white"></path><path d="M1058.81 381.07H1059.99C1059.96 380.678 1059.95 380.288 1059.96 379.899H1058.78C1058.77 380.288 1058.78 380.678 1058.81 381.07Z" fill="white"></path><path d="M1070.56 375.879L1069.38 375.908L1069.68 387.677L1070.86 387.647L1070.56 375.879Z" fill="white"></path><path d="M1070.86 387.663H1069.68V384.634C1069.68 383.097 1070.94 381.846 1072.48 381.846C1074.03 381.846 1075.29 383.097 1075.29 384.634V387.507H1074.11V384.634C1074.11 383.742 1073.38 383.017 1072.49 383.017C1071.59 383.017 1070.86 383.743 1070.86 384.634V387.663H1070.86Z" fill="white"></path><path d="M1070.86 369.474H1069.89C1067.52 369.474 1065.6 367.561 1065.6 365.209V364.244H1066.57C1068.93 364.244 1070.86 366.157 1070.86 368.509V369.474ZM1066.78 365.422C1066.89 366.959 1068.13 368.191 1069.67 368.297C1069.57 366.76 1068.33 365.528 1066.78 365.422Z" fill="white"></path><path d="M1071.3 369.474H1069.87V368.057C1069.87 366.39 1071.24 365.033 1072.91 365.033H1074.34V366.45C1074.34 368.117 1072.98 369.474 1071.3 369.474H1071.3ZM1071.05 368.304H1071.3C1072.33 368.304 1073.16 367.472 1073.16 366.45V366.203H1072.92C1071.89 366.203 1071.05 367.035 1071.05 368.057V368.304Z" fill="white"></path><g filter="url(#filter3_d_0_1)"><path d="M1092.34 378.684C1092.34 366.156 1082.19 356 1069.67 356C1057.15 356 1047 366.156 1047 378.684C1047 386.024 1050.49 392.549 1055.89 396.695L1055.87 396.693L1069.07 409L1083.17 396.908H1083.17C1088.74 392.774 1092.34 386.15 1092.34 378.683V378.684Z" fill="white"></path></g><circle cx="1069.97" cy="378.378" r="17.6667" fill="#242424"></circle><path d="M1069.97 387.682C1067.98 387.682 1066.07 386.903 1064.65 385.493C1061.72 382.58 1061.72 377.84 1064.65 374.927C1066.07 373.516 1067.96 372.739 1069.97 372.739C1071.98 372.739 1073.86 373.516 1075.28 374.927C1076.71 376.347 1077.49 378.233 1077.48 380.24C1077.48 380.408 1077.48 380.578 1077.46 380.747L1076.29 380.664C1076.3 380.522 1076.3 380.378 1076.3 380.235C1076.31 378.542 1075.65 376.951 1074.45 375.755C1073.25 374.565 1071.66 373.91 1069.97 373.91C1068.28 373.91 1066.68 374.565 1065.49 375.755C1063.02 378.212 1063.02 382.21 1065.49 384.667C1066.81 385.979 1068.63 386.645 1070.5 386.491L1070.59 387.658C1070.38 387.674 1070.17 387.683 1069.97 387.683V387.682Z" fill="white"></path><path d="M1077.47 379.899H1071.33V381.07H1077.47V379.899Z" fill="white"></path><path d="M1077.69 372.157C1073.23 367.923 1066.13 368.091 1061.87 372.532C1059.93 374.549 1058.85 377.164 1058.78 379.899H1059.96C1060.03 377.464 1061 375.137 1062.72 373.34C1064.57 371.414 1067.06 370.319 1069.73 370.257C1072.41 370.194 1074.94 371.169 1076.88 373.004C1080.88 376.793 1081.03 383.108 1077.22 387.082C1073.41 391.056 1067.06 391.206 1063.06 387.417C1061.96 386.374 1061.13 385.132 1060.6 383.729L1059.5 384.141C1060.09 385.712 1061.02 387.099 1062.25 388.265C1064.41 390.316 1067.19 391.334 1069.97 391.334C1072.92 391.334 1075.87 390.179 1078.07 387.89C1082.33 383.449 1082.16 376.391 1077.69 372.157H1077.69Z" fill="white"></path><path d="M1059.99 381.07H1068.8V379.899H1059.96C1059.95 380.288 1059.96 380.678 1059.99 381.07Z" fill="white"></path><path d="M1058.81 381.07H1059.99C1059.96 380.678 1059.95 380.288 1059.96 379.899H1058.78C1058.77 380.288 1058.78 380.678 1058.81 381.07Z" fill="white"></path><path d="M1070.56 375.879L1069.38 375.908L1069.68 387.677L1070.86 387.647L1070.56 375.879Z" fill="white"></path><path d="M1070.86 387.663H1069.68V384.634C1069.68 383.097 1070.94 381.846 1072.48 381.846C1074.03 381.846 1075.29 383.097 1075.29 384.634V387.507H1074.11V384.634C1074.11 383.742 1073.38 383.017 1072.49 383.017C1071.59 383.017 1070.86 383.743 1070.86 384.634V387.663H1070.86Z" fill="white"></path><path d="M1070.86 369.474H1069.89C1067.52 369.474 1065.6 367.561 1065.6 365.209V364.244H1066.57C1068.93 364.244 1070.86 366.157 1070.86 368.509V369.474ZM1066.78 365.422C1066.89 366.959 1068.13 368.191 1069.67 368.297C1069.57 366.76 1068.33 365.528 1066.78 365.422Z" fill="white"></path><path d="M1071.3 369.474H1069.87V368.057C1069.87 366.39 1071.24 365.033 1072.91 365.033H1074.34V366.45C1074.34 368.117 1072.98 369.474 1071.3 369.474H1071.3ZM1071.05 368.304H1071.3C1072.33 368.304 1073.16 367.472 1073.16 366.45V366.203H1072.92C1071.89 366.203 1071.05 367.035 1071.05 368.057V368.304Z" fill="white"></path><g filter="url(#filter4_d_0_1)"><path d="M1269.34 75.6836C1269.34 63.1557 1259.19 53 1246.67 53C1234.15 53 1224 63.1557 1224 75.6836C1224 83.0244 1227.49 89.5487 1232.89 93.6945L1232.87 93.693L1246.07 106L1260.17 93.9077H1260.17C1265.74 89.7743 1269.34 83.1503 1269.34 75.6828V75.6836Z" fill="white"></path></g><circle cx="1246.97" cy="75.3778" r="17.6667" fill="#7BAF42"></circle><path d="M1246.67 82.8319C1244.84 82.8319 1243.08 82.1137 1241.78 80.8158C1239.08 78.1323 1239.08 73.7664 1241.78 71.0839C1243.09 69.784 1244.82 69.0679 1246.67 69.0679C1248.52 69.0679 1250.26 69.784 1251.57 71.0839C1252.88 72.3911 1253.6 74.1281 1253.59 75.9767C1253.59 76.1317 1253.59 76.2888 1253.58 76.4438L1252.5 76.3673C1252.5 76.2371 1252.51 76.1038 1252.51 75.9726C1252.52 74.4133 1251.91 72.948 1250.8 71.8465C1249.7 70.7501 1248.23 70.1467 1246.67 70.1467C1245.11 70.1467 1243.65 70.7501 1242.55 71.8465C1240.27 74.1095 1240.27 77.7913 1242.55 80.0543C1243.76 81.2633 1245.44 81.8761 1247.16 81.7345L1247.25 82.8092C1247.06 82.8247 1246.86 82.8329 1246.67 82.8329V82.8319Z" fill="#7BAF42"></path><path d="M1253.58 75.6636H1247.93V76.7413H1253.58V75.6636Z" fill="#7BAF42"></path><path d="M1253.79 68.5326C1249.67 64.6328 1243.14 64.7878 1239.21 68.8777C1237.43 70.7356 1236.44 73.1443 1236.37 75.6636H1237.46C1237.52 73.4202 1238.41 71.2771 1240 69.6217C1241.7 67.8485 1243.99 66.84 1246.46 66.7821C1248.92 66.7242 1251.26 67.6222 1253.04 69.3127C1256.72 72.8023 1256.86 78.619 1253.35 82.279C1249.84 85.9391 1243.99 86.0776 1240.31 82.588C1239.3 81.627 1238.53 80.4831 1238.04 79.1904L1237.03 79.5707C1237.58 81.0173 1238.43 82.2945 1239.56 83.3692C1241.55 85.2581 1244.12 86.1954 1246.67 86.1954C1249.39 86.1954 1252.11 85.1321 1254.14 83.023C1258.06 78.9331 1257.9 72.4324 1253.79 68.5326H1253.79Z" fill="#7BAF42"></path><path d="M1237.49 76.7413H1245.6V75.6636H1237.45C1237.44 76.0211 1237.45 76.3807 1237.49 76.7413Z" fill="#7BAF42"></path><path d="M1236.4 76.7413H1237.49C1237.46 76.3807 1237.44 76.0211 1237.46 75.6636H1236.37C1236.36 76.0211 1236.37 76.3807 1236.4 76.7413Z" fill="#7BAF42"></path><path d="M1247.22 71.9603L1246.13 71.9875L1246.41 82.8269L1247.49 82.7996L1247.22 71.9603Z" fill="#7BAF42"></path><path d="M1247.49 82.8144H1246.41V80.0244C1246.41 78.6087 1247.57 77.4565 1248.99 77.4565C1250.41 77.4565 1251.57 78.6087 1251.57 80.0244V82.6707H1250.49V80.0244C1250.49 79.2029 1249.82 78.5353 1248.99 78.5353C1248.17 78.5353 1247.49 79.2039 1247.49 80.0244V82.8144H1247.49Z" fill="#7BAF42"></path><path d="M1247.49 66.0608H1246.6C1244.42 66.0608 1242.65 64.2989 1242.65 62.1331V61.2444H1243.54C1245.72 61.2444 1247.49 63.0062 1247.49 65.1721V66.0608ZM1243.74 62.3294C1243.84 63.7451 1244.98 64.8797 1246.4 64.9768C1246.3 63.5611 1245.16 62.4265 1243.74 62.3294Z" fill="#7BAF42"></path><path d="M1247.9 66.0609H1246.59V64.7558C1246.59 63.2202 1247.84 61.9709 1249.39 61.9709H1250.7V63.276C1250.7 64.8116 1249.44 66.0609 1247.9 66.0609H1247.9ZM1247.67 64.9831H1247.9C1248.85 64.9831 1249.62 64.2174 1249.62 63.276V63.0487H1249.39C1248.44 63.0487 1247.67 63.8144 1247.67 64.7558V64.9831Z" fill="#7BAF42"></path><path d="M1246.97 84.6823C1244.98 84.6823 1243.07 83.9026 1241.65 82.4935C1238.72 79.5799 1238.72 74.8398 1241.65 71.9274C1243.07 70.516 1244.96 69.7385 1246.97 69.7385C1248.98 69.7385 1250.86 70.516 1252.28 71.9274C1253.71 73.3466 1254.49 75.2325 1254.48 77.2396C1254.48 77.4079 1254.48 77.5784 1254.46 77.7467L1253.29 77.6637C1253.3 77.5223 1253.3 77.3776 1253.3 77.2351C1253.31 75.5421 1252.65 73.9513 1251.45 72.7553C1250.25 71.565 1248.66 70.9098 1246.97 70.9098C1245.28 70.9098 1243.68 71.565 1242.49 72.7553C1240.02 75.2123 1240.02 79.2097 1242.49 81.6666C1243.81 82.9793 1245.63 83.6445 1247.5 83.4908L1247.59 84.6576C1247.38 84.6745 1247.17 84.6834 1246.97 84.6834V84.6823Z" fill="white"></path><path d="M1254.47 76.8994H1248.33V78.0696H1254.47V76.8994Z" fill="white"></path><path d="M1254.69 69.1572C1250.23 64.9231 1243.13 65.0914 1238.87 69.5319C1236.93 71.5491 1235.85 74.1642 1235.78 76.8994H1236.96C1237.03 74.4638 1238 72.137 1239.72 70.3397C1241.57 68.4145 1244.06 67.3195 1246.73 67.2567C1249.41 67.1938 1251.94 68.1688 1253.88 70.0042C1257.88 73.7929 1258.03 80.1081 1254.22 84.0819C1250.41 88.0557 1244.06 88.206 1240.06 84.4173C1238.96 83.374 1238.13 82.132 1237.6 80.7285L1236.5 81.1414C1237.09 82.712 1238.02 84.0987 1239.25 85.2655C1241.41 87.3163 1244.19 88.3339 1246.97 88.3339C1249.92 88.3339 1252.87 87.1795 1255.07 84.8897C1259.33 80.4492 1259.16 73.3912 1254.69 69.1572H1254.69Z" fill="white"></path><path d="M1236.99 78.0696H1245.8V76.8994H1236.96C1236.95 77.2876 1236.96 77.678 1236.99 78.0696Z" fill="white"></path><path d="M1235.81 78.0696H1236.99C1236.96 77.678 1236.95 77.2876 1236.96 76.8994H1235.78C1235.77 77.2876 1235.78 77.678 1235.81 78.0696Z" fill="white"></path><path d="M1247.56 72.8788L1246.38 72.9084L1246.68 84.6768L1247.86 84.6472L1247.56 72.8788Z" fill="white"></path><path d="M1247.86 84.6633H1246.68V81.6341C1246.68 80.0971 1247.94 78.8462 1249.48 78.8462C1251.03 78.8462 1252.29 80.0971 1252.29 81.6341V84.5073H1251.11V81.6341C1251.11 80.7422 1250.38 80.0175 1249.49 80.0175C1248.59 80.0175 1247.86 80.7433 1247.86 81.6341V84.6633H1247.86Z" fill="white"></path><path d="M1247.86 66.4736H1246.89C1244.52 66.4736 1242.6 64.5607 1242.6 62.2092V61.2444H1243.57C1245.93 61.2444 1247.86 63.1572 1247.86 65.5087V66.4736ZM1243.78 62.4224C1243.89 63.9594 1245.13 65.1912 1246.67 65.2967C1246.57 63.7597 1245.33 62.5278 1243.78 62.4224Z" fill="white"></path><path d="M1248.3 66.4737H1246.87V65.0567C1246.87 63.3896 1248.24 62.0332 1249.91 62.0332H1251.34V63.4502C1251.34 65.1173 1249.98 66.4737 1248.3 66.4737H1248.3ZM1248.05 65.3036H1248.3C1249.33 65.3036 1250.16 64.4722 1250.16 63.4502V63.2034H1249.92C1248.89 63.2034 1248.05 64.0347 1248.05 65.0567V65.3036Z" fill="white"></path><g filter="url(#filter5_d_0_1)"><path d="M1269.34 75.6836C1269.34 63.1557 1259.19 53 1246.67 53C1234.15 53 1224 63.1557 1224 75.6836C1224 83.0244 1227.49 89.5487 1232.89 93.6945L1232.87 93.693L1246.07 106L1260.17 93.9077H1260.17C1265.74 89.7743 1269.34 83.1503 1269.34 75.6828V75.6836Z" fill="white"></path></g><circle cx="1246.97" cy="75.3778" r="17.6667" fill="#242424"></circle><path d="M1246.97 84.6823C1244.98 84.6823 1243.07 83.9026 1241.65 82.4935C1238.72 79.5799 1238.72 74.8398 1241.65 71.9274C1243.07 70.516 1244.96 69.7385 1246.97 69.7385C1248.98 69.7385 1250.86 70.516 1252.28 71.9274C1253.71 73.3466 1254.49 75.2325 1254.48 77.2396C1254.48 77.4079 1254.48 77.5784 1254.46 77.7467L1253.29 77.6637C1253.3 77.5223 1253.3 77.3776 1253.3 77.2351C1253.31 75.5421 1252.65 73.9513 1251.45 72.7553C1250.25 71.565 1248.66 70.9098 1246.97 70.9098C1245.28 70.9098 1243.68 71.565 1242.49 72.7553C1240.02 75.2123 1240.02 79.2097 1242.49 81.6666C1243.81 82.9793 1245.63 83.6445 1247.5 83.4908L1247.59 84.6576C1247.38 84.6745 1247.17 84.6834 1246.97 84.6834V84.6823Z" fill="white"></path><path d="M1254.47 76.8994H1248.33V78.0696H1254.47V76.8994Z" fill="white"></path><path d="M1254.69 69.1572C1250.23 64.9231 1243.13 65.0914 1238.87 69.5319C1236.93 71.5491 1235.85 74.1642 1235.78 76.8994H1236.96C1237.03 74.4638 1238 72.137 1239.72 70.3397C1241.57 68.4145 1244.06 67.3195 1246.73 67.2567C1249.41 67.1938 1251.94 68.1688 1253.88 70.0042C1257.88 73.7929 1258.03 80.1081 1254.22 84.0819C1250.41 88.0557 1244.06 88.206 1240.06 84.4173C1238.96 83.374 1238.13 82.132 1237.6 80.7285L1236.5 81.1414C1237.09 82.712 1238.02 84.0987 1239.25 85.2655C1241.41 87.3163 1244.19 88.3339 1246.97 88.3339C1249.92 88.3339 1252.87 87.1795 1255.07 84.8897C1259.33 80.4492 1259.16 73.3912 1254.69 69.1572H1254.69Z" fill="white"></path><path d="M1236.99 78.0696H1245.8V76.8994H1236.96C1236.95 77.2876 1236.96 77.678 1236.99 78.0696Z" fill="white"></path><path d="M1235.81 78.0696H1236.99C1236.96 77.678 1236.95 77.2876 1236.96 76.8994H1235.78C1235.77 77.2876 1235.78 77.678 1235.81 78.0696Z" fill="white"></path><path d="M1247.56 72.8788L1246.38 72.9084L1246.68 84.6768L1247.86 84.6472L1247.56 72.8788Z" fill="white"></path><path d="M1247.86 84.6633H1246.68V81.6341C1246.68 80.0971 1247.94 78.8462 1249.48 78.8462C1251.03 78.8462 1252.29 80.0971 1252.29 81.6341V84.5073H1251.11V81.6341C1251.11 80.7422 1250.38 80.0175 1249.49 80.0175C1248.59 80.0175 1247.86 80.7433 1247.86 81.6341V84.6633H1247.86Z" fill="white"></path><path d="M1247.86 66.4736H1246.89C1244.52 66.4736 1242.6 64.5607 1242.6 62.2092V61.2444H1243.57C1245.93 61.2444 1247.86 63.1572 1247.86 65.5087V66.4736ZM1243.78 62.4224C1243.89 63.9594 1245.13 65.1912 1246.67 65.2967C1246.57 63.7597 1245.33 62.5278 1243.78 62.4224Z" fill="white"></path><path d="M1248.3 66.4737H1246.87V65.0567C1246.87 63.3896 1248.24 62.0332 1249.91 62.0332H1251.34V63.4502C1251.34 65.1173 1249.98 66.4737 1248.3 66.4737H1248.3ZM1248.05 65.3036H1248.3C1249.33 65.3036 1250.16 64.4722 1250.16 63.4502V63.2034H1249.92C1248.89 63.2034 1248.05 64.0347 1248.05 65.0567V65.3036Z" fill="white"></path><g filter="url(#filter6_d_0_1)"><path d="M964.767 565.396C964.767 551.922 953.85 541 940.384 541C926.918 541 916 551.922 916 565.396C916 573.29 919.749 580.307 925.563 584.766L925.539 584.764L939.734 598L954.903 584.995H954.901C960.887 580.55 964.767 573.426 964.767 565.395V565.396Z" fill="white"></path></g><circle cx="940.7" cy="565.067" r="19" fill="#7BAF42"></circle><path d="M940.383 573.084C938.415 573.084 936.525 572.311 935.121 570.915C932.219 568.029 932.219 563.334 935.121 560.449C936.527 559.051 938.396 558.281 940.384 558.281C942.373 558.281 944.241 559.051 945.648 560.449C947.061 561.855 947.835 563.723 947.828 565.711C947.828 565.878 947.821 566.047 947.809 566.213L946.646 566.131C946.656 565.991 946.661 565.848 946.661 565.707C946.668 564.03 946.015 562.454 944.823 561.269C943.637 560.09 942.061 559.441 940.384 559.441C938.708 559.441 937.131 560.09 935.946 561.269C933.498 563.703 933.498 567.663 935.946 570.096C937.254 571.397 939.062 572.056 940.907 571.903L941.004 573.059C940.796 573.076 940.589 573.085 940.383 573.085V573.084Z" fill="#7BAF42"></path><path d="M947.811 565.374H941.733V566.533H947.811V565.374Z" fill="#7BAF42"></path><path d="M948.035 557.705C943.611 553.511 936.58 553.677 932.362 558.076C930.446 560.074 929.375 562.665 929.304 565.374H930.471C930.543 562.961 931.5 560.657 933.207 558.876C935.035 556.969 937.501 555.885 940.15 555.822C942.798 555.76 945.313 556.726 947.231 558.544C951.19 562.297 951.34 568.552 947.565 572.489C943.791 576.425 937.5 576.574 933.541 572.821C932.45 571.788 931.631 570.557 931.103 569.167L930.012 569.576C930.601 571.132 931.518 572.505 932.736 573.661C934.879 575.693 937.633 576.701 940.383 576.701C943.31 576.701 946.234 575.557 948.409 573.289C952.627 568.89 952.46 561.899 948.036 557.705H948.035Z" fill="#7BAF42"></path><path d="M930.503 566.533H939.228V565.374H930.47C930.458 565.759 930.47 566.145 930.503 566.533Z" fill="#7BAF42"></path><path d="M929.333 566.533H930.504C930.471 566.145 930.459 565.759 930.471 565.374H929.304C929.294 565.759 929.303 566.145 929.333 566.533Z" fill="#7BAF42"></path><path d="M940.968 561.391L939.803 561.42L940.099 573.078L941.265 573.048L940.968 561.391Z" fill="#7BAF42"></path><path d="M941.265 573.064H940.1V570.064C940.1 568.541 941.346 567.302 942.877 567.302C944.408 567.302 945.654 568.541 945.654 570.064V572.91H944.489V570.064C944.489 569.18 943.766 568.462 942.878 568.462C941.991 568.462 941.268 569.181 941.268 570.064V573.064H941.265Z" fill="#7BAF42"></path><path d="M941.264 555.047H940.303C937.96 555.047 936.055 553.152 936.055 550.822V549.867H937.016C939.359 549.867 941.264 551.762 941.264 554.091V555.047ZM937.228 551.034C937.332 552.556 938.561 553.776 940.092 553.881C939.988 552.358 938.759 551.138 937.228 551.034Z" fill="#7BAF42"></path><path d="M941.703 555.047H940.291V553.643C940.291 551.992 941.642 550.648 943.303 550.648H944.714V552.052C944.714 553.703 943.363 555.047 941.702 555.047H941.703ZM941.457 553.887H941.703C942.721 553.887 943.55 553.064 943.55 552.052V551.807H943.304C942.286 551.807 941.457 552.631 941.457 553.643V553.887Z" fill="#7BAF42"></path><path d="M940.7 575.074C938.563 575.074 936.511 574.235 934.987 572.72C931.836 569.586 931.836 564.488 934.987 561.356C936.514 559.838 938.543 559.002 940.701 559.002C942.86 559.002 944.889 559.838 946.416 561.356C947.951 562.882 948.79 564.911 948.783 567.069C948.783 567.25 948.776 567.434 948.762 567.615L947.499 567.525C947.51 567.373 947.516 567.218 947.516 567.064C947.523 565.244 946.815 563.533 945.52 562.246C944.233 560.966 942.522 560.262 940.701 560.262C938.881 560.262 937.169 560.966 935.883 562.246C933.225 564.889 933.225 569.188 935.883 571.83C937.302 573.242 939.266 573.957 941.269 573.792L941.374 575.047C941.148 575.065 940.923 575.075 940.7 575.075V575.074Z" fill="white"></path><path d="M948.764 566.703H942.166V567.962H948.764V566.703Z" fill="white"></path><path d="M949.007 558.377C944.205 553.823 936.571 554.004 931.991 558.78C929.911 560.949 928.749 563.762 928.671 566.703H929.938C930.017 564.084 931.055 561.581 932.908 559.648C934.894 557.578 937.571 556.4 940.446 556.333C943.322 556.265 946.053 557.314 948.135 559.288C952.433 563.362 952.596 570.154 948.498 574.428C944.4 578.701 937.569 578.863 933.271 574.788C932.087 573.666 931.197 572.331 930.625 570.821L929.44 571.265C930.08 572.954 931.075 574.446 932.397 575.701C934.724 577.906 937.714 579.001 940.7 579.001C943.878 579.001 947.053 577.759 949.414 575.296C953.994 570.521 953.812 562.93 949.009 558.377H949.007Z" fill="white"></path><path d="M929.973 567.962H939.445V566.703H929.937C929.925 567.121 929.937 567.54 929.973 567.962Z" fill="white"></path><path d="M928.702 567.962H929.974C929.938 567.54 929.926 567.121 929.938 566.703H928.671C928.66 567.121 928.67 567.54 928.702 567.962Z" fill="white"></path><path d="M941.335 562.379L940.07 562.411L940.392 575.068L941.657 575.036L941.335 562.379Z" fill="white"></path><path d="M941.657 575.053H940.392V571.795C940.392 570.142 941.745 568.797 943.407 568.797C945.07 568.797 946.423 570.142 946.423 571.795V574.885H945.157V571.795C945.157 570.836 944.372 570.057 943.408 570.057C942.445 570.057 941.66 570.837 941.66 571.795V575.053H941.657Z" fill="white"></path><path d="M941.656 555.491H940.612C938.069 555.491 936 553.433 936 550.904V549.867H937.044C939.587 549.867 941.656 551.924 941.656 554.453V555.491ZM937.274 551.134C937.387 552.787 938.721 554.111 940.383 554.225C940.27 552.572 938.937 551.247 937.274 551.134Z" fill="white"></path><path d="M942.133 555.49H940.599V553.967C940.599 552.174 942.066 550.715 943.869 550.715H945.402V552.239C945.402 554.032 943.935 555.49 942.132 555.49H942.133ZM941.866 554.232H942.133C943.238 554.232 944.138 553.338 944.138 552.239V551.973H943.871C942.765 551.973 941.866 552.867 941.866 553.967V554.232Z" fill="white"></path><g filter="url(#filter7_d_0_1)"><path d="M964.767 565.396C964.767 551.922 953.85 541 940.384 541C926.918 541 916 551.922 916 565.396C916 573.29 919.749 580.307 925.563 584.766L925.539 584.764L939.734 598L954.903 584.995H954.901C960.887 580.55 964.767 573.426 964.767 565.395V565.396Z" fill="white"></path></g><circle cx="940.7" cy="565.067" r="19" fill="#242424"></circle><path d="M940.7 575.074C938.563 575.074 936.511 574.235 934.987 572.72C931.836 569.586 931.836 564.488 934.987 561.356C936.514 559.838 938.543 559.002 940.701 559.002C942.86 559.002 944.889 559.838 946.416 561.356C947.951 562.882 948.79 564.911 948.783 567.069C948.783 567.25 948.776 567.434 948.762 567.615L947.499 567.525C947.51 567.373 947.516 567.218 947.516 567.064C947.523 565.244 946.815 563.533 945.52 562.246C944.233 560.966 942.522 560.262 940.701 560.262C938.881 560.262 937.169 560.966 935.883 562.246C933.225 564.889 933.225 569.188 935.883 571.83C937.302 573.242 939.266 573.957 941.269 573.792L941.374 575.047C941.148 575.065 940.923 575.075 940.7 575.075V575.074Z" fill="white"></path><path d="M948.764 566.703H942.166V567.962H948.764V566.703Z" fill="white"></path><path d="M949.007 558.377C944.205 553.823 936.571 554.004 931.991 558.78C929.911 560.949 928.749 563.762 928.671 566.703H929.938C930.017 564.084 931.055 561.581 932.908 559.648C934.894 557.578 937.571 556.4 940.446 556.333C943.322 556.265 946.053 557.314 948.135 559.288C952.433 563.362 952.596 570.154 948.498 574.428C944.4 578.701 937.569 578.863 933.271 574.788C932.087 573.666 931.197 572.331 930.625 570.821L929.44 571.265C930.08 572.954 931.075 574.446 932.397 575.701C934.724 577.906 937.714 579.001 940.7 579.001C943.878 579.001 947.053 577.759 949.414 575.296C953.994 570.521 953.812 562.93 949.009 558.377H949.007Z" fill="white"></path><path d="M929.973 567.962H939.445V566.703H929.937C929.925 567.121 929.937 567.54 929.973 567.962Z" fill="white"></path><path d="M928.702 567.962H929.974C929.938 567.54 929.926 567.121 929.938 566.703H928.671C928.66 567.121 928.67 567.54 928.702 567.962Z" fill="white"></path><path d="M941.335 562.379L940.07 562.411L940.392 575.068L941.657 575.036L941.335 562.379Z" fill="white"></path><path d="M941.657 575.053H940.392V571.795C940.392 570.142 941.745 568.797 943.407 568.797C945.07 568.797 946.423 570.142 946.423 571.795V574.885H945.157V571.795C945.157 570.836 944.372 570.057 943.408 570.057C942.445 570.057 941.66 570.837 941.66 571.795V575.053H941.657Z" fill="white"></path><path d="M941.656 555.491H940.612C938.069 555.491 936 553.433 936 550.904V549.867H937.044C939.587 549.867 941.656 551.924 941.656 554.453V555.491ZM937.274 551.134C937.387 552.787 938.721 554.111 940.383 554.225C940.27 552.572 938.937 551.247 937.274 551.134Z" fill="white"></path><path d="M942.133 555.49H940.599V553.967C940.599 552.174 942.066 550.715 943.869 550.715H945.402V552.239C945.402 554.032 943.935 555.49 942.132 555.49H942.133ZM941.866 554.232H942.133C943.238 554.232 944.138 553.338 944.138 552.239V551.973H943.871C942.765 551.973 941.866 552.867 941.866 553.967V554.232Z" fill="white"></path><g filter="url(#filter8_d_0_1)"><path d="M956.622 162.824C956.622 149.114 945.514 138 931.812 138C918.109 138 907 149.114 907 162.824C907 170.857 910.815 177.997 916.73 182.534L916.707 182.532L931.15 196L946.585 182.767H946.584C952.675 178.244 956.622 170.995 956.622 162.823V162.824Z" fill="white"></path></g><circle cx="932.133" cy="162.489" r="19.3333" fill="#7BAF42"></circle><path d="M931.811 170.646C929.808 170.646 927.885 169.86 926.457 168.44C923.503 165.503 923.503 160.726 926.457 157.79C927.888 156.367 929.789 155.584 931.812 155.584C933.836 155.584 935.737 156.367 937.168 157.79C938.606 159.22 939.393 161.121 939.387 163.144C939.387 163.314 939.38 163.486 939.367 163.656L938.183 163.572C938.194 163.429 938.199 163.283 938.199 163.14C938.206 161.433 937.542 159.83 936.328 158.625C935.122 157.425 933.518 156.764 931.812 156.764C930.106 156.764 928.502 157.425 927.296 158.625C924.806 161.101 924.806 165.13 927.296 167.607C928.627 168.93 930.467 169.6 932.345 169.445L932.442 170.621C932.231 170.638 932.02 170.647 931.811 170.647V170.646Z" fill="#7BAF42"></path><path d="M939.37 162.802H933.185V163.981H939.37V162.802Z" fill="#7BAF42"></path><path d="M939.597 154.998C935.096 150.73 927.941 150.9 923.649 155.376C921.7 157.409 920.61 160.045 920.538 162.802H921.725C921.799 160.347 922.772 158.001 924.509 156.19C926.37 154.249 928.878 153.146 931.574 153.082C934.269 153.019 936.828 154.002 938.78 155.852C942.808 159.671 942.96 166.036 939.12 170.041C935.279 174.047 928.877 174.198 924.849 170.379C923.739 169.328 922.905 168.076 922.369 166.661L921.259 167.077C921.858 168.661 922.791 170.058 924.03 171.234C926.21 173.301 929.013 174.327 931.811 174.327C934.79 174.327 937.765 173.163 939.978 170.855C944.27 166.38 944.1 159.266 939.598 154.998H939.597Z" fill="#7BAF42"></path><path d="M921.758 163.981H930.635V162.802H921.724C921.712 163.193 921.724 163.587 921.758 163.981Z" fill="#7BAF42"></path><path d="M920.567 163.981H921.759C921.725 163.587 921.713 163.193 921.725 162.802H920.537C920.527 163.193 920.536 163.587 920.567 163.981Z" fill="#7BAF42"></path><path d="M932.407 158.749L931.221 158.779L931.523 170.641L932.708 170.611L932.407 158.749Z" fill="#7BAF42"></path><path d="M932.709 170.627H931.522V167.574C931.522 166.025 932.791 164.764 934.349 164.764C935.907 164.764 937.175 166.025 937.175 167.574V170.47H935.989V167.574C935.989 166.675 935.253 165.944 934.35 165.944C933.447 165.944 932.711 166.676 932.711 167.574V170.627H932.709Z" fill="#7BAF42"></path><path d="M932.708 152.293H931.73C929.346 152.293 927.407 150.365 927.407 147.995V147.022H928.385C930.769 147.022 932.708 148.95 932.708 151.32V152.293ZM928.601 148.21C928.707 149.759 929.957 151 931.515 151.107C931.409 149.558 930.159 148.316 928.601 148.21Z" fill="#7BAF42"></path><path d="M933.154 152.293H931.717V150.865C931.717 149.185 933.092 147.817 934.782 147.817H936.218V149.246C936.218 150.926 934.843 152.293 933.153 152.293H933.154ZM932.904 151.114H933.154C934.19 151.114 935.033 150.276 935.033 149.246V148.997H934.783C933.747 148.997 932.904 149.835 932.904 150.865V151.114Z" fill="#7BAF42"></path><path d="M932.133 172.671C929.959 172.671 927.871 171.818 926.32 170.276C923.113 167.087 923.113 161.9 926.32 158.713C927.873 157.168 929.938 156.317 932.135 156.317C934.331 156.317 936.396 157.168 937.949 158.713C939.511 160.266 940.365 162.33 940.358 164.526C940.358 164.71 940.351 164.897 940.337 165.081L939.052 164.99C939.063 164.835 939.069 164.677 939.069 164.521C939.076 162.669 938.355 160.928 937.038 159.619C935.728 158.316 933.987 157.599 932.135 157.599C930.282 157.599 928.54 158.316 927.231 159.619C924.527 162.308 924.527 166.682 927.231 169.371C928.676 170.807 930.674 171.535 932.712 171.367L932.819 172.644C932.589 172.662 932.361 172.672 932.133 172.672V172.671Z" fill="white"></path><path d="M940.339 164.154H933.625V165.435H940.339V164.154Z" fill="white"></path><path d="M940.586 155.682C935.699 151.048 927.931 151.232 923.271 156.092C921.155 158.299 919.972 161.161 919.893 164.154H921.182C921.262 161.489 922.319 158.942 924.205 156.976C926.225 154.869 928.949 153.67 931.875 153.602C934.802 153.533 937.58 154.6 939.699 156.608C944.072 160.755 944.238 167.666 940.068 172.014C935.898 176.363 928.948 176.527 924.574 172.381C923.369 171.24 922.464 169.88 921.881 168.345L920.676 168.796C921.327 170.515 922.339 172.033 923.685 173.31C926.052 175.554 929.095 176.667 932.133 176.667C935.367 176.667 938.597 175.404 941 172.898C945.66 168.039 945.475 160.315 940.588 155.682H940.586Z" fill="white"></path><path d="M921.218 165.435H930.856V164.154H921.181C921.169 164.579 921.181 165.006 921.218 165.435Z" fill="white"></path><path d="M919.925 165.435H921.219C921.182 165.006 921.17 164.579 921.182 164.154H919.893C919.882 164.579 919.892 165.006 919.925 165.435Z" fill="white"></path><path d="M932.78 159.754L931.492 159.786L931.82 172.665L933.107 172.633L932.78 159.754Z" fill="white"></path><path d="M933.107 172.65H931.819V169.335C931.819 167.653 933.196 166.284 934.888 166.284C936.579 166.284 937.956 167.653 937.956 169.335V172.48H936.668V169.335C936.668 168.359 935.869 167.566 934.889 167.566C933.909 167.566 933.11 168.361 933.11 169.335V172.65H933.107Z" fill="white"></path><path d="M933.106 152.745H932.044C929.456 152.745 927.351 150.651 927.351 148.078V147.022H928.413C931.001 147.022 933.106 149.116 933.106 151.689V152.745ZM928.648 148.311C928.762 149.993 930.119 151.341 931.811 151.457C931.696 149.775 930.339 148.427 928.648 148.311Z" fill="white"></path><path d="M933.592 152.745H932.031V151.194C932.031 149.37 933.524 147.885 935.358 147.885H936.918V149.436C936.918 151.26 935.425 152.745 933.59 152.745H933.592ZM933.32 151.464H933.592C934.716 151.464 935.631 150.554 935.631 149.436V149.166H935.36C934.235 149.166 933.32 150.076 933.32 151.194V151.464Z" fill="white"></path><g filter="url(#filter9_d_0_1)"><path d="M956.622 162.824C956.622 149.114 945.514 138 931.812 138C918.109 138 907 149.114 907 162.824C907 170.857 910.815 177.997 916.73 182.534L916.707 182.532L931.15 196L946.585 182.767H946.584C952.675 178.244 956.622 170.995 956.622 162.823V162.824Z" fill="white"></path></g><circle cx="932.133" cy="162.489" r="19.3333" fill="#242424"></circle><path d="M932.133 172.671C929.959 172.671 927.871 171.818 926.32 170.276C923.113 167.087 923.113 161.9 926.32 158.713C927.873 157.168 929.938 156.317 932.135 156.317C934.331 156.317 936.396 157.168 937.949 158.713C939.511 160.266 940.365 162.33 940.358 164.526C940.358 164.71 940.351 164.897 940.337 165.081L939.052 164.99C939.063 164.835 939.069 164.677 939.069 164.521C939.076 162.669 938.355 160.928 937.038 159.619C935.728 158.316 933.987 157.599 932.135 157.599C930.282 157.599 928.54 158.316 927.231 159.619C924.527 162.308 924.527 166.682 927.231 169.371C928.676 170.807 930.674 171.535 932.712 171.367L932.819 172.644C932.589 172.662 932.361 172.672 932.133 172.672V172.671Z" fill="white"></path><path d="M940.339 164.154H933.625V165.435H940.339V164.154Z" fill="white"></path><path d="M940.586 155.682C935.699 151.048 927.931 151.232 923.271 156.092C921.155 158.299 919.972 161.161 919.893 164.154H921.182C921.262 161.489 922.319 158.942 924.205 156.976C926.225 154.869 928.949 153.67 931.875 153.602C934.802 153.533 937.58 154.6 939.699 156.608C944.072 160.755 944.238 167.666 940.068 172.014C935.898 176.363 928.948 176.527 924.574 172.381C923.369 171.24 922.464 169.88 921.881 168.345L920.676 168.796C921.327 170.515 922.339 172.033 923.685 173.31C926.052 175.554 929.095 176.667 932.133 176.667C935.367 176.667 938.597 175.404 941 172.898C945.66 168.039 945.475 160.315 940.588 155.682H940.586Z" fill="white"></path><path d="M921.218 165.435H930.856V164.154H921.181C921.169 164.579 921.181 165.006 921.218 165.435Z" fill="white"></path><path d="M919.925 165.435H921.219C921.182 165.006 921.17 164.579 921.182 164.154H919.893C919.882 164.579 919.892 165.006 919.925 165.435Z" fill="white"></path><path d="M932.78 159.754L931.492 159.786L931.82 172.665L933.107 172.633L932.78 159.754Z" fill="white"></path><path d="M933.107 172.65H931.819V169.335C931.819 167.653 933.196 166.284 934.888 166.284C936.579 166.284 937.956 167.653 937.956 169.335V172.48H936.668V169.335C936.668 168.359 935.869 167.566 934.889 167.566C933.909 167.566 933.11 168.361 933.11 169.335V172.65H933.107Z" fill="white"></path><path d="M933.106 152.745H932.044C929.456 152.745 927.351 150.651 927.351 148.078V147.022H928.413C931.001 147.022 933.106 149.116 933.106 151.689V152.745ZM928.648 148.311C928.762 149.993 930.119 151.341 931.811 151.457C931.696 149.775 930.339 148.427 928.648 148.311Z" fill="white"></path><path d="M933.592 152.745H932.031V151.194C932.031 149.37 933.524 147.885 935.358 147.885H936.918V149.436C936.918 151.26 935.425 152.745 933.59 152.745H933.592ZM933.32 151.464H933.592C934.716 151.464 935.631 150.554 935.631 149.436V149.166H935.36C934.235 149.166 933.32 150.076 933.32 151.194V151.464Z" fill="white"></path><g filter="url(#filter10_d_0_1)"><path d="M1370.59 288.811C1370.59 270.138 1355.46 255 1336.8 255C1318.13 255 1303 270.138 1303 288.811C1303 299.753 1308.2 309.478 1316.25 315.658L1316.22 315.656L1335.89 334L1356.92 315.976H1356.92C1365.21 309.814 1370.59 299.941 1370.59 288.81V288.811Z" fill="white"></path></g><circle cx="1337.23" cy="288.356" r="26.3333" fill="#7BAF42"></circle><path d="M1336.79 299.466C1334.07 299.466 1331.45 298.396 1329.5 296.461C1325.48 292.461 1325.48 285.954 1329.5 281.955C1331.45 280.018 1334.04 278.95 1336.8 278.95C1339.55 278.95 1342.14 280.018 1344.09 281.955C1346.05 283.904 1347.12 286.493 1347.11 289.248C1347.11 289.479 1347.1 289.713 1347.09 289.945L1345.47 289.831C1345.49 289.636 1345.5 289.438 1345.5 289.242C1345.51 286.918 1344.6 284.734 1342.95 283.092C1341.3 281.458 1339.12 280.558 1336.8 280.558C1334.47 280.558 1332.29 281.458 1330.65 283.092C1327.25 286.465 1327.25 291.953 1330.65 295.326C1332.46 297.128 1334.96 298.042 1337.52 297.831L1337.65 299.432C1337.37 299.456 1337.08 299.468 1336.79 299.468V299.466Z" fill="#7BAF42"></path><path d="M1347.09 288.781H1338.67V290.388H1347.09V288.781Z" fill="#7BAF42"></path><path d="M1347.4 278.152C1341.27 272.339 1331.52 272.57 1325.68 278.667C1323.02 281.436 1321.54 285.026 1321.44 288.782H1323.06C1323.16 285.438 1324.48 282.243 1326.85 279.776C1329.38 277.133 1332.8 275.629 1336.47 275.543C1340.14 275.457 1343.63 276.795 1346.29 279.315C1351.77 284.517 1351.98 293.187 1346.75 298.642C1341.52 304.098 1332.8 304.304 1327.31 299.103C1325.8 297.67 1324.66 295.965 1323.93 294.038L1322.42 294.605C1323.24 296.762 1324.51 298.665 1326.2 300.267C1329.17 303.083 1332.98 304.48 1336.79 304.48C1340.85 304.48 1344.9 302.895 1347.92 299.751C1353.76 293.655 1353.53 283.965 1347.4 278.152H1347.4Z" fill="#7BAF42"></path><path d="M1323.1 290.388H1335.19V288.781H1323.05C1323.04 289.314 1323.05 289.85 1323.1 290.388Z" fill="#7BAF42"></path><path d="M1321.48 290.388H1323.1C1323.06 289.85 1323.04 289.314 1323.06 288.781H1321.44C1321.43 289.314 1321.44 289.85 1321.48 290.388Z" fill="#7BAF42"></path><path d="M1337.61 283.262L1335.99 283.302L1336.4 299.459L1338.02 299.418L1337.61 283.262Z" fill="#7BAF42"></path><path d="M1338.02 299.44H1336.4V295.282C1336.4 293.171 1338.13 291.454 1340.25 291.454C1342.37 291.454 1344.1 293.171 1344.1 295.282V299.226H1342.48V295.282C1342.48 294.057 1341.48 293.062 1340.25 293.062C1339.02 293.062 1338.02 294.059 1338.02 295.282V299.44H1338.02Z" fill="#7BAF42"></path><path d="M1338.02 274.468H1336.68C1333.44 274.468 1330.8 271.842 1330.8 268.613V267.289H1332.13C1335.37 267.289 1338.02 269.915 1338.02 273.143V274.468ZM1332.42 268.906C1332.57 271.016 1334.27 272.707 1336.39 272.852C1336.25 270.742 1334.54 269.051 1332.42 268.906Z" fill="#7BAF42"></path><path d="M1338.62 274.468H1336.67V272.523C1336.67 270.234 1338.54 268.372 1340.84 268.372H1342.8V270.317C1342.8 272.606 1340.92 274.468 1338.62 274.468H1338.62ZM1338.28 272.862H1338.62C1340.04 272.862 1341.18 271.72 1341.18 270.317V269.978H1340.84C1339.43 269.978 1338.28 271.12 1338.28 272.523V272.862Z" fill="#7BAF42"></path><path d="M1337.23 302.225C1334.27 302.225 1331.43 301.062 1329.32 298.962C1324.95 294.619 1324.95 287.554 1329.32 283.213C1331.43 281.109 1334.24 279.95 1337.24 279.95C1340.23 279.95 1343.04 281.109 1345.15 283.213C1347.28 285.328 1348.45 288.139 1348.44 291.131C1348.44 291.382 1348.43 291.636 1348.41 291.887L1346.66 291.763C1346.67 291.552 1346.68 291.336 1346.68 291.124C1346.69 288.601 1345.71 286.229 1343.91 284.447C1342.13 282.672 1339.76 281.696 1337.24 281.696C1334.71 281.696 1332.34 282.672 1330.56 284.447C1326.87 288.109 1326.87 294.067 1330.56 297.73C1332.52 299.686 1335.25 300.678 1338.02 300.449L1338.17 302.188C1337.85 302.213 1337.54 302.226 1337.23 302.226V302.225Z" fill="white"></path><path d="M1348.41 290.624H1339.27V292.368H1348.41V290.624Z" fill="white"></path><path d="M1348.75 279.083C1342.09 272.772 1331.51 273.023 1325.16 279.642C1322.28 282.649 1320.67 286.547 1320.56 290.624H1322.32C1322.43 286.993 1323.87 283.525 1326.43 280.846C1329.19 277.976 1332.9 276.344 1336.88 276.25C1340.87 276.157 1344.65 277.61 1347.54 280.346C1353.5 285.993 1353.72 295.406 1348.04 301.33C1342.36 307.253 1332.89 307.477 1326.94 301.83C1325.3 300.274 1324.06 298.423 1323.27 296.331L1321.63 296.947C1322.51 299.288 1323.89 301.355 1325.73 303.094C1328.95 306.151 1333.09 307.667 1337.23 307.667C1341.64 307.667 1346.04 305.947 1349.31 302.534C1355.66 295.915 1355.41 285.394 1348.75 279.083H1348.75Z" fill="white"></path><path d="M1322.37 292.368H1335.49V290.624H1322.32C1322.3 291.202 1322.32 291.784 1322.37 292.368Z" fill="white"></path><path d="M1320.61 292.368H1322.37C1322.32 291.784 1322.3 291.202 1322.32 290.624H1320.56C1320.55 291.202 1320.56 291.784 1320.61 292.368Z" fill="white"></path><path d="M1338.11 284.631L1336.36 284.675L1336.81 302.216L1338.56 302.172L1338.11 284.631Z" fill="white"></path><path d="M1338.56 302.196H1336.81V297.681C1336.81 295.39 1338.68 293.525 1340.99 293.525C1343.29 293.525 1345.16 295.39 1345.16 297.681V301.964H1343.41V297.681C1343.41 296.352 1342.32 295.271 1340.99 295.271C1339.65 295.271 1338.56 296.353 1338.56 297.681V302.196H1338.56Z" fill="white"></path><path d="M1338.56 275.083H1337.11C1333.59 275.083 1330.72 272.232 1330.72 268.727V267.289H1332.17C1335.69 267.289 1338.56 270.14 1338.56 273.645V275.083ZM1332.49 269.045C1332.64 271.336 1334.49 273.172 1336.79 273.329C1336.64 271.038 1334.79 269.202 1332.49 269.045Z" fill="white"></path><path d="M1339.22 275.083H1337.09V272.971C1337.09 270.486 1339.13 268.465 1341.63 268.465H1343.75V270.577C1343.75 273.062 1341.72 275.083 1339.22 275.083H1339.22ZM1338.85 273.339H1339.22C1340.75 273.339 1342 272.1 1342 270.577V270.209H1341.63C1340.1 270.209 1338.85 271.448 1338.85 272.971V273.339Z" fill="white"></path><g filter="url(#filter11_d_0_1)"><path d="M1370.59 288.811C1370.59 270.138 1355.46 255 1336.8 255C1318.13 255 1303 270.138 1303 288.811C1303 299.753 1308.2 309.478 1316.25 315.658L1316.22 315.656L1335.89 334L1356.92 315.976H1356.92C1365.21 309.814 1370.59 299.941 1370.59 288.81V288.811Z" fill="white"></path></g><circle cx="1337.23" cy="288.356" r="26.3333" fill="#242424"></circle><path d="M1337.23 302.225C1334.27 302.225 1331.43 301.062 1329.32 298.962C1324.95 294.619 1324.95 287.554 1329.32 283.213C1331.43 281.109 1334.24 279.95 1337.24 279.95C1340.23 279.95 1343.04 281.109 1345.15 283.213C1347.28 285.328 1348.45 288.139 1348.44 291.131C1348.44 291.382 1348.43 291.636 1348.41 291.887L1346.66 291.763C1346.67 291.552 1346.68 291.336 1346.68 291.124C1346.69 288.601 1345.71 286.229 1343.91 284.447C1342.13 282.672 1339.76 281.696 1337.24 281.696C1334.71 281.696 1332.34 282.672 1330.56 284.447C1326.87 288.109 1326.87 294.067 1330.56 297.73C1332.52 299.686 1335.25 300.678 1338.02 300.449L1338.17 302.188C1337.85 302.213 1337.54 302.226 1337.23 302.226V302.225Z" fill="white"></path><path d="M1348.41 290.624H1339.27V292.368H1348.41V290.624Z" fill="white"></path><path d="M1348.75 279.083C1342.09 272.772 1331.51 273.023 1325.16 279.642C1322.28 282.649 1320.67 286.547 1320.56 290.624H1322.32C1322.43 286.993 1323.87 283.525 1326.43 280.846C1329.19 277.976 1332.9 276.344 1336.88 276.25C1340.87 276.157 1344.65 277.61 1347.54 280.346C1353.5 285.993 1353.72 295.406 1348.04 301.33C1342.36 307.253 1332.89 307.477 1326.94 301.83C1325.3 300.274 1324.06 298.423 1323.27 296.331L1321.63 296.947C1322.51 299.288 1323.89 301.355 1325.73 303.094C1328.95 306.151 1333.09 307.667 1337.23 307.667C1341.64 307.667 1346.04 305.947 1349.31 302.534C1355.66 295.915 1355.41 285.394 1348.75 279.083H1348.75Z" fill="white"></path><path d="M1322.37 292.368H1335.49V290.624H1322.32C1322.3 291.202 1322.32 291.784 1322.37 292.368Z" fill="white"></path><path d="M1320.61 292.368H1322.37C1322.32 291.784 1322.3 291.202 1322.32 290.624H1320.56C1320.55 291.202 1320.56 291.784 1320.61 292.368Z" fill="white"></path><path d="M1338.11 284.631L1336.36 284.675L1336.81 302.216L1338.56 302.172L1338.11 284.631Z" fill="white"></path><path d="M1338.56 302.196H1336.81V297.681C1336.81 295.39 1338.68 293.525 1340.99 293.525C1343.29 293.525 1345.16 295.39 1345.16 297.681V301.964H1343.41V297.681C1343.41 296.352 1342.32 295.271 1340.99 295.271C1339.65 295.271 1338.56 296.353 1338.56 297.681V302.196H1338.56Z" fill="white"></path><path d="M1338.56 275.083H1337.11C1333.59 275.083 1330.72 272.232 1330.72 268.727V267.289H1332.17C1335.69 267.289 1338.56 270.14 1338.56 273.645V275.083ZM1332.49 269.045C1332.64 271.336 1334.49 273.172 1336.79 273.329C1336.64 271.038 1334.79 269.202 1332.49 269.045Z" fill="white"></path><path d="M1339.22 275.083H1337.09V272.971C1337.09 270.486 1339.13 268.465 1341.63 268.465H1343.75V270.577C1343.75 273.062 1341.72 275.083 1339.22 275.083H1339.22ZM1338.85 273.339H1339.22C1340.75 273.339 1342 272.1 1342 270.577V270.209H1341.63C1340.1 270.209 1338.85 271.448 1338.85 272.971V273.339Z" fill="white"></path><defs><filter id="filter0_d_0_1" x="1226" y="479" width="129" height="139.974" filterUnits="userSpaceOnUse" color-interpolation-filters="sRGB"><feGaussianBlur stdDeviation="16"></feGaussianBlur></filter><filter id="filter1_d_0_1" x="1226" y="479" width="129" height="139.974" filterUnits="userSpaceOnUse" color-interpolation-filters="sRGB"><feGaussianBlur stdDeviation="16"></feGaussianBlur></filter><filter id="filter2_d_0_1" x="1015" y="327" width="109.344" height="117" filterUnits="userSpaceOnUse" color-interpolation-filters="sRGB"><feGaussianBlur stdDeviation="16"></feGaussianBlur></filter><filter id="filter3_d_0_1" x="1015" y="327" width="109.344" height="117" filterUnits="userSpaceOnUse" color-interpolation-filters="sRGB"><feGaussianBlur stdDeviation="16"></feGaussianBlur></filter><filter id="filter4_d_0_1" x="1192" y="24" width="109.344" height="117" filterUnits="userSpaceOnUse" color-interpolation-filters="sRGB"><feGaussianBlur stdDeviation="16"></feGaussianBlur></filter><filter id="filter5_d_0_1" x="1192" y="24" width="109.344" height="117" filterUnits="userSpaceOnUse" color-interpolation-filters="sRGB"><feGaussianBlur stdDeviation="16"></feGaussianBlur></filter><filter id="filter6_d_0_1" x="884" y="512" width="112.767" height="121" filterUnits="userSpaceOnUse" color-interpolation-filters="sRGB"><feGaussianBlur stdDeviation="16"></feGaussianBlur></filter><filter id="filter7_d_0_1" x="884" y="512" width="112.767" height="121" filterUnits="userSpaceOnUse" color-interpolation-filters="sRGB"><feGaussianBlur stdDeviation="16"></feGaussianBlur></filter><filter id="filter8_d_0_1" x="875" y="109" width="113.622" height="122" filterUnits="userSpaceOnUse" color-interpolation-filters="sRGB"><feGaussianBlur stdDeviation="16"></feGaussianBlur></filter><filter id="filter9_d_0_1" x="875" y="109" width="113.622" height="122" filterUnits="userSpaceOnUse" color-interpolation-filters="sRGB"><feGaussianBlur stdDeviation="16"></feGaussianBlur></filter><filter id="filter10_d_0_1" x="1271" y="226" width="131.589" height="143" filterUnits="userSpaceOnUse" color-interpolation-filters="sRGB"><feGaussianBlur stdDeviation="16"></feGaussianBlur></filter><filter id="filter11_d_0_1" x="1271" y="226" width="131.589" height="143" filterUnits="userSpaceOnUse" color-interpolation-filters="sRGB"><feGaussianBlur stdDeviation="16"></feGaussianBlur></filter><clipPath id="clip0_0_1"><rect width="1449" height="700" fill="white" transform="translate(-4)"></rect></clipPath></defs></svg>