<svg xmlns="http://www.w3.org/2000/svg" xmlns:xlink="http://www.w3.org/1999/xlink" width="512" height="512" x="0" y="0" viewBox="0 0 512 512" style="enable-background:new 0 0 512 512" xml:space="preserve" class=""><g><path d="M401.693 309.922a34.856 34.856 0 0 0-27.882 13.937A34.849 34.849 0 0 0 345.92 309.9c-11.6 0-21.049 4.783-27.331 13.828-4.871 7.016-7.554 16.38-7.554 26.366 0 42.985 56.56 80.09 58.968 81.647a7 7 0 0 0 7.625-.011c2.407-1.569 58.952-38.9 58.952-81.642 0-19.472-12.228-40.166-34.887-40.166Zm-4.786 87.728a191.869 191.869 0 0 1-23.113 19.694c-12.095-8.691-48.759-37.493-48.759-67.25 0-4.374 1.007-26.194 20.885-26.194a20.919 20.919 0 0 1 20.887 20.9 7 7 0 0 0 14 0 20.907 20.907 0 0 1 20.886-20.881c8.075 0 20.887 7.1 20.887 26.166 0 17.92-13.961 35.757-25.673 47.565Z" fill="#173e33" opacity="1" data-original="#000000" class=""></path><path d="M373.806 251.464a119.445 119.445 0 0 0-37.673 6.068c-1.419-11.775-2.493-24.873-3.613-38.621-6.784-83.291-16.059-197.226-123.863-197.226-.463 0-.933 0-1.4.006-29.74.272-55.052 11.535-75.233 33.477-16.767 18.23-29.669 43.971-37.311 74.438a261.853 261.853 0 0 0-7.086 80.974c3.381 45.337-2.152 91.251-15.552 129.581C53.888 354 41.624 370.74 36.033 389.665 27.755 417.65 18.8 460.4 18.421 462.2a6.962 6.962 0 0 0-.148 1.432c0 12.919 10.466 27.368 24.472 27.368H364a7 7 0 0 0 .728-.038q4.5.339 9.078.342a119.92 119.92 0 1 0 0-239.84Zm-272.218-41.925c-3.454-46.317 7.8-109.083 40.741-144.893 17.454-18.979 39.342-28.72 65.056-28.955 22.9-.205 41.412 5.12 56.587 16.292C277.3 61.8 287.749 75.9 295.912 95.106c15.435 36.316 19.271 83.4 22.654 124.942 1.249 15.33 2.441 29.871 4.132 42.869a120.708 120.708 0 0 0-49.173 42.783l-1.627-.494a1127.714 1127.714 0 0 0-16.467-4.832l-1.4-.4-.245-19.318c20.484-14.913 26.437-38.711 28.148-50.272 13.521-3.755 25.909-19.62 30.872-40.617 2.507-10.623-1.1-20.433-9.177-24.993-7.4-4.173-16.338-2.8-22.772 3.511-.618.6-1.236 1.269-1.854 1.985 1.382-17.146.919-30.493-1.374-40.382-3.532-15.233-10.941-19.467-14.922-21.742-.385-.221-.742-.418-1.051-.624a24.782 24.782 0 0 0-30.258 1.608 6.982 6.982 0 0 0-.952 1.051c-11 14.921-29.888 17.586-32.186 17.858-32.665-.208-38.87-29.56-39.113-30.783a7 7 0 0 0-11.433-4.013c-21.37 18.316-22.528 50.037-21.173 68.037a16.442 16.442 0 0 0-8.569 1.858c-8.622 4.443-12.6 15.143-9.894 26.632 4.951 20.951 17.3 36.794 30.785 40.59 1.565 11.666 7.33 35.773 28.419 50.707l-.244 18.9-1.349.395a1221.437 1221.437 0 0 0-15.116 4.509 6.957 6.957 0 0 0-2.725.84c-13.46 4.177-29.87 9.664-43.1 15.519q-7.5 3.313-14.272 7.052c10.21-36.43 14.162-77.849 11.112-118.743Zm40.389-37.651c-.085-.415-7.31-36.914 7.627-59.741 6.869 14.03 21.866 29.894 49 29.894q.291 0 .581-.024c1.083-.09 26.394-2.42 41.961-22.782a10.623 10.623 0 0 1 12.735-.063c.631.42 1.261.78 1.871 1.129 2.85 1.629 6.08 3.475 8.23 12.751 3.2 13.794 2.1 37.3-3.263 69.87a7.032 7.032 0 0 0 4.823 7.851c.59.188 5.85 1.633 8.689-4.19.194-.4.47-.98.816-1.714 6.593-13.956 11.841-22.9 15.6-26.585 1.927-1.887 4.2-2.38 6.094-1.314 2 1.129 3.691 4.239 2.43 9.58-4.38 18.534-15.639 30.856-23.468 30.681a7.038 7.038 0 0 0-7.13 6.709c-.372 5.41-3.355 33.113-25.626 47.17-7.5 4.741-27.443 12.528-32.521 13.868-4.739-1.238-22.552-8.057-31.021-12.768a6.984 6.984 0 0 0-3.04-1.881c-21.783-14.641-23.9-43.05-24.072-46.307a7.006 7.006 0 0 0-7-6.792h-.27c-7.791 0-18.975-12.258-23.328-30.677-1.308-5.555.405-9.8 2.681-10.973 2.059-1.059 4.319 1 5.482 2.328a7 7 0 0 0 12.118-6.023Zm34.151 139.959a7 7 0 0 0 4.835-6.567l.215-16.66c11 4.986 25.486 10.47 29.255 10.47 3.843 0 18.446-5.613 29.442-10.693l.215 16.9a7 7 0 0 0 4.733 6.534c1.188.406 3.28 1.006 6.745 2 2.733.784 6.236 1.789 10.4 3.018-1.478 6.119-5.415 14.116-12.182 21.2-7.155 7.489-19.789 16.416-39.347 16.416s-32.192-8.927-39.347-16.416c-6.728-7.041-10.66-14.988-12.159-21.093 4.11-1.237 7.759-2.306 10.687-3.164 3.061-.892 5.274-1.544 6.508-1.945ZM42.745 477c-4.921 0-10.116-6.424-10.454-12.722 1.274-6.028 9.655-45.246 17.167-70.644 7.267-24.593 28.339-45.2 60.944-59.6a371.341 371.341 0 0 1 35.137-12.917c2.394 9.038 7.926 18.759 15.427 26.61 9.042 9.463 24.965 20.744 49.47 20.744 20.907 0 35.562-8.211 45.031-16.5A119.9 119.9 0 0 0 317.055 477Zm331.061.3a105.92 105.92 0 1 1 105.921-105.915A106.039 106.039 0 0 1 373.806 477.3Z" fill="#173e33" opacity="1" data-original="#000000" class=""></path></g></svg>