<svg xmlns="http://www.w3.org/2000/svg" width="445" height="373" viewBox="0 0 445 373" fill="none"><g clip-path="url(#clip0_160_1103)"><path d="M402.107 171.553C402.581 171.553 402.581 170.816 402.107 170.816C401.631 170.816 401.631 171.553 402.107 171.553Z" fill="white"></path><path d="M222.053 373C325.069 373 408.58 289.501 408.58 186.5C408.58 83.4989 325.069 0 222.053 0C119.037 0 35.5264 83.4989 35.5264 186.5C35.5264 289.501 119.037 373 222.053 373Z" fill="#7BAF42"></path><path d="M109.652 277.289C60.6963 275.393 19.9795 304.153 19.9795 304.153L30.3528 266.961L2.09961 259.947C16.2852 247.972 33.7131 240.51 44.811 236.588C47.1863 235.753 49.2644 235.08 50.9642 234.557C54.0519 233.611 55.8769 233.167 55.8769 233.167L107.137 229.77L109.652 277.289Z" fill="#144414"></path><path d="M334.454 277.289C383.41 275.393 424.126 304.153 424.126 304.153L413.753 266.961L442.006 259.947C427.821 247.972 410.393 240.51 399.295 236.588C396.92 235.753 394.842 235.08 393.142 234.557C390.054 233.611 388.229 233.167 388.229 233.167L336.969 229.77L334.454 277.289Z" fill="#144414"></path><g opacity="0.3"><path d="M399.295 236.59C399.295 236.59 399.845 250.897 399.295 260.112C398.745 269.327 404.156 287.904 420.835 299.02C420.835 299.02 396.988 282.491 376.067 278.102C352.732 273.207 340.546 273.806 340.546 273.806V266.959L371.825 259.522L382.213 262.342L393.771 260.986L396.256 256.889L395.964 244.749L395.249 240.314L396.163 235.52L399.295 236.59Z" fill="#00036E"></path></g><g opacity="0.3"><path d="M44.8114 236.59C44.8114 236.59 44.2612 250.897 44.8114 260.112C45.3616 269.327 39.9502 287.904 23.2715 299.02C23.2715 299.02 47.1179 282.491 68.0389 278.102C91.3744 273.207 103.56 273.806 103.56 273.806V266.959L72.281 259.522L61.893 262.342L50.3358 260.986L47.8499 256.889L48.1422 244.749L48.857 240.314L47.9433 235.52L44.8114 236.59Z" fill="#00036E"></path></g><g opacity="0.6"><path d="M398.023 241.092C398.023 241.092 413.137 246.466 426.971 254.532C428.926 255.671 428.678 258.577 426.566 259.39L412.427 264.827L440.791 260.252C440.791 260.252 429.145 247.141 417.691 244.342C406.237 241.542 395.252 236.296 395.252 236.296L398.023 241.092Z" fill="white"></path></g><g opacity="0.6"><path d="M46.0843 241.092C46.0843 241.092 30.9702 246.466 17.136 254.532C15.1807 255.671 15.4288 258.577 17.5413 259.39L31.6801 264.827L3.31641 260.249C3.31641 260.249 14.9621 247.139 26.4161 244.339C37.8702 241.539 48.8551 236.293 48.8551 236.293L46.0843 241.092Z" fill="white"></path></g><path d="M19.98 306.253C19.555 306.253 19.1325 306.125 18.769 305.87C18.0444 305.359 17.7177 304.445 17.9559 303.59L27.7495 268.479L1.59406 261.986C0.827671 261.796 0.233229 261.192 0.0539137 260.424C-0.125401 259.655 0.142343 258.852 0.744154 258.343C14.9051 246.385 32.1439 238.838 44.1089 234.608C46.2263 233.864 48.3216 233.172 50.3432 232.55C53.4554 231.597 55.2977 231.145 55.3738 231.126C55.4917 231.096 55.6121 231.079 55.7349 231.069L106.994 227.673C107.55 227.628 108.107 227.822 108.527 228.196C108.947 228.569 109.2 229.095 109.23 229.655L111.748 277.174C111.779 277.763 111.561 278.338 111.146 278.758C110.731 279.178 110.161 279.384 109.569 279.382C61.9324 277.537 21.5889 305.58 21.1885 305.865C20.8274 306.125 20.4049 306.253 19.98 306.253ZM6.70577 258.928L30.8593 264.925C31.4095 265.063 31.8811 265.417 32.1685 265.905C32.4534 266.397 32.5296 266.981 32.3773 267.526L23.4779 299.43C35.465 292.175 68.8913 274.398 107.437 275.125L105.152 232.007L56.2066 235.252C55.6907 235.384 54.0376 235.817 51.5812 236.568C49.6161 237.175 47.57 237.848 45.5091 238.572C34.7796 242.36 19.7098 248.883 6.70577 258.928Z" fill="#225824"></path><path d="M424.127 306.253C423.702 306.253 423.279 306.125 422.916 305.87C422.513 305.587 382.167 277.549 334.535 279.387C333.938 279.396 333.374 279.183 332.958 278.763C332.543 278.343 332.325 277.768 332.357 277.179L334.874 229.66C334.904 229.1 335.157 228.574 335.577 228.201C335.997 227.827 336.55 227.633 337.11 227.678L388.369 231.074C388.492 231.082 388.612 231.101 388.73 231.131C388.806 231.15 390.649 231.602 393.756 232.553C395.783 233.177 397.878 233.869 399.993 234.611C411.963 238.84 429.201 246.388 443.362 258.346C443.964 258.854 444.232 259.657 444.053 260.426C443.873 261.195 443.279 261.797 442.513 261.988L416.357 268.482L426.151 303.593C426.389 304.448 426.065 305.361 425.338 305.872C424.974 306.125 424.549 306.253 424.127 306.253ZM339.045 275.101C376.566 275.101 408.89 292.322 420.629 299.43L411.729 267.526C411.577 266.981 411.653 266.394 411.938 265.905C412.223 265.417 412.695 265.063 413.247 264.926L437.401 258.928C424.394 248.883 409.324 242.36 398.595 238.57C396.537 237.845 394.493 237.173 392.523 236.566C390.069 235.814 388.416 235.382 387.9 235.249L338.954 232.005L336.67 275.123C337.463 275.108 338.257 275.101 339.045 275.101Z" fill="#225824"></path><path d="M403.096 187.556L359.564 214.931L389.352 256.853L338.633 265.417L350.07 315.556L299.923 304.121L291.358 354.83L249.43 325.046L222.054 368.574L194.677 325.046L152.75 354.83L144.184 304.119L94.0374 315.554L105.474 265.417L54.7551 256.85L84.5435 214.931L41.0117 187.556L84.5435 160.184L54.7551 118.262L105.474 109.698L94.0374 59.5583L144.184 70.9935L152.75 20.2841L194.677 50.0682L222.054 6.54028L249.43 50.0682L291.358 20.2841L299.923 70.9935L350.07 59.5583L338.633 109.698L389.352 118.262L359.564 160.184L403.096 187.556Z" fill="#7BAF42"></path><g opacity="0.6"><path d="M165.566 62.1322L155.748 33.9544L146.429 71.0844L153.564 22.0894L169.172 60.639L165.566 62.1322Z" fill="white"></path></g><g opacity="0.6"><path d="M93.4083 138.804L66.5381 125.822L86.2087 158.663L56.6045 118.977L94.9042 135.201L93.4083 138.804Z" fill="white"></path></g><g opacity="0.6"><path d="M96.6112 244.037L68.4268 253.854L105.562 263.169L56.5625 256.037L95.1177 240.432L96.6112 244.037Z" fill="white"></path></g><g opacity="0.6"><path d="M173.294 316.182L160.307 343.049L193.156 323.383L153.464 352.981L169.688 314.689L173.294 316.182Z" fill="white"></path></g><g opacity="0.6"><path d="M278.541 312.982L288.359 341.16L297.678 304.03L290.542 353.023L274.935 314.473L278.541 312.982Z" fill="white"></path></g><g opacity="0.6"><path d="M350.698 236.308L377.568 249.293L357.898 216.451L387.502 256.138L349.202 239.913L350.698 236.308Z" fill="white"></path></g><g opacity="0.6"><path d="M347.495 131.077L375.679 121.261L338.544 111.945L387.544 119.077L348.988 134.683L347.495 131.077Z" fill="white"></path></g><g opacity="0.6"><path d="M270.812 58.932L283.797 32.0632L250.95 51.731L290.643 22.1311L274.418 60.4253L270.812 58.932Z" fill="white"></path></g><g opacity="0.6"><path d="M217.829 50.0683L219.533 20.2768L196.724 51.0212L222.054 8.48059L221.732 50.0683H217.829Z" fill="white"></path></g><g opacity="0.6"><path d="M121.831 93.3237L101.969 71.0525L107.584 108.919L95.4082 60.9313L124.592 90.5656L121.831 93.3237Z" fill="white"></path></g><g opacity="0.6"><path d="M84.5429 191.78L54.7472 190.076L85.4985 212.882L42.9492 187.556L84.5429 187.878V191.78Z" fill="white"></path></g><g opacity="0.6"><path d="M127.808 287.764L105.533 307.623L143.406 302.011L95.4082 314.183L125.047 285.003L127.808 287.764Z" fill="white"></path></g><g opacity="0.6"><path d="M226.279 325.046L224.574 354.838L247.384 324.093L222.054 366.634L222.375 325.046H226.279Z" fill="white"></path></g><g opacity="0.6"><path d="M322.273 281.791L342.138 304.062L336.523 266.195L348.699 314.183L319.515 284.549L322.273 281.791Z" fill="white"></path></g><g opacity="0.6"><path d="M359.564 183.334L389.36 185.039L358.608 162.232L401.158 187.556L359.564 187.234V183.334Z" fill="white"></path></g><g opacity="0.6"><path d="M316.299 87.3506L338.573 67.4913L300.701 73.1033L348.699 60.9313L319.06 90.1087L316.299 87.3506Z" fill="white"></path></g><path d="M222.053 326.002C297.998 326.002 359.563 264.445 359.563 188.511C359.563 112.578 297.998 51.0212 222.053 51.0212C146.108 51.0212 84.543 112.578 84.543 188.511C84.543 264.445 146.108 326.002 222.053 326.002Z" fill="#7BAF42"></path><g opacity="0.25"><path d="M331.3 157.45C333.432 166.314 334.511 175.588 334.403 185.132C333.683 247.52 282.895 296.979 220.498 296.134C159.163 295.301 109.699 245.329 109.699 183.806C109.699 175.762 110.544 167.915 112.153 160.348C113.504 153.985 109.738 147.653 103.516 145.752C96.4735 143.601 89.07 147.923 87.5397 155.127C85.5083 164.705 84.4717 174.65 84.5479 184.852C85.1104 260.598 146.296 321.296 222.053 321.296C297.997 321.296 359.563 259.738 359.563 183.806C359.563 172.692 358.244 161.886 355.753 151.536C353.847 143.616 344.913 139.671 337.699 143.458C332.629 146.118 329.959 151.88 331.3 157.45Z" fill="#00036E"></path></g><g opacity="0.6"><path d="M222.054 301.66C169.681 301.66 125.71 265.719 113.455 217.161C121.785 269.634 167.232 309.745 222.054 309.745C276.875 309.745 322.325 269.631 330.652 217.161C318.398 265.716 274.426 301.66 222.054 301.66Z" fill="white"></path></g><g opacity="0.6"><path d="M86.9753 195.084C86.9753 120.492 147.451 60.025 222.054 60.025C296.656 60.025 357.132 120.492 357.132 195.084C357.132 211.686 354.13 227.584 348.648 242.276C355.673 225.762 359.561 207.592 359.561 188.511C359.561 112.579 297.997 51.0212 222.051 51.0212C146.107 51.0212 84.541 112.579 84.541 188.511C84.541 207.59 88.4294 225.759 95.4547 242.276C89.977 227.584 86.9753 211.684 86.9753 195.084Z" fill="white"></path></g><path d="M222.054 300.997C284.105 300.997 334.408 250.701 334.408 188.659C334.408 126.616 284.105 76.3207 222.054 76.3207C160.002 76.3207 109.699 126.616 109.699 188.659C109.699 250.701 160.002 300.997 222.054 300.997Z" fill="#225824"></path><g opacity="0.3"><path d="M117.139 192.918C117.139 134.985 164.11 88.0187 222.053 88.0187C279.994 88.0187 326.967 134.983 326.967 192.918C326.967 216.088 319.448 237.497 306.727 254.853C322.524 235.814 332.025 211.365 332.025 184.692C332.025 123.967 282.79 74.739 222.056 74.739C161.322 74.739 112.084 123.967 112.084 184.695C112.084 211.367 121.583 235.817 137.382 254.856C124.658 237.497 117.139 216.088 117.139 192.918Z" fill="#00036E"></path></g><g opacity="0.3"><path d="M94.0371 59.5583L124.403 89.9221L143.761 70.5662L94.0371 59.5583Z" fill="#00036E"></path></g><g opacity="0.3"><path d="M41.0117 187.556H83.9565L84.5435 160.184L41.0117 187.556Z" fill="#00036E"></path></g><g opacity="0.3"><path d="M94.0371 315.556L124.403 285.192L105.474 265.417L94.0371 315.556Z" fill="#00036E"></path></g><g opacity="0.3"><path d="M222.053 368.574V325.636L194.677 325.046L222.053 368.574Z" fill="#00036E"></path></g><g opacity="0.3"><path d="M350.07 315.556L319.704 285.193L299.923 304.121L350.07 315.556Z" fill="#00036E"></path></g><g opacity="0.3"><path d="M403.095 187.556H360.151L359.563 214.931L403.095 187.556Z" fill="#00036E"></path></g><g opacity="0.3"><path d="M350.07 59.5583L319.704 89.9221L338.633 109.698L350.07 59.5583Z" fill="#00036E"></path></g><g opacity="0.3"><path d="M222.053 6.54028L221.731 50.0682H249.429L222.053 6.54028Z" fill="#00036E"></path></g><g opacity="0.3"><path d="M54.8359 256.934L94.5014 240.476L84.0078 215.194L54.8359 256.934Z" fill="#00036E"></path></g><g opacity="0.3"><path d="M152.875 354.838L169.286 315.156L144.211 304.155L152.875 354.838Z" fill="#00036E"></path></g><g opacity="0.3"><path d="M291.441 354.752L274.981 315.092L249.469 325.024L291.441 354.752Z" fill="#00036E"></path></g><g opacity="0.3"><path d="M389.359 256.725L349.672 240.316L338.667 265.39L389.359 256.725Z" fill="#00036E"></path></g><g opacity="0.3"><path d="M389.271 118.181L349.605 134.636L359.541 160.147L389.271 118.181Z" fill="#00036E"></path></g><g opacity="0.3"><path d="M291.23 20.2769L274.821 59.9562L299.896 70.9592L291.23 20.2769Z" fill="#00036E"></path></g><g opacity="0.3"><path d="M152.666 20.3628L169.126 60.0225L194.638 50.088L152.666 20.3628Z" fill="#00036E"></path></g><g opacity="0.3"><path d="M54.7471 118.39L94.8547 135.319L105.439 109.725L54.7471 118.39Z" fill="#00036E"></path></g><path d="M222.053 371.023C221.211 371.023 220.427 370.591 219.98 369.878L193.982 328.544L154.167 356.827C153.479 357.313 152.59 357.417 151.811 357.092C151.032 356.771 150.475 356.068 150.332 355.238L142.199 307.083L94.58 317.941C93.7572 318.13 92.8974 317.88 92.303 317.285C91.7085 316.691 91.4604 315.831 91.6471 315.009L102.507 267.396L54.3447 259.264C53.5144 259.124 52.8119 258.567 52.4901 257.786C52.1683 257.007 52.269 256.118 52.7554 255.431L81.043 215.621L39.7072 189.631C38.9948 189.182 38.5625 188.401 38.5625 187.559C38.5625 186.716 38.9948 185.933 39.7072 185.486L81.0454 159.494L52.7579 119.682C52.269 118.994 52.1683 118.105 52.4926 117.326C52.8168 116.548 53.5169 115.988 54.3471 115.848L102.509 107.716L91.6496 60.1036C91.4629 59.2833 91.711 58.4212 92.3054 57.8268C92.9023 57.23 93.7621 56.982 94.5825 57.1711L142.202 68.0291L150.335 19.874C150.475 19.0439 151.032 18.3415 151.813 18.0197C152.592 17.698 153.484 17.7987 154.169 18.285L193.982 46.5685L219.98 5.23618C220.43 4.52393 221.211 4.09167 222.053 4.09167C222.896 4.09167 223.68 4.52393 224.127 5.23618L250.125 46.5685L289.94 18.285C290.628 17.7962 291.517 17.6955 292.296 18.0197C293.074 18.3415 293.632 19.0439 293.775 19.874L301.908 68.0291L349.527 57.1711C350.347 56.982 351.207 57.23 351.804 57.8268C352.401 58.4212 352.646 59.2808 352.46 60.1036L341.6 107.716L389.762 115.848C390.592 115.988 391.295 116.545 391.617 117.326C391.939 118.107 391.838 118.994 391.351 119.682L363.064 159.491L404.402 185.483C405.114 185.933 405.547 186.714 405.547 187.556C405.547 188.398 405.114 189.182 404.402 189.629L363.064 215.623L391.351 255.433C391.84 256.121 391.941 257.01 391.617 257.788C391.295 258.567 390.592 259.127 389.762 259.267L341.6 267.399L352.46 315.011C352.646 315.831 352.398 316.691 351.804 317.288C351.207 317.885 350.347 318.133 349.527 317.943L301.908 307.085L293.775 355.241C293.635 356.071 293.077 356.773 292.296 357.095C291.517 357.419 290.628 357.316 289.94 356.83L250.127 328.546L224.129 369.881C223.68 370.591 222.896 371.023 222.053 371.023ZM194.677 322.598C194.837 322.598 194.996 322.612 195.154 322.644C195.814 322.774 196.392 323.172 196.75 323.742L222.053 363.972L247.356 323.742C247.715 323.172 248.292 322.774 248.953 322.644C249.614 322.514 250.299 322.659 250.849 323.05L289.591 350.572L297.506 303.711C297.619 303.048 297.999 302.458 298.56 302.083C299.12 301.707 299.81 301.582 300.466 301.731L346.812 312.3L336.243 265.959C336.093 265.304 336.221 264.614 336.594 264.054C336.97 263.494 337.557 263.113 338.223 263L385.09 255.087L357.564 216.348C357.173 215.798 357.026 215.113 357.159 214.452C357.289 213.791 357.687 213.214 358.257 212.855L398.492 187.556L358.257 162.257C357.687 161.898 357.289 161.321 357.159 160.66C357.029 160 357.173 159.314 357.564 158.764L385.09 120.025L338.223 112.112C337.559 111.999 336.97 111.618 336.594 111.059C336.221 110.499 336.093 109.808 336.243 109.153L346.812 62.8126L300.466 73.3808C299.81 73.5306 299.12 73.4029 298.56 73.0296C297.999 72.6563 297.619 72.0668 297.506 71.4012L289.591 24.5405L250.847 52.0626C250.297 52.4531 249.611 52.5955 248.951 52.4678C248.29 52.3377 247.713 51.9398 247.354 51.37L222.053 11.1404L196.75 51.37C196.392 51.9398 195.814 52.3377 195.154 52.4678C194.493 52.5955 193.808 52.4531 193.257 52.0626L154.515 24.5405L146.601 71.4012C146.488 72.0644 146.107 72.6538 145.547 73.0296C144.987 73.4053 144.297 73.5306 143.641 73.3808L97.2943 62.8126L107.864 109.153C108.014 109.808 107.886 110.499 107.513 111.059C107.137 111.618 106.55 111.999 105.884 112.112L59.0167 120.025L86.5428 158.764C86.9334 159.314 87.0807 160 86.9481 160.66C86.8179 161.321 86.42 161.898 85.8501 162.257L45.6147 187.556L85.8501 212.855C86.42 213.214 86.8179 213.791 86.9481 214.452C87.0783 215.113 86.9334 215.798 86.5428 216.348L59.0167 255.087L105.884 263C106.547 263.113 107.137 263.494 107.513 264.054C107.886 264.614 108.014 265.304 107.864 265.959L97.2943 312.3L143.641 301.731C144.297 301.582 144.987 301.709 145.547 302.083C146.107 302.456 146.488 303.045 146.601 303.711L154.515 350.572L193.26 323.05C193.675 322.752 194.171 322.598 194.677 322.598Z" fill="#225824"></path><path d="M222.054 328.45C144.88 328.45 82.0947 265.675 82.0947 188.511C82.0947 111.348 144.88 48.5726 222.054 48.5726C299.228 48.5726 362.013 111.348 362.013 188.511C362.013 265.675 299.228 328.45 222.054 328.45ZM222.054 53.4699C147.582 53.4699 86.9927 114.05 86.9927 188.511C86.9927 262.973 147.582 323.553 222.054 323.553C296.526 323.553 357.115 262.975 357.115 188.511C357.115 114.048 296.526 53.4699 222.054 53.4699Z" fill="#225824"></path><path d="M151.619 129.009V119.048H169.425V163.062H158.217V129.009H151.619Z" fill="white"></path><path d="M175.714 140.587C175.714 133.74 177.104 128.314 179.885 124.309C182.665 120.303 187.107 118.301 193.208 118.301C199.268 118.301 203.699 120.303 206.502 124.309C209.305 128.314 210.705 133.74 210.705 140.587C210.705 147.476 209.305 152.936 206.502 156.959C203.699 160.984 199.268 162.998 193.208 162.998C187.107 162.998 182.665 160.987 179.885 156.959C177.104 152.936 175.714 147.479 175.714 140.587ZM200.123 140.587C200.123 136.645 199.656 133.624 198.723 131.529C197.789 129.434 195.952 128.386 193.213 128.386C190.432 128.386 188.563 129.444 187.61 131.561C186.655 133.678 186.178 136.687 186.178 140.587C186.178 144.532 186.655 147.57 187.61 149.706C188.563 151.846 190.432 152.911 193.213 152.911C195.952 152.911 197.789 151.843 198.723 149.706C199.654 147.572 200.123 144.532 200.123 140.587Z" fill="white"></path><path d="M215.812 140.587C215.812 133.74 217.202 128.314 219.982 124.309C222.763 120.303 227.204 118.301 233.306 118.301C239.366 118.301 243.797 120.303 246.6 124.309C249.402 128.314 250.803 133.74 250.803 140.587C250.803 147.476 249.402 152.936 246.6 156.959C243.797 160.984 239.366 162.998 233.306 162.998C227.204 162.998 222.761 160.987 219.982 156.959C217.202 152.936 215.812 147.479 215.812 140.587ZM240.218 140.587C240.218 136.645 239.751 133.624 238.818 131.529C237.884 129.434 236.047 128.386 233.308 128.386C230.528 128.386 228.658 129.444 227.705 131.561C226.75 133.678 226.273 136.687 226.273 140.587C226.273 144.532 226.75 147.57 227.705 149.706C228.661 151.846 230.528 152.911 233.308 152.911C236.047 152.911 237.884 151.843 238.818 149.706C239.751 147.572 240.218 144.532 240.218 140.587Z" fill="white"></path><path d="M271.377 124.309C273.16 125.996 274.049 128.371 274.049 131.436C274.049 134.501 273.157 136.879 271.377 138.563C269.593 140.251 267.304 141.093 264.506 141.093C261.632 141.093 259.304 140.251 257.52 138.563C255.737 136.879 254.848 134.501 254.848 131.436C254.848 128.371 255.739 125.996 257.52 124.309C259.304 122.624 261.63 121.779 264.506 121.779C267.304 121.781 269.596 122.624 271.377 124.309ZM292.391 122.356L270.2 163.109H260.713L282.904 122.356H292.391ZM262.209 134.226C262.745 134.897 263.474 135.233 264.393 135.233C265.351 135.233 266.117 134.899 266.692 134.226C267.267 133.556 267.554 132.627 267.554 131.438C267.554 130.252 267.267 129.321 266.692 128.651C266.117 127.98 265.351 127.644 264.393 127.644C263.474 127.644 262.745 127.98 262.209 128.651C261.671 129.321 261.404 130.252 261.404 131.438C261.404 132.625 261.671 133.556 262.209 134.226ZM295.552 146.843C297.313 148.53 298.195 150.905 298.195 153.97C298.195 157.035 297.313 159.422 295.552 161.127C293.788 162.831 291.489 163.683 288.652 163.683C285.854 163.683 283.565 162.831 281.782 161.127C279.998 159.422 279.109 157.037 279.109 153.97C279.109 150.905 280.001 148.53 281.782 146.843C283.563 145.158 285.854 144.313 288.652 144.313C291.489 144.313 293.788 145.155 295.552 146.843ZM286.412 156.814C286.948 157.484 287.694 157.821 288.655 157.821C289.573 157.821 290.313 157.484 290.868 156.814C291.423 156.144 291.701 155.195 291.701 153.967C291.701 152.781 291.423 151.85 290.868 151.18C290.313 150.509 289.573 150.173 288.655 150.173C287.697 150.173 286.948 150.509 286.412 151.18C285.874 151.85 285.606 152.781 285.606 153.967C285.606 155.195 285.874 156.146 286.412 156.814Z" fill="white"></path><path d="M167.294 250.796C168.62 251.798 169.443 253.154 169.767 254.866H165.582C165.304 254.281 164.879 253.814 164.309 253.466C163.739 253.119 163.054 252.945 162.251 252.945C161.003 252.945 160.001 253.365 159.244 254.205C158.488 255.045 158.112 256.182 158.112 257.614C158.112 259.171 158.507 260.365 159.303 261.197C160.097 262.03 161.227 262.445 162.691 262.445C163.631 262.445 164.454 262.187 165.164 261.671C165.874 261.156 166.375 260.419 166.667 259.463H161.674V256.619H169.974V260.527C169.664 261.482 169.173 262.369 168.495 263.184C167.817 264.002 166.95 264.663 165.894 265.174C164.837 265.682 163.631 265.937 162.275 265.937C160.625 265.937 159.185 265.586 157.952 264.886C156.719 264.184 155.769 263.204 155.095 261.939C154.425 260.674 154.091 259.235 154.091 257.616C154.091 255.998 154.425 254.556 155.095 253.294C155.766 252.029 156.714 251.047 157.94 250.347C159.166 249.644 160.595 249.295 162.229 249.295C164.28 249.293 165.967 249.794 167.294 250.796Z" fill="white"></path><path d="M176.031 249.455V258.886C176.031 259.964 176.274 260.79 176.76 261.359C177.247 261.929 177.952 262.214 178.875 262.214C179.799 262.214 180.506 261.929 180.99 261.359C181.477 260.79 181.72 259.964 181.72 258.886V249.455H185.674V258.886C185.674 260.429 185.375 261.725 184.773 262.781C184.171 263.837 183.351 264.631 182.312 265.164C181.273 265.694 180.096 265.962 178.787 265.962C177.478 265.962 176.321 265.699 175.318 265.176C174.316 264.653 173.53 263.857 172.96 262.796C172.39 261.733 172.105 260.431 172.105 258.889V249.458H176.031V249.455Z" fill="white"></path><path d="M198.436 262.818H192.31L191.293 265.8H187.132L193.12 249.571H197.675L203.663 265.8H199.455L198.436 262.818ZM197.419 259.812L195.385 253.802L193.327 259.812H197.419Z" fill="white"></path><path d="M213.579 265.8L210.042 259.628H209.14V265.8H205.186V249.455H211.938C213.233 249.455 214.328 249.679 215.222 250.126C216.116 250.573 216.787 251.187 217.234 251.963C217.681 252.741 217.905 253.63 217.905 254.632C217.905 255.819 217.578 256.828 216.922 257.661C216.266 258.493 215.316 259.063 214.065 259.372L217.949 265.8H213.579ZM209.14 256.921H211.592C212.378 256.921 212.955 256.747 213.326 256.401C213.697 256.054 213.881 255.541 213.881 254.863C213.881 254.215 213.692 253.706 213.314 253.338C212.935 252.967 212.361 252.783 211.592 252.783H209.14V256.921Z" fill="white"></path><path d="M230.02 262.818H223.894L222.877 265.8H218.716L224.704 249.571H229.259L235.247 265.8H231.039L230.02 262.818ZM229.003 259.812L226.967 253.802L224.908 259.812H229.003Z" fill="white"></path><path d="M251.289 265.8H247.337L240.724 255.767V265.8H236.77V249.455H240.724L247.337 259.581V249.455H251.289V265.8Z" fill="white"></path><path d="M265.762 249.455V252.599H261.323V265.8H257.347V252.599H252.952V249.455H265.762Z" fill="white"></path><path d="M271.383 252.599V256.02H276.909V259.002H271.383V262.632H277.602V265.8H267.428V249.455H277.602V252.599H271.383Z" fill="white"></path><path d="M283.798 252.599V256.02H289.324V259.002H283.798V262.632H290.017V265.8H279.843V249.455H290.017V252.599H283.798Z" fill="white"></path><path d="M222.053 303.446C158.75 303.446 107.247 251.95 107.247 188.656C107.247 125.362 158.747 73.8671 222.053 73.8671C285.359 73.8671 336.859 125.362 336.859 188.656C336.859 251.95 285.356 303.446 222.053 303.446ZM222.053 78.7668C161.452 78.7668 112.148 128.064 112.148 188.656C112.148 249.249 161.452 298.546 222.053 298.546C282.654 298.546 331.958 249.249 331.958 188.656C331.958 128.064 282.654 78.7668 222.053 78.7668Z" fill="#225824"></path><path d="M383.786 261.961C278.309 230.175 165.795 230.175 60.3184 261.961C54.6073 263.683 48.8545 259.409 48.8545 253.444V202.638C48.8545 198.741 51.3944 195.295 55.1158 194.133C163.82 160.221 280.284 160.221 388.988 194.133C392.71 195.295 395.249 198.738 395.249 202.638V253.444C395.249 259.407 389.499 263.683 383.786 261.961Z" fill="#144414"></path><g opacity="0.3"><path d="M383.786 247.682C278.309 215.896 165.795 215.896 60.3184 247.682C54.6073 249.403 48.8545 245.13 48.8545 239.164V249.438C48.8545 255.401 54.6073 259.677 60.3184 257.955C165.795 226.17 278.309 226.17 383.786 257.955C389.497 259.677 395.249 255.403 395.249 249.438V239.164C395.249 245.13 389.499 249.403 383.786 247.682Z" fill="#00036E"></path></g><g opacity="0.6"><path d="M388.988 193.45C280.284 159.538 163.82 159.538 55.1158 193.45C51.3944 194.612 48.8545 198.056 48.8545 201.956V209.007C48.8545 205.107 51.3944 201.663 55.1158 200.502C163.82 166.589 280.284 166.589 388.988 200.502C392.71 201.663 395.249 205.107 395.249 209.007V201.953C395.249 198.056 392.712 194.612 388.988 193.45Z" fill="white"></path></g><g opacity="0.3"><path d="M100.323 195.381C100.323 206.627 100.323 217.871 100.323 229.117C97.0563 229.787 95.4252 230.133 92.1681 230.851C92.1681 223.819 92.1681 216.785 92.1681 209.753C89.7535 217.33 87.3413 224.91 84.9341 232.489C82.1191 233.145 80.714 233.481 77.9064 234.169C75.4918 227.729 73.0747 221.289 70.6576 214.852C70.6576 221.901 70.6576 228.95 70.6576 235.996C67.4201 236.833 65.8038 237.263 62.5762 238.147C62.5762 226.901 62.5762 215.658 62.5762 204.412C66.5211 203.333 68.4985 202.81 72.4582 201.798C75.4795 208.884 78.5008 215.972 81.5172 223.06C84.4698 214.538 87.4346 206.02 90.4093 197.505C94.3665 196.621 96.3513 196.196 100.323 195.381Z" fill="#00036E"></path><path d="M130.777 191.4C133.389 192.49 135.449 194.261 136.958 196.69C138.466 199.119 139.22 202.005 139.22 205.335C139.22 208.668 138.456 211.767 136.933 214.641C135.408 217.517 133.339 219.889 130.728 221.778C128.115 223.667 125.226 224.87 122.057 225.401C118.891 225.931 116.005 225.695 113.404 224.681C110.8 223.667 108.744 221.984 107.228 219.619C105.715 217.254 104.956 214.408 104.956 211.077C104.956 207.744 105.713 204.606 107.228 201.671C108.741 198.736 110.8 196.275 113.404 194.312C116.005 192.348 118.891 191.095 122.057 190.565C125.258 190.024 128.164 190.309 130.777 191.4ZM115.656 201.929C114.074 203.957 113.283 206.482 113.283 209.493C113.283 212.472 114.074 214.697 115.656 216.176C117.238 217.654 119.37 218.16 122.057 217.711C124.713 217.266 126.842 216.046 128.444 214.034C130.045 212.023 130.849 209.53 130.849 206.551C130.849 203.572 130.055 201.32 128.468 199.807C126.882 198.294 124.745 197.751 122.057 198.203C119.37 198.65 117.238 199.9 115.656 201.929Z" fill="#00036E"></path><path d="M174.174 218.654C170.865 218.914 169.209 219.057 165.903 219.364C161.312 212.882 156.709 206.411 152.091 199.952C152.091 206.905 152.091 213.855 152.091 220.808C148.789 221.191 147.141 221.395 143.845 221.822C143.845 210.498 143.845 199.171 143.845 187.846C147.141 187.416 148.789 187.215 152.091 186.832C156.709 193.357 161.314 199.893 165.903 206.438C165.903 199.421 165.903 192.404 165.903 185.39C169.209 185.083 170.862 184.94 174.174 184.68C174.174 196.002 174.174 207.329 174.174 218.654Z" fill="#00036E"></path><path d="M188.163 190.272C188.163 193.116 188.163 194.538 188.163 197.385C192.794 197.127 195.11 197.021 199.745 196.852C199.745 199.333 199.745 200.573 199.745 203.051C195.11 203.22 192.794 203.326 188.163 203.584C188.163 206.602 188.163 208.11 188.163 211.129C193.376 210.839 195.982 210.721 201.199 210.544C201.199 213.177 201.199 214.494 201.199 217.129C194.093 217.357 186.974 217.726 179.883 218.232C179.883 206.907 179.883 195.582 179.883 184.255C186.974 183.749 194.093 183.381 201.199 183.152C201.199 185.766 201.199 187.075 201.199 189.688C195.984 189.865 193.376 189.983 188.163 190.272Z" fill="#00036E"></path><path d="M235.532 182.963C231.555 190.464 227.595 197.972 223.651 205.49C223.651 210.006 223.651 212.266 223.651 216.783C220.315 216.77 218.644 216.778 215.309 216.812C215.309 212.295 215.309 210.036 215.309 205.519C211.364 198.031 207.404 190.55 203.43 183.079C207.23 182.963 209.131 182.922 212.933 182.865C215.572 188.364 216.891 191.12 219.529 196.646C222.167 191.1 223.486 188.335 226.124 182.818C229.887 182.85 231.769 182.877 235.532 182.963Z" fill="#00036E"></path><path d="M273.866 204.532C275.074 206.143 275.679 207.946 275.679 209.93C275.679 212.846 274.704 215.031 272.753 216.498C270.803 217.966 268.005 218.553 264.357 218.293C257.988 217.841 254.8 217.657 248.423 217.374C248.423 206.05 248.423 194.723 248.423 183.398C254.645 183.675 257.755 183.852 263.972 184.289C267.457 184.535 270.149 185.505 272.053 187.17C273.957 188.836 274.907 191.068 274.907 193.856C274.907 195.906 274.36 197.562 273.264 198.832C272.169 200.099 270.734 200.868 268.958 201.145C271.021 201.789 272.657 202.921 273.866 204.532ZM256.711 197.712C258.88 197.837 259.965 197.906 262.134 198.053C265.006 198.247 266.443 197.142 266.443 194.705C266.443 192.272 264.974 190.938 262.039 190.741C259.909 190.599 258.843 190.533 256.713 190.407C256.711 193.33 256.711 194.791 256.711 197.712ZM267.217 208.076C267.217 206.858 266.814 205.875 266.006 205.126C265.2 204.38 264.053 203.95 262.569 203.849C260.226 203.69 259.054 203.616 256.711 203.478C256.711 206.534 256.711 208.064 256.711 211.119C259.074 211.257 260.255 211.33 262.618 211.492C265.684 211.701 267.217 210.574 267.217 208.076Z" fill="#00036E"></path><path d="M301.166 215.847C296.059 215.167 293.502 214.855 288.386 214.285C287.536 216.67 287.111 217.863 286.261 220.251C282.785 219.875 281.046 219.7 277.565 219.376C281.724 208.56 285.893 197.746 290.076 186.937C293.878 187.372 295.779 187.603 299.577 188.099C303.748 199.925 307.902 211.755 312.046 223.591C308.545 223.06 306.794 222.807 303.286 222.328C302.439 219.735 302.014 218.438 301.166 215.847ZM299.046 209.321C297.349 204.105 296.502 201.499 294.804 196.292C293.087 201.081 292.228 203.478 290.511 208.277C293.927 208.67 295.635 208.879 299.046 209.321Z" fill="#00036E"></path><path d="M341.401 197.888C344.218 200.735 346.039 204.198 346.866 208.248C343.413 207.516 341.683 207.162 338.222 206.48C337.584 204.785 336.604 203.358 335.282 202.209C333.958 201.057 332.389 200.313 330.566 199.979C328.171 199.539 326.238 200.079 324.766 201.587C323.295 203.095 322.561 205.325 322.561 208.273C322.561 211.22 323.298 213.69 324.766 215.69C326.235 217.691 328.171 218.905 330.566 219.344C332.386 219.678 333.958 219.528 335.282 218.885C336.606 218.241 337.586 217.217 338.222 215.805C341.683 216.488 343.413 216.842 346.866 217.573C346.039 221.243 344.218 223.922 341.401 225.641C338.584 227.361 335.022 227.805 330.711 227.012C327.422 226.408 324.528 225.175 322.035 223.296C319.539 221.417 317.611 219.064 316.25 216.22C314.889 213.379 314.209 210.277 314.209 206.914C314.209 203.55 314.889 200.659 316.25 198.247C317.611 195.838 319.542 194.104 322.035 193.067C324.531 192.031 327.424 191.805 330.711 192.412C335.022 193.202 338.584 195.044 341.401 197.888Z" fill="#00036E"></path><path d="M367.27 217.276C371.794 224.212 376.29 231.17 380.75 238.145C376.842 237.077 374.885 236.558 370.964 235.556C367.194 229.532 363.399 223.524 359.579 217.529C359.579 223.623 359.579 226.671 359.579 232.764C356.329 232 354.701 231.629 351.443 230.912C351.443 219.587 351.443 208.26 351.443 196.936C354.703 197.653 356.329 198.024 359.579 198.787C359.579 204.765 359.579 207.754 359.579 213.732C364.18 208.835 366.476 206.408 371.057 201.602C374.941 202.594 376.879 203.108 380.75 204.166C375.371 209.348 372.674 211.971 367.27 217.276Z" fill="#00036E"></path></g><path d="M100.714 198.48C100.714 209.726 100.714 220.97 100.714 232.216C97.4469 232.887 95.8158 233.233 92.5587 233.95C92.5587 226.919 92.5587 219.885 92.5587 212.853C90.1441 220.43 87.7319 228.009 85.3247 235.588C82.5097 236.244 81.1046 236.581 78.297 237.268C75.8824 230.829 73.4653 224.389 71.0483 217.952C71.0483 225 71.0483 232.049 71.0483 239.095C67.8108 239.933 66.1945 240.363 62.9668 241.247C62.9668 230.001 62.9668 218.757 62.9668 207.511C66.9117 206.433 68.8891 205.91 72.8488 204.898C75.8701 211.984 78.8915 219.072 81.9079 226.16C84.8604 217.637 87.8253 209.12 90.7999 200.605C94.7596 199.721 96.7419 199.296 100.714 198.48Z" fill="white"></path><path d="M131.168 194.499C133.779 195.59 135.84 197.36 137.348 199.789C138.857 202.218 139.611 205.104 139.611 208.435C139.611 211.767 138.847 214.867 137.324 217.74C135.798 220.616 133.73 222.989 131.119 224.878C128.505 226.766 125.617 227.97 122.448 228.5C119.282 229.031 116.395 228.795 113.794 227.781C111.19 226.766 109.134 225.084 107.619 222.719C106.106 220.354 105.347 217.507 105.347 214.177C105.347 210.846 106.103 207.708 107.619 204.77C109.132 201.835 111.19 199.374 113.794 197.412C116.395 195.447 119.282 194.195 122.448 193.664C125.649 193.124 128.554 193.409 131.168 194.499ZM116.047 205.028C114.465 207.057 113.674 209.582 113.674 212.593C113.674 215.572 114.465 217.797 116.047 219.275C117.629 220.756 119.761 221.26 122.448 220.81C125.103 220.366 127.233 219.145 128.834 217.134C130.436 215.122 131.239 212.629 131.239 209.65C131.239 206.671 130.446 204.419 128.859 202.906C127.272 201.393 125.135 200.85 122.448 201.302C119.761 201.752 117.629 202.999 116.047 205.028Z" fill="white"></path><path d="M174.565 221.754C171.256 222.014 169.601 222.156 166.295 222.463C161.704 215.982 157.1 209.51 152.482 203.051C152.482 210.004 152.482 216.955 152.482 223.908C149.181 224.291 147.533 224.495 144.236 224.922C144.236 213.597 144.236 202.27 144.236 190.945C147.533 190.516 149.181 190.314 152.482 189.931C157.1 196.457 161.706 202.992 166.295 209.537C166.295 202.521 166.295 195.504 166.295 188.489C169.601 188.182 171.254 188.04 174.565 187.78C174.565 199.104 174.565 210.429 174.565 221.754Z" fill="white"></path><path d="M188.556 193.372C188.556 196.216 188.556 197.638 188.556 200.484C193.186 200.227 195.502 200.121 200.138 199.951C200.138 202.432 200.138 203.672 200.138 206.15C195.502 206.32 193.186 206.426 188.556 206.683C188.556 209.702 188.556 211.21 188.556 214.228C193.768 213.939 196.374 213.821 201.592 213.644C201.592 216.277 201.592 217.593 201.592 220.228C194.486 220.457 187.367 220.825 180.275 221.331C180.275 210.006 180.275 198.679 180.275 187.355C187.367 186.849 194.486 186.48 201.592 186.252C201.592 188.865 201.592 190.174 201.592 192.787C196.374 192.964 193.768 193.082 188.556 193.372Z" fill="white"></path><path d="M235.923 186.065C231.946 193.566 227.986 201.074 224.041 208.592C224.041 213.108 224.041 215.368 224.041 219.885C220.705 219.875 219.035 219.88 215.699 219.914C215.699 215.397 215.699 213.138 215.699 208.621C211.754 201.133 207.795 193.652 203.82 186.181C207.62 186.065 209.522 186.023 213.324 185.967C215.962 191.466 217.281 194.222 219.919 199.748C222.558 194.202 223.877 191.436 226.515 185.92C230.278 185.95 232.159 185.979 235.923 186.065Z" fill="white"></path><path d="M274.259 207.631C275.467 209.243 276.071 211.045 276.071 213.03C276.071 215.945 275.096 218.131 273.146 219.597C271.195 221.066 268.398 221.653 264.75 221.393C258.381 220.941 255.192 220.756 248.815 220.474C248.815 209.149 248.815 197.822 248.815 186.497C255.037 186.775 258.147 186.952 264.364 187.389C267.85 187.635 270.542 188.605 272.446 190.27C274.349 191.935 275.3 194.168 275.3 196.955C275.3 199.006 274.752 200.661 273.657 201.931C272.561 203.198 271.127 203.967 269.351 204.242C271.412 204.891 273.05 206.02 274.259 207.631ZM257.101 200.814C259.27 200.939 260.355 201.008 262.524 201.155C265.396 201.349 266.833 200.244 266.833 197.807C266.833 195.373 265.364 194.04 262.429 193.843C260.299 193.701 259.233 193.635 257.103 193.509C257.101 196.43 257.101 197.891 257.101 200.814ZM267.607 211.175C267.607 209.957 267.204 208.975 266.396 208.226C265.59 207.479 264.443 207.049 262.959 206.949C260.616 206.789 259.444 206.715 257.101 206.578C257.101 209.633 257.101 211.163 257.101 214.218C259.464 214.356 260.645 214.43 263.008 214.592C266.074 214.803 267.607 213.676 267.607 211.175Z" fill="white"></path><path d="M301.557 218.946C296.45 218.266 293.893 217.954 288.776 217.384C287.926 219.769 287.502 220.963 286.652 223.35C283.176 222.977 281.437 222.8 277.956 222.476C282.115 211.659 286.283 200.846 290.466 190.037C294.269 190.471 296.17 190.702 299.968 191.198C304.139 203.024 308.292 214.855 312.436 226.69C308.936 226.16 307.184 225.907 303.677 225.428C302.829 222.837 302.404 221.537 301.557 218.946ZM299.437 212.421C297.74 207.204 296.892 204.598 295.195 199.392C293.478 204.181 292.618 206.578 290.901 211.377C294.318 211.77 296.025 211.979 299.437 212.421Z" fill="white"></path><path d="M341.792 200.988C344.609 203.834 346.429 207.297 347.257 211.347C343.803 210.616 342.074 210.262 338.613 209.579C337.974 207.884 336.994 206.457 335.673 205.308C334.349 204.156 332.779 203.412 330.957 203.078C328.562 202.638 326.628 203.179 325.157 204.687C323.686 206.195 322.951 208.425 322.951 211.372C322.951 214.319 323.688 216.79 325.157 218.792C326.626 220.793 328.562 222.007 330.957 222.446C332.777 222.78 334.349 222.628 335.673 221.987C336.997 221.343 337.977 220.319 338.613 218.907C342.074 219.59 343.803 219.943 347.257 220.675C346.429 224.345 344.609 227.024 341.792 228.743C338.974 230.463 335.412 230.907 331.102 230.114C327.812 229.51 324.919 228.277 322.426 226.398C319.93 224.519 318.002 222.166 316.641 219.322C315.28 216.48 314.6 213.379 314.6 210.016C314.6 206.652 315.28 203.761 316.641 201.349C318.002 198.94 319.932 197.206 322.426 196.169C324.921 195.133 327.815 194.907 331.102 195.513C335.412 196.304 338.974 198.144 341.792 200.988Z" fill="white"></path><path d="M367.66 220.378C372.185 227.314 376.68 234.272 381.141 241.247C377.233 240.179 375.275 239.66 371.355 238.658C367.584 232.634 363.789 226.626 359.969 220.631C359.969 226.725 359.969 229.772 359.969 235.866C356.72 235.102 355.091 234.731 351.834 234.014C351.834 222.689 351.834 211.362 351.834 200.037C355.091 200.755 356.72 201.126 359.969 201.889C359.969 207.867 359.969 210.856 359.969 216.834C364.57 211.937 366.867 209.51 371.448 204.704C375.332 205.696 377.27 206.209 381.141 207.268C375.762 212.45 373.064 215.071 367.66 220.378Z" fill="white"></path><path d="M386.387 264.798C385.284 264.798 384.173 264.636 383.078 264.307C277.734 232.56 166.37 232.56 61.0256 264.307C57.5523 265.353 53.8947 264.712 50.9839 262.55C48.0731 260.389 46.4053 257.069 46.4053 253.444V202.638C46.4053 197.643 49.6133 193.286 54.386 191.798C108.721 174.846 165.132 166.253 222.053 166.253C278.972 166.253 335.385 174.849 389.72 191.798C394.493 193.286 397.701 197.643 397.701 202.638V253.444C397.701 257.069 396.033 260.389 393.122 262.55C391.128 264.031 388.782 264.798 386.387 264.798ZM384.493 259.616C386.465 260.21 388.546 259.846 390.199 258.618C391.852 257.39 392.8 255.504 392.8 253.444V202.638C392.8 199.797 390.975 197.319 388.258 196.471C279.525 162.551 164.579 162.551 55.8451 196.471C53.1284 197.319 51.3033 199.797 51.3033 202.638V253.444C51.3033 255.504 52.2514 257.39 53.9046 258.618C55.5577 259.846 57.6358 260.207 59.6107 259.616C112.332 243.728 166.984 235.672 222.051 235.672C277.117 235.672 331.772 243.728 384.493 259.616Z" fill="#225824"></path></g><defs><clipPath id="clip0_160_1103"><rect width="444.107" height="373" fill="white"></rect></clipPath></defs></svg>