<svg xmlns="http://www.w3.org/2000/svg" width="108" height="108" viewBox="0 0 108 108" fill="none"><circle cx="54" cy="54" r="54" fill="#F8F8F8"></circle><path d="M31.7044 46.2688H75.2957C75.6842 46.2688 76.0001 46.5847 76.0001 46.9733C76.0001 47.1502 75.9369 47.3113 75.8295 47.4345L54.3955 77.1332C54.4429 77.2027 53.8807 77.6291 53.4164 77.2943C53.3406 77.2406 53.2774 77.1711 53.23 77.0953L31.1422 47.3903C30.9116 47.0807 30.9748 46.6384 31.2875 46.4078C31.4138 46.313 31.5623 46.2688 31.7076 46.2688H31.7044ZM73.9249 47.6746H33.1005L53.8175 75.5347L73.9249 47.6746Z" fill="#1A3F35"></path><path d="M39.9735 37H67.3645C67.5982 37 67.8035 37.1137 67.9299 37.2875L75.8294 46.5152C76.0821 46.809 76.0474 47.2544 75.7536 47.504C75.621 47.6177 75.4599 47.6746 75.2956 47.6746H31.7044C31.3159 47.6746 31 47.3587 31 46.9701C31 46.7806 31.0726 46.61 31.1958 46.4836L38.6816 37.259C38.8206 37.0885 39.0228 37 39.2281 37H39.9766H39.9735ZM39.9735 38.4058H39.5565L33.1763 46.2656H73.7701L67.0423 38.4058H39.9735Z" fill="#1A3F35"></path><path d="M39.803 37.3064C39.5819 36.9874 39.146 36.9084 38.827 37.1295C38.508 37.3507 38.429 37.7866 38.6501 38.1057L45.0778 47.3713C45.2989 47.6904 45.7348 47.7694 46.0538 47.5482C46.3728 47.3271 46.4518 46.8911 46.2307 46.5721L39.803 37.3064Z" fill="#1A3F35"></path><path d="M67.9615 38.0709C68.1636 37.7392 68.0594 37.3096 67.7278 37.1074C67.3961 36.9052 66.9666 37.0095 66.7644 37.3412L61.1011 46.6068C60.899 46.9385 61.0032 47.3682 61.3348 47.5703C61.6665 47.7725 62.0961 47.6683 62.2982 47.3366L67.9615 38.0709Z" fill="#1A3F35"></path><path d="M53.846 37.2654L62.2225 46.4994C62.3994 46.6953 62.4468 46.9638 62.3678 47.1976L54.503 76.8994C54.5914 76.9942 54.1366 77.5312 53.6439 77.4017C53.3722 77.329 53.1796 77.1047 53.1322 76.8457L44.9768 47.1565C44.9073 46.9069 44.9831 46.651 45.1537 46.4773L52.7563 37.2591C53.0027 36.9558 53.448 36.9147 53.7449 37.1611C53.7828 37.1927 53.8176 37.2275 53.846 37.2654ZM60.9275 47.1597L53.3217 38.7754L46.4266 47.1376L53.8144 74.0309L60.9275 47.1628V47.1597Z" fill="#1A3F35"></path></svg>