<svg xmlns="http://www.w3.org/2000/svg" width="108" height="108" viewBox="0 0 108 108" fill="none"><circle cx="54" cy="54" r="54" fill="#F8F8F8"></circle><path d="M68.8743 45.8733C68.8743 37.6592 62.2162 31 54.0035 31C45.7908 31 39.1327 37.6592 39.1327 45.8733C37.0083 46.1372 35 47.5267 35 50.749V58.5163C35 62.1538 37.5465 63.4729 39.9558 63.4729H42.351C42.8082 63.4729 43.1775 63.1036 43.1775 62.6463V46.6472C43.1775 46.1899 42.8082 45.8206 42.351 45.8206H40.7823C40.7823 38.5176 46.7018 32.6006 54 32.6006C61.2982 32.6006 67.2177 38.5211 67.2177 45.8206H65.649C65.1918 45.8206 64.8225 46.1899 64.8225 46.6472V62.6216C64.8225 63.079 65.1918 63.4483 65.649 63.4483H67.2177C66.9856 69.1261 64.2597 70.4558 58.8151 70.695V70.1427C58.8151 69.2316 58.0765 68.4893 57.162 68.4893H51.9635C51.0526 68.4893 50.3105 69.2281 50.3105 70.1427V72.8268C50.3105 73.7379 51.0491 74.4802 51.9635 74.4802H57.176C58.087 74.4802 58.8291 73.7414 58.8291 72.8268V72.3484C64.0663 72.1092 68.5964 71.0257 68.8673 63.3991C70.9917 63.1352 73 61.7457 73 58.5234V50.756C73 47.5161 71.0022 46.1372 68.8673 45.8733H68.8743ZM41.528 47.4176V61.7949H39.9171C38.6931 61.7949 36.6109 61.3658 36.6109 58.4882V50.7209C36.6109 47.8714 38.6684 47.4141 39.9171 47.4141H41.528V47.4176ZM57.1831 71.5815V72.8374H51.9706V70.1533H57.1831V71.5815ZM71.3539 58.5163C71.3539 61.3658 69.2964 61.8231 68.0478 61.8231H66.4791V47.4774H68.09C69.314 47.4774 71.3961 47.9066 71.3961 50.7842L71.3539 58.5199V58.5163Z" fill="#173E33"></path></svg>