<svg xmlns="http://www.w3.org/2000/svg" width="108" height="108" viewBox="0 0 108 108" fill="none"><circle cx="54" cy="54" r="54" fill="#F8F8F8"></circle><path d="M42.7714 73.3637C45.3421 75.9349 49.5297 75.9384 52.104 73.3637L69.2752 56.1896C70.8078 54.6567 71.4917 52.4679 71.0989 50.3316L69.3558 40.8186L72.2773 37.8966C73.624 36.5496 73.624 34.3572 72.2773 33.0102C70.9305 31.6633 68.7386 31.6633 67.3918 33.0102L64.4703 35.9322L54.9588 34.1889C52.8265 33.796 50.638 34.48 49.1019 36.0129L31.9307 53.187C29.3564 55.7617 29.3564 59.9465 31.9307 62.5212L42.7714 73.3637ZM63.4743 44.0948C63.4532 44.6385 63.2288 45.1507 62.836 45.547C61.9802 46.4029 60.5984 46.4029 59.7461 45.547C58.8904 44.6911 58.8904 43.3091 59.7461 42.4567C60.1389 42.0638 60.6545 41.8393 61.1981 41.8183C61.37 42.3725 61.6716 42.8531 62.0574 43.2389C62.4642 43.6458 62.9763 43.9405 63.4778 44.0948H63.4743ZM68.2896 33.9082C69.1419 33.0558 70.5272 33.0558 71.3795 33.9082C72.2317 34.7606 72.2317 36.1462 71.3795 36.9986L66.0415 42.3374C65.1963 43.1828 63.811 43.1968 62.9517 42.3374C62.1065 41.4885 62.096 40.103 62.9517 39.2471C63.8601 38.3386 67.1673 35.0307 68.2896 33.9082ZM32.8285 54.085L49.9997 36.9109C51.2412 35.6691 53.0123 35.1219 54.7309 35.4376L63.3831 37.0231L62.0574 38.3491C61.4822 38.9244 61.1139 39.689 61.0543 40.5555C60.2301 40.6151 59.441 40.9659 58.8518 41.5552C57.5015 42.9057 57.5015 45.091 58.8518 46.4415C60.2021 47.792 62.387 47.792 63.7373 46.4415C64.33 45.8487 64.6807 45.0595 64.7368 44.2351C65.54 44.179 66.3291 43.8458 66.9429 43.2354L68.2686 41.9095L69.8539 50.5632C70.1695 52.2855 69.6189 54.0534 68.3808 55.2952L51.2097 72.4692C49.1299 74.5493 45.749 74.5493 43.6727 72.4692L32.832 61.6267C30.7523 59.5466 30.7523 56.1651 32.832 54.0885L32.8285 54.085Z" fill="#1A3F35"></path><path d="M52.4372 48.6374C52.1882 48.8865 52.1882 49.2864 52.4372 49.5354L55.755 52.8538C56.004 53.1028 56.4039 53.1028 56.6529 52.8538C56.9019 52.6047 56.9019 52.2048 56.6529 51.9558L53.3351 48.6374C53.0861 48.3884 52.6863 48.3884 52.4372 48.6374Z" fill="#1A3F35"></path><path d="M51.9883 45.3471C52.2127 45.8873 52.8265 46.1433 53.3701 45.9188C53.9102 45.6943 54.1662 45.077 53.9417 44.5368C53.6892 43.9229 52.9352 43.6914 52.3776 44.0632C51.9672 44.3368 51.7919 44.87 51.9883 45.3471Z" fill="#1A3F35"></path><path d="M40.5794 61.9038L53.2965 56.7053C53.6191 56.572 53.777 56.2037 53.6437 55.8775C53.5104 55.5548 53.1422 55.3969 52.816 55.5302L40.099 60.7287C39.7763 60.862 39.6185 61.2303 39.7517 61.5566C39.885 61.8828 40.2568 62.0371 40.5794 61.9038Z" fill="#1A3F35"></path><path d="M49.172 55.2601C50.4837 53.9482 50.6029 51.9347 49.442 50.7701C48.2812 49.6055 46.2646 49.7283 44.9529 51.0402C43.6412 52.3521 43.5219 54.3656 44.6828 55.5302C45.8753 56.7228 47.8919 56.5369 49.172 55.2601ZM45.8507 51.9382C46.6012 51.1875 47.8252 50.9525 48.5442 51.6681C49.2141 52.3381 49.0913 53.5448 48.2742 54.3621C47.457 55.1794 46.247 55.2987 45.5806 54.6322C44.9108 53.9622 45.0335 52.7555 45.8507 51.9382Z" fill="#1A3F35"></path><path d="M43.9077 62.2441C42.596 63.556 42.4768 65.5694 43.6377 66.734C44.8336 67.9302 46.8502 67.7408 48.1268 66.4639C49.4385 65.152 49.5578 63.1386 48.3969 61.974C47.236 60.8094 45.2194 60.9322 43.9077 62.2441ZM47.229 65.5659C46.4118 66.3832 45.2018 66.5025 44.5355 65.836C43.8656 65.1661 43.9884 63.9594 44.8055 63.1421C45.5561 62.3914 46.7801 62.1564 47.499 62.872C48.1689 63.5419 48.0462 64.7486 47.229 65.5659Z" fill="#1A3F35"></path><path d="M59.371 52.731C59.5954 53.2712 60.2091 53.5272 60.7528 53.3027C61.2929 53.0783 61.5489 52.4609 61.3244 51.9207C61.0719 51.3068 60.3179 51.0753 59.7602 51.4471C59.3499 51.7207 59.1745 52.2539 59.371 52.731Z" fill="#1A3F35"></path></svg>