<svg xmlns="http://www.w3.org/2000/svg" width="108" height="108" viewBox="0 0 108 108" fill="none"><circle cx="54" cy="54" r="54" fill="#F8F8F8"></circle><path d="M68.9578 42.1541L53.8216 34.0891C53.5965 33.9681 53.3277 33.9715 53.106 34.0924L38.3898 42.1575C38.1478 42.2885 38 42.5439 38 42.8195V53.3578C38.0101 62.021 43.1406 69.8542 51.0732 73.3255L53.116 74.216C53.3075 74.3001 53.5259 74.3001 53.7141 74.216L56.0156 73.2214C64.0961 69.8273 69.3543 61.9135 69.3577 53.1461V42.8195C69.3577 42.5406 69.2031 42.2852 68.9578 42.1541ZM67.8491 53.1461C67.8491 61.3086 62.9504 68.6747 55.4243 71.8335H55.4176L53.4117 72.7005L51.6713 71.941C44.2863 68.7117 39.5086 61.4161 39.4985 53.3545V43.2631L53.4688 35.6046L67.8457 43.2664V53.1427L67.8491 53.1461Z" fill="#1A3F35"></path><path d="M47.9116 52.8672C47.6428 52.5513 47.1657 52.5143 46.8499 52.7832C46.534 53.052 46.4971 53.5292 46.7659 53.8451L50.7473 58.506C51.0127 58.8185 51.4798 58.8589 51.7956 58.6001L61.0654 51.0559C61.388 50.7938 61.4384 50.32 61.173 49.994C60.9109 49.6714 60.4372 49.621 60.1113 49.8865L51.4126 56.9636L47.9116 52.8605V52.8672Z" fill="#1A3F35"></path></svg>