<svg xmlns="http://www.w3.org/2000/svg" width="540" height="260" viewBox="0 0 540 260" fill="none"><path d="M540 212C540 228.016 527.016 241 511 241L29 241C12.9838 241 1.13507e-06 228.016 2.53526e-06 212L1.85336e-05 29C1.99338e-05 12.9837 12.9838 -2.96855e-07 29 1.10333e-06L511 4.32411e-05C527.016 4.46413e-05 540 12.9838 540 29L540 212Z" fill="black"></path><rect x="540" y="260" width="135" height="85" rx="25" transform="rotate(-180 540 260)" fill="black"></rect><path d="M399.5 241C405 241 406.5 244.333 407.5 246L412.5 236.5L410 236.5C403.667 237.667 394 241 399.5 241Z" fill="black"></path></svg>