<svg xmlns="http://www.w3.org/2000/svg" width="79" height="79" viewBox="0 0 79 79" fill="none"><g clip-path="url(#clip0_160_461)"><path d="M7.34762 7.49869C7.34762 6.81701 7.90031 6.26431 8.58199 6.26431H25.0827C25.7643 6.26431 26.317 6.81701 26.317 7.49869C26.317 8.18037 25.7643 8.73306 25.0827 8.73306H8.58199C7.90031 8.73306 7.34762 8.18037 7.34762 7.49869ZM79 23.4993V55.5008C79 55.9417 78.7647 56.3492 78.3828 56.5697L50.6688 72.5703C50.4778 72.6806 50.2647 72.7357 50.0516 72.7357C49.8385 72.7357 49.6254 72.6806 49.4344 72.5703L22.0067 56.735H1.23438C0.552691 56.735 0 56.1823 0 55.5006C0 54.8189 0.552691 54.2662 1.23438 54.2662H21.1033V40.7342H8.58184C7.90015 40.7342 7.34746 40.1817 7.34746 39.4999C7.34746 38.818 7.90015 38.2655 8.58184 38.2655H21.1032V24.7335H1.23438C0.552691 24.7335 0 24.1808 0 23.4991C0 22.8174 0.552691 22.2647 1.23438 22.2647H22.0069L45.4448 8.73291H34.3567C33.675 8.73291 33.1223 8.18022 33.1223 7.49854C33.1223 6.81685 33.675 6.26416 34.3567 6.26416H50.0514C50.2647 6.26416 50.4842 6.3231 50.6686 6.42957L78.3828 22.4303C78.7647 22.6508 79 23.0583 79 23.4993ZM50.0516 8.92393L42.556 13.2515L67.924 27.756L75.2969 23.4993L50.0516 8.92393ZM57.4123 33.825L32.0444 19.3205L24.8065 23.4993L50.0517 38.0746L57.4123 33.825ZM65.4493 29.1847L40.0814 14.6801L34.5191 17.8915L59.8871 32.396L65.4493 29.1847ZM61.1244 44.2832L66.6927 41.0683V31.3175L61.1244 34.5323V44.2832ZM23.5721 54.7881L48.8174 69.3634V40.2126L23.5721 25.6372V54.7881ZM76.5312 54.7881V25.6372L69.1614 29.8921V41.781C69.1614 42.222 68.9261 42.6295 68.5442 42.85L60.5072 47.4901C60.3162 47.6004 60.1031 47.6555 59.89 47.6555C59.6769 47.6555 59.4639 47.6004 59.2728 47.4901C58.891 47.2696 58.6557 46.8623 58.6557 46.4212V35.9577L51.286 40.2126V69.3634L76.5312 54.7881ZM40.0704 39.367L27.7554 32.2569C27.1649 31.9159 26.4102 32.1183 26.0692 32.7086C25.7284 33.299 25.9307 34.054 26.521 34.3948L38.8361 41.5048C39.0305 41.6171 39.2426 41.6704 39.4522 41.6704C39.8788 41.6704 40.2937 41.4489 40.5224 41.053C40.8631 40.4628 40.6608 39.708 40.0704 39.367ZM33.9131 41.4818L27.7555 37.9266C27.165 37.5857 26.4104 37.7879 26.0694 38.3784C25.7285 38.9688 25.9308 39.7237 26.5212 40.0646L32.6787 43.6196C32.8731 43.7319 33.0853 43.7851 33.2948 43.7851C33.7214 43.7851 34.1363 43.5637 34.365 43.1678C34.7057 42.5775 34.5034 41.8226 33.9131 41.4818Z" fill="#7BAF42"></path></g><defs><clipPath id="clip0_160_461"><rect width="79" height="79" fill="white"></rect></clipPath></defs></svg>