<svg xmlns="http://www.w3.org/2000/svg" xmlns:xlink="http://www.w3.org/1999/xlink" width="512" height="512" x="0" y="0" viewBox="0 0 48 48" style="enable-background:new 0 0 512 512" xml:space="preserve" class=""><g><path d="M46 17c0-6.3-4.21-13-12-13a13.521 13.521 0 0 0-10 5.09A12.089 12.089 0 0 0 14 4C6.21 4 2 10.7 2 17v.36c0 3.39-.16 13.7 21.49 26.5a.998.998 0 0 0 1 0C46.16 31.06 46 20.75 46 17.36zM24 41.84C13.72 35.69 8.72 30.26 6.29 26H14a.999.999 0 0 0 .71-.29l4.3-4.3V34a1 1 0 0 0 .79 1h.2a1 1 0 0 0 .91-.59L27 20.7V31a1 1 0 0 0 1.76.64L33.47 26h8.25c-2.44 4.26-7.44 9.69-17.72 15.84zM42.72 24H33a1 1 0 0 0-.77.36L29 28.24V16a1 1 0 0 0-1.91-.41L21 29.3V19a1 1 0 0 0-1.7-.71L13.59 24H5.28A14.996 14.996 0 0 1 4 17.39V17C4 11.67 7.5 6 14 6a10.002 10.002 0 0 1 9.09 5.43c.035.072.213.57.91.57a1 1 0 0 0 .89-.55C26.75 7.73 31.42 6 34 6c6.5 0 10 5.67 10 11v.39A14.996 14.996 0 0 1 42.72 24z" fill="#173e33" opacity="1" data-original="#000000" class=""></path><path d="M14 9c-3.69 0-8 2.62-8 10a1 1 0 0 0 2 0c0-7.43 4.59-8 6-8a1 1 0 0 0 0-2z" fill="#173e33" opacity="1" data-original="#000000" class=""></path></g></svg>