<svg xmlns="http://www.w3.org/2000/svg" xmlns:xlink="http://www.w3.org/1999/xlink" width="512" height="512" x="0" y="0" viewBox="0 0 512 512" style="enable-background:new 0 0 512 512" xml:space="preserve" class=""><g><path d="M224.464 89.849c12.702 0 23.175 4.336 30.996 9.684a.95.95 0 0 0 1.079 0c7.821-5.348 18.294-9.684 30.996-9.684 26.523 0 47.303 22.576 47.303 51.394 0 18.459-9.301 54.119-71.594 85.631-2.271 1.159-4.758 1.731-7.245 1.731s-4.974-.572-7.245-1.731c-62.293-31.512-71.594-67.172-71.594-85.631.001-28.818 20.781-51.394 47.304-51.394zM434.032 78.321c5.521 4.822 11.666 9.428 18.466 13.543 4.637 2.806 7.425 7.868 7.482 13.289.292 28.245-2.004 117.136-37.917 208.502" style="stroke-width:15;stroke-linecap:round;stroke-linejoin:round;stroke-miterlimit:10;" fill="none" stroke="#173e33" stroke-width="15" stroke-linecap="round" stroke-linejoin="round" stroke-miterlimit="10" data-original="#000000" class="" opacity="1"></path><path d="M90.196 314.311c-36.16-91.596-38.468-180.846-38.175-209.158.056-5.421 2.844-10.483 7.482-13.289 30.684-18.569 48.048-47.146 54.877-60.436a15.776 15.776 0 0 1 11.912-8.416l98.163-13.373a233.668 233.668 0 0 1 63.089 0l98.163 13.373a15.778 15.778 0 0 1 11.912 8.416c2.706 5.265 7.065 12.93 13.252 21.422M156.243 426.927c-21.487-25.451-38.572-52.992-52.15-80.946M407.36 347.102c-28.652 58.557-72.757 115.205-140.552 154.496a21.574 21.574 0 0 1-21.616 0c-24.315-14.092-45.582-30.416-64.182-48.26" style="stroke-width:15;stroke-linecap:round;stroke-linejoin:round;stroke-miterlimit:10;" fill="none" stroke="#173e33" stroke-width="15" stroke-linecap="round" stroke-linejoin="round" stroke-miterlimit="10" data-original="#000000" class="" opacity="1"></path><path d="M122.553 314.025c-34.391-80.686-39.892-162.052-40.492-197.61-.035-2.056.922-4.013 2.599-5.202 24.98-17.717 41.406-40.08 51.033-56.357a7.398 7.398 0 0 1 5.369-3.578l87.442-11.913c9.08-1.237 18.331-1.864 27.495-1.864s18.415.627 27.496 1.864l87.441 11.913a7.401 7.401 0 0 1 5.369 3.579c9.626 16.278 26.05 38.639 51.033 56.357 1.677 1.189 2.634 3.147 2.599 5.203-.601 35.663-6.134 117.411-40.801 198.334M373.608 347.058c-25.769 47.98-63.222 93.399-117.608 126.085-54.129-32.532-91.485-77.676-117.242-125.405" style="stroke-width:15;stroke-linecap:round;stroke-linejoin:round;stroke-miterlimit:10;" fill="none" stroke="#173e33" stroke-width="15" stroke-linecap="round" stroke-linejoin="round" stroke-miterlimit="10" data-original="#000000" class="" opacity="1"></path><path d="M83 345.333h73.357a15.003 15.003 0 0 0 13.479-8.417l19.736-40.406 52.949 108.406a15.002 15.002 0 0 0 26.958 0l52.95-108.407 19.736 40.407a15.002 15.002 0 0 0 13.479 8.417H429c8.284 0 15-6.716 15-15s-6.716-15-15-15h-63.989l-29.104-59.584a15.002 15.002 0 0 0-26.958 0L256 364.156 203.051 255.75a15.002 15.002 0 0 0-26.958 0l-29.104 59.584H83c-8.284 0-15 6.716-15 15s6.716 14.999 15 14.999z" style="stroke-width:15;stroke-linecap:round;stroke-linejoin:round;stroke-miterlimit:10;" fill="none" stroke="#173e33" stroke-width="15" stroke-linecap="round" stroke-linejoin="round" stroke-miterlimit="10" data-original="#000000" class="" opacity="1"></path></g></svg>