<svg width="44" height="44" viewBox="0 0 44 44" fill="none" xmlns="http://www.w3.org/2000/svg">
<path d="M12.7714 41.3637C15.3421 43.9349 19.5297 43.9384 22.104 41.3637L39.2752 24.1896C40.8078 22.6567 41.4917 20.4679 41.0989 18.3316L39.3558 8.81855L42.2773 5.89657C43.624 4.54959 43.624 2.35723 42.2773 1.01024C40.9305 -0.336747 38.7386 -0.336747 37.3918 1.01024L34.4703 3.93222L24.9588 2.18885C22.8265 1.79598 20.638 2.48 19.1019 4.0129L1.9307 21.187C-0.643568 23.7617 -0.643568 27.9465 1.9307 30.5212L12.7714 41.3637ZM33.4743 12.0948C33.4532 12.6385 33.2288 13.1507 32.836 13.547C31.9802 14.4029 30.5984 14.4029 29.7461 13.547C28.8904 12.6911 28.8904 11.3091 29.7461 10.4567C30.1389 10.0638 30.6545 9.83932 31.1981 9.81827C31.37 10.3725 31.6716 10.8531 32.0574 11.2389C32.4642 11.6458 32.9763 11.9405 33.4778 12.0948H33.4743ZM38.2896 1.90823C39.1419 1.05584 40.5272 1.05584 41.3795 1.90823C42.2317 2.76062 42.2317 4.14619 41.3795 4.99858L36.0415 10.3374C35.1963 11.1828 33.811 11.1968 32.9517 10.3374C32.1065 9.48854 32.096 8.10297 32.9517 7.24707C33.8601 6.33855 37.1673 3.03072 38.2896 1.90823ZM2.82852 22.085L19.9997 4.91089C21.2412 3.66914 23.0123 3.12192 24.7308 3.43762L33.3831 5.02314L32.0574 6.34908C31.4822 6.92435 31.1139 7.68905 31.0543 8.55547C30.2301 8.6151 29.441 8.96588 28.8518 9.55519C27.5015 10.9057 27.5015 13.091 28.8518 14.4415C30.2021 15.792 32.387 15.792 33.7373 14.4415C34.33 13.8487 34.6807 13.0595 34.7368 12.2351C35.54 12.179 36.3291 11.8458 36.9429 11.2354L38.2686 9.90947L39.8539 18.5632C40.1695 20.2855 39.6188 22.0534 38.3808 23.2952L21.2097 40.4692C19.1299 42.5493 15.749 42.5493 13.6727 40.4692L2.83203 29.6267C0.752272 27.5466 0.752272 24.1651 2.83203 22.0885L2.82852 22.085Z" fill="white"/>
<path d="M22.4372 16.6375C22.1882 16.8865 22.1882 17.2864 22.4372 17.5355L25.755 20.8538C26.004 21.1029 26.4039 21.1029 26.6529 20.8538C26.9019 20.6048 26.9019 20.2049 26.6529 19.9558L23.3351 16.6375C23.0861 16.3884 22.6863 16.3884 22.4372 16.6375Z" fill="white"/>
<path d="M21.9883 13.3471C22.2127 13.8873 22.8265 14.1433 23.3701 13.9188C23.9102 13.6943 24.1662 13.077 23.9417 12.5368C23.6892 11.9229 22.9352 11.6914 22.3776 12.0632C21.9672 12.3368 21.7919 12.87 21.9883 13.3471Z" fill="white"/>
<path d="M10.5792 29.9037L23.2962 24.7052C23.6189 24.5719 23.7767 24.2036 23.6434 23.8773C23.5102 23.5546 23.1419 23.3968 22.8158 23.5301L10.0987 28.7286C9.77605 28.8619 9.61823 29.2302 9.7515 29.5564C9.88478 29.8827 10.2565 30.037 10.5792 29.9037Z" fill="white"/>
<path d="M19.1719 23.2601C20.4835 21.9482 20.6028 19.9348 19.4419 18.7702C18.281 17.6056 16.2644 17.7284 14.9527 19.0403C13.6411 20.3522 13.5218 22.3656 14.6827 23.5302C15.8751 24.7229 17.8917 24.537 19.1719 23.2601ZM15.8506 19.9383C16.6011 19.1876 17.8251 18.9526 18.5441 19.6682C19.214 20.3382 19.0912 21.5448 18.274 22.3621C17.4569 23.1795 16.2469 23.2987 15.5805 22.6322C14.9106 21.9623 15.0334 20.7556 15.8506 19.9383Z" fill="white"/>
<path d="M13.9078 30.2441C12.5961 31.556 12.4769 33.5695 13.6378 34.7341C14.8337 35.9302 16.8503 35.7408 18.127 34.464C19.4386 33.1521 19.5579 31.1386 18.397 29.974C17.2361 28.8095 15.2195 28.9322 13.9078 30.2441ZM17.2291 33.566C16.412 34.3833 15.202 34.5026 14.5356 33.8361C13.8657 33.1661 13.9885 31.9594 14.8057 31.1421C15.5562 30.3915 16.7802 30.1564 17.4992 30.872C18.169 31.542 18.0463 32.7487 17.2291 33.566Z" fill="white"/>
<path d="M29.3711 20.7309C29.5955 21.2711 30.2093 21.5271 30.7529 21.3026C31.293 21.0781 31.549 20.4608 31.3246 19.9206C31.072 19.3067 30.318 19.0752 29.7604 19.447C29.35 19.7206 29.1747 20.2538 29.3711 20.7309Z" fill="white"/>
</svg>
