<svg xmlns="http://www.w3.org/2000/svg" width="108" height="108" viewBox="0 0 108 108" fill="none"><circle cx="54" cy="54" r="54" fill="#F8F8F8"></circle><path d="M58.776 57.768C58.776 58.4887 58.5997 59.1787 58.247 59.838C57.8943 60.482 57.3653 61.0187 56.66 61.448C55.9547 61.8773 55.096 62.115 54.084 62.161V64.001H53.072V62.138C51.7073 62.0153 50.6033 61.5707 49.76 60.804C48.9167 60.022 48.4643 59.056 48.403 57.906H50.128C50.1893 58.596 50.4653 59.2247 50.956 59.792C51.462 60.344 52.1673 60.6813 53.072 60.804V54.433C52.0447 54.157 51.2167 53.881 50.588 53.605C49.9747 53.329 49.4533 52.9073 49.024 52.34C48.5947 51.7573 48.38 50.983 48.38 50.017C48.38 48.8057 48.8017 47.809 49.645 47.027C50.4883 46.2297 51.6307 45.8003 53.072 45.739V43.807H54.084V45.762C55.3567 45.8847 56.3763 46.2987 57.143 47.004C57.9097 47.7093 58.362 48.591 58.5 49.649H56.798C56.706 49.0817 56.4223 48.5527 55.947 48.062C55.487 47.5713 54.866 47.2647 54.084 47.142V53.283C55.0807 53.5437 55.8933 53.8197 56.522 54.111C57.166 54.387 57.7027 54.8163 58.132 55.399C58.5613 55.9817 58.776 56.7713 58.776 57.768ZM50.013 49.948C50.013 50.8067 50.2737 51.4583 50.795 51.903C51.3317 52.3323 52.0907 52.6927 53.072 52.984V47.073C52.152 47.119 51.4083 47.3873 50.841 47.878C50.289 48.3687 50.013 49.0587 50.013 49.948ZM54.084 60.85C55.0653 60.7887 55.8243 60.482 56.361 59.93C56.8977 59.3627 57.166 58.665 57.166 57.837C57.166 56.963 56.8977 56.3037 56.361 55.859C55.8397 55.4143 55.0807 55.0387 54.084 54.732V60.85Z" fill="#173E33"></path><path d="M54.4958 78C68.0245 78 78.9917 67.031 78.9917 53.5C78.9917 39.969 68.0245 29 54.4958 29C40.9672 29 30 39.969 30 53.5C30 67.031 40.9672 78 54.4958 78Z" stroke="#173E33" stroke-miterlimit="10"></path></svg>