<svg xmlns="http://www.w3.org/2000/svg" xmlns:xlink="http://www.w3.org/1999/xlink" width="512" height="512" x="0" y="0" viewBox="0 0 64 64" style="enable-background:new 0 0 512 512" xml:space="preserve" class=""><g><path d="M11.493 11.139a1 1 0 0 0-.472.654c-.071.338-6.861 33.963 20.631 44.146a.99.99 0 0 0 .696 0C59.84 45.756 53.05 12.132 52.979 11.793a1 1 0 0 0-1.273-.749c-.125.037-12.514 3.734-18.999-2.751a.999.999 0 0 0-1.414 0c-6.487 6.485-18.875 2.79-18.999 2.751a.995.995 0 0 0-.801.095zm1.302 2.11c3.254.791 12.949 2.53 19.205-2.883 6.257 5.413 15.951 3.674 19.205 2.883.393 2.486 1.181 9.104-.076 16.391C49.048 41.707 42.613 49.878 32 53.932 21.387 49.878 14.952 41.707 12.871 29.64c-1.257-7.287-.469-13.905-.076-16.391z" fill="#173e33" opacity="1" data-original="#000000" class=""></path><path d="M20.109 24.941 27 29.535v6.382l-1.986 11.918A1 1 0 0 0 26.001 49h4a1 1 0 0 0 .986-.835l1.014-6.082 1.014 6.082c.08.482.497.835.986.835h4a1.003 1.003 0 0 0 .987-1.165l-1.986-11.918v-6.382l6.891-4.594a3.004 3.004 0 0 0 .832-4.16l-2.891-4.336a.997.997 0 0 0-1.148-.394l-3 1a1.002 1.002 0 0 0-.578 1.396l1.553 3.105-2.895 1.447h-.32a3.959 3.959 0 0 0 .556-2v-2c0-2.206-1.794-4-4-4s-4 1.794-4 4v2c0 .732.212 1.409.556 2h-.32l-2.895-1.447 1.553-3.105a1.002 1.002 0 0 0-.578-1.396l-3-1a.999.999 0 0 0-1.148.394l-2.891 4.336a3.004 3.004 0 0 0 .832 4.16zM30 21v-2c0-1.103.897-2 2-2s2 .897 2 2v2c0 1.103-.897 2-2 2s-2-.897-2-2zm-9.059.891 2.467-3.7 1.182.394-1.484 2.969a1 1 0 0 0 .447 1.342l4 2c.139.069.292.105.447.105h8c.155 0 .309-.036.447-.105l4-2a1 1 0 0 0 .447-1.342l-1.484-2.969 1.182-.394 2.467 3.7a1.001 1.001 0 0 1-.277 1.387l-7.336 4.891a1.001 1.001 0 0 0-.445.832v7c0 .055.005.11.014.165l1.806 10.835h-1.973l-1.86-11.165a.999.999 0 0 0-1.972 0l-1.86 11.165h-1.973l1.806-10.835c.009-.055.014-.109.014-.165v-7c0-.334-.167-.646-.445-.832l-7.336-4.891a1.001 1.001 0 0 1-.277-1.387zM22.081 8.394a.999.999 0 1 0 1.837-.789L20.919.606a1 1 0 0 0-1.837.788l3 6.999zM40.607 8.918a.997.997 0 0 0 1.312-.524l3-7a1 1 0 1 0-1.837-.788l-3 7a1 1 0 0 0 .525 1.313zM8.919 40.606a1 1 0 0 0-1.312-.525l-7 2.999a.999.999 0 1 0 .788 1.837l7-2.999a.999.999 0 0 0 .525-1.313zM.607 20.919l7 3a.998.998 0 0 0 1.313-.524 1 1 0 0 0-.525-1.313l-7-3a1 1 0 1 0-.787 1.838zM41.919 55.607a.999.999 0 1 0-1.837.788l3 6.999a.999.999 0 1 0 1.837-.789l-3-6.999zM23.393 55.081a.999.999 0 0 0-1.312.525l-3 6.999a1 1 0 0 0 1.837.789l3-6.999a1 1 0 0 0-.525-1.313zM62.606 19.082l-7 2.999a.999.999 0 1 0 .788 1.837l7-2.999a.999.999 0 1 0-.787-1.838zM63.393 43.081l-7-3a1 1 0 0 0-.787 1.838l7 3a.998.998 0 0 0 1.313-.524 1 1 0 0 0-.525-1.313zM32 7a1 1 0 0 0 1-1V2a1 1 0 1 0-2 0v4a1 1 0 0 0 1 1zM2 31a1 1 0 1 0 0 2h4a1 1 0 1 0 0-2zM32 57a1 1 0 0 0-1 1v4a1 1 0 1 0 2 0v-4a1 1 0 0 0-1-1zM62 33a1 1 0 1 0 0-2h-4a1 1 0 1 0 0 2zM1 7h1.142c.094.363.238.704.425 1.019l-.809.809a.999.999 0 1 0 1.414 1.414l.809-.809c.315.186.656.33 1.019.425V11a1 1 0 1 0 2 0V9.858a3.915 3.915 0 0 0 1.019-.425l.809.809a.997.997 0 0 0 1.414 0 .999.999 0 0 0 0-1.414l-.809-.809A4 4 0 0 0 9.858 7H11a1 1 0 1 0 0-2H9.858a3.915 3.915 0 0 0-.425-1.019l.809-.809a.999.999 0 1 0-1.414-1.414l-.809.809A3.985 3.985 0 0 0 7 2.142V1a1 1 0 1 0-2 0v1.142a3.915 3.915 0 0 0-1.019.425l-.809-.809a.999.999 0 1 0-1.414 1.414l.809.809A4 4 0 0 0 2.142 5H1a1 1 0 1 0 0 2zm5-3c1.103 0 2 .897 2 2s-.897 2-2 2-2-.897-2-2 .897-2 2-2zM53 7h1.142c.094.363.238.704.425 1.019l-.809.809a.999.999 0 1 0 1.414 1.414l.809-.809c.315.186.656.33 1.019.425V11a1 1 0 1 0 2 0V9.858a3.915 3.915 0 0 0 1.019-.425l.809.809a.997.997 0 0 0 1.414 0 .999.999 0 0 0 0-1.414l-.809-.809A4 4 0 0 0 61.858 7H63a1 1 0 1 0 0-2h-1.142a3.915 3.915 0 0 0-.425-1.019l.809-.809a.999.999 0 1 0-1.414-1.414l-.809.809A3.985 3.985 0 0 0 59 2.142V1a1 1 0 1 0-2 0v1.142a3.915 3.915 0 0 0-1.019.425l-.809-.809a.999.999 0 1 0-1.414 1.414l.809.809A4 4 0 0 0 54.142 5H53a1 1 0 1 0 0 2zm5-3c1.103 0 2 .897 2 2s-.897 2-2 2-2-.897-2-2 .897-2 2-2zM14 53h-1.142a3.915 3.915 0 0 0-.425-1.019l.809-.809a.999.999 0 1 0-1.414-1.414l-.809.809A3.985 3.985 0 0 0 10 50.142V49a1 1 0 1 0-2 0v1.142a3.915 3.915 0 0 0-1.019.425l-.809-.809a.999.999 0 1 0-1.414 1.414l.809.809A4 4 0 0 0 5.142 53H4a1 1 0 1 0 0 2h1.142c.094.363.238.704.425 1.019l-.809.809a.999.999 0 1 0 1.414 1.414l.809-.809c.315.186.656.33 1.019.425V59a1 1 0 1 0 2 0v-1.142a3.915 3.915 0 0 0 1.019-.425l.809.809a.997.997 0 0 0 1.414 0 .999.999 0 0 0 0-1.414l-.809-.809A4 4 0 0 0 12.858 55H14a1 1 0 1 0 0-2zm-5 3c-1.103 0-2-.897-2-2s.897-2 2-2 2 .897 2 2-.897 2-2 2zM60 53h-1.142a3.915 3.915 0 0 0-.425-1.019l.809-.809a.999.999 0 1 0-1.414-1.414l-.809.809A3.985 3.985 0 0 0 56 50.142V49a1 1 0 1 0-2 0v1.142a3.915 3.915 0 0 0-1.019.425l-.809-.809a.999.999 0 1 0-1.414 1.414l.809.809A4 4 0 0 0 51.142 53H50a1 1 0 1 0 0 2h1.142c.094.363.238.704.425 1.019l-.809.809a.999.999 0 1 0 1.414 1.414l.809-.809c.315.186.656.33 1.019.425V59a1 1 0 1 0 2 0v-1.142a3.915 3.915 0 0 0 1.019-.425l.809.809a.997.997 0 0 0 1.414 0 .999.999 0 0 0 0-1.414l-.809-.809A4 4 0 0 0 58.858 55H60a1 1 0 1 0 0-2zm-5 3c-1.103 0-2-.897-2-2s.897-2 2-2 2 .897 2 2-.897 2-2 2z" fill="#173e33" opacity="1" data-original="#000000" class=""></path></g></svg>