<svg xmlns="http://www.w3.org/2000/svg" xmlns:xlink="http://www.w3.org/1999/xlink" width="512" height="512" x="0" y="0" viewBox="0 0 512 512" style="enable-background:new 0 0 512 512" xml:space="preserve" class=""><g><path d="M222.247 131.75h171.238M314.821 275.607v83.296a5.385 5.385 0 0 1-5.385 5.385h-36.081c-4.003 0-6.606-4.212-4.816-7.793l7.145-14.29a53.852 53.852 0 0 0 5.685-24.081v-56.377" style="stroke-width:15;stroke-linecap:round;stroke-linejoin:round;stroke-miterlimit:10;" fill="none" stroke="#173e33" stroke-width="15" stroke-linecap="round" stroke-linejoin="round" stroke-miterlimit="10" data-original="#000000" opacity="1" class=""></path><path d="M314.821 260.469v15.139c0 22.958 24.853 37.307 44.735 25.828h0a166.71 166.71 0 0 0 47.224-40.731c19.578-24.664 40.948-47.851 63.215-70.117l24.415-24.415c3.438-3.438 1.003-9.316-3.859-9.316h-5.069c-10.018 0-19.783-2.854-28.402-7.961a122.694 122.694 0 0 0-63.437-17.142c-43.673.314-78.823 36.027-78.823 79.702v14.014M53.378 23.031V7.5M53.378 85.156V69.625M76.675 46.328h15.531M14.55 46.328h15.531M162.097 217.172v-15.531M162.097 279.297v-15.531M185.394 240.469h15.531M123.269 240.469H138.8M170.49 373.55a250.383 250.383 0 0 1 16.4-7.192c19.339-7.671 37.872-17.414 54.855-29.088 24.849-17.081 39.624-45.368 39.624-75.521v-70.876c0-32.652-26.47-59.122-59.122-59.122h0c-88.975 0-161.103 72.128-161.103 161.103v132.662c0 14.775 18.196 21.797 28.121 10.851l6.487-7.154c13.159-14.513 28.002-27.285 44.15-38.139" style="stroke-width:15;stroke-linecap:round;stroke-linejoin:round;stroke-miterlimit:10;" fill="none" stroke="#173e33" stroke-width="15" stroke-linecap="round" stroke-linejoin="round" stroke-miterlimit="10" data-original="#000000" opacity="1" class=""></path><path d="M125.974 401.164c14.399 15.83 36.525 28.652 52.255 27.158 3.004-.285 5.774-1.093 8.213-2.5 2.439-1.408 4.523-3.404 6.272-5.863 8.931-12.556 9.114-37.186 3.08-57.305" style="stroke-width:15;stroke-linecap:round;stroke-linejoin:round;stroke-miterlimit:10;" fill="none" stroke="#173e33" stroke-width="15" stroke-linecap="round" stroke-linejoin="round" stroke-miterlimit="10" data-original="#000000" opacity="1" class=""></path><path d="M100.124 424.517c29.387 28.418 66.185 49.219 107.214 59.221a2.512 2.512 0 0 1 1.843 3.089l-3.038 11.336c-.968 3.612 2.204 6.98 5.868 6.231l84.867-17.367c4.061-.831 5.431-5.942 2.329-8.693l-64.813-57.473c-2.798-2.481-7.229-1.15-8.197 2.462l-3.573 13.334a2.518 2.518 0 0 1-3.004 1.805 186.153 186.153 0 0 1-34.604-11.903M96.427 91.137C54.525 133.483 28.65 191.72 28.65 256c0 43.498 11.848 84.228 32.493 119.14" style="stroke-width:15;stroke-linecap:round;stroke-linejoin:round;stroke-miterlimit:10;" fill="none" stroke="#173e33" stroke-width="15" stroke-linecap="round" stroke-linejoin="round" stroke-miterlimit="10" data-original="#000000" opacity="1" class=""></path><path d="M79.275 218.53c12.719-62.72 56.742-114.078 115.053-137.057a5.02 5.02 0 0 0 2.874-6.389l-12.601-34.621a5.043 5.043 0 0 0-6.572-2.967 233.971 233.971 0 0 0-54.764 30.328M475.022 155.818c-29.86-63.07-87.04-110.681-156.26-127.556a2.512 2.512 0 0 1-1.843-3.089l3.038-11.336c.968-3.612-2.204-6.98-5.868-6.231l-84.867 17.367c-4.061.831-5.431 5.942-2.329 8.693l64.813 57.473c2.798 2.481 7.229 1.15 8.197-2.462l3.573-13.334a2.518 2.518 0 0 1 3.004-1.805c38.342 9.092 72.128 29.957 97.33 58.565M446.127 215.243A188.199 188.199 0 0 1 450.569 256c0 79.305-49.231 147.111-118.798 174.526a5.02 5.02 0 0 0-2.874 6.389l12.601 34.621a5.043 5.043 0 0 0 6.572 2.967C435.496 440.462 497.45 355.466 497.45 256c0-27.782-4.834-54.434-13.705-79.163" style="stroke-width:15;stroke-linecap:round;stroke-linejoin:round;stroke-miterlimit:10;" fill="none" stroke="#173e33" stroke-width="15" stroke-linecap="round" stroke-linejoin="round" stroke-miterlimit="10" data-original="#000000" opacity="1" class=""></path></g></svg>