<svg xmlns="http://www.w3.org/2000/svg" xmlns:xlink="http://www.w3.org/1999/xlink" width="512" height="512" x="0" y="0" viewBox="0 0 496 496" style="enable-background:new 0 0 512 512" xml:space="preserve" class=""><g><path d="M244.2 143.7c0-51.1-41.6-92.7-92.7-92.7s-92.7 41.6-92.7 92.7c0 51.3 40.7 92.1 92.6 92.7h.1c51.1 0 92.7-41.6 92.7-92.7zm-92.6 77.2c-43.3-.6-77.2-34.5-77.2-77.2 0-42.6 34.6-77.2 77.2-77.2s77.2 34.6 77.2 77.2c-.1 42.5-34.7 77.2-77.2 77.2z" fill="#173e33" opacity="1" data-original="#000000" class=""></path><path d="M232.8 330.3H184v-46.6c64.8-15 111.2-72.8 111.2-140C295.3 64.5 230.8 0 151.5 0S7.8 64.5 7.8 143.7c0 66.4 45.8 124.1 109.7 139.6v47.1H68.8c-21.6 0-32.9 16.7-32.9 33.3 0 16.5 11.3 33.3 32.9 33.3h48.7v66.2c0 21.6 16.7 32.9 33.3 32.9 16.5 0 33.3-11.3 33.3-32.9V397h48.7c21.6 0 32.9-16.7 32.9-33.3s-11.3-33.4-32.9-33.4zm0 51.1h-56.5c-4.3 0-7.7 3.5-7.7 7.7v74c0 13.7-11.2 17.4-17.8 17.4s-17.8-3.7-17.8-17.4v-74c0-4.3-3.5-7.7-7.7-7.7H68.8c-13.7 0-17.4-11.2-17.4-17.8s3.7-17.8 17.4-17.8h56.5c4.3 0 7.7-3.5 7.7-7.7v-61c0-3.7-2.6-6.9-6.3-7.6-59.9-11.8-103.4-64.7-103.4-125.8C23.3 73 80.8 15.5 151.5 15.5S279.8 73 279.8 143.7c0 61.9-44.1 114.9-104.9 126.1-3.7.7-6.3 3.9-6.3 7.6v60.7c0 4.3 3.5 7.7 7.7 7.7h56.5c13.7 0 17.4 11.2 17.4 17.8s-3.7 17.8-17.4 17.8z" fill="#173e33" opacity="1" data-original="#000000" class=""></path><path d="M138.5 126.6c-5.4 0-9.7 4.3-9.7 9.7V148c0 5.4 4.3 9.7 9.7 9.7s9.7-4.3 9.7-9.7v-11.7c-.1-5.4-4.4-9.7-9.7-9.7zM164.6 126.6c-5.4 0-9.7 4.3-9.7 9.7V148c0 5.4 4.3 9.7 9.7 9.7s9.7-4.3 9.7-9.7v-11.7c0-5.4-4.3-9.7-9.7-9.7zM453.7 295l34.5-62.4-32.2-53.5 30.2-54.6-18.4-30.6-2.2-3.6c4.8-5.1 7.7-12.1 7.5-19.7-.3-15.5-13.1-27.8-28.6-27.6-15.5.3-27.8 13.1-27.6 28.6.3 15.3 12.9 27.6 28.1 27.6h.5c2.3 0 4.6-.4 6.8-1l15.9 26.5-25.9 46.8-26.7.5-26.7.5-15.8-26.5c5-5.4 7.7-12.3 7.5-19.6-.1-7.5-3.2-14.5-8.6-19.7s-12.5-8-20-7.9c-15.5.3-27.9 13.1-27.6 28.6.3 15.3 12.9 27.6 28.1 27.6h.5c2.3 0 4.6-.4 6.8-.9l15.9 26.5-25.9 46.8-62.4 1.1-17.2 31.2-2 3.7c-2.2-.5-4.5-.8-6.8-.7-15.5.3-27.8 13.1-27.6 28.6.3 15.3 12.9 27.6 28.1 27.6h.5c15.5-.3 27.9-13.1 27.6-28.6-.1-7.6-3.3-14.4-8.2-19.3l2.1-3.7 12.9-23.4 53.4-.9 27.6 45.8-15 27c-2.2-.5-4.5-.7-6.8-.7-7.5.1-14.5 3.2-19.7 8.6s-8 12.5-7.9 20 3.2 14.5 8.6 19.7c5.3 5.1 12.2 7.9 19.5 7.9h.5c15.5-.3 27.9-13.1 27.6-28.6-.1-7.3-3-14.2-8.2-19.4l15-27.1zm-8.3-211.2c-6.9.1-12.7-5.4-12.8-12.4-.1-6.9 5.4-12.7 12.4-12.8 6.9-.1 12.7 5.4 12.8 12.4.1 6.9-5.5 12.7-12.4 12.8zM262.1 303.3c-7 .1-12.7-5.4-12.8-12.4-.1-6.9 5.4-12.7 12.4-12.8s12.7 5.4 12.8 12.4c.1 6.9-5.4 12.6-12.4 12.8zm90.7-163.8c-7 .1-12.7-5.4-12.8-12.4-.1-6.9 5.4-12.7 12.4-12.8 3.4-.1 6.5 1.2 9 3.5 2.4 2.3 3.8 5.5 3.8 8.8.1 3.4-1.2 6.5-3.5 9-2.4 2.5-5.6 3.8-8.9 3.9zm36.5 48.5 26.7-.5 26.7-.5 27.5 45.8-25.9 46.7-53.4 1-27.6-45.8zm-32.6 167.6c-3.4.1-6.5-1.2-9-3.5-2.4-2.3-3.8-5.5-3.8-8.8-.1-6.9 5.4-12.7 12.4-12.8h.2c3.3 0 6.4 1.2 8.8 3.5s3.8 5.5 3.8 8.9c.1 6.8-5.5 12.6-12.4 12.7z" fill="#173e33" opacity="1" data-original="#000000" class=""></path></g></svg>