<svg xmlns="http://www.w3.org/2000/svg" xmlns:xlink="http://www.w3.org/1999/xlink" width="512" height="512" x="0" y="0" viewBox="0 0 512 512" style="enable-background:new 0 0 512 512" xml:space="preserve" class=""><g><path d="M327.952 192.26c-37.724-4.465-71.868-20.604-98.725-44.704a110.949 110.949 0 0 0-37.3 17.003M176.85 299.573c16.495 26.343 45.777 43.861 79.15 43.861h0c33.341 0 62.598-17.485 79.102-43.785" style="stroke-width:20;stroke-linecap:round;stroke-linejoin:round;stroke-miterlimit:10;" fill="none" stroke="#173e33" stroke-width="20" stroke-linecap="round" stroke-linejoin="round" stroke-miterlimit="10" data-original="#000000" opacity="1" class=""></path><path d="M364.46 151.326C354.33 100.685 309.621 62.53 256 62.53c-53.448 0-98.042 37.908-108.361 88.305M211.84 339.077h0c0 17.194-12.525 31.824-29.513 34.476l-34.636 5.405M300.16 339.077h0c0 17.194 12.525 31.824 29.513 34.476l34.573 5.395" style="stroke-width:20;stroke-linecap:round;stroke-linejoin:round;stroke-miterlimit:10;" fill="none" stroke="#173e33" stroke-width="20" stroke-linecap="round" stroke-linejoin="round" stroke-miterlimit="10" data-original="#000000" opacity="1" class=""></path><path d="M316.444 368.597c-14.865 16.562-36.438 26.981-60.444 26.981s-45.579-10.418-60.444-26.98M293.777 241.482l-9.476-4.244M218.223 241.482l9.476-4.244M478.53 392.37l16.266 28.366c15.803 27.558 4.654 62.736-24.137 76.162h0c-28.791 13.425-62.905-.646-73.858-30.466l-68.736-187.133 67.561-31.504 38.133 66.501" style="stroke-width:20;stroke-linecap:round;stroke-linejoin:round;stroke-miterlimit:10;" fill="none" stroke="#173e33" stroke-width="20" stroke-linecap="round" stroke-linejoin="round" stroke-miterlimit="10" data-original="#000000" opacity="1" class=""></path><path d="m382.758 253.795 4.814-55.023a48.45 48.45 0 0 0-14.702-39.164l-11.812-11.347c-11.862-11.395-31.39-7.899-38.563 6.903h0a24.218 24.218 0 0 0-.871 19.091l12.684 33.688-2.029 23.192a87.702 87.702 0 0 0 7.067 42.904v0l43.412-20.244zM41.341 496.898h0c28.791 13.425 62.905-.646 73.858-30.466l68.736-187.133-67.561-31.504-99.17 172.942c-15.803 27.557-4.654 62.736 24.137 76.161z" style="stroke-width:20;stroke-linecap:round;stroke-linejoin:round;stroke-miterlimit:10;" fill="none" stroke="#173e33" stroke-width="20" stroke-linecap="round" stroke-linejoin="round" stroke-miterlimit="10" data-original="#000000" opacity="1" class=""></path><path d="m129.242 253.795-4.814-55.023a48.45 48.45 0 0 1 14.702-39.164l11.812-11.347c11.862-11.395 31.39-7.899 38.563 6.903h0a24.218 24.218 0 0 1 .871 19.091l-12.684 33.688 2.029 23.192a87.702 87.702 0 0 1-7.067 42.904h0l-43.412-20.244zM271.917 287.228c-8.793-8.793-23.05-8.793-31.843 0M502 106.005l-49.621 23.636 31.298 18.07-51.449 29.294M432.228 10l-37.261 40.404 35.775 5.124-36.852 46.338M10 106.005l49.621 23.636-31.298 18.07 51.449 29.294M79.772 10l37.261 40.404-35.775 5.124 36.852 46.338M456.252 353.27h0M63.279 501.991h385.442" style="stroke-width:20;stroke-linecap:round;stroke-linejoin:round;stroke-miterlimit:10;" fill="none" stroke="#173e33" stroke-width="20" stroke-linecap="round" stroke-linejoin="round" stroke-miterlimit="10" data-original="#000000" opacity="1" class=""></path></g></svg>