<svg xmlns="http://www.w3.org/2000/svg" xmlns:xlink="http://www.w3.org/1999/xlink" width="512" height="512" x="0" y="0" viewBox="0 0 512 512" style="enable-background:new 0 0 512 512" xml:space="preserve" class=""><g><path d="M10 256c0 124.771 101.146 225.918 225.918 225.918h55.225" style="stroke-width:20;stroke-linecap:round;stroke-linejoin:round;stroke-miterlimit:10;" fill="none" stroke="#173e33" stroke-width="20" stroke-linecap="round" stroke-linejoin="round" stroke-miterlimit="10" data-original="#000000" opacity="1" class=""></path><path d="m271.061 461.837 20.082 20.081L271.061 502M502 256c0-124.771-101.147-225.918-225.918-225.918h-55.225" style="stroke-width:20;stroke-linecap:round;stroke-linejoin:round;stroke-miterlimit:10;" fill="none" stroke="#173e33" stroke-width="20" stroke-linecap="round" stroke-linejoin="round" stroke-miterlimit="10" data-original="#000000" opacity="1" class=""></path><path d="m240.939 50.163-20.082-20.081L240.939 10M124.65 124.651c-66.619 66.62-66.619 174.633 0 241.252l29.487 29.487" style="stroke-width:20;stroke-linecap:round;stroke-linejoin:round;stroke-miterlimit:10;" fill="none" stroke="#173e33" stroke-width="20" stroke-linecap="round" stroke-linejoin="round" stroke-miterlimit="10" data-original="#000000" opacity="1" class=""></path><path d="M154.138 361.429v33.962h-33.689M404.829 412.234c66.62-66.619 66.62-174.633 0-241.252l-29.486-29.486" style="stroke-width:20;stroke-linecap:round;stroke-linejoin:round;stroke-miterlimit:10;" fill="none" stroke="#173e33" stroke-width="20" stroke-linecap="round" stroke-linejoin="round" stroke-miterlimit="10" data-original="#000000" opacity="1" class=""></path><path d="M375.343 175.457v-33.961h33.688M153.875 282.267A105.398 105.398 0 0 1 150.571 256c0-34.892 16.948-65.828 43.065-85.006M229.732 153.875A105.412 105.412 0 0 1 256 150.571c58.227 0 105.429 47.202 105.429 105.429 0 9.067-1.145 17.872-3.304 26.267M341.006 318.364c-12.742 17.34-30.645 30.634-51.449 37.602M222.443 355.966c-20.805-6.968-38.707-20.262-51.449-37.592" style="stroke-width:20;stroke-linecap:round;stroke-linejoin:round;stroke-miterlimit:10;" fill="none" stroke="#173e33" stroke-width="20" stroke-linecap="round" stroke-linejoin="round" stroke-miterlimit="10" data-original="#000000" opacity="1" class=""></path><ellipse cx="210.816" cy="160.612" rx="20.082" ry="20.081" style="stroke-width:20;stroke-linecap:round;stroke-linejoin:round;stroke-miterlimit:10;" transform="rotate(-.81 210.882 161.132)" fill="none" stroke="#173e33" stroke-width="20" stroke-linecap="round" stroke-linejoin="round" stroke-miterlimit="10" data-original="#000000" opacity="1" class=""></ellipse><circle cx="160.612" cy="301.184" r="20.082" style="stroke-width:20;stroke-linecap:round;stroke-linejoin:round;stroke-miterlimit:10;" fill="none" stroke="#173e33" stroke-width="20" stroke-linecap="round" stroke-linejoin="round" stroke-miterlimit="10" data-original="#000000" opacity="1" class=""></circle><circle cx="351.388" cy="301.184" r="20.082" style="stroke-width:20;stroke-linecap:round;stroke-linejoin:round;stroke-miterlimit:10;" fill="none" stroke="#173e33" stroke-width="20" stroke-linecap="round" stroke-linejoin="round" stroke-miterlimit="10" data-original="#000000" opacity="1" class=""></circle><path d="M291.143 366.449c0-19.409-15.733-35.143-35.143-35.143s-35.143 15.734-35.143 35.143S236.59 401.592 256 401.592s35.143-15.734 35.143-35.143z" style="stroke-width:20;stroke-linecap:round;stroke-linejoin:round;stroke-miterlimit:10;" fill="none" stroke="#173e33" stroke-width="20" stroke-linecap="round" stroke-linejoin="round" stroke-miterlimit="10" data-original="#000000" opacity="1" class=""></path><circle cx="256" cy="256" r="20.082" style="stroke-width:20;stroke-linecap:round;stroke-linejoin:round;stroke-miterlimit:10;" fill="none" stroke="#173e33" stroke-width="20" stroke-linecap="round" stroke-linejoin="round" stroke-miterlimit="10" data-original="#000000" opacity="1" class=""></circle><path d="M313.855 167.852c10.311-4.77 17.45-15.212 17.45-27.32 0-16.639-13.484-30.123-30.122-30.123s-30.122 13.484-30.122 30.123c0 4.056.803 7.932 2.269 11.466" style="stroke-width:20;stroke-linecap:round;stroke-linejoin:round;stroke-miterlimit:10;" fill="none" stroke="#173e33" stroke-width="20" stroke-linecap="round" stroke-linejoin="round" stroke-miterlimit="10" data-original="#000000" opacity="1" class=""></path></g></svg>