<svg xmlns="http://www.w3.org/2000/svg" width="517" height="298" viewBox="0 0 517 298" fill="none"><g clip-path="url(#clip0_78_423)"><path fill-rule="evenodd" clip-rule="evenodd" d="M223.874 70.656L227.233 66.5123L224.132 62.171L226.357 57.3203L222.275 53.8907L223.227 48.6369L218.422 46.3318L218.039 41.006L212.81 39.9703L211.12 34.9092L205.8 35.2083L202.903 30.7265L197.825 32.341L193.908 28.7226L189.389 31.5518L184.696 29.0225L181.021 32.8886L175.848 31.6087L173.248 36.2693L167.919 36.3175L166.559 41.4785L161.408 42.851L161.371 48.191L156.726 50.8054L158.014 55.9843L154.162 59.674L156.696 64.369L153.881 68.9011L157.502 72.8179L155.901 77.9099L160.38 80.8009L160.092 86.132L165.15 87.8151L166.195 93.0502L171.51 93.4221L173.823 98.2301L179.064 97.2658L182.498 101.348L187.335 99.1098L191.672 102.208L195.802 98.8327L200.775 100.752L203.939 96.4562L209.231 97.078L211.227 92.1275L216.506 91.4107L217.212 86.1191L222.148 84.1102L221.519 78.8092L225.799 75.6314L223.874 70.656Z" fill="#5EA550"></path><path d="M142.841 84.7217L152.398 83.6867L153.168 85.2147L146.667 92.3059L145.954 90.893L151.43 85.1345L143.541 86.113L142.841 84.7238L142.841 84.7217Z" fill="#5EA550"></path><path d="M141.651 76.3848L144.239 75.856L143.615 72.8058L144.794 72.5643L145.418 75.6144L148.121 75.0616L147.419 71.631L148.598 71.3894L149.597 76.2687L140.768 78.0729L139.769 73.1936L140.948 72.952L141.65 76.3827L141.651 76.3848Z" fill="#5EA550"></path><path d="M148.39 61.5574L144.686 63.4369L144.627 64.563L148.222 64.7574L148.145 66.2339L139.156 65.7511L139.319 62.6431C139.356 61.9516 139.507 61.374 139.773 60.9075C140.039 60.441 140.383 60.1012 140.799 59.8852C141.215 59.6692 141.676 59.5747 142.176 59.602C142.763 59.634 143.286 59.8333 143.747 60.1992C144.208 60.5652 144.506 61.1072 144.642 61.8254L148.483 59.7978L148.391 61.5595L148.39 61.5574ZM143.45 64.5004L143.535 62.8689C143.565 62.3154 143.448 61.8918 143.187 61.5973C142.927 61.3028 142.562 61.1424 142.097 61.1174C141.631 61.0924 141.261 61.2114 140.982 61.4737C140.705 61.7353 140.55 62.1482 140.521 62.7088L140.435 64.3403L143.448 64.5033L143.45 64.5004Z" fill="#5EA550"></path><path d="M141.292 50.9247L149.97 53.3272L149.579 54.7513L140.902 52.3508L141.293 50.9268L141.292 50.9247Z" fill="#5EA550"></path><path d="M146.14 39.4202L147.213 39.9684L145.482 43.3771L147.849 44.5847L149.199 41.9273L150.273 42.4747L148.923 45.1321L152.431 46.9226L151.762 48.2385L143.739 44.1455L146.14 39.4202Z" fill="#5EA550"></path><path d="M150.824 32.806L157.872 38.4182L156.955 39.5751L149.907 33.9629L150.826 32.8053L150.824 32.806Z" fill="#5EA550"></path><path d="M157.62 27.4916L159.32 29.5185L161.7 27.519L162.474 28.4429L160.094 30.4425L161.868 32.5594L164.546 30.3098L165.32 31.2338L161.513 34.4333L155.713 27.5162L159.521 24.3167L160.295 25.2407L157.617 27.4902L157.62 27.4916Z" fill="#5EA550"></path><path d="M170.982 18.3885C171.791 18.4201 172.517 18.664 173.162 19.1235C173.808 19.583 174.321 20.2294 174.705 21.0613C175.089 21.8932 175.244 22.6973 175.171 23.475C175.098 24.2528 174.809 24.9552 174.303 25.5822C173.799 26.2113 173.112 26.7248 172.243 27.127L169.575 28.3602L165.796 20.1754L168.464 18.9423C169.333 18.5401 170.172 18.3548 170.981 18.3864L170.982 18.3885ZM173.578 24.2401C173.849 23.4872 173.767 22.6386 173.329 21.6974C172.891 20.7469 172.294 20.1232 171.537 19.8241C170.78 19.5249 169.925 19.5974 168.971 20.0393L167.642 20.654L170.409 26.649L171.738 26.0342C172.694 25.5916 173.307 24.9952 173.576 24.2409L173.578 24.2401Z" fill="#5EA550"></path><path d="M188.33 15.9596C188.762 15.2751 189.338 14.7466 190.055 14.3768C190.772 14.007 191.548 13.8391 192.385 13.8681C193.344 13.9013 194.186 14.1657 194.918 14.6633C195.648 15.1595 196.168 15.8461 196.475 16.7218L194.701 16.6613C194.485 16.1779 194.173 15.8114 193.766 15.5641C193.359 15.3167 192.886 15.183 192.341 15.1643C191.747 15.1445 191.21 15.2586 190.736 15.5117C190.261 15.7627 189.884 16.1357 189.603 16.6265C189.322 17.1194 189.172 17.697 189.149 18.3621C189.126 19.0272 189.239 19.6157 189.486 20.124C189.732 20.6344 190.084 21.0341 190.541 21.3209C190.998 21.6098 191.524 21.7631 192.119 21.7851C192.663 21.8037 193.146 21.7039 193.567 21.4865C193.987 21.269 194.324 20.9243 194.573 20.4567L196.347 20.5172C195.981 21.3701 195.418 22.0151 194.655 22.4558C193.893 22.8964 193.034 23.1004 192.075 23.0672C191.229 23.0391 190.463 22.8143 189.778 22.3972C189.093 21.9801 188.556 21.4133 188.169 20.701C187.782 19.9866 187.604 19.1885 187.633 18.3076C187.662 17.4267 187.894 16.6426 188.327 15.9582L188.33 15.9596Z" fill="#5EA550"></path><path d="M205.471 16.1134L203.6 21.5428C203.379 22.1881 203.38 22.7333 203.606 23.1776C203.831 23.6219 204.248 23.949 204.85 24.1583C205.463 24.3709 205.994 24.3728 206.445 24.1633C206.897 23.9537 207.233 23.5263 207.455 22.881L209.325 17.4516L210.721 17.9353L208.858 23.3405C208.619 24.0349 208.266 24.5701 207.798 24.949C207.33 25.3257 206.802 25.5458 206.215 25.6064C205.625 25.6678 205.026 25.5928 204.415 25.3795C203.805 25.1661 203.288 24.8557 202.867 24.4445C202.447 24.0333 202.172 23.5375 202.046 22.9514C201.917 22.3681 201.973 21.7293 202.213 21.0349L204.075 15.6296L205.471 16.1134Z" fill="#5EA550"></path><path d="M213.63 29.4803C213.355 29.0298 213.214 28.5648 213.211 28.0868C213.205 27.6096 213.353 27.1587 213.648 26.7341L214.944 27.6396C214.752 27.9782 214.693 28.3286 214.773 28.6892C214.854 29.0499 215.096 29.3723 215.498 29.6544C215.916 29.9454 216.312 30.0734 216.687 30.0357C217.062 29.9979 217.361 29.8186 217.582 29.4986C217.754 29.2502 217.824 28.9979 217.787 28.7405C217.75 28.483 217.654 28.2372 217.497 28.001C217.34 27.7647 217.105 27.4634 216.791 27.0977C216.4 26.6337 216.097 26.231 215.888 25.8897C215.678 25.549 215.563 25.1649 215.543 24.7403C215.523 24.3156 215.674 23.8731 215.994 23.4113C216.291 22.986 216.657 22.6882 217.09 22.5186C217.524 22.3482 217.992 22.311 218.493 22.4089C218.994 22.5068 219.495 22.7305 219.998 23.0816C220.712 23.5809 221.174 24.1716 221.382 24.8475C221.589 25.5263 221.501 26.1933 221.116 26.8514L219.778 25.9155C219.945 25.6311 219.977 25.3116 219.877 24.9576C219.778 24.6016 219.535 24.2912 219.152 24.0257C218.806 23.783 218.459 23.6731 218.117 23.6969C217.775 23.7206 217.488 23.8983 217.255 24.2319C217.096 24.4589 217.037 24.6933 217.073 24.9345C217.109 25.1778 217.205 25.4144 217.358 25.6472C217.511 25.88 217.737 26.1751 218.036 26.534C218.432 27.0107 218.735 27.4232 218.951 27.7737C219.164 28.1228 219.282 28.5153 219.303 28.9441C219.323 29.3758 219.172 29.8233 218.847 30.2916C218.584 30.6668 218.237 30.9508 217.803 31.1424C217.369 31.3339 216.889 31.3969 216.363 31.3291C215.837 31.2614 215.311 31.0444 214.787 30.6768C214.291 30.3306 213.905 29.9308 213.63 29.4803Z" fill="#5EA550"></path><path d="M231.736 34.4497L230.819 35.2318L229.264 33.4052L223.331 38.4639L222.375 37.3388L228.307 32.2801L226.743 30.4424L227.66 29.6603L231.736 34.4497Z" fill="#5EA550"></path><path d="M228.762 45.7035C228.831 44.899 229.101 44.1651 229.575 43.5019C230.048 42.8387 230.686 42.326 231.489 41.9638C232.291 41.6017 233.095 41.4644 233.902 41.5512C234.708 41.6388 235.435 41.9222 236.082 42.405C236.728 42.8857 237.226 43.5091 237.57 44.2745C237.919 45.0476 238.058 45.8357 237.987 46.6389C237.919 47.4434 237.649 48.1745 237.179 48.832C236.708 49.4895 236.071 49.9993 235.269 50.3614C234.466 50.7236 233.661 50.8637 232.853 50.7819C232.045 50.7 231.318 50.4187 230.67 49.9387C230.021 49.4567 229.525 48.8304 229.178 48.0566C228.834 47.2912 228.696 46.5073 228.764 45.7027L228.762 45.7035ZM231.372 48.8175C231.812 49.1314 232.316 49.3042 232.885 49.338C233.453 49.3718 234.04 49.2518 234.647 48.978C235.253 48.7042 235.73 48.3457 236.079 47.8996C236.428 47.4536 236.627 46.9636 236.681 46.4273C236.735 45.891 236.637 45.3518 236.392 44.8074C236.147 44.263 235.806 43.8334 235.372 43.5172C234.938 43.201 234.436 43.0254 233.871 42.9901C233.307 42.9549 232.722 43.0741 232.115 43.3479C231.509 43.6218 231.03 43.981 230.68 44.4299C230.326 44.8774 230.125 45.371 230.068 45.908C230.012 46.4451 230.106 46.9858 230.351 47.5302C230.596 48.0746 230.939 48.5034 231.377 48.8181L231.372 48.8175Z" fill="#5EA550"></path><path d="M242.201 65.3653L233.238 66.1875L233.101 64.7155L239.238 64.1528L232.845 61.9784L232.75 60.959L238.634 57.6442L232.496 58.207L232.359 56.735L241.322 55.9129L241.47 57.5021L234.733 61.2986L242.051 63.791L242.196 65.3668L242.201 65.3653Z" fill="#5EA550"></path><path d="M240.001 74.3886L237.408 73.8681L236.802 76.9196L235.622 76.6824L236.228 73.6309L233.524 73.0884L232.841 76.5202L231.661 76.283L232.634 71.4013L241.473 73.1752L240.5 78.0569L239.32 77.8197L240.005 74.3871L240.001 74.3886Z" fill="#5EA550"></path><path d="M228.038 85.3996L232.181 85.1175L232.675 84.1032L229.439 82.52L230.084 81.1911L238.175 85.1463L236.813 87.9432C236.51 88.5652 236.147 89.0377 235.719 89.3621C235.292 89.6864 234.844 89.8662 234.376 89.9014C233.907 89.9366 233.448 89.8429 232.996 89.6232C232.469 89.3638 232.065 88.9778 231.782 88.4609C231.5 87.9441 231.438 87.3278 231.594 86.6158L227.266 86.9796L228.036 85.3953L228.038 85.3996ZM233.735 84.6226L233.02 86.0898C232.779 86.5856 232.72 87.0215 232.846 87.3969C232.971 87.7702 233.244 88.0602 233.662 88.2657C234.08 88.4711 234.469 88.5066 234.827 88.373C235.185 88.2394 235.487 87.9215 235.732 87.4172L236.447 85.9499L233.735 84.6226Z" fill="#5EA550"></path><path d="M173.675 65.4229C175.823 65.7873 180.928 68.1008 184.162 74.44C187.234 69.0736 196.073 57.9178 206.853 56.2253" stroke="white" stroke-width="3" stroke-linecap="round"></path></g><path d="M32.58 89.2C29.62 93.2 25.46 95.2 20.1 95.2C14.74 95.2 10.56 93.2 7.56 89.2C4.6 85.16 3.12 80.24 3.12 74.44C3.12 68.64 4.64 63.76 7.68 59.8C10.72 55.8 14.86 53.8 20.1 53.8C25.34 53.8 29.48 55.8 32.52 59.8C35.56 63.76 37.08 68.64 37.08 74.44C37.08 80.24 35.58 85.16 32.58 89.2ZM13.44 91C14.12 92.04 15.02 92.82 16.14 93.34C17.26 93.82 18.56 94.06 20.04 94.06C21.56 94.06 22.86 93.8 23.94 93.28C25.06 92.76 25.96 91.98 26.64 90.94C27.32 89.9 27.88 88.82 28.32 87.7C28.76 86.54 29.08 85.12 29.28 83.44C29.48 81.76 29.6 80.28 29.64 79C29.72 77.72 29.76 76.16 29.76 74.32C29.76 72.48 29.72 70.94 29.64 69.7C29.6 68.42 29.48 66.96 29.28 65.32C29.08 63.64 28.76 62.26 28.32 61.18C27.88 60.06 27.32 59 26.64 58C25.96 56.96 25.06 56.2 23.94 55.72C22.86 55.2 21.58 54.94 20.1 54.94C18.62 54.94 17.32 55.2 16.2 55.72C15.12 56.2 14.24 56.96 13.56 58C12.88 59 12.32 60.06 11.88 61.18C11.44 62.26 11.12 63.64 10.92 65.32C10.6 67.96 10.44 70.62 10.44 73.3C10.44 75.94 10.46 77.88 10.5 79.12C10.54 80.32 10.64 81.8 10.8 83.56C11 85.28 11.32 86.68 11.76 87.76C12.2 88.84 12.76 89.92 13.44 91ZM64.5553 67.3H60.2953V66.4H61.5553C64.6753 66.4 67.4553 66.14 69.8953 65.62V93.1H73.8553V94H64.4353V88.78H64.0753C63.3953 90.7 62.2353 92.26 60.5953 93.46C58.9953 94.62 57.1953 95.2 55.1953 95.2C51.7953 95.2 49.4953 94.18 48.2953 92.14C47.1353 90.1 46.5553 87.02 46.5553 82.9V67.3H42.2953V66.4H43.5553C46.6753 66.4 49.4553 66.14 51.8953 65.62V82.06C51.8953 85.82 52.0353 88.18 52.3153 89.14C52.5953 90.1 52.8953 90.92 53.2153 91.6C53.8553 92.88 54.9353 93.52 56.4553 93.52C58.0153 93.52 59.3553 93.06 60.4753 92.14C61.6353 91.22 62.4953 89.96 63.0553 88.36C64.0553 85.52 64.5553 82.12 64.5553 78.16V67.3ZM99.8733 69.76C99.8733 68.72 99.4933 67.86 98.7333 67.18C97.9733 66.5 96.9533 66.16 95.6733 66.16C94.3933 66.16 93.1933 66.68 92.0733 67.72C90.9933 68.72 90.1533 70.04 89.5533 71.68C88.4733 74.84 87.9333 78.26 87.9333 81.94V93.1H92.3133V94H78.6333V93.1H82.5933V67.3H78.3333V66.4H79.5933C82.7933 66.4 85.6133 66.14 88.0533 65.62V71.86H88.4133C90.0933 67.42 92.6133 65.2 95.9733 65.2C97.4533 65.2 98.6533 65.68 99.5733 66.64C100.533 67.56 101.013 68.72 101.013 70.12C101.013 71.48 100.613 72.58 99.8133 73.42C99.0533 74.22 98.1333 74.62 97.0533 74.62C96.0133 74.62 95.1533 74.32 94.4733 73.72C93.8333 73.08 93.5133 72.32 93.5133 71.44C93.5133 70.52 93.7733 69.76 94.2933 69.16C94.8133 68.52 95.5133 68.2 96.3933 68.2C97.7533 68.2 98.5533 68.72 98.7933 69.76C98.8733 70.12 99.0733 70.3 99.3933 70.3C99.7133 70.3 99.8733 70.12 99.8733 69.76ZM10.44 120.72C10.44 121.76 10.44 123.34 10.44 125.46C10.44 127.58 10.56 129.62 10.8 131.58C11.04 133.54 11.48 135.52 12.12 137.52C12.76 139.52 13.78 141.08 15.18 142.2C16.58 143.28 18.32 143.82 20.4 143.82C23.76 143.82 26.38 142.7 28.26 140.46C30.14 138.22 31.22 135.26 31.5 131.58L32.58 131.7C32.3 135.82 31 139.1 28.68 141.54C26.36 143.98 23.24 145.2 19.32 145.2C14.2 145.2 10.22 143.18 7.38 139.14C4.54 135.06 3.12 130.18 3.12 124.5C3.12 118.78 4.6 113.9 7.56 109.86C10.56 105.82 14.58 103.8 19.62 103.8C21.42 103.8 23.3 104.14 25.26 104.82C27.22 105.5 28.38 105.84 28.74 105.84C29.9 105.84 30.58 105.16 30.78 103.8H31.5V117.84H30.54C29.94 113.88 28.86 110.74 27.3 108.42C25.74 106.1 23.36 104.94 20.16 104.94C16.36 104.94 13.76 106.56 12.36 109.8C11.2 112.56 10.56 116.2 10.44 120.72ZM59.1061 117.3H54.8461V116.4H56.1061C59.2261 116.4 62.0061 116.14 64.4461 115.62V143.1H68.4061V144H58.9861V138.78H58.6261C57.9461 140.7 56.7861 142.26 55.1461 143.46C53.5461 144.62 51.7461 145.2 49.7461 145.2C46.3461 145.2 44.0461 144.18 42.8461 142.14C41.6861 140.1 41.1061 137.02 41.1061 132.9V117.3H36.8461V116.4H38.1061C41.2261 116.4 44.0061 116.14 46.4461 115.62V132.06C46.4461 135.82 46.5861 138.18 46.8661 139.14C47.1461 140.1 47.4461 140.92 47.7661 141.6C48.4061 142.88 49.4861 143.52 51.0061 143.52C52.5661 143.52 53.9061 143.06 55.0261 142.14C56.1861 141.22 57.0461 139.96 57.6061 138.36C58.6061 135.52 59.1061 132.12 59.1061 128.16V117.3ZM85.6641 115.2C86.5841 115.2 87.4641 115.26 88.3041 115.38C85.7441 113.22 84.4641 110.48 84.4641 107.16C84.4641 103.84 85.8041 101.22 88.4841 99.3C91.2041 97.38 94.2041 96.42 97.4841 96.42C100.684 96.42 103.584 97.36 106.184 99.24C107.584 100.2 108.704 101.62 109.544 103.5C110.384 105.38 110.804 107.58 110.804 110.1V116.4H118.064V117.3H110.804V137.7C110.804 141.06 111.024 142.92 111.464 143.28C111.704 143.48 112.024 143.58 112.424 143.58C113.424 143.58 114.384 143 115.304 141.84C116.264 140.68 117.044 139.42 117.644 138.06L118.604 138.42C117.844 140.34 116.824 141.96 115.544 143.28C114.264 144.56 112.784 145.2 111.104 145.2C108.744 145.2 107.204 144.5 106.484 143.1C105.804 141.66 105.464 139.42 105.464 136.38V117.3H101.204V116.4H102.284C106.764 116.4 109.004 113.36 109.004 107.28C109.004 104.24 107.844 101.86 105.524 100.14C103.204 98.38 100.504 97.5 97.4241 97.5C94.3841 97.5 91.6441 98.38 89.2041 100.14C86.7641 101.86 85.5441 104.06 85.5441 106.74C85.5441 110.86 87.5841 114.06 91.6641 116.34C93.7441 117.42 94.7841 119.1 94.7841 121.38C94.7841 122.58 94.3841 123.6 93.5841 124.44C92.8241 125.24 91.9041 125.64 90.8241 125.64C89.7841 125.64 88.9241 125.34 88.2441 124.74C87.6041 124.1 87.2841 123.34 87.2841 122.46C87.2841 121.54 87.5441 120.78 88.0641 120.18C88.5841 119.54 89.2841 119.22 90.1641 119.22C91.5241 119.22 92.3241 119.74 92.5641 120.78C92.6041 121.14 92.7841 121.32 93.1041 121.32C93.4641 121.32 93.6441 121.14 93.6441 120.78C93.6441 119.66 93.0841 118.66 91.9641 117.78C90.8841 116.86 89.2041 116.4 86.9241 116.4C84.6841 116.4 82.8241 116.82 81.3441 117.66C79.9041 118.5 79.1841 119.68 79.1841 121.2C79.1841 122.68 79.7641 123.88 80.9241 124.8C82.0841 125.72 83.4841 126.48 85.1241 127.08C86.7641 127.68 88.4041 128.32 90.0441 129C91.7241 129.64 93.1441 130.58 94.3041 131.82C95.4641 133.06 96.0441 134.56 96.0441 136.32C96.0441 139.32 94.9641 141.56 92.8041 143.04C90.6841 144.48 88.0441 145.2 84.8841 145.2C81.7241 145.2 79.1841 144.64 77.2641 143.52C75.3441 142.4 74.3841 140.7 74.3841 138.42C74.3841 137.22 74.7641 136.22 75.5241 135.42C76.3241 134.58 77.2441 134.16 78.2841 134.16C79.3641 134.16 80.2241 134.48 80.8641 135.12C81.5441 135.72 81.8841 136.48 81.8841 137.4C81.8841 138.28 81.6241 139.04 81.1041 139.68C80.5841 140.28 79.8841 140.58 79.0041 140.58C77.6441 140.58 76.8441 140.06 76.6041 139.02C76.5641 138.66 76.3641 138.48 76.0041 138.48C75.6841 138.48 75.5241 138.66 75.5241 139.02C75.5241 140.22 76.1841 141.36 77.5041 142.44C78.8641 143.48 80.8641 144 83.5041 144C89.3041 144 92.2041 142.12 92.2041 138.36C92.2041 136.04 90.2241 134.16 86.2641 132.72C84.5841 132.12 82.9241 131.5 81.2841 130.86C79.6441 130.18 78.2441 129.22 77.0841 127.98C75.9241 126.74 75.3441 125.24 75.3441 123.48C75.3441 120.92 76.3441 118.9 78.3441 117.42C80.3841 115.94 82.8241 115.2 85.6641 115.2ZM144.928 141C142.608 143.8 139.368 145.2 135.208 145.2C131.048 145.2 127.808 143.8 125.488 141C123.168 138.2 122.008 134.6 122.008 130.2C122.008 125.8 123.168 122.2 125.488 119.4C127.808 116.6 131.048 115.2 135.208 115.2C139.368 115.2 142.608 116.6 144.928 119.4C147.248 122.2 148.408 125.8 148.408 130.2C148.408 134.6 147.248 138.2 144.928 141ZM142.468 134.22C142.548 133.06 142.588 131.72 142.588 130.2C142.588 128.68 142.548 127.34 142.468 126.18C142.388 125.02 142.188 123.78 141.868 122.46C141.588 121.14 141.188 120.06 140.668 119.22C140.188 118.34 139.468 117.62 138.508 117.06C137.588 116.5 136.488 116.22 135.208 116.22C133.928 116.22 132.808 116.5 131.848 117.06C130.928 117.62 130.208 118.34 129.688 119.22C129.208 120.06 128.808 121.14 128.488 122.46C128.208 123.78 128.028 125.02 127.948 126.18C127.868 127.34 127.828 128.68 127.828 130.2C127.828 131.72 127.868 133.06 127.948 134.22C128.028 135.38 128.208 136.62 128.488 137.94C128.808 139.26 129.208 140.36 129.688 141.24C130.208 142.08 130.928 142.78 131.848 143.34C132.808 143.9 133.928 144.18 135.208 144.18C136.488 144.18 137.588 143.9 138.508 143.34C139.468 142.78 140.188 142.08 140.668 141.24C141.188 140.36 141.588 139.26 141.868 137.94C142.188 136.62 142.388 135.38 142.468 134.22ZM167.242 143.1V144H153.982V143.1H157.942V117.3H153.682V116.4H154.942C158.102 116.4 160.922 116.14 163.402 115.62V121.62H163.762C164.442 119.7 165.562 118.16 167.122 117C168.682 115.8 170.462 115.2 172.462 115.2C177.222 115.2 180.042 117.34 180.922 121.62H181.282C181.962 119.7 183.082 118.16 184.642 117C186.202 115.8 187.982 115.2 189.982 115.2C193.422 115.2 195.722 116.2 196.882 118.2C198.042 120.2 198.622 123.3 198.622 127.5V143.1H202.582V144H189.322V143.1H193.282V126.12C193.282 121.56 192.622 118.72 191.302 117.6C190.662 117.12 189.842 116.88 188.842 116.88C183.482 116.88 180.802 122 180.802 132.24V143.1H184.762V144H171.802V143.1H175.762V126.12C175.762 121.56 175.102 118.72 173.782 117.6C173.142 117.12 172.322 116.88 171.322 116.88C165.962 116.88 163.282 122 163.282 132.24V143.1H167.242ZM220.349 115.2C223.349 115.2 225.849 115.84 227.849 117.12C229.889 118.4 230.909 120.32 230.909 122.88C230.909 126.84 228.649 129.28 224.129 130.2C221.849 130.64 219.009 130.86 215.609 130.86H212.789V132.6C212.789 135.84 213.449 138.48 214.769 140.52C216.129 142.52 218.089 143.52 220.649 143.52C223.249 143.52 225.269 142.76 226.709 141.24C228.189 139.72 229.229 137.76 229.829 135.36L230.909 135.48C230.269 138.4 228.969 140.76 227.009 142.56C225.089 144.32 222.649 145.2 219.689 145.2C215.529 145.2 212.369 143.84 210.209 141.12C208.049 138.36 206.969 134.72 206.969 130.2C206.969 125.68 208.129 122.06 210.449 119.34C212.769 116.58 216.069 115.2 220.349 115.2ZM212.789 129.78H214.889C218.129 129.78 220.389 129.46 221.669 128.82C222.989 128.18 223.889 127.4 224.369 126.48C224.849 125.52 225.089 124.18 225.089 122.46C225.089 120.74 224.649 119.28 223.769 118.08C222.929 116.84 221.629 116.22 219.869 116.22C218.109 116.22 216.669 116.86 215.549 118.14C214.469 119.38 213.729 120.84 213.329 122.52C212.969 124.2 212.789 126.06 212.789 128.1V129.78ZM256.963 119.76C256.963 118.72 256.583 117.86 255.823 117.18C255.063 116.5 254.043 116.16 252.763 116.16C251.483 116.16 250.283 116.68 249.163 117.72C248.083 118.72 247.243 120.04 246.643 121.68C245.563 124.84 245.023 128.26 245.023 131.94V143.1H249.403V144H235.723V143.1H239.683V117.3H235.423V116.4H236.683C239.883 116.4 242.703 116.14 245.143 115.62V121.86H245.503C247.183 117.42 249.703 115.2 253.063 115.2C254.543 115.2 255.743 115.68 256.663 116.64C257.623 117.56 258.103 118.72 258.103 120.12C258.103 121.48 257.703 122.58 256.903 123.42C256.143 124.22 255.223 124.62 254.143 124.62C253.103 124.62 252.243 124.32 251.563 123.72C250.923 123.08 250.603 122.32 250.603 121.44C250.603 120.52 250.863 119.76 251.383 119.16C251.903 118.52 252.603 118.2 253.483 118.2C254.843 118.2 255.643 118.72 255.883 119.76C255.963 120.12 256.163 120.3 256.483 120.3C256.803 120.3 256.963 120.12 256.963 119.76ZM272.695 115.2C278.775 115.2 281.815 117.26 281.815 121.38C281.815 122.58 281.415 123.6 280.615 124.44C279.855 125.24 278.935 125.64 277.855 125.64C276.815 125.64 275.955 125.34 275.275 124.74C274.635 124.1 274.315 123.34 274.315 122.46C274.315 121.54 274.575 120.78 275.095 120.18C275.615 119.54 276.315 119.22 277.195 119.22C278.555 119.22 279.355 119.74 279.595 120.78C279.635 121.14 279.815 121.32 280.135 121.32C280.495 121.32 280.675 121.14 280.675 120.78C280.675 119.66 280.115 118.66 278.995 117.78C277.915 116.86 276.235 116.4 273.955 116.4C271.715 116.4 269.855 116.82 268.375 117.66C266.935 118.5 266.215 119.68 266.215 121.2C266.215 122.68 266.795 123.88 267.955 124.8C269.115 125.72 270.515 126.48 272.155 127.08C273.795 127.68 275.435 128.32 277.075 129C278.755 129.64 280.175 130.58 281.335 131.82C282.495 133.06 283.075 134.56 283.075 136.32C283.075 139.32 281.995 141.56 279.835 143.04C277.715 144.48 275.075 145.2 271.915 145.2C268.755 145.2 266.215 144.64 264.295 143.52C262.375 142.4 261.415 140.7 261.415 138.42C261.415 137.22 261.795 136.22 262.555 135.42C263.355 134.58 264.275 134.16 265.315 134.16C266.395 134.16 267.255 134.48 267.895 135.12C268.575 135.72 268.915 136.48 268.915 137.4C268.915 138.28 268.655 139.04 268.135 139.68C267.615 140.28 266.915 140.58 266.035 140.58C264.675 140.58 263.875 140.06 263.635 139.02C263.595 138.66 263.395 138.48 263.035 138.48C262.715 138.48 262.555 138.66 262.555 139.02C262.555 140.22 263.215 141.36 264.535 142.44C265.895 143.48 267.895 144 270.535 144C276.335 144 279.235 142.12 279.235 138.36C279.235 136.04 277.255 134.16 273.295 132.72C271.615 132.12 269.955 131.5 268.315 130.86C266.675 130.18 265.275 129.22 264.115 127.98C262.955 126.74 262.375 125.24 262.375 123.48C262.375 120.92 263.375 118.9 265.375 117.42C267.415 115.94 269.855 115.2 272.695 115.2Z" fill="#121312"></path><path d="M132.709 176.96H128.329V176H143.329V176.96H138.949V193.52C138.189 193.24 137.269 193.1 136.189 193.1C135.109 193.1 133.389 193.44 131.029 194.12C128.709 194.84 126.669 195.2 124.909 195.2C119.789 195.2 115.809 193.18 112.969 189.14C110.129 185.06 108.709 180.18 108.709 174.5C108.709 168.78 110.189 163.9 113.149 159.86C116.149 155.82 120.169 153.8 125.209 153.8C127.009 153.8 129.029 154.14 131.269 154.82C133.509 155.5 134.809 155.84 135.169 155.84C136.329 155.84 137.009 155.16 137.209 153.8H137.929V166.94H136.969C136.369 163.3 135.149 160.4 133.309 158.24C131.469 156.04 128.949 154.94 125.749 154.94C121.949 154.94 119.349 156.56 117.949 159.8C116.789 162.56 116.149 166.2 116.029 170.72C116.029 171.76 116.029 173.34 116.029 175.46C116.029 177.58 116.149 179.62 116.389 181.58C116.629 183.54 117.069 185.52 117.709 187.52C118.349 189.52 119.369 191.08 120.769 192.2C122.169 193.28 123.969 193.82 126.169 193.82C128.369 193.82 130.549 193.36 132.709 192.44V176.96ZM171.237 191C168.917 193.8 165.677 195.2 161.517 195.2C157.357 195.2 154.117 193.8 151.797 191C149.477 188.2 148.317 184.6 148.317 180.2C148.317 175.8 149.477 172.2 151.797 169.4C154.117 166.6 157.357 165.2 161.517 165.2C165.677 165.2 168.917 166.6 171.237 169.4C173.557 172.2 174.717 175.8 174.717 180.2C174.717 184.6 173.557 188.2 171.237 191ZM168.777 184.22C168.857 183.06 168.897 181.72 168.897 180.2C168.897 178.68 168.857 177.34 168.777 176.18C168.697 175.02 168.497 173.78 168.177 172.46C167.897 171.14 167.497 170.06 166.977 169.22C166.497 168.34 165.777 167.62 164.817 167.06C163.897 166.5 162.797 166.22 161.517 166.22C160.237 166.22 159.117 166.5 158.157 167.06C157.237 167.62 156.517 168.34 155.997 169.22C155.517 170.06 155.117 171.14 154.797 172.46C154.517 173.78 154.337 175.02 154.257 176.18C154.177 177.34 154.137 178.68 154.137 180.2C154.137 181.72 154.177 183.06 154.257 184.22C154.337 185.38 154.517 186.62 154.797 187.94C155.117 189.26 155.517 190.36 155.997 191.24C156.517 192.08 157.237 192.78 158.157 193.34C159.117 193.9 160.237 194.18 161.517 194.18C162.797 194.18 163.897 193.9 164.817 193.34C165.777 192.78 166.497 192.08 166.977 191.24C167.497 190.36 167.897 189.26 168.177 187.94C168.497 186.62 168.697 185.38 168.777 184.22ZM189.591 193.1H193.551V194H180.291V193.1H184.251V153.5H179.991V152.6H181.251C184.371 152.6 187.151 152.34 189.591 151.82V193.1ZM227.272 194H217.972V188.54H217.612C216.892 190.58 215.812 192.2 214.372 193.4C212.972 194.6 211.292 195.2 209.332 195.2C205.732 195.2 203.052 193.8 201.292 191C199.572 188.16 198.712 184.58 198.712 180.26C198.712 175.94 199.612 172.36 201.412 169.52C203.212 166.64 205.972 165.2 209.692 165.2C213.412 165.2 216.052 166.84 217.612 170.12H217.972V153.5H213.712V152.6H214.972C218.092 152.6 220.872 152.34 223.312 151.82V193.1H227.272V194ZM218.092 180.26V178.1C218.092 174.98 217.492 172.34 216.292 170.18C215.092 167.98 213.212 166.88 210.652 166.88C207.892 166.88 206.152 168.44 205.432 171.56C204.832 174.08 204.532 176.6 204.532 179.12C204.532 181.64 204.592 183.56 204.712 184.88C204.872 186.2 205.132 187.58 205.492 189.02C205.892 190.42 206.532 191.52 207.412 192.32C208.332 193.12 209.412 193.52 210.652 193.52C211.932 193.52 213.052 193.08 214.012 192.2C215.012 191.28 215.792 190.12 216.352 188.72C217.512 185.88 218.092 183.06 218.092 180.26ZM245.837 165.2C248.837 165.2 251.337 165.84 253.337 167.12C255.377 168.4 256.397 170.32 256.397 172.88C256.397 176.84 254.137 179.28 249.617 180.2C247.337 180.64 244.497 180.86 241.097 180.86H238.277V182.6C238.277 185.84 238.937 188.48 240.257 190.52C241.617 192.52 243.577 193.52 246.137 193.52C248.737 193.52 250.757 192.76 252.197 191.24C253.677 189.72 254.717 187.76 255.317 185.36L256.397 185.48C255.757 188.4 254.457 190.76 252.497 192.56C250.577 194.32 248.137 195.2 245.177 195.2C241.017 195.2 237.857 193.84 235.697 191.12C233.537 188.36 232.457 184.72 232.457 180.2C232.457 175.68 233.617 172.06 235.937 169.34C238.257 166.58 241.557 165.2 245.837 165.2ZM238.277 179.78H240.377C243.617 179.78 245.877 179.46 247.157 178.82C248.477 178.18 249.377 177.4 249.857 176.48C250.337 175.52 250.577 174.18 250.577 172.46C250.577 170.74 250.137 169.28 249.257 168.08C248.417 166.84 247.117 166.22 245.357 166.22C243.597 166.22 242.157 166.86 241.037 168.14C239.957 169.38 239.217 170.84 238.817 172.52C238.457 174.2 238.277 176.06 238.277 178.1V179.78ZM274.351 193.1V194H261.091V193.1H265.051V167.3H260.791V166.4H262.051C265.211 166.4 268.031 166.14 270.511 165.62V171.62H270.871C271.551 169.7 272.691 168.16 274.291 167C275.931 165.8 277.751 165.2 279.751 165.2C283.231 165.2 285.611 166.24 286.891 168.32C288.171 170.36 288.811 173.42 288.811 177.5V193.1H292.771V194H279.511V193.1H283.471V178.34C283.471 173.82 283.131 170.84 282.451 169.4C282.131 168.76 281.631 168.18 280.951 167.66C280.311 167.14 279.351 166.88 278.071 166.88C276.791 166.88 275.571 167.34 274.411 168.26C273.291 169.18 272.451 170.44 271.891 172.04C270.891 174.88 270.391 178.28 270.391 182.24V193.1H274.351ZM342.848 192.5C344.848 192.5 346.708 190.6 348.428 186.8C350.148 183 351.008 179 351.008 174.8C351.008 169.04 349.448 166.16 346.328 166.16C345.928 166.16 345.728 166.32 345.728 166.64C345.728 166.96 345.908 167.16 346.268 167.24C347.348 167.44 347.888 168.24 347.888 169.64C347.848 170.48 347.528 171.16 346.928 171.68C346.368 172.2 345.608 172.46 344.648 172.46C343.728 172.46 342.948 172.14 342.308 171.5C341.708 170.86 341.408 170.02 341.408 168.98C341.408 167.94 341.828 167.06 342.668 166.34C343.508 165.58 344.528 165.2 345.728 165.2C349.968 165.2 352.088 168.32 352.088 174.56C352.088 179.68 350.968 184.4 348.728 188.72C346.488 193.04 343.848 195.2 340.808 195.2C336.928 195.2 333.968 192.28 331.928 186.44C330.848 189.08 329.528 191.2 327.968 192.8C326.408 194.4 324.748 195.2 322.988 195.2C319.588 195.2 316.888 192.96 314.888 188.48C312.928 184 311.948 178.06 311.948 170.66V167.3H307.688V166.4H308.948C312.108 166.4 314.928 166.14 317.408 165.62V169.28C317.408 174.92 317.948 180.02 319.028 184.58C319.588 186.94 320.388 188.86 321.428 190.34C322.468 191.78 323.608 192.5 324.848 192.5C326.128 192.5 327.328 191.8 328.448 190.4C329.608 188.96 330.588 187.1 331.388 184.82C330.308 180.9 329.768 176.18 329.768 170.66V167.3H325.508V166.4H326.768C329.928 166.4 332.748 166.14 335.228 165.62V169.28C335.228 174.92 335.768 180.02 336.848 184.58C337.408 186.94 338.208 188.86 339.248 190.34C340.288 191.78 341.488 192.5 342.848 192.5ZM381.178 191C378.858 193.8 375.618 195.2 371.458 195.2C367.298 195.2 364.058 193.8 361.738 191C359.418 188.2 358.258 184.6 358.258 180.2C358.258 175.8 359.418 172.2 361.738 169.4C364.058 166.6 367.298 165.2 371.458 165.2C375.618 165.2 378.858 166.6 381.178 169.4C383.498 172.2 384.658 175.8 384.658 180.2C384.658 184.6 383.498 188.2 381.178 191ZM378.718 184.22C378.798 183.06 378.838 181.72 378.838 180.2C378.838 178.68 378.798 177.34 378.718 176.18C378.638 175.02 378.438 173.78 378.118 172.46C377.838 171.14 377.438 170.06 376.918 169.22C376.438 168.34 375.718 167.62 374.758 167.06C373.838 166.5 372.738 166.22 371.458 166.22C370.178 166.22 369.058 166.5 368.098 167.06C367.178 167.62 366.458 168.34 365.938 169.22C365.458 170.06 365.058 171.14 364.738 172.46C364.458 173.78 364.278 175.02 364.198 176.18C364.118 177.34 364.078 178.68 364.078 180.2C364.078 181.72 364.118 183.06 364.198 184.22C364.278 185.38 364.458 186.62 364.738 187.94C365.058 189.26 365.458 190.36 365.938 191.24C366.458 192.08 367.178 192.78 368.098 193.34C369.058 193.9 370.178 194.18 371.458 194.18C372.738 194.18 373.838 193.9 374.758 193.34C375.718 192.78 376.438 192.08 376.918 191.24C377.438 190.36 377.838 189.26 378.118 187.94C378.438 186.62 378.638 185.38 378.718 184.22ZM411.592 169.76C411.592 168.72 411.212 167.86 410.452 167.18C409.692 166.5 408.672 166.16 407.392 166.16C406.112 166.16 404.912 166.68 403.792 167.72C402.712 168.72 401.872 170.04 401.272 171.68C400.192 174.84 399.652 178.26 399.652 181.94V193.1H404.032V194H390.352V193.1H394.312V167.3H390.052V166.4H391.312C394.512 166.4 397.332 166.14 399.772 165.62V171.86H400.132C401.812 167.42 404.332 165.2 407.692 165.2C409.172 165.2 410.372 165.68 411.292 166.64C412.252 167.56 412.732 168.72 412.732 170.12C412.732 171.48 412.332 172.58 411.532 173.42C410.772 174.22 409.852 174.62 408.772 174.62C407.732 174.62 406.872 174.32 406.192 173.72C405.552 173.08 405.232 172.32 405.232 171.44C405.232 170.52 405.492 169.76 406.012 169.16C406.532 168.52 407.232 168.2 408.112 168.2C409.472 168.2 410.272 168.72 410.512 169.76C410.592 170.12 410.792 170.3 411.112 170.3C411.432 170.3 411.592 170.12 411.592 169.76ZM444.244 194H434.944V188.54H434.584C433.864 190.58 432.784 192.2 431.344 193.4C429.944 194.6 428.264 195.2 426.304 195.2C422.704 195.2 420.024 193.8 418.264 191C416.544 188.16 415.684 184.58 415.684 180.26C415.684 175.94 416.584 172.36 418.384 169.52C420.184 166.64 422.944 165.2 426.664 165.2C430.384 165.2 433.024 166.84 434.584 170.12H434.944V153.5H430.684V152.6H431.944C435.064 152.6 437.844 152.34 440.284 151.82V193.1H444.244V194ZM435.064 180.26V178.1C435.064 174.98 434.464 172.34 433.264 170.18C432.064 167.98 430.184 166.88 427.624 166.88C424.864 166.88 423.124 168.44 422.404 171.56C421.804 174.08 421.504 176.6 421.504 179.12C421.504 181.64 421.564 183.56 421.684 184.88C421.844 186.2 422.104 187.58 422.464 189.02C422.864 190.42 423.504 191.52 424.384 192.32C425.304 193.12 426.384 193.52 427.624 193.52C428.904 193.52 430.024 193.08 430.984 192.2C431.984 191.28 432.764 190.12 433.324 188.72C434.484 185.88 435.064 183.06 435.064 180.26ZM461.25 165.2C467.33 165.2 470.37 167.26 470.37 171.38C470.37 172.58 469.97 173.6 469.17 174.44C468.41 175.24 467.49 175.64 466.41 175.64C465.37 175.64 464.51 175.34 463.83 174.74C463.19 174.1 462.87 173.34 462.87 172.46C462.87 171.54 463.13 170.78 463.65 170.18C464.17 169.54 464.87 169.22 465.75 169.22C467.11 169.22 467.91 169.74 468.15 170.78C468.19 171.14 468.37 171.32 468.69 171.32C469.05 171.32 469.23 171.14 469.23 170.78C469.23 169.66 468.67 168.66 467.55 167.78C466.47 166.86 464.79 166.4 462.51 166.4C460.27 166.4 458.41 166.82 456.93 167.66C455.49 168.5 454.77 169.68 454.77 171.2C454.77 172.68 455.35 173.88 456.51 174.8C457.67 175.72 459.07 176.48 460.71 177.08C462.35 177.68 463.99 178.32 465.63 179C467.31 179.64 468.73 180.58 469.89 181.82C471.05 183.06 471.63 184.56 471.63 186.32C471.63 189.32 470.55 191.56 468.39 193.04C466.27 194.48 463.63 195.2 460.47 195.2C457.31 195.2 454.77 194.64 452.85 193.52C450.93 192.4 449.97 190.7 449.97 188.42C449.97 187.22 450.35 186.22 451.11 185.42C451.91 184.58 452.83 184.16 453.87 184.16C454.95 184.16 455.81 184.48 456.45 185.12C457.13 185.72 457.47 186.48 457.47 187.4C457.47 188.28 457.21 189.04 456.69 189.68C456.17 190.28 455.47 190.58 454.59 190.58C453.23 190.58 452.43 190.06 452.19 189.02C452.15 188.66 451.95 188.48 451.59 188.48C451.27 188.48 451.11 188.66 451.11 189.02C451.11 190.22 451.77 191.36 453.09 192.44C454.45 193.48 456.45 194 459.09 194C464.89 194 467.79 192.12 467.79 188.36C467.79 186.04 465.81 184.16 461.85 182.72C460.17 182.12 458.51 181.5 456.87 180.86C455.23 180.18 453.83 179.22 452.67 177.98C451.51 176.74 450.93 175.24 450.93 173.48C450.93 170.92 451.93 168.9 453.93 167.42C455.97 165.94 458.41 165.2 461.25 165.2Z" fill="#5EA550"></path><defs><clipPath id="clip0_78_423"><rect width="102.813" height="88.9892" fill="white" transform="translate(125 34.2864) rotate(-19.4804)"></rect></clipPath></defs></svg>