<svg xmlns="http://www.w3.org/2000/svg" xmlns:xlink="http://www.w3.org/1999/xlink" width="512" height="512" x="0" y="0" viewBox="0 0 510.93 510.93" style="enable-background:new 0 0 512 512" xml:space="preserve" class=""><g><path d="m51.848 285.094 9.886-11.281 33.793 29.614-9.885 11.28zM34.272 337.247l44.848-2.966.99 14.97-44.848 2.965zM59.52 401.511l29.614-33.793 11.28 9.885L70.8 411.396z" fill="#173e33" opacity="1" data-original="#000000" class=""></path><path d="M472.482 469.706c7.246-22.313 5.129-44.723-6.122-64.806-2.481-4.429-5.615-8.635-9.313-12.501l-53.763-56.217-14.275-75.706c1.988-17.119.942-34.535-3.197-51.637l-5.802-23.979 12.138-30.954 34.458 12.894 29.022-70.364.198-.539c6.054-18.608 4.499-38.459-4.378-55.897S427.434 9.624 408.826 3.571C389.691-2.655 368.592-.675 350.94 9l7.21 13.154c14.246-7.81 30.596-9.344 46.036-4.319 14.798 4.814 26.835 15.103 33.895 28.97a59.017 59.017 0 0 1 3.77 9.325L405.799 41.5l-5.829 14.362a22.525 22.525 0 0 1-10.845 11.69c-2.317-7.814-8.08-14.447-15.917-17.627-6.758-2.743-14.179-2.689-20.896.149s-11.927 8.124-14.669 14.882a27.437 27.437 0 0 0-1.292 16.434l-6.531 6.631c-2.837-10.731-2.55-22.067.945-32.81 3.17-9.747 8.852-18.494 16.429-25.297l-10.021-11.162c-9.539 8.563-16.687 19.565-20.673 31.818-5.361 16.479-4.725 34.066 1.726 50.028l-18.398 23.593a54.761 54.761 0 0 0-39.472-5.433l-72.753 17.413 2.954 12.345-42.256 9.853 3.406 14.607 42.341-9.873 10.317 43.669-53.992 11.624-30.014-9.924-4.709 14.242 29.276 9.68 36.109 61.218-36.202 80.908-.98-2.827c-6.275-30.542 5.413-60.538 5.528-60.829l1.714-4.286-61.664-69.891c-7.64-8.66-10.103-20.397-6.586-31.397s12.33-19.133 23.577-21.756l30.286-7.062-3.406-14.607-30.286 7.062c-16.438 3.833-29.319 15.72-34.458 31.796-5.139 16.077-1.541 33.232 9.626 45.889l55.693 63.124c-3.396 10.378-10.561 37.317-4.605 65.509l.097.461 13.692 39.503 18.992-42.447c.086 4.507.343 9.221.84 14.068.609 5.937 1.537 11.633 2.77 17.087l-27.316 106.885 226.45.125-25.863-112.896 4.452-10.97a123.746 123.746 0 0 0 15.972 20.701l.571.598 64.897 43.279c1.359 1.689 4.236 6.316 8.457 18.457 1.352 3.89 4.347 9.509 4.347 9.509h29.478c0 .003 4.056-5.841 5.374-9.899zM332.541 106.634l21.317-21.644-2.123-4.688a12.197 12.197 0 0 1-.194-9.704c1.236-3.045 3.583-5.427 6.61-6.706s6.37-1.304 9.416-.066c5.028 2.04 8.162 7.229 7.62 12.62l-.917 9.128 9.128-.915.359-.039c13.472-1.688 25.01-10.546 30.112-23.116l.188-.464 30.377 12.327a58.378 58.378 0 0 1-2.787 17.625l-23.376 56.675-33.041-12.532c-3.712-1.507-6.615-4.368-8.174-8.058s-1.589-7.766-.082-11.478l-13.899-5.641c-3.013 7.424-2.955 15.577.165 22.958 2.92 6.908 8.195 12.364 14.947 15.505l-9.497 24.221-56.324-40.136zm-170.845 124.67 46.288-9.965.936 3.911-20.703 51.017zm-4.035 264.501 16.932-66.253c8.714 17.666 21.833 31.423 38.998 40.673l10.042 25.58zm188.31.125H239.797l-14.321-36.48-2.571-1.288c-26.208-13.127-41.365-37.509-45.05-72.468-1.799-17.069-.306-32.701 1.051-41.955l82.409 33.443-43.312 37.049 9.75 11.398 49.212-42.097 47.69 19.354zm101.479-30.757c-5.69-16.369-9.707-21.773-12.232-24.414l-.571-.598-65.009-43.354a108.59 108.59 0 0 1-18.965-27.703l11.457-28.233-13.899-5.641-21.265 52.403-144.034-58.451 35.485-87.441 67.505-16.157-3.491-14.588-58.166 13.921-18.384-77.697 57.965-13.873c11.565-2.768 23.668-.268 33.207 6.858l.094-.126 68.386 48.73 5.7 23.558c6.563 27.124 4.486 55.129-6.008 80.987l-11.268 27.766 13.899 5.641s12.114-29.958 12.53-31.057l8.981 47.631 56.839 59.433c2.826 2.953 5.203 6.138 7.067 9.465 9.283 16.571 10.946 34.35 4.941 52.841z" fill="#173e33" opacity="1" data-original="#000000" class=""></path></g></svg>