<svg xmlns="http://www.w3.org/2000/svg" xmlns:xlink="http://www.w3.org/1999/xlink" width="512" height="512" x="0" y="0" viewBox="0 0 64 64" style="enable-background:new 0 0 512 512" xml:space="preserve" class=""><g><path d="m62.025 22.892-4.181-1.644a17.521 17.521 0 0 1-8.617-7.333l-.008.005a.99.99 0 0 0-.248-.292c-4.993-3.787-9.851-1.634-13.046 1.926a30.223 30.223 0 0 0-6.94-6.791 2.429 2.429 0 0 0 .265-3.276 2.455 2.455 0 0 0-3.438-.438l-.02.015C17.64.063 11 .875 8.123 1.636a3.221 3.221 0 0 0-2.532-.449 2.755 2.755 0 0 0-2.4 3.079 2.457 2.457 0 0 0 2.073 1.828A17.408 17.408 0 0 0 8.991 9.3c1.969 1.434 4.165 3.041 5.277 4.79a2.447 2.447 0 0 0 3.438 3.426l.676-.516a16.768 16.768 0 0 1 4.664 6.994c-3.821-3.57-7.688-5.442-11.55-5.56A13.355 13.355 0 0 0 1.458 22.76 1 1 0 0 0 2.5 24.366c.075-.02 7.5-2.1 12.957 1.161 2.743 1.64 4.55 4.389 5.37 8.17 1.066 4.917.016 8.183-1.094 11.64-1.174 3.652-2.386 7.426-.771 12.952a3.071 3.071 0 0 0 1.744 4.311l.893.3a3.036 3.036 0 0 0 .983.161 3.065 3.065 0 0 0 2.7-1.6c8.791-.831 13.155-12.195 14.745-17.61 3.232 6.458 6.821 7.64 8.992 7.64a5.832 5.832 0 0 0 1.129-.109c2.034-.407 3.61-1.956 3.586-3.531a2.438 2.438 0 0 0-2.327-2.3c-1.648-.278-2.331-4.025-2.99-7.649-.98-5.376-2.2-12.007-7.23-14.248a6.072 6.072 0 0 1 2.341-5.334A15.7 15.7 0 0 0 56.7 25.492a15.983 15.983 0 0 0 2.924-.271l2.219-.415a1 1 0 0 0 .182-1.914zM10.168 7.686C8.673 6.6 7.126 5.47 6.755 4.709a1 1 0 0 0-.888-.561c-.43 0-.7-.18-.723-.306-.038-.172.265-.569.871-.7a1.086 1.086 0 0 1 1.044.214 1 1 0 0 0 1.086.357l.111-.037c2.286-.683 8.247-1.7 15.84 2.7L15.8 12.79a23.474 23.474 0 0 0-5.632-5.104zm6.314 8.25a.451.451 0 0 1-.552-.714l11.105-8.591a.452.452 0 0 1 .724.414.453.453 0 0 1-.171.3zm3.492-.173 7.35-5.686c5 3.011 9.136 9.481 11 12.749-6-.96-9.689 3.344-11.2 5.647a49.638 49.638 0 0 0-1.705-2.046c-.067-3.553-1.859-7.055-5.445-10.664zm4.583 43.746a1 1 0 0 0-.935.752 1.072 1.072 0 0 1-1.382.749l-.892-.3a1.071 1.071 0 0 1-.556-1.595l.095-.148a1 1 0 0 0 .113-.84c-1.62-5.158-.524-8.566.635-12.175 1.142-3.556 2.324-7.234 1.145-12.676-.942-4.343-3.061-7.527-6.3-9.462a16.7 16.7 0 0 0-8.568-2.125c-.684 0-1.336.031-1.94.08a10.74 10.74 0 0 1 5.491-1.337c4.907.164 9.946 3.673 14.977 10.428a1 1 0 0 0 .735.4 1.051 1.051 0 0 0 .783-.3 4.484 4.484 0 0 1 3.929-1.22c1.859.488 4.549 2.82 6.852 11.132C38.249 43 34.2 59.185 24.557 59.509zM46.446 38.27c.855 4.7 1.594 8.751 4.625 9.262.11.019.657.122.66.355.007.4-.668 1.277-1.977 1.538-1.194.236-5.366.294-9.04-8.912-2.066-7.544-4.873-11.822-8.346-12.715a5.4 5.4 0 0 0-2.141-.111A8.565 8.565 0 0 1 39.95 25.3c4.425 1.594 5.525 7.638 6.496 12.97zm-6.964-17.448a56.209 56.209 0 0 0-2.344-3.621c1.48-1.739 4.866-4.845 9-2.96-2.611 1.238-5.653 3.459-6.656 6.581zm5.642-3.7a17.881 17.881 0 0 1 2.845-1.475 19.52 19.52 0 0 0 9.144 7.464l.831.328a13.711 13.711 0 0 1-12.82-6.319z" data-name="27-banana" fill="#173e33" opacity="1" data-original="#000000" class=""></path></g></svg>