<svg width="55" height="55" viewBox="0 0 55 55" fill="none" xmlns="http://www.w3.org/2000/svg">
<g clip-path="url(#clip0_92_3784)">
<path d="M32.9788 30.3057C31.3462 31.7953 29.7796 33.2217 28.2159 34.651C25.8889 36.7749 23.5534 38.8931 21.2494 41.0399C20.9912 41.281 20.7875 41.7058 20.7645 42.0559C20.5493 45.4857 20.3772 48.9184 20.1907 52.351C20.1907 52.374 20.1907 52.3998 20.1907 52.4228C20.1218 53.2523 17.9642 55.0891 17.1464 54.9973C16.3918 54.9112 15.993 54.429 15.7348 53.7488C14.5125 50.517 13.2587 47.2968 12.0507 44.0593C11.8413 43.4967 11.5515 43.1753 10.9776 42.96C7.73828 41.7546 4.51615 40.5089 1.29115 39.2719C-0.180756 38.7065 -0.390209 37.5499 0.657055 36.3702C1.60103 35.3054 2.60525 34.7199 4.12881 34.7113C7.0841 34.697 10.0394 34.4329 12.9918 34.2464C13.2902 34.2263 13.6603 34.1 13.8526 33.8905C17.4133 30.0302 20.9482 26.1498 24.4916 22.2722C24.5375 22.2206 24.572 22.1574 24.6523 22.0369C24.4314 21.902 24.2219 21.7642 24.0039 21.6437C17.0145 17.7805 10.0222 13.9173 3.03277 10.0542C1.22516 9.05536 1.0071 7.51411 2.46753 6.05035C2.93808 5.57678 3.42872 5.12044 3.88205 4.62965C4.59075 3.86046 5.44291 3.70834 6.42992 3.92647C9.26757 4.55502 12.1081 5.17784 14.9572 5.76621C15.2384 5.82361 15.6516 5.69159 15.8696 5.49642C16.5812 4.865 17.2325 4.15895 17.9097 3.48734C19.0602 2.34791 20.6383 2.24171 21.6827 3.22903C22.75 4.23644 22.75 5.68585 21.6827 6.93722C21.6368 6.99175 21.6023 7.05202 21.499 7.20414C22.7385 7.47967 23.9436 7.70641 25.1229 8.03073C25.7684 8.20581 26.1931 8.0623 26.6034 7.5629C26.9649 7.12091 27.401 6.73918 27.8113 6.34024C28.7696 5.41032 30.0407 5.24959 31.0794 5.91833C32.1151 6.58707 32.4967 7.82982 32.0405 9.06971C32.0004 9.17878 31.9545 9.28497 31.877 9.46866C33.0935 9.73845 34.2699 10.0197 35.4578 10.235C35.6385 10.2694 35.9111 10.0312 36.0833 9.86187C38.0487 7.91306 40.0055 5.95277 41.9623 3.99248C44.0683 1.88582 46.5875 0.582786 49.5227 0.0776462C52.7477 -0.476286 55.4964 2.2905 54.9369 5.52225C54.4204 8.51578 53.0489 11.0472 50.9085 13.1797C48.9976 15.0826 47.1039 17.0027 45.1758 18.8912C44.8229 19.2357 44.7311 19.5485 44.8487 20.0163C45.1069 21.0295 45.3135 22.0541 45.5201 22.9898C46.2116 22.9381 46.8572 22.7602 47.454 22.8664C49.4309 23.2194 50.1855 25.5241 48.8484 27.0252C48.309 27.6307 47.7036 28.1761 47.1441 28.7616C47.0236 28.8879 46.8572 29.0916 46.8859 29.2265C47.1699 30.6415 47.4913 32.0507 47.8212 33.5661C48.5557 32.8371 49.3161 32.4095 50.2601 32.553C51.2557 32.7051 51.9873 33.2447 52.3259 34.209C52.6616 35.1591 52.5153 36.0603 51.818 36.8065C51.0663 37.6073 50.2486 38.3449 49.5141 39.1571C49.319 39.3724 49.1984 39.7914 49.2558 40.0727C49.8412 42.9198 50.4638 45.7613 51.0921 48.5998C51.3102 49.59 51.1323 50.4367 50.3691 51.1427C49.8785 51.5962 49.4222 52.0841 48.946 52.5548C47.5056 53.9841 45.9505 53.7746 44.975 52.0124C41.9279 46.5046 38.8865 40.994 35.8423 35.4834C34.9098 33.7929 33.9744 32.1024 32.9845 30.3086L32.9788 30.3057Z" fill="#5EA550"/>
</g>
<defs>
<clipPath id="clip0_92_3784">
<rect width="55" height="55" fill="white"/>
</clipPath>
</defs>
</svg>
