<svg xmlns="http://www.w3.org/2000/svg" width="1em" height="1em" viewBox="0 0 24 24"><path d="M23.448 7.248h-3.24v-1.032c0-0.528-0.432-0.96-0.96-0.96h-11.784c-0.528 0-0.96 0.432-0.96 0.96v2.304h-3.048c0 0 0 0 0 0-0.192 0-0.384 0.096-0.48 0.264l-1.56 2.736h-0.864c-0.312 0-0.552 0.24-0.552 0.552v4.416c0 0.288 0.24 0.552 0.552 0.552h1.032c0.264 1.032 1.176 1.728 2.208 1.728 0.144 0 0.288-0.024 0.432-0.048 0.888-0.168 1.584-0.816 1.8-1.68h1.032c0.048 0 0.12-0.024 0.168-0.024 0.072 0.024 0.168 0.024 0.24 0.024h5.040c0.288 1.176 1.44 1.92 2.64 1.68 0.888-0.168 1.584-0.816 1.8-1.68h2.328c0.528 0 0.96-0.432 0.96-0.96v-3.48h2.4c0.312 0 0.552-0.24 0.552-0.552s-0.24-0.552-0.552-0.552h-2.4v-1.032h0.288c0.312 0 0.552-0.24 0.552-0.552s-0.24-0.552-0.552-0.552h-0.288v-1.032h3.24c0.312 0 0.552-0.24 0.552-0.552-0.024-0.288-0.264-0.528-0.576-0.528zM16.848 7.8c0 0.312 0.24 0.552 0.552 0.552h1.728v1.032h-4.68c-0.312 0-0.552 0.24-0.552 0.552s0.24 0.552 0.552 0.552h4.656v1.032h-2.568c-0.144 0-0.288 0.048-0.384 0.168-0.096 0.096-0.168 0.24-0.168 0.384 0 0.312 0.24 0.552 0.552 0.552h2.544v3.312h-2.16c-0.144-0.552-0.456-1.008-0.936-1.344-0.504-0.336-1.104-0.48-1.704-0.36-0.888 0.168-1.584 0.816-1.8 1.68l-4.92-0.024 0.024-9.552 11.496 0.024v0.888h-1.728c-0.264 0-0.504 0.24-0.504 0.552zM14.712 15.288c0.648 0 1.2 0.528 1.2 1.2 0 0.648-0.528 1.2-1.2 1.2-0.648 0-1.2-0.528-1.2-1.2 0.024-0.672 0.552-1.2 1.2-1.2zM3.792 15.288c0.648 0 1.2 0.528 1.2 1.2 0 0.648-0.528 1.2-1.2 1.2s-1.2-0.528-1.2-1.2c0.024-0.672 0.552-1.2 1.2-1.2zM6.48 12.6v3.312h-0.48c-0.144-0.552-0.456-1.008-0.936-1.344-0.504-0.336-1.104-0.48-1.704-0.36-0.888 0.168-1.584 0.816-1.8 1.68h-0.48v-3.288h5.4zM6.48 9.624v1.896h-3.792l1.080-1.872h2.712z"></path></svg>