<svg xmlns="http://www.w3.org/2000/svg" xmlns:xlink="http://www.w3.org/1999/xlink" width="512" height="512" x="0" y="0" viewBox="0 0 64 64" style="enable-background:new 0 0 512 512" xml:space="preserve" class=""><g><path d="M55 34a23.024 23.024 0 0 0-12.807-20.611A7.633 7.633 0 0 0 43 10c0-4.963-4.935-9-11-9s-11 4.037-11 9a7.637 7.637 0 0 0 .808 3.389A23.023 23.023 0 0 0 9 34a19.431 19.431 0 0 0 1 6.162l1.046 3.138A5.481 5.481 0 0 0 15.5 52h.868A20.136 20.136 0 0 0 27.78 62.269a12.546 12.546 0 0 0 8.44 0A20.136 20.136 0 0 0 47.632 52h.868a5.481 5.481 0 0 0 4.454-8.7L54 40.162A19.431 19.431 0 0 0 55 34zM23 10c0-3.859 4.038-7 9-7s9 3.141 9 7a5.582 5.582 0 0 1-.641 2.579 22.913 22.913 0 0 0-16.717 0A5.571 5.571 0 0 1 23 10zm-7.5 40a3.491 3.491 0 0 1-1.158-6.788l.047.984A20.285 20.285 0 0 0 15.527 50zm20.047 10.386a10.609 10.609 0 0 1-7.094 0A18.153 18.153 0 0 1 16.387 44.1l-.329-6.9A24.694 24.694 0 0 0 32 25.215 24.694 24.694 0 0 0 47.942 37.2l-.329 6.9a18.153 18.153 0 0 1-12.066 16.286zM48.5 50h-.027a20.285 20.285 0 0 0 1.138-5.8l.047-.984A3.491 3.491 0 0 1 48.5 50zm3.6-10.471-.762 2.285a5.462 5.462 0 0 0-1.585-.664l.168-3.53 1.46.294.4-1.961-2.738-.553A22.676 22.676 0 0 1 32.91 22.586a1 1 0 0 0-1.82 0A22.676 22.676 0 0 1 14.957 35.4l-2.736.551.395 1.961 1.46-.294.168 3.53a5.462 5.462 0 0 0-1.585.664l-.759-2.283A17.461 17.461 0 0 1 11 34a21 21 0 0 1 42 0 17.461 17.461 0 0 1-.9 5.529z" fill="#173e33" opacity="1" data-original="#000000" class=""></path><path d="M25 46a4.726 4.726 0 0 0 3.941-2.109l.891-1.336-1.664-1.11-.891 1.336a2.736 2.736 0 0 1-4.554 0l-.891-1.336-1.664 1.11.891 1.336A4.726 4.726 0 0 0 25 46zM42.941 43.891l.891-1.336-1.664-1.11-.891 1.336a2.736 2.736 0 0 1-4.554 0l-.891-1.336-1.664 1.11.891 1.336a4.737 4.737 0 0 0 7.882 0zM30.707 49.293l-1.414 1.414.292.293a3.415 3.415 0 0 0 4.829 0l.293-.293-1.414-1.414-.293.293a1.447 1.447 0 0 1-2 0zM28 54h8v2h-8zM20 48h2v2h-2zM24 50h2v2h-2zM45 39h2v2h-2zM30 30h2v2h-2zM39 36h2v2h-2zM18 39h2v2h-2zM29 36h2v2h-2zM40 52h2v2h-2zM34 46h2v2h-2zM27 57h2v2h-2zM42 47h2v2h-2z" fill="#173e33" opacity="1" data-original="#000000" class=""></path></g></svg>