<svg id="Layer_1" data-name="Layer 1" xmlns="http://www.w3.org/2000/svg" viewBox="0 0 483.71 96.32"><defs><style>.cls-1{fill:#25582c;}</style></defs><path class="cls-1" d="M67.66,93.42,56.27,56.63,44.87,93.42H8l29.83,22.73L26.44,152.94,56.27,130.2,86.1,152.94,74.7,116.15l29.84-22.73Zm96.8,0-11.4-36.79L141.67,93.42H104.79l29.84,22.73-11.4,36.79,29.83-22.74,29.84,22.74-11.4-36.79,29.83-22.73Zm96.79,0L249.86,56.63l-11.4,36.79H201.59l29.83,22.73L220,152.94l29.84-22.74,29.83,22.74-11.4-36.79,29.83-22.73Zm96.8,0-11.4-36.79L335.26,93.42H298.38l29.84,22.73-11.4,36.79,29.83-22.74,29.83,22.74-11.39-36.79,29.83-22.73Zm85.4-36.79-11.4,36.79H395.18L425,116.15l-11.4,36.79,29.84-22.74,29.83,22.74-11.4-36.79,29.83-22.73H454.84Z" transform="translate(-8 -56.63)"/></svg>