<svg xmlns="http://www.w3.org/2000/svg" version="1.1" xmlns:xlink="http://www.w3.org/1999/xlink" width="512" height="512" x="0" y="0" viewBox="0 0 490 490" style="enable-background:new 0 0 512 512" xml:space="preserve" class="hovered-paths"><g><path d="m60.44 233.482-11.545-37.267-11.544 37.267H0l30.22 23.031-11.544 37.272 30.219-23.041 30.22 23.041-11.544-37.272 30.22-23.031zM158.492 233.482l-11.544-37.267-11.545 37.267H98.052l30.22 23.031-11.544 37.272 30.22-23.041 30.22 23.041-11.545-37.272 30.22-23.031zM256.544 233.482 245 196.215l-11.544 37.267h-37.352l30.22 23.031-11.544 37.272L245 270.744l30.22 23.041-11.544-37.272 30.219-23.031zM354.596 233.482l-11.544-37.267-11.544 37.267h-37.351l30.22 23.031-11.545 37.272 30.22-23.041 30.22 23.041-11.544-37.272 30.22-23.031zM441.105 196.215l-11.545 37.267h-37.351l30.22 23.031-11.544 37.272 30.22-23.041 30.219 23.041-11.544-37.272L490 233.482h-37.351z" fill="#225824" opacity="1" data-original="#000000" class="hovered-path"></path></g></svg>