<svg xmlns="http://www.w3.org/2000/svg" width="20.525" height="20.524" viewBox="0 0 20.525 20.524">
  <g id="Group_2176" data-name="Group 2176" transform="translate(-170.647 -223.432)">
    <path id="Path_9252" data-name="Path 9252" d="M185.869,232.4a2.854,2.854,0,0,1-4.962,0,2.841,2.841,0,0,1-4.955-.012,3.061,3.061,0,0,1-1.125,1.112,2.783,2.783,0,0,1-4.115-2.02,21.686,21.686,0,0,1-.055-2.586.812.812,0,0,1,.1-.3q1.046-2.423,2.094-4.845a.475.475,0,0,1,.5-.316q7.562.007,15.124,0a.49.49,0,0,1,.511.334q1.026,2.388,2.062,4.772a2.579,2.579,0,0,1,.1.275.3.3,0,0,1-.25.411,4.8,4.8,0,0,1-.639.032q-8.444,0-16.887,0c-.071,0-.169.022-.208-.015a.818.818,0,0,1-.264-.347c-.04-.179.107-.291.283-.322a1.7,1.7,0,0,1,.293-.007h16.8a.527.527,0,0,0-.016-.133c-.593-1.37-1.191-2.737-1.78-4.109a.293.293,0,0,0-.322-.2q-7.241.006-14.482,0a.311.311,0,0,0-.333.225c-.639,1.485-1.285,2.968-1.924,4.454a.888.888,0,0,0-.067.335c-.006.65-.009,1.3,0,1.95a2.125,2.125,0,0,0,4.227.263,1.175,1.175,0,0,1,.054-.366.607.607,0,0,1,.289-.289.282.282,0,0,1,.36.231,1.093,1.093,0,0,1,.034.236,2.125,2.125,0,0,0,4.235.088c.006-.062.013-.124.02-.186.024-.206.1-.362.343-.363s.313.149.348.358a3.707,3.707,0,0,0,.179.8,2.122,2.122,0,0,0,4.078-.719c.018-.3.133-.443.356-.44.271,0,.326.183.345.412a2.151,2.151,0,0,0,1.645,2,2.1,2.1,0,0,0,2.353-1.058,2.862,2.862,0,0,0,.258-.885c.053-.334.139-.48.383-.466s.341.188.316.517A2.824,2.824,0,0,1,186,232.592C185.96,232.535,185.923,232.476,185.869,232.4Z" fill="#fff"/>
    <path id="Path_9253" data-name="Path 9253" d="M194.216,390.422h-7.374a1.726,1.726,0,0,1-1.866-1.863q0-3.446,0-6.893c0-.088-.022-.205.024-.259.088-.1.221-.238.331-.234s.233.147.314.256c.044.058.015.172.015.261q0,3.447,0,6.893a1.031,1.031,0,0,0,1.132,1.146h14.829a1.034,1.034,0,0,0,1.142-1.138q0-3.447,0-6.893a2.172,2.172,0,0,1,0-.24.309.309,0,0,1,.316-.3.314.314,0,0,1,.355.288,1.489,1.489,0,0,1,.01.24q0,3.433,0,6.866a1.729,1.729,0,0,1-1.885,1.871Z" transform="translate(-13.301 -146.466)" fill="#fff"/>
    <path id="Path_9254" data-name="Path 9254" d="M227.759,465.016h-6.09a2.409,2.409,0,0,1-.293-.008.306.306,0,0,1-.287-.327.3.3,0,0,1,.284-.326,2.4,2.4,0,0,1,.267-.009h12.234c.4,0,.555.1.545.346s-.165.325-.542.325Z" transform="translate(-46.84 -223.716)" fill="#fff"/>
    <path id="Path_9255" data-name="Path 9255" d="M375.17,397.843c0,.4,0,.8,0,1.193,0,.287-.129.452-.342.447s-.344-.176-.346-.456c0-.766,0-1.531,0-2.3,0-.2.045-.38.263-.442s.331.06.437.223c.277.424.562.844.845,1.265.033.049.071.093.156.2,0-.414,0-.756,0-1.1,0-.08,0-.16,0-.24,0-.221.109-.358.338-.362a.31.31,0,0,1,.34.333c.008.846.013,1.692-.009,2.537a.423.423,0,0,1-.266.3.459.459,0,0,1-.369-.171c-.286-.385-.541-.794-.808-1.193-.059-.088-.121-.173-.181-.26Z" transform="translate(-189.283 -160.503)" fill="#fff"/>
    <path id="Path_9256" data-name="Path 9256" d="M224.2,397.9a1.606,1.606,0,1,1-1.614-1.595A1.591,1.591,0,0,1,224.2,397.9Zm-1.572-.906a.911.911,0,0,0-.954.874.926.926,0,1,0,.954-.874Z" transform="translate(-46.749 -160.533)" fill="#fff"/>
    <path id="Path_9257" data-name="Path 9257" d="M327.91,398.244v.548c.423,0,.839-.015,1.252.009a.563.563,0,0,1,.377.184.323.323,0,0,1-.287.492c-.56.017-1.121.014-1.681,0a.349.349,0,0,1-.359-.384c0-.818-.006-1.637,0-2.455a.339.339,0,0,1,.371-.367c.543,0,1.085,0,1.628,0,.22,0,.364.1.371.329a.324.324,0,0,1-.357.348c-.373.012-.747,0-1.121.007-.06,0-.119.011-.191.017v.547c.242,0,.479,0,.715,0,.277,0,.447.144.445.353s-.158.331-.453.335l-.64.006A.3.3,0,0,0,327.91,398.244Z" transform="translate(-145.385 -160.501)" fill="#fff"/>
    <path id="Path_9258" data-name="Path 9258" d="M280.7,398.592c0,.181,0,.33,0,.479a.345.345,0,1,1-.688,0c0-.827,0-1.655,0-2.482a.326.326,0,0,1,.351-.354c.329-.005.66-.016.987.009a1.179,1.179,0,0,1-.072,2.346C281.1,398.6,280.919,398.592,280.7,398.592Zm.011-.672c.337-.046.692.108.914-.257a.444.444,0,0,0-.028-.543c-.24-.31-.571-.178-.887-.2Z" transform="translate(-101.551 -160.461)" fill="#fff"/>
  </g>
</svg>
