<svg xmlns="http://www.w3.org/2000/svg" xmlns:xlink="http://www.w3.org/1999/xlink" width="512" height="512" x="0" y="0" viewBox="0 0 32 32" style="enable-background:new 0 0 512 512" xml:space="preserve" class=""><g><path d="M26.5 16a2.503 2.503 0 0 1-2.5-2.5c0-1.9 2.038-4.232 2.125-4.331a.517.517 0 0 1 .75 0C26.962 9.268 29 11.6 29 13.5c0 1.378-1.122 2.5-2.5 2.5zm0-5.708c-.615.804-1.5 2.186-1.5 3.208 0 .827.673 1.5 1.5 1.5s1.5-.673 1.5-1.5c0-1.022-.885-2.404-1.5-3.208zM17.5 17h-6.75c-2.13 0-3.935-.831-5.251-1.438C4.872 15.273 4.279 15 4 15a.5.5 0 0 1 0-1c.499 0 1.094.274 1.917.654C7.15 15.222 8.839 16 10.75 16h6.75a.5.5 0 0 1 0 1zM1.5 6a.5.5 0 0 1 0-1c2.755 0 4.545-1.428 5.983-2.576.889-.709 1.657-1.322 2.467-1.421L14.75 1a.5.5 0 0 1 0 1h-4.74c-.468.061-1.133.591-1.904 1.206C6.629 4.385 4.605 6 1.5 6zM27.498 7.916a.5.5 0 0 1-.166-.972A1.002 1.002 0 0 0 27 5h-9.25a.5.5 0 0 1 0-1H27c1.103 0 2 .897 2 2 0 .848-.537 1.606-1.336 1.887a.484.484 0 0 1-.166.029z" fill="#173e33" opacity="1" data-original="#000000" class=""></path><path d="M17.5 17a.5.5 0 0 1 0-1c.551 0 1-.449 1-1s-.449-1-1-1a.5.5 0 0 1 0-1h.75c.551 0 1-.449 1-1s-.449-1-1-1a.5.5 0 0 1 0-1H19c.551 0 1-.449 1-1s-.449-1-1-1a.5.5 0 0 1 0-1h6.5a.5.5 0 0 1 0 1h-4.769a2.003 2.003 0 0 1-.876 2.808c.248.333.395.746.395 1.192 0 .797-.469 1.487-1.145 1.808A2.002 2.002 0 0 1 17.5 17zM11.5 17h-.75c-2.13 0-3.935-.831-5.251-1.438C4.872 15.273 4.279 15 4 15H1.5a.5.5 0 0 1 0-1H4c.499 0 1.094.274 1.917.654C7.15 15.222 8.839 16 10.75 16h.75a.5.5 0 0 1 0 1z" fill="#173e33" opacity="1" data-original="#000000" class=""></path><path d="M17.5 17h-2.25c-1.103 0-2-.897-2-2a.5.5 0 0 1 1 0c0 .551.449 1 1 1h2.25c.551 0 1-.449 1-1a.5.5 0 0 1 1 0c0 1.103-.897 2-2 2zM18.25 14H14.5c-1.103 0-2-.897-2-2a.5.5 0 0 1 1 0c0 .551.449 1 1 1h3.75a.5.5 0 0 1 0 1zM8.75 10.25a.5.5 0 0 1 0-1A3.254 3.254 0 0 0 12 6V4.5a.5.5 0 0 1 .5-.5h2a.5.5 0 0 1 0 1H13v1a4.255 4.255 0 0 1-4.25 4.25z" fill="#173e33" opacity="1" data-original="#000000" class=""></path><path d="M19 11h-4.5a2.002 2.002 0 0 1-1.209-3.594.501.501 0 0 1 .606.796A1.002 1.002 0 0 0 14.5 10H19c.551 0 1-.449 1-1s-.449-1-1-1a.5.5 0 0 1 0-1c1.103 0 2 .897 2 2s-.897 2-2 2z" fill="#173e33" opacity="1" data-original="#000000" class=""></path><path d="M17.5 8.5h-.75A2.752 2.752 0 0 1 14 5.75V4.5a.5.5 0 1 1 1 0v1.25c0 .965.785 1.75 1.75 1.75H17v-3C17 3.122 15.878 2 14.5 2a.5.5 0 0 1 0-1C16.43 1 18 2.57 18 4.5V8a.5.5 0 0 1-.5.5zM27.5 31h-2c-1.93 0-3.5-1.57-3.5-3.5v-5c0-1.93 1.57-3.5 3.5-3.5h2c1.93 0 3.5 1.57 3.5 3.5v5c0 1.93-1.57 3.5-3.5 3.5zm-2-11a2.503 2.503 0 0 0-2.5 2.5v5c0 1.378 1.122 2.5 2.5 2.5h2c1.378 0 2.5-1.122 2.5-2.5v-5c0-1.378-1.122-2.5-2.5-2.5z" fill="#173e33" opacity="1" data-original="#000000" class=""></path><path d="M26.5 20a.5.5 0 0 1-.5-.5v-2a.5.5 0 0 1 1 0v2a.5.5 0 0 1-.5.5zM27.5 27h-2c-.827 0-1.5-.673-1.5-1.5v-3c0-.827.673-1.5 1.5-1.5h2c.827 0 1.5.673 1.5 1.5v3c0 .827-.673 1.5-1.5 1.5zm-2-5a.5.5 0 0 0-.5.5v3a.5.5 0 0 0 .5.5h2a.5.5 0 0 0 .5-.5v-3a.5.5 0 0 0-.5-.5zM27.6 29c-.276 0-.55-.224-.55-.5s.174-.5.45-.5h.1a.5.5 0 0 1 0 1zM25.5 29h-.1a.5.5 0 0 1 0-1c.276 0 .55.224.55.5s-.174.5-.45.5zM25.6 31H14.5a.5.5 0 0 1 0-1h11.1a.5.5 0 0 1 0 1zM12.5 31c-.276 0-.55-.224-.55-.5s.174-.5.45-.5h.1a.5.5 0 0 1 0 1z" fill="#173e33" opacity="1" data-original="#000000" class=""></path></g></svg>