<?xml version="1.0" encoding="UTF-8"?>
<svg id="Layer_1" data-name="Layer 1" xmlns="http://www.w3.org/2000/svg" viewBox="0 0 136.33 37.34">
  <defs>
    <style>
      .cls-1 {
        fill: #fff;
      }

      .cls-2 {
        fill: #135730;
        stroke: #135730;
      }

      .cls-2, .cls-3 {
        stroke-miterlimit: 10;
      }

      .cls-3 {
        fill: #7ea94f;
        stroke: #7ea951;
      }
    </style>
  </defs>
  <polygon class="cls-3" points=".95 .5 135.12 .5 116.73 18.67 135.12 36.84 .95 36.84 .95 .5"/>
  <g>
    <path class="cls-1" d="m49.27,26.81v-14.87h-3.83v-2.62h10.42v2.62h-3.82v14.87h-2.77Z"/>
    <path class="cls-1" d="m65.95,20.19c0,.63-.03,1.19-.1,1.68h-7.25c.03.95.27,1.68.72,2.2.45.52,1.09.78,1.93.78,1.15,0,1.87-.47,2.15-1.42h2.4c-.17,1.18-.64,2.1-1.41,2.74-.77.64-1.82.96-3.14.96-1.67,0-2.96-.53-3.86-1.59s-1.36-2.55-1.36-4.49.45-3.44,1.35-4.52,2.15-1.62,3.75-1.62,2.76.48,3.59,1.45c.83.97,1.24,2.25,1.24,3.85Zm-7.35-.32h4.77c0-1.93-.76-2.9-2.27-2.9-.77,0-1.37.25-1.81.76-.44.51-.67,1.22-.69,2.14Z"/>
    <path class="cls-1" d="m72.62,27.11c-1.33,0-2.42-.38-3.26-1.12-.84-.75-1.26-1.66-1.26-2.72h2.67c0,.5.18.91.54,1.24.36.33.82.49,1.39.49.48,0,.86-.12,1.12-.38s.4-.59.4-1.03c0-.68-.37-1.14-1.1-1.38l-2.28-.7c-.8-.25-1.41-.66-1.84-1.23-.42-.57-.64-1.23-.64-2,0-.95.38-1.75,1.14-2.41.76-.66,1.75-.99,2.99-.99,1.33,0,2.37.34,3.1,1.01.73.68,1.1,1.54,1.1,2.59h-2.65c0-1.05-.53-1.57-1.6-1.57-.45,0-.82.11-1.11.34s-.44.52-.44.89c0,.63.38,1.07,1.12,1.32l2.38.83c.77.25,1.36.65,1.78,1.2.42.55.62,1.17.62,1.85,0,1.13-.36,2.05-1.08,2.74s-1.75,1.04-3.1,1.04Z"/>
    <path class="cls-1" d="m84.2,24.54c.22,0,.47-.02.78-.08v2.35c-.53.1-1.03.15-1.5.15-1.05,0-1.86-.31-2.44-.92-.58-.62-.86-1.49-.86-2.62v-6.02h-1.6v-2.2h1.6v-3.55h2.65v3.55h2v2.2h-2v5.38c0,1.18.46,1.77,1.38,1.77Z"/>
    <path class="cls-1" d="m96.92,20.19c0,.63-.03,1.19-.1,1.68h-7.25c.03.95.27,1.68.72,2.2.45.52,1.09.78,1.92.78,1.15,0,1.87-.47,2.15-1.42h2.4c-.17,1.18-.64,2.1-1.41,2.74-.77.64-1.82.96-3.14.96-1.67,0-2.95-.53-3.86-1.59s-1.36-2.55-1.36-4.49.45-3.44,1.35-4.52c.9-1.08,2.15-1.62,3.75-1.62s2.76.48,3.59,1.45c.83.97,1.24,2.25,1.24,3.85Zm-7.35-.32h4.77c0-1.93-.76-2.9-2.27-2.9-.77,0-1.37.25-1.81.76-.44.51-.67,1.22-.69,2.14Z"/>
    <path class="cls-1" d="m109.8,15.19h.03v11.62h-2.65v-1.75c-.65,1.37-1.76,2.05-3.32,2.05-1.43,0-2.59-.56-3.46-1.68-.88-1.12-1.31-2.6-1.31-4.45s.44-3.31,1.31-4.43c.88-1.12,2.03-1.67,3.46-1.67,1.57,0,2.67.67,3.32,2.02v-1.1h-.02v-6.5h2.65v5.88Zm-5.35,9.58c.88,0,1.57-.33,2.05-.99s.73-1.59.73-2.79-.24-2.1-.73-2.76c-.48-.66-1.17-.99-2.05-.99s-1.54.33-2.01.98c-.47.65-.71,1.58-.71,2.78s.24,2.13.71,2.79c.48.66,1.15.99,2.01.99Z"/>
  </g>
  <rect class="cls-2" x=".5" y=".5" width="36.11" height="36.34"/>
  <g>
    <path class="cls-1" d="m30.29,9.21c-.38-.38-.99-.38-1.36,0l-11.55,11.52-4.17-4.52c-.36-.39-.97-.42-1.36-.06-.39.36-.42.97-.06,1.36l4.84,5.26c.18.19.43.3.69.31,0,0,.01,0,.02,0,.25,0,.5-.1.68-.28l12.25-12.22c.38-.38.38-.98,0-1.36Z"/>
    <path class="cls-1" d="m30.06,17.53c-.53,0-.96.43-.96.96,0,5.98-4.86,10.84-10.84,10.84s-10.84-4.86-10.84-10.84,4.86-10.84,10.84-10.84c.53,0,.96-.43.96-.96s-.43-.96-.96-.96c-7.04,0-12.77,5.73-12.77,12.77s5.73,12.77,12.77,12.77,12.77-5.73,12.77-12.77c0-.53-.43-.96-.96-.96Z"/>
  </g>
</svg>