<svg xmlns="http://www.w3.org/2000/svg" width="695" height="471" viewBox="0 0 695 471" fill="none"><path d="M674.436 0H479.95C479.95 0 471.437 0.355602 467.306 10.4094C463.175 20.4525 461.794 23.4158 461.794 23.4158L459.786 28.0279C459.786 28.0279 457.663 36.7778 442.509 36.3037C430.766 35.9373 208.856 36.1529 109.563 36.2606C108.787 36.2929 26.144 36.3145 25.1284 36.3145C2.16821 36.3145 0.136939 51.6269 0 55.6355V451.593C0 462.304 9.19776 471 20.5523 471H674.448C685.791 471 695 462.315 695 451.593V19.4072C695 8.69608 685.802 0 674.448 0H674.436Z" fill="#F5F5F5"></path></svg>