<svg xmlns="http://www.w3.org/2000/svg" width="203" height="203" viewBox="0 0 203 203" fill="none"><path opacity="0.9" d="M177.304 48.3149L177.316 48.4597L177.448 48.5205L190.593 54.5769L188.213 68.8644L188.189 69.0076L188.302 69.0993L199.514 78.2314L193.639 91.4846L193.58 91.6175L193.666 91.7345L202.266 103.376L193.284 114.761L193.195 114.875L193.249 115.009L198.676 128.427L187.15 137.224L187.035 137.312L187.054 137.456L188.963 151.808L175.62 157.463L175.486 157.52L175.469 157.663L173.75 172.053L159.425 174.212L159.282 174.234L159.229 174.369L153.984 187.88L139.575 186.417L139.431 186.402L139.347 186.52L130.906 198.3L117.33 193.3L117.194 193.25L117.083 193.343L105.986 202.665L94.0807 194.44L93.9612 194.358L93.8303 194.42L80.7616 200.696L71.2775 189.766L71.1823 189.656L71.0398 189.685L56.8217 192.516L50.3665 179.57L50.3016 179.44L50.1564 179.432L35.6973 178.64L32.6625 164.478L32.632 164.335L32.4933 164.292L18.6886 159.939L19.2656 145.469L19.2714 145.324L19.1481 145.247L6.8681 137.587L11.039 123.707L11.0809 123.568L10.9806 123.463L0.992865 112.985L8.47094 100.579L8.54586 100.455L8.47509 100.328L1.41867 87.6952L11.7514 77.5255L11.8548 77.4237L11.8178 77.2835L8.12229 63.2888L20.6533 56.0038L20.7786 55.931L20.7776 55.786L20.6808 41.3104L34.6218 37.3639L34.7612 37.3244L34.7963 37.1839L38.3101 23.1267L52.7936 22.7735L52.9385 22.7699L53.0075 22.6424L59.897 9.89814L74.0002 13.1579L74.1415 13.1906L74.24 13.0841L84.0886 2.44004L96.9311 9.10995L97.0599 9.17682L97.1818 9.0982L109.369 1.24124L120.15 10.8906L120.258 10.9874L120.396 10.9414L134.139 6.34822L142.17 18.3868L142.251 18.5078L142.396 18.4975L156.855 17.469L161.632 31.1294L161.68 31.2668L161.823 31.2929L176.066 33.8857L177.304 48.3149Z" stroke="#5DC548" stroke-width="0.5"></path></svg>