<svg width="1095" height="47" viewBox="0 0 1095 47" fill="none" xmlns="http://www.w3.org/2000/svg">
<path d="M1087.21 0H855.994C855.994 0 852.769 0.0873344 851.204 2.55652C849.638 5.02305 849.115 5.75084 849.115 5.75084L848.354 6.88354C848.354 6.88354 847.55 9.0325 841.808 8.91605C837.359 8.82607 48.1549 8.879 10.5329 8.90547C10.2389 8.91341 9.90598 8.9187 9.52116 8.9187C0.821535 8.9187 0.0518864 12.6794 0 13.6639V42.2336C0 44.8643 3.48504 47 7.78729 47H1087.21C1091.51 47 1095 44.8669 1095 42.2336V4.76634C1095 2.13572 1091.51 0 1087.21 0H1087.21Z" fill="#5EA550"/>
</svg>
