<svg width="290" height="290" viewBox="0 0 290 290" fill="none" xmlns="http://www.w3.org/2000/svg">
<path d="M260.027 78.1213C259.303 78.1615 258.592 78.175 257.867 78.175C257.21 78.175 256.552 78.1481 255.895 78.1213C255.774 78.1213 255.694 78.1347 255.694 78.1347V78.1079C232.416 76.9809 213.861 57.7424 213.861 34.1571C213.861 33.3253 213.888 32.4935 213.941 31.6752C213.888 23.8268 211.405 0 182.922 0H52.365C23.573 0.013416 0 23.5853 0 52.376V237.637C0 266.442 23.573 290 52.365 290H237.635C266.44 290 290 266.428 290 237.637V112.372C289.893 111.5 289.826 110.427 289.826 109.059C289.826 82.5754 269.218 78.564 260.014 78.0945L260.027 78.1213Z" fill="#EBF9DD" fill-opacity="0.86"/>
</svg>
